M48
;Layer_Color=9474304
;FILE_FORMAT=2:4
INCH,TZ
;TYPE=PLATED
T1F00S00C0.0120
T3F00S00C0.0350
T4F00S00C0.0450
T5F00S00C0.0600
%
T01
X4850Y750
Y1750
Y2750
Y3750
Y4750
Y5750
Y6750
Y7750
Y8750
Y9750
Y10750
Y11750
Y12750
Y13750
X7650
Y12750
Y11750
Y10750
Y9750
Y8750
Y7750
Y6750
Y5750
Y4750
Y3750
Y2750
Y1750
X3000Y18750
X2000
X1300Y18950
X900
X500
Y19350
Y19750
Y20150
Y20550
Y20950
Y21350
Y25550
Y26350
Y27150
Y27950
Y28750
Y29550
X2250Y28000
Y26500
Y24750
X4250
X4900Y24850
Y25250
Y25650
Y26050
Y26450
Y26850
Y27250
Y27650
Y28050
Y28450
X4250Y28000
Y26500
X4900Y24450
Y24050
Y23650
Y23250
Y22850
Y22450
X8000Y22500
X8750Y23000
X9500Y23500
X10250Y24000
X11500Y21750
X10500Y18750
X9500
X7650Y15750
Y14750
X4850
X5500Y29250
X7500
X8250Y28750
X9000Y28250
X9750Y27750
X10500Y27250
X11500Y32000
X11250Y34250
X9850Y33750
X8500Y34250
X8250Y32500
X7450
X6750Y30500
X4250Y31000
X3450
X3500Y34250
X4500
X5750
Y35500
X4500Y37000
X3500
X1500Y35500
Y34250
X1250Y32500
X500Y31750
Y30350
T03
X4250Y750
Y1750
Y2750
Y3750
Y4750
Y5750
Y6750
Y7750
Y8750
Y9750
Y10750
Y11750
Y12750
Y13750
X8250
Y12750
Y11750
Y10750
Y9750
Y8750
Y7750
Y6750
Y5750
Y4750
Y3750
Y2750
Y1750
Y750
Y14750
Y15750
Y16750
Y17750
X4250
Y16750
Y15750
Y14750
T04
X3500Y35250
X4500
Y36250
X3500
X2500
Y35250
T05
X2200Y22750
Y23550
X4200Y23150
M30
