G04*
G04 #@! TF.GenerationSoftware,Altium Limited,Altium Designer,22.4.2 (48)*
G04*
G04 Layer_Color=16711935*
%FSLAX25Y25*%
%MOIN*%
G70*
G04*
G04 #@! TF.SameCoordinates,CDAD1D31-92B0-4844-B762-6F75AC63F9A2*
G04*
G04*
G04 #@! TF.FilePolarity,Negative*
G04*
G01*
G75*
%ADD15O,0.08900X0.16400*%
%ADD18C,0.08900*%
%ADD19C,0.08400*%
%ADD20O,0.05124X0.08668*%
%ADD21O,0.05124X0.09849*%
%ADD22C,0.07400*%
D15*
X22000Y231500D02*
D03*
D18*
Y235500D02*
D03*
Y227500D02*
D03*
X42000Y231500D02*
D03*
D19*
X45000Y362500D02*
D03*
Y352500D02*
D03*
X35000Y362500D02*
D03*
Y352500D02*
D03*
X25000Y362500D02*
D03*
Y352500D02*
D03*
D20*
X116988Y351575D02*
D03*
X78012D02*
D03*
D21*
Y367323D02*
D03*
X116988D02*
D03*
D22*
X42500Y177500D02*
D03*
Y167500D02*
D03*
Y157500D02*
D03*
Y147500D02*
D03*
Y137500D02*
D03*
Y127500D02*
D03*
Y117500D02*
D03*
Y107500D02*
D03*
Y97500D02*
D03*
Y87500D02*
D03*
Y77500D02*
D03*
Y67500D02*
D03*
X82500Y177500D02*
D03*
Y167500D02*
D03*
Y157500D02*
D03*
Y147500D02*
D03*
Y137500D02*
D03*
Y127500D02*
D03*
X42500Y57500D02*
D03*
Y47500D02*
D03*
Y37500D02*
D03*
Y27500D02*
D03*
Y17500D02*
D03*
Y7500D02*
D03*
X82500Y117500D02*
D03*
Y107500D02*
D03*
Y97500D02*
D03*
Y87500D02*
D03*
Y77500D02*
D03*
Y67500D02*
D03*
Y57500D02*
D03*
Y47500D02*
D03*
Y37500D02*
D03*
Y27500D02*
D03*
Y17500D02*
D03*
Y7500D02*
D03*
M02*
