G04*
G04 #@! TF.GenerationSoftware,Altium Limited,Altium Designer,22.4.2 (48)*
G04*
G04 Layer_Physical_Order=1*
G04 Layer_Color=255*
%FSLAX25Y25*%
%MOIN*%
G70*
G04*
G04 #@! TF.SameCoordinates,CDAD1D31-92B0-4844-B762-6F75AC63F9A2*
G04*
G04*
G04 #@! TF.FilePolarity,Positive*
G04*
G01*
G75*
%ADD13C,0.00800*%
%ADD23R,0.08000X0.06000*%
%ADD24O,0.08500X0.16000*%
%ADD25R,0.06000X0.08000*%
%ADD26R,0.01750X0.04350*%
%ADD27C,0.03000*%
%ADD28C,0.01730*%
%ADD29R,0.05757X0.04350*%
%ADD30C,0.08500*%
%ADD31C,0.08000*%
%ADD32O,0.04724X0.08268*%
%ADD33O,0.04724X0.09449*%
%ADD34C,0.07000*%
%ADD35C,0.02500*%
G36*
X123339Y373755D02*
X123755Y373339D01*
X123980Y372795D01*
Y372500D01*
X123980Y187500D01*
Y187206D01*
X123755Y186661D01*
X123339Y186245D01*
X122794Y186020D01*
X92500D01*
X92450Y186010D01*
X92400Y186015D01*
X91912Y185967D01*
X91769Y185923D01*
X91622Y185894D01*
X90721Y185521D01*
X90390Y185300D01*
X90091Y185000D01*
X90000D01*
Y184909D01*
X89700Y184610D01*
X89479Y184279D01*
X89106Y183378D01*
X89077Y183231D01*
X89033Y183088D01*
X88985Y182600D01*
X88990Y182550D01*
X88981Y182500D01*
X88981Y2500D01*
Y2206D01*
X88755Y1661D01*
X88339Y1245D01*
X87795Y1020D01*
X37500D01*
X37205Y1020D01*
X36661Y1245D01*
X36245Y1661D01*
X36020Y2206D01*
Y2500D01*
X36020Y182500D01*
X36010Y182550D01*
X36015Y182600D01*
X35967Y183088D01*
X35923Y183231D01*
X35894Y183378D01*
X35521Y184279D01*
X35300Y184610D01*
X35000Y184909D01*
Y185000D01*
X34909D01*
X34610Y185300D01*
X34279Y185521D01*
X33378Y185894D01*
X33231Y185923D01*
X33088Y185967D01*
X32600Y186015D01*
X32550Y186010D01*
X32500Y186020D01*
X2500Y186020D01*
X2206D01*
X1661Y186245D01*
X1245Y186661D01*
X1020Y187206D01*
Y187500D01*
Y372500D01*
Y372795D01*
X1245Y373339D01*
X1661Y373755D01*
X2206Y373980D01*
X80929D01*
Y372309D01*
X80533Y372080D01*
X80129Y371983D01*
X79581Y372404D01*
X78824Y372717D01*
X78012Y372824D01*
X77199Y372717D01*
X76442Y372404D01*
X75792Y371905D01*
X75293Y371255D01*
X74980Y370497D01*
X74873Y369685D01*
Y364961D01*
X74980Y364148D01*
X75293Y363391D01*
X75792Y362741D01*
X76442Y362242D01*
X77199Y361929D01*
X78012Y361822D01*
X78824Y361929D01*
X79581Y362242D01*
X80129Y362663D01*
X80533Y362566D01*
X80929Y362336D01*
Y356186D01*
X80949Y356087D01*
Y355987D01*
X80960Y355931D01*
X80278Y355589D01*
X80214Y355579D01*
X79581Y356065D01*
X78824Y356379D01*
X78012Y356486D01*
X77199Y356379D01*
X76442Y356065D01*
X75792Y355566D01*
X75293Y354916D01*
X74980Y354159D01*
X74873Y353346D01*
Y349803D01*
X74980Y348991D01*
X75293Y348234D01*
X75792Y347584D01*
X76442Y347085D01*
X77199Y346771D01*
X78012Y346664D01*
X78824Y346771D01*
X79581Y347085D01*
X80231Y347584D01*
X80730Y348234D01*
X81044Y348991D01*
X81151Y349803D01*
Y353346D01*
X81132Y353487D01*
X81591Y353784D01*
X81875Y353851D01*
X81931Y353767D01*
X82370Y353329D01*
X82453Y353273D01*
X82524Y353202D01*
X83040Y352857D01*
X83133Y352819D01*
X83216Y352763D01*
X83789Y352525D01*
X83888Y352506D01*
X83981Y352467D01*
X84589Y352346D01*
X84690D01*
X84788Y352327D01*
X85098D01*
X85098Y352327D01*
X93316D01*
Y346603D01*
X95843D01*
Y345769D01*
X87721Y337647D01*
X61361D01*
X60731Y337521D01*
X60197Y337164D01*
X52151Y329118D01*
X51794Y328584D01*
X51668Y327954D01*
Y322250D01*
X46750D01*
Y312750D01*
X54250D01*
Y312750D01*
X54750D01*
Y312750D01*
X62250D01*
Y322250D01*
X57332D01*
Y326290D01*
X63025Y331983D01*
X77227D01*
X77469Y331183D01*
X77378Y331122D01*
X72878Y326622D01*
X72381Y325878D01*
X72206Y325000D01*
Y322250D01*
X70750D01*
Y312750D01*
X77950D01*
X78250Y312750D01*
Y312750D01*
X78750D01*
Y312750D01*
X84047D01*
X84353Y312011D01*
X58014Y285672D01*
X50656D01*
X50133Y286195D01*
X49398Y286500D01*
X48602D01*
X47867Y286195D01*
X47304Y285633D01*
X47000Y284898D01*
Y284102D01*
X47304Y283367D01*
X47685Y282986D01*
X47797Y282500D01*
X47685Y282014D01*
X47304Y281633D01*
X47000Y280898D01*
Y280102D01*
X47304Y279367D01*
X47685Y278986D01*
X47797Y278500D01*
X47685Y278014D01*
X47304Y277633D01*
X47000Y276898D01*
Y276102D01*
X47304Y275367D01*
X47685Y274986D01*
X47797Y274500D01*
X47685Y274014D01*
X47304Y273633D01*
X47000Y272898D01*
Y272102D01*
X47304Y271367D01*
X47685Y270986D01*
X47797Y270500D01*
X47685Y270014D01*
X47304Y269633D01*
X47000Y268898D01*
Y268102D01*
X47304Y267367D01*
X47685Y266986D01*
X47797Y266500D01*
X47685Y266014D01*
X47304Y265633D01*
X47000Y264898D01*
Y264102D01*
X47304Y263367D01*
X47685Y262986D01*
X47797Y262500D01*
X47685Y262014D01*
X47304Y261633D01*
X47000Y260898D01*
Y260102D01*
X47304Y259367D01*
X47685Y258986D01*
X47797Y258500D01*
X47685Y258014D01*
X47304Y257633D01*
X47000Y256898D01*
Y256102D01*
X47304Y255367D01*
X47685Y254986D01*
X47797Y254500D01*
X47685Y254014D01*
X47304Y253633D01*
X47000Y252898D01*
Y252102D01*
X47304Y251367D01*
X47685Y250986D01*
X47797Y250500D01*
X47685Y250014D01*
X47304Y249633D01*
X47000Y248898D01*
Y248102D01*
X47304Y247367D01*
X47685Y246986D01*
X47797Y246500D01*
X47685Y246014D01*
X47304Y245633D01*
X47000Y244898D01*
Y244102D01*
X47304Y243367D01*
X47685Y242986D01*
X47797Y242500D01*
X47685Y242014D01*
X47304Y241633D01*
X47000Y240898D01*
Y240102D01*
X47304Y239367D01*
X47685Y238986D01*
X47797Y238500D01*
X47685Y238014D01*
X47304Y237633D01*
X47000Y236898D01*
Y236102D01*
X47304Y235367D01*
X47685Y234986D01*
X47797Y234500D01*
X47685Y234014D01*
X47378Y233707D01*
X47354Y233697D01*
X46908Y233683D01*
X46482Y233737D01*
X46001Y234570D01*
X45070Y235501D01*
X43930Y236159D01*
X42658Y236500D01*
X41342D01*
X40070Y236159D01*
X38930Y235501D01*
X37999Y234570D01*
X37341Y233430D01*
X37000Y232158D01*
Y230842D01*
X37341Y229570D01*
X37999Y228430D01*
X38930Y227499D01*
X40070Y226841D01*
X41342Y226500D01*
X42658D01*
X43930Y226841D01*
X45070Y227499D01*
X46001Y228430D01*
X46200Y228775D01*
X47000Y228560D01*
Y228102D01*
X47304Y227367D01*
X47685Y226986D01*
X47797Y226500D01*
X47685Y226014D01*
X47304Y225633D01*
X47000Y224898D01*
Y224102D01*
X47304Y223367D01*
X47370Y223301D01*
X47159Y222442D01*
X46750Y222250D01*
X46250D01*
Y222250D01*
X45950Y222250D01*
X38750D01*
X38750Y222250D01*
X38250D01*
Y222250D01*
X37950Y222250D01*
X30750D01*
X30750Y222250D01*
X30250D01*
Y222250D01*
X29950Y222250D01*
X24507D01*
X24292Y223050D01*
X25070Y223499D01*
X26001Y224430D01*
X26659Y225570D01*
X27000Y226842D01*
Y227422D01*
X27043Y227750D01*
Y235250D01*
X27000Y235578D01*
Y236158D01*
X26659Y237430D01*
X26001Y238570D01*
X25070Y239501D01*
X23930Y240159D01*
X22658Y240500D01*
X21342D01*
X20070Y240159D01*
X18930Y239501D01*
X18050Y238621D01*
X17822Y238642D01*
X17250Y238873D01*
Y243250D01*
X7750D01*
Y237408D01*
X4171Y233829D01*
X3917Y233449D01*
X3827Y233000D01*
Y217500D01*
X3917Y217051D01*
X4171Y216671D01*
X4603Y216239D01*
X4325Y215385D01*
X3867Y215195D01*
X3305Y214633D01*
X3000Y213898D01*
Y213102D01*
X3305Y212367D01*
X3685Y211986D01*
X3797Y211500D01*
X3685Y211014D01*
X3305Y210633D01*
X3000Y209898D01*
Y209102D01*
X3305Y208367D01*
X3685Y207986D01*
X3797Y207500D01*
X3685Y207014D01*
X3305Y206633D01*
X3000Y205898D01*
Y205102D01*
X3305Y204367D01*
X3685Y203986D01*
X3797Y203500D01*
X3685Y203014D01*
X3305Y202633D01*
X3000Y201898D01*
Y201102D01*
X3305Y200367D01*
X3685Y199986D01*
X3797Y199500D01*
X3685Y199014D01*
X3305Y198633D01*
X3000Y197898D01*
Y197102D01*
X3305Y196367D01*
X3685Y195986D01*
X3797Y195500D01*
X3685Y195014D01*
X3305Y194633D01*
X3000Y193898D01*
Y193102D01*
X3305Y192367D01*
X3685Y191986D01*
X3797Y191500D01*
X3685Y191014D01*
X3305Y190633D01*
X3000Y189898D01*
Y189102D01*
X3305Y188367D01*
X3867Y187804D01*
X4602Y187500D01*
X5398D01*
X6133Y187804D01*
X6514Y188185D01*
X7000Y188297D01*
X7486Y188185D01*
X7867Y187804D01*
X8602Y187500D01*
X9398D01*
X10133Y187804D01*
X10514Y188185D01*
X11000Y188297D01*
X11486Y188185D01*
X11867Y187804D01*
X12602Y187500D01*
X13398D01*
X14133Y187804D01*
X14695Y188367D01*
X15000Y189102D01*
Y189842D01*
X15486Y190328D01*
X40014D01*
X48827Y181514D01*
Y155486D01*
X44560Y151218D01*
X44140Y151460D01*
X43060Y151750D01*
X41941D01*
X40860Y151460D01*
X39890Y150901D01*
X39099Y150110D01*
X38540Y149140D01*
X38250Y148059D01*
Y146941D01*
X38540Y145860D01*
X39099Y144890D01*
X39890Y144099D01*
X40860Y143540D01*
X41941Y143250D01*
X43060D01*
X44140Y143540D01*
X45110Y144099D01*
X45901Y144890D01*
X46460Y145860D01*
X46750Y146941D01*
Y148059D01*
X46460Y149140D01*
X46218Y149560D01*
X49588Y152930D01*
X50327Y152624D01*
Y146986D01*
X44560Y141218D01*
X44140Y141460D01*
X43060Y141750D01*
X41941D01*
X40860Y141460D01*
X39890Y140901D01*
X39099Y140110D01*
X38540Y139140D01*
X38250Y138059D01*
Y136941D01*
X38540Y135860D01*
X39099Y134890D01*
X39890Y134099D01*
X40860Y133540D01*
X41941Y133250D01*
X43060D01*
X44140Y133540D01*
X45110Y134099D01*
X45901Y134890D01*
X46460Y135860D01*
X46750Y136941D01*
Y138059D01*
X46460Y139140D01*
X46218Y139560D01*
X51088Y144430D01*
X51828Y144124D01*
Y138486D01*
X44560Y131218D01*
X44140Y131460D01*
X43060Y131750D01*
X41941D01*
X40860Y131460D01*
X39890Y130901D01*
X39099Y130110D01*
X38540Y129140D01*
X38250Y128059D01*
Y126941D01*
X38540Y125860D01*
X39099Y124890D01*
X39890Y124099D01*
X40860Y123540D01*
X41941Y123250D01*
X43060D01*
X44140Y123540D01*
X45110Y124099D01*
X45901Y124890D01*
X46460Y125860D01*
X46750Y126941D01*
Y128059D01*
X46460Y129140D01*
X46218Y129560D01*
X52588Y135930D01*
X53328Y135624D01*
Y129986D01*
X44560Y121218D01*
X44140Y121460D01*
X43060Y121750D01*
X41941D01*
X40860Y121460D01*
X39890Y120901D01*
X39099Y120110D01*
X38540Y119140D01*
X38250Y118060D01*
Y116940D01*
X38540Y115860D01*
X39099Y114890D01*
X39890Y114099D01*
X40860Y113540D01*
X41941Y113250D01*
X43060D01*
X44140Y113540D01*
X45110Y114099D01*
X45901Y114890D01*
X46460Y115860D01*
X46750Y116940D01*
Y118060D01*
X46460Y119140D01*
X46218Y119560D01*
X54088Y127430D01*
X54827Y127124D01*
Y121486D01*
X44560Y111218D01*
X44140Y111460D01*
X43060Y111750D01*
X41941D01*
X40860Y111460D01*
X39890Y110901D01*
X39099Y110110D01*
X38540Y109140D01*
X38250Y108060D01*
Y106940D01*
X38540Y105860D01*
X39099Y104890D01*
X39890Y104099D01*
X40860Y103540D01*
X41941Y103250D01*
X43060D01*
X44140Y103540D01*
X45110Y104099D01*
X45901Y104890D01*
X46460Y105860D01*
X46750Y106940D01*
Y108060D01*
X46460Y109140D01*
X46218Y109560D01*
X55588Y118930D01*
X56327Y118624D01*
Y112986D01*
X44560Y101218D01*
X44140Y101460D01*
X43060Y101750D01*
X41941D01*
X40860Y101460D01*
X39890Y100901D01*
X39099Y100110D01*
X38540Y99140D01*
X38250Y98059D01*
Y96940D01*
X38540Y95860D01*
X39099Y94890D01*
X39890Y94099D01*
X40860Y93540D01*
X41941Y93250D01*
X43060D01*
X44140Y93540D01*
X45110Y94099D01*
X45901Y94890D01*
X46460Y95860D01*
X46750Y96940D01*
Y98059D01*
X46460Y99140D01*
X46218Y99560D01*
X57088Y110430D01*
X57828Y110124D01*
Y104486D01*
X44560Y91218D01*
X44140Y91460D01*
X43060Y91750D01*
X41941D01*
X40860Y91460D01*
X39890Y90901D01*
X39099Y90110D01*
X38540Y89140D01*
X38250Y88060D01*
Y86940D01*
X38540Y85860D01*
X39099Y84890D01*
X39890Y84099D01*
X40860Y83540D01*
X41941Y83250D01*
X43060D01*
X44140Y83540D01*
X45110Y84099D01*
X45901Y84890D01*
X46460Y85860D01*
X46750Y86940D01*
Y88060D01*
X46460Y89140D01*
X46218Y89560D01*
X58588Y101930D01*
X59328Y101624D01*
Y95986D01*
X44560Y81218D01*
X44140Y81460D01*
X43060Y81750D01*
X41941D01*
X40860Y81460D01*
X39890Y80901D01*
X39099Y80110D01*
X38540Y79140D01*
X38250Y78060D01*
Y76941D01*
X38540Y75860D01*
X39099Y74890D01*
X39890Y74099D01*
X40860Y73540D01*
X41941Y73250D01*
X43060D01*
X44140Y73540D01*
X45110Y74099D01*
X45901Y74890D01*
X46460Y75860D01*
X46750Y76941D01*
Y78060D01*
X46460Y79140D01*
X46218Y79560D01*
X60088Y93430D01*
X60827Y93124D01*
Y87486D01*
X44560Y71218D01*
X44140Y71460D01*
X43060Y71750D01*
X41941D01*
X40860Y71460D01*
X39890Y70901D01*
X39099Y70110D01*
X38540Y69140D01*
X38250Y68059D01*
Y66940D01*
X38540Y65860D01*
X39099Y64890D01*
X39890Y64099D01*
X40860Y63540D01*
X41941Y63250D01*
X43060D01*
X44140Y63540D01*
X45110Y64099D01*
X45901Y64890D01*
X46460Y65860D01*
X46750Y66940D01*
Y68059D01*
X46460Y69140D01*
X46218Y69560D01*
X61588Y84930D01*
X62327Y84624D01*
Y78986D01*
X44560Y61218D01*
X44140Y61460D01*
X43060Y61750D01*
X41941D01*
X40860Y61460D01*
X39890Y60901D01*
X39099Y60110D01*
X38540Y59140D01*
X38250Y58060D01*
Y56941D01*
X38540Y55860D01*
X39099Y54890D01*
X39890Y54099D01*
X40860Y53540D01*
X41941Y53250D01*
X43060D01*
X44140Y53540D01*
X45110Y54099D01*
X45901Y54890D01*
X46460Y55860D01*
X46750Y56941D01*
Y58060D01*
X46460Y59140D01*
X46218Y59560D01*
X63088Y76430D01*
X63827Y76124D01*
Y70486D01*
X44560Y51218D01*
X44140Y51460D01*
X43060Y51750D01*
X41941D01*
X40860Y51460D01*
X39890Y50901D01*
X39099Y50110D01*
X38540Y49140D01*
X38250Y48059D01*
Y46940D01*
X38540Y45860D01*
X39099Y44890D01*
X39890Y44099D01*
X40860Y43540D01*
X41941Y43250D01*
X43060D01*
X44140Y43540D01*
X45110Y44099D01*
X45901Y44890D01*
X46460Y45860D01*
X46750Y46940D01*
Y48059D01*
X46460Y49140D01*
X46218Y49560D01*
X64588Y67930D01*
X65328Y67624D01*
Y61986D01*
X44560Y41218D01*
X44140Y41460D01*
X43060Y41750D01*
X41941D01*
X40860Y41460D01*
X39890Y40901D01*
X39099Y40110D01*
X38540Y39140D01*
X38250Y38059D01*
Y36941D01*
X38540Y35860D01*
X39099Y34890D01*
X39890Y34099D01*
X40860Y33540D01*
X41941Y33250D01*
X43060D01*
X44140Y33540D01*
X45110Y34099D01*
X45901Y34890D01*
X46460Y35860D01*
X46750Y36941D01*
Y38059D01*
X46460Y39140D01*
X46218Y39560D01*
X66088Y59430D01*
X66827Y59124D01*
Y53486D01*
X44560Y31218D01*
X44140Y31460D01*
X43060Y31750D01*
X41941D01*
X40860Y31460D01*
X39890Y30901D01*
X39099Y30110D01*
X38540Y29140D01*
X38250Y28060D01*
Y26941D01*
X38540Y25860D01*
X39099Y24890D01*
X39890Y24099D01*
X40860Y23540D01*
X41941Y23250D01*
X43060D01*
X44140Y23540D01*
X45110Y24099D01*
X45901Y24890D01*
X46460Y25860D01*
X46750Y26941D01*
Y28060D01*
X46460Y29140D01*
X46218Y29560D01*
X67588Y50930D01*
X68327Y50624D01*
Y44986D01*
X44560Y21218D01*
X44140Y21460D01*
X43060Y21750D01*
X41941D01*
X40860Y21460D01*
X39890Y20901D01*
X39099Y20110D01*
X38540Y19140D01*
X38250Y18059D01*
Y16940D01*
X38540Y15860D01*
X39099Y14890D01*
X39890Y14099D01*
X40860Y13540D01*
X41941Y13250D01*
X43060D01*
X44140Y13540D01*
X45110Y14099D01*
X45901Y14890D01*
X46460Y15860D01*
X46750Y16940D01*
Y18059D01*
X46460Y19140D01*
X46218Y19560D01*
X69088Y42430D01*
X69827Y42124D01*
Y36486D01*
X44560Y11218D01*
X44140Y11460D01*
X43060Y11750D01*
X41941D01*
X40860Y11460D01*
X39890Y10901D01*
X39099Y10110D01*
X38540Y9140D01*
X38250Y8060D01*
Y6940D01*
X38540Y5860D01*
X39099Y4890D01*
X39890Y4099D01*
X40860Y3540D01*
X41941Y3250D01*
X43060D01*
X44140Y3540D01*
X45110Y4099D01*
X45901Y4890D01*
X46460Y5860D01*
X46750Y6940D01*
Y8060D01*
X46460Y9140D01*
X46218Y9560D01*
X71829Y35171D01*
X72083Y35551D01*
X72172Y36000D01*
Y196000D01*
X72083Y196449D01*
X71829Y196829D01*
X56647Y212011D01*
X56954Y212750D01*
X62250D01*
Y212750D01*
X62750D01*
Y212750D01*
X70250D01*
Y212750D01*
X70750D01*
Y212750D01*
X78250D01*
Y222250D01*
X75673D01*
Y223000D01*
X75583Y223449D01*
X75329Y223829D01*
X65829Y233329D01*
X65449Y233583D01*
X65000Y233672D01*
X50656D01*
X50315Y234014D01*
X50203Y234500D01*
X50315Y234986D01*
X50656Y235328D01*
X72014D01*
X86750Y220592D01*
Y212750D01*
X94250D01*
Y212750D01*
X94750D01*
Y212750D01*
X102250D01*
Y222250D01*
X99673D01*
Y224500D01*
X99583Y224949D01*
X99329Y225329D01*
X83329Y241329D01*
X82949Y241583D01*
X82500Y241672D01*
X50656D01*
X50315Y242014D01*
X50203Y242500D01*
X50315Y242986D01*
X50656Y243327D01*
X92514D01*
X105171Y230671D01*
X105551Y230417D01*
X106000Y230328D01*
X107750D01*
Y227750D01*
X117250D01*
Y235250D01*
X117250D01*
Y235750D01*
X117250D01*
Y242950D01*
X117250Y243250D01*
X117250D01*
Y243750D01*
X117250D01*
Y250950D01*
X117250Y251250D01*
X117250D01*
Y251750D01*
X117250D01*
Y259250D01*
X117250Y259250D01*
Y259750D01*
X117250D01*
X117250Y260050D01*
Y267250D01*
X117250Y267250D01*
Y267750D01*
X117250D01*
X117250Y268050D01*
Y275250D01*
X117250D01*
Y275750D01*
X117250D01*
Y283250D01*
X107750D01*
Y280941D01*
X105769D01*
X105320Y280852D01*
X104939Y280598D01*
X94014Y269672D01*
X50656D01*
X50315Y270014D01*
X50203Y270500D01*
X50315Y270986D01*
X50656Y271327D01*
X88500D01*
X88949Y271417D01*
X89329Y271671D01*
X109408Y291750D01*
X117250D01*
Y299250D01*
X117250D01*
Y299750D01*
X117250D01*
Y307250D01*
X107750D01*
Y304673D01*
X105500D01*
X105051Y304583D01*
X104671Y304329D01*
X78014Y277673D01*
X50656D01*
X50315Y278014D01*
X50203Y278500D01*
X50315Y278986D01*
X50656Y279328D01*
X69500D01*
X69949Y279417D01*
X70329Y279671D01*
X99329Y308671D01*
X99583Y309051D01*
X99673Y309500D01*
Y312750D01*
X102250D01*
Y322250D01*
X94750D01*
Y322250D01*
X94250D01*
Y322250D01*
X87050D01*
X86750Y322250D01*
Y322250D01*
X86250D01*
Y322250D01*
X84794D01*
Y325000D01*
X84619Y325878D01*
X84267Y326406D01*
X84543Y327115D01*
X84621Y327206D01*
X96500D01*
X97378Y327380D01*
X98122Y327878D01*
X107615Y337371D01*
X108113Y338115D01*
X108287Y338993D01*
Y349493D01*
X108265Y349606D01*
Y351703D01*
X108856Y352308D01*
X108894Y352327D01*
X109901D01*
X109902Y352327D01*
X110212D01*
X110310Y352346D01*
X110411D01*
X111019Y352467D01*
X111112Y352506D01*
X111211Y352525D01*
X111784Y352763D01*
X111867Y352819D01*
X111960Y352857D01*
X112476Y353202D01*
X112547Y353273D01*
X112630Y353329D01*
X113069Y353767D01*
X113125Y353851D01*
X113409Y353784D01*
X113868Y353487D01*
X113849Y353346D01*
Y349803D01*
X113956Y348991D01*
X114270Y348234D01*
X114769Y347584D01*
X115419Y347085D01*
X116176Y346771D01*
X116988Y346664D01*
X117801Y346771D01*
X118558Y347085D01*
X119208Y347584D01*
X119707Y348234D01*
X120020Y348991D01*
X120127Y349803D01*
Y353346D01*
X120020Y354159D01*
X119707Y354916D01*
X119208Y355566D01*
X118558Y356065D01*
X117801Y356379D01*
X116988Y356486D01*
X116176Y356379D01*
X115419Y356065D01*
X114786Y355579D01*
X114722Y355589D01*
X114040Y355931D01*
X114051Y355987D01*
Y356087D01*
X114071Y356186D01*
Y362336D01*
X114467Y362566D01*
X114871Y362663D01*
X115419Y362242D01*
X116176Y361929D01*
X116988Y361822D01*
X117801Y361929D01*
X118558Y362242D01*
X119208Y362741D01*
X119707Y363391D01*
X120020Y364148D01*
X120127Y364961D01*
Y369685D01*
X120020Y370497D01*
X119707Y371255D01*
X119208Y371905D01*
X118558Y372404D01*
X117801Y372717D01*
X116988Y372824D01*
X116176Y372717D01*
X115419Y372404D01*
X114871Y371983D01*
X114467Y372080D01*
X114071Y372309D01*
Y373980D01*
X122794D01*
X123339Y373755D01*
D02*
G37*
G36*
X103699Y339943D02*
X95550Y331794D01*
X90984D01*
X90792Y332091D01*
X90677Y332594D01*
X101223Y343140D01*
X101580Y343674D01*
X101706Y344304D01*
Y346557D01*
X101743Y346588D01*
X103699D01*
Y339943D01*
D02*
G37*
G36*
X97328Y309986D02*
X69014Y281673D01*
X50656D01*
X50315Y282014D01*
X50203Y282500D01*
X50315Y282986D01*
X50656Y283328D01*
X58500D01*
X58949Y283417D01*
X59329Y283671D01*
X88408Y312750D01*
X94250D01*
Y312750D01*
X94750D01*
Y312750D01*
X97328D01*
Y309986D01*
D02*
G37*
G36*
X107750Y299750D02*
X107750D01*
Y299250D01*
X107750D01*
Y293408D01*
X88014Y273673D01*
X50656D01*
X50315Y274014D01*
X50203Y274500D01*
X50315Y274986D01*
X50656Y275327D01*
X78500D01*
X78949Y275417D01*
X79329Y275671D01*
X105986Y302327D01*
X107750D01*
Y299750D01*
D02*
G37*
G36*
Y275750D02*
X107750D01*
Y275250D01*
X107750D01*
Y269408D01*
X104014Y265672D01*
X50656D01*
X50315Y266014D01*
X50203Y266500D01*
X50315Y266986D01*
X50656Y267327D01*
X94500D01*
X94949Y267417D01*
X95329Y267671D01*
X106254Y278596D01*
X107750D01*
Y275750D01*
D02*
G37*
G36*
Y241592D02*
Y235750D01*
X107750D01*
Y235250D01*
X107750D01*
Y232673D01*
X106486D01*
X93829Y245329D01*
X93449Y245583D01*
X93000Y245672D01*
X50656D01*
X50315Y246014D01*
X50203Y246500D01*
X50315Y246986D01*
X50656Y247327D01*
X102014D01*
X107750Y241592D01*
D02*
G37*
G36*
X97328Y224014D02*
Y222250D01*
X94750D01*
Y222250D01*
X94250D01*
Y222250D01*
X88408D01*
X73329Y237329D01*
X72949Y237583D01*
X72500Y237672D01*
X50656D01*
X50315Y238014D01*
X50203Y238500D01*
X50315Y238986D01*
X50656Y239328D01*
X82014D01*
X97328Y224014D01*
D02*
G37*
%LPC*%
G36*
X45625Y367250D02*
X44375D01*
X43167Y366926D01*
X42083Y366301D01*
X41199Y365417D01*
X40574Y364333D01*
X40414Y363738D01*
X39586D01*
X39426Y364333D01*
X38801Y365417D01*
X37917Y366301D01*
X36833Y366926D01*
X35625Y367250D01*
X34375D01*
X33167Y366926D01*
X32083Y366301D01*
X31199Y365417D01*
X30574Y364333D01*
X30250Y363125D01*
Y361875D01*
X30574Y360667D01*
X31199Y359583D01*
X32083Y358699D01*
X33167Y358074D01*
X33762Y357914D01*
Y357086D01*
X33167Y356926D01*
X32083Y356301D01*
X31199Y355417D01*
X30574Y354333D01*
X30414Y353738D01*
X29586D01*
X29426Y354333D01*
X28801Y355417D01*
X27917Y356301D01*
X26833Y356926D01*
X25625Y357250D01*
X24375D01*
X23167Y356926D01*
X22083Y356301D01*
X21199Y355417D01*
X20574Y354333D01*
X20250Y353125D01*
Y351875D01*
X20574Y350667D01*
X21199Y349583D01*
X22083Y348699D01*
X23167Y348074D01*
X24375Y347750D01*
X25625D01*
X26833Y348074D01*
X27917Y348699D01*
X28801Y349583D01*
X29426Y350667D01*
X29586Y351262D01*
X30414D01*
X30574Y350667D01*
X31199Y349583D01*
X32083Y348699D01*
X33167Y348074D01*
X34375Y347750D01*
X35625D01*
X36833Y348074D01*
X37917Y348699D01*
X38801Y349583D01*
X39426Y350667D01*
X39586Y351262D01*
X40414D01*
X40574Y350667D01*
X41199Y349583D01*
X42083Y348699D01*
X43167Y348074D01*
X44375Y347750D01*
X45625D01*
X46833Y348074D01*
X47917Y348699D01*
X48801Y349583D01*
X49426Y350667D01*
X49750Y351875D01*
Y353125D01*
X49426Y354333D01*
X48801Y355417D01*
X47917Y356301D01*
X46833Y356926D01*
X46238Y357086D01*
Y357914D01*
X46833Y358074D01*
X47426Y358416D01*
X51328Y354514D01*
Y336986D01*
X36592Y322250D01*
X32408D01*
X28829Y325829D01*
X28449Y326083D01*
X28000Y326172D01*
X14156D01*
X13633Y326695D01*
X12898Y327000D01*
X12102D01*
X11367Y326695D01*
X10804Y326133D01*
X10500Y325398D01*
Y324602D01*
X10804Y323867D01*
X11367Y323305D01*
X12102Y323000D01*
X12898D01*
X13633Y323305D01*
X14156Y323828D01*
X27514D01*
X28353Y322989D01*
X28047Y322250D01*
X22750D01*
Y318672D01*
X6656D01*
X6133Y319196D01*
X5398Y319500D01*
X4602D01*
X3867Y319196D01*
X3305Y318633D01*
X3000Y317898D01*
Y317102D01*
X3305Y316367D01*
X3867Y315805D01*
X4602Y315500D01*
X5398D01*
X6133Y315805D01*
X6656Y316328D01*
X22750D01*
Y312750D01*
X30250D01*
X30250Y312750D01*
X30750D01*
Y312750D01*
X31050Y312750D01*
X33981D01*
X34102Y312000D01*
X33367Y311696D01*
X32805Y311133D01*
X32500Y310398D01*
Y309658D01*
X19514Y296673D01*
X17250D01*
Y298950D01*
X17250Y299750D01*
X17250Y300050D01*
Y307250D01*
X7750D01*
Y304673D01*
X6656D01*
X6133Y305195D01*
X5398Y305500D01*
X4602D01*
X3867Y305195D01*
X3305Y304633D01*
X3000Y303898D01*
Y303102D01*
X3305Y302367D01*
X3867Y301804D01*
X4602Y301500D01*
X5398D01*
X6133Y301804D01*
X6656Y302327D01*
X7750D01*
Y300050D01*
X7750Y299250D01*
X7750Y298950D01*
Y296673D01*
X6656D01*
X6133Y297196D01*
X5398Y297500D01*
X4602D01*
X3867Y297196D01*
X3305Y296633D01*
X3000Y295898D01*
Y295102D01*
X3305Y294367D01*
X3867Y293805D01*
X4602Y293500D01*
X5398D01*
X6133Y293805D01*
X6656Y294327D01*
X7750D01*
Y292050D01*
X7750Y291250D01*
X7750Y290950D01*
Y288672D01*
X6656D01*
X6133Y289195D01*
X5398Y289500D01*
X4602D01*
X3867Y289195D01*
X3305Y288633D01*
X3000Y287898D01*
Y287102D01*
X3305Y286367D01*
X3867Y285805D01*
X4602Y285500D01*
X5398D01*
X6133Y285805D01*
X6656Y286328D01*
X7750D01*
Y284050D01*
X7750Y283250D01*
X7750Y282950D01*
Y280673D01*
X6656D01*
X6133Y281195D01*
X5398Y281500D01*
X4602D01*
X3867Y281195D01*
X3305Y280633D01*
X3000Y279898D01*
Y279102D01*
X3305Y278367D01*
X3867Y277804D01*
X4602Y277500D01*
X5398D01*
X6133Y277804D01*
X6656Y278327D01*
X7750D01*
Y276050D01*
X7750Y275250D01*
X7750Y274950D01*
Y272673D01*
X6656D01*
X6133Y273196D01*
X5398Y273500D01*
X4602D01*
X3867Y273196D01*
X3305Y272633D01*
X3000Y271898D01*
Y271102D01*
X3305Y270367D01*
X3867Y269805D01*
X4602Y269500D01*
X5398D01*
X6133Y269805D01*
X6656Y270327D01*
X7750D01*
Y268050D01*
X7750Y267250D01*
X7750Y266950D01*
Y264672D01*
X6656D01*
X6133Y265195D01*
X5398Y265500D01*
X4602D01*
X3867Y265195D01*
X3305Y264633D01*
X3000Y263898D01*
Y263102D01*
X3305Y262367D01*
X3867Y261805D01*
X4602Y261500D01*
X5398D01*
X6133Y261805D01*
X6656Y262328D01*
X7750D01*
Y260050D01*
X7750Y259250D01*
X7750Y258950D01*
Y256673D01*
X6656D01*
X6133Y257195D01*
X5398Y257500D01*
X4602D01*
X3867Y257195D01*
X3305Y256633D01*
X3000Y255898D01*
Y255102D01*
X3305Y254367D01*
X3867Y253804D01*
X4602Y253500D01*
X5398D01*
X6133Y253804D01*
X6656Y254328D01*
X7750D01*
Y251750D01*
X17250D01*
Y258950D01*
X17250Y259750D01*
X17250Y260050D01*
Y266950D01*
X17250Y267750D01*
X17250Y268050D01*
Y274950D01*
X17250Y275750D01*
X17250Y276050D01*
Y282950D01*
X17250Y283750D01*
X17250Y284050D01*
Y286328D01*
X20000D01*
X20449Y286417D01*
X20829Y286671D01*
X42158Y308000D01*
X42898D01*
X43633Y308305D01*
X44196Y308867D01*
X44500Y309602D01*
Y310398D01*
X44196Y311133D01*
X43633Y311696D01*
X42898Y312000D01*
X42102D01*
X41367Y311696D01*
X40804Y311133D01*
X40500Y310398D01*
Y309658D01*
X19514Y288672D01*
X17250D01*
Y290950D01*
X17250Y291750D01*
X17250Y292050D01*
Y294327D01*
X20000D01*
X20449Y294417D01*
X20829Y294671D01*
X34158Y308000D01*
X34898D01*
X35633Y308305D01*
X36195Y308867D01*
X36500Y309602D01*
Y310398D01*
X36195Y311133D01*
X35633Y311696D01*
X34898Y312000D01*
X35019Y312750D01*
X38250D01*
Y320592D01*
X53329Y335671D01*
X53583Y336051D01*
X53672Y336500D01*
Y355000D01*
X53583Y355449D01*
X53329Y355829D01*
X49084Y360074D01*
X49426Y360667D01*
X49750Y361875D01*
Y363125D01*
X49426Y364333D01*
X48801Y365417D01*
X47917Y366301D01*
X46833Y366926D01*
X45625Y367250D01*
D02*
G37*
G36*
X43060Y181750D02*
X41941D01*
X40860Y181460D01*
X39890Y180901D01*
X39099Y180110D01*
X38540Y179140D01*
X38250Y178059D01*
Y176941D01*
X38540Y175860D01*
X39099Y174890D01*
X39890Y174099D01*
X40860Y173540D01*
X41941Y173250D01*
X43060D01*
X44140Y173540D01*
X45110Y174099D01*
X45901Y174890D01*
X46460Y175860D01*
X46750Y176941D01*
Y178059D01*
X46460Y179140D01*
X45901Y180110D01*
X45110Y180901D01*
X44140Y181460D01*
X43060Y181750D01*
D02*
G37*
G36*
X83060Y171750D02*
X81941D01*
X80860Y171460D01*
X79890Y170901D01*
X79099Y170110D01*
X78540Y169140D01*
X78250Y168060D01*
Y166940D01*
X78540Y165860D01*
X79099Y164890D01*
X79890Y164099D01*
X80860Y163540D01*
X81941Y163250D01*
X83060D01*
X84140Y163540D01*
X85110Y164099D01*
X85901Y164890D01*
X86460Y165860D01*
X86750Y166940D01*
Y168060D01*
X86460Y169140D01*
X85901Y170110D01*
X85110Y170901D01*
X84140Y171460D01*
X83060Y171750D01*
D02*
G37*
G36*
X43060D02*
X41941D01*
X40860Y171460D01*
X39890Y170901D01*
X39099Y170110D01*
X38540Y169140D01*
X38250Y168060D01*
Y166940D01*
X38540Y165860D01*
X39099Y164890D01*
X39890Y164099D01*
X40860Y163540D01*
X41941Y163250D01*
X43060D01*
X44140Y163540D01*
X45110Y164099D01*
X45901Y164890D01*
X46460Y165860D01*
X46750Y166940D01*
Y168060D01*
X46460Y169140D01*
X45901Y170110D01*
X45110Y170901D01*
X44140Y171460D01*
X43060Y171750D01*
D02*
G37*
G36*
X83060Y161750D02*
X81941D01*
X80860Y161460D01*
X79890Y160901D01*
X79099Y160110D01*
X78540Y159140D01*
X78250Y158060D01*
Y156940D01*
X78540Y155860D01*
X79099Y154890D01*
X79890Y154099D01*
X80860Y153540D01*
X81941Y153250D01*
X83060D01*
X84140Y153540D01*
X85110Y154099D01*
X85901Y154890D01*
X86460Y155860D01*
X86750Y156940D01*
Y158060D01*
X86460Y159140D01*
X85901Y160110D01*
X85110Y160901D01*
X84140Y161460D01*
X83060Y161750D01*
D02*
G37*
G36*
Y151750D02*
X81941D01*
X80860Y151460D01*
X79890Y150901D01*
X79099Y150110D01*
X78540Y149140D01*
X78250Y148059D01*
Y146941D01*
X78540Y145860D01*
X79099Y144890D01*
X79890Y144099D01*
X80860Y143540D01*
X81941Y143250D01*
X83060D01*
X84140Y143540D01*
X85110Y144099D01*
X85901Y144890D01*
X86460Y145860D01*
X86750Y146941D01*
Y148059D01*
X86460Y149140D01*
X85901Y150110D01*
X85110Y150901D01*
X84140Y151460D01*
X83060Y151750D01*
D02*
G37*
G36*
Y141750D02*
X81941D01*
X80860Y141460D01*
X79890Y140901D01*
X79099Y140110D01*
X78540Y139140D01*
X78250Y138059D01*
Y136941D01*
X78540Y135860D01*
X79099Y134890D01*
X79890Y134099D01*
X80860Y133540D01*
X81941Y133250D01*
X83060D01*
X84140Y133540D01*
X85110Y134099D01*
X85901Y134890D01*
X86460Y135860D01*
X86750Y136941D01*
Y138059D01*
X86460Y139140D01*
X85901Y140110D01*
X85110Y140901D01*
X84140Y141460D01*
X83060Y141750D01*
D02*
G37*
G36*
Y131750D02*
X81941D01*
X80860Y131460D01*
X79890Y130901D01*
X79099Y130110D01*
X78540Y129140D01*
X78250Y128059D01*
Y126941D01*
X78540Y125860D01*
X79099Y124890D01*
X79890Y124099D01*
X80860Y123540D01*
X81941Y123250D01*
X83060D01*
X84140Y123540D01*
X85110Y124099D01*
X85901Y124890D01*
X86460Y125860D01*
X86750Y126941D01*
Y128059D01*
X86460Y129140D01*
X85901Y130110D01*
X85110Y130901D01*
X84140Y131460D01*
X83060Y131750D01*
D02*
G37*
G36*
Y121750D02*
X81941D01*
X80860Y121460D01*
X79890Y120901D01*
X79099Y120110D01*
X78540Y119140D01*
X78250Y118060D01*
Y116940D01*
X78540Y115860D01*
X79099Y114890D01*
X79890Y114099D01*
X80860Y113540D01*
X81941Y113250D01*
X83060D01*
X84140Y113540D01*
X85110Y114099D01*
X85901Y114890D01*
X86460Y115860D01*
X86750Y116940D01*
Y118060D01*
X86460Y119140D01*
X85901Y120110D01*
X85110Y120901D01*
X84140Y121460D01*
X83060Y121750D01*
D02*
G37*
G36*
Y111750D02*
X81941D01*
X80860Y111460D01*
X79890Y110901D01*
X79099Y110110D01*
X78540Y109140D01*
X78250Y108060D01*
Y106940D01*
X78540Y105860D01*
X79099Y104890D01*
X79890Y104099D01*
X80860Y103540D01*
X81941Y103250D01*
X83060D01*
X84140Y103540D01*
X85110Y104099D01*
X85901Y104890D01*
X86460Y105860D01*
X86750Y106940D01*
Y108060D01*
X86460Y109140D01*
X85901Y110110D01*
X85110Y110901D01*
X84140Y111460D01*
X83060Y111750D01*
D02*
G37*
G36*
Y101750D02*
X81941D01*
X80860Y101460D01*
X79890Y100901D01*
X79099Y100110D01*
X78540Y99140D01*
X78250Y98059D01*
Y96940D01*
X78540Y95860D01*
X79099Y94890D01*
X79890Y94099D01*
X80860Y93540D01*
X81941Y93250D01*
X83060D01*
X84140Y93540D01*
X85110Y94099D01*
X85901Y94890D01*
X86460Y95860D01*
X86750Y96940D01*
Y98059D01*
X86460Y99140D01*
X85901Y100110D01*
X85110Y100901D01*
X84140Y101460D01*
X83060Y101750D01*
D02*
G37*
G36*
Y91750D02*
X81941D01*
X80860Y91460D01*
X79890Y90901D01*
X79099Y90110D01*
X78540Y89140D01*
X78250Y88060D01*
Y86940D01*
X78540Y85860D01*
X79099Y84890D01*
X79890Y84099D01*
X80860Y83540D01*
X81941Y83250D01*
X83060D01*
X84140Y83540D01*
X85110Y84099D01*
X85901Y84890D01*
X86460Y85860D01*
X86750Y86940D01*
Y88060D01*
X86460Y89140D01*
X85901Y90110D01*
X85110Y90901D01*
X84140Y91460D01*
X83060Y91750D01*
D02*
G37*
G36*
Y81750D02*
X81941D01*
X80860Y81460D01*
X79890Y80901D01*
X79099Y80110D01*
X78540Y79140D01*
X78250Y78060D01*
Y76941D01*
X78540Y75860D01*
X79099Y74890D01*
X79890Y74099D01*
X80860Y73540D01*
X81941Y73250D01*
X83060D01*
X84140Y73540D01*
X85110Y74099D01*
X85901Y74890D01*
X86460Y75860D01*
X86750Y76941D01*
Y78060D01*
X86460Y79140D01*
X85901Y80110D01*
X85110Y80901D01*
X84140Y81460D01*
X83060Y81750D01*
D02*
G37*
G36*
Y71750D02*
X81941D01*
X80860Y71460D01*
X79890Y70901D01*
X79099Y70110D01*
X78540Y69140D01*
X78250Y68059D01*
Y66940D01*
X78540Y65860D01*
X79099Y64890D01*
X79890Y64099D01*
X80860Y63540D01*
X81941Y63250D01*
X83060D01*
X84140Y63540D01*
X85110Y64099D01*
X85901Y64890D01*
X86460Y65860D01*
X86750Y66940D01*
Y68059D01*
X86460Y69140D01*
X85901Y70110D01*
X85110Y70901D01*
X84140Y71460D01*
X83060Y71750D01*
D02*
G37*
G36*
Y61750D02*
X81941D01*
X80860Y61460D01*
X79890Y60901D01*
X79099Y60110D01*
X78540Y59140D01*
X78250Y58060D01*
Y56941D01*
X78540Y55860D01*
X79099Y54890D01*
X79890Y54099D01*
X80860Y53540D01*
X81941Y53250D01*
X83060D01*
X84140Y53540D01*
X85110Y54099D01*
X85901Y54890D01*
X86460Y55860D01*
X86750Y56941D01*
Y58060D01*
X86460Y59140D01*
X85901Y60110D01*
X85110Y60901D01*
X84140Y61460D01*
X83060Y61750D01*
D02*
G37*
G36*
Y51750D02*
X81941D01*
X80860Y51460D01*
X79890Y50901D01*
X79099Y50110D01*
X78540Y49140D01*
X78250Y48059D01*
Y46940D01*
X78540Y45860D01*
X79099Y44890D01*
X79890Y44099D01*
X80860Y43540D01*
X81941Y43250D01*
X83060D01*
X84140Y43540D01*
X85110Y44099D01*
X85901Y44890D01*
X86460Y45860D01*
X86750Y46940D01*
Y48059D01*
X86460Y49140D01*
X85901Y50110D01*
X85110Y50901D01*
X84140Y51460D01*
X83060Y51750D01*
D02*
G37*
G36*
Y41750D02*
X81941D01*
X80860Y41460D01*
X79890Y40901D01*
X79099Y40110D01*
X78540Y39140D01*
X78250Y38059D01*
Y36941D01*
X78540Y35860D01*
X79099Y34890D01*
X79890Y34099D01*
X80860Y33540D01*
X81941Y33250D01*
X83060D01*
X84140Y33540D01*
X85110Y34099D01*
X85901Y34890D01*
X86460Y35860D01*
X86750Y36941D01*
Y38059D01*
X86460Y39140D01*
X85901Y40110D01*
X85110Y40901D01*
X84140Y41460D01*
X83060Y41750D01*
D02*
G37*
G36*
Y31750D02*
X81941D01*
X80860Y31460D01*
X79890Y30901D01*
X79099Y30110D01*
X78540Y29140D01*
X78250Y28060D01*
Y26941D01*
X78540Y25860D01*
X79099Y24890D01*
X79890Y24099D01*
X80860Y23540D01*
X81941Y23250D01*
X83060D01*
X84140Y23540D01*
X85110Y24099D01*
X85901Y24890D01*
X86460Y25860D01*
X86750Y26941D01*
Y28060D01*
X86460Y29140D01*
X85901Y30110D01*
X85110Y30901D01*
X84140Y31460D01*
X83060Y31750D01*
D02*
G37*
G36*
Y21750D02*
X81941D01*
X80860Y21460D01*
X79890Y20901D01*
X79099Y20110D01*
X78540Y19140D01*
X78250Y18059D01*
Y16940D01*
X78540Y15860D01*
X79099Y14890D01*
X79890Y14099D01*
X80860Y13540D01*
X81941Y13250D01*
X83060D01*
X84140Y13540D01*
X85110Y14099D01*
X85901Y14890D01*
X86460Y15860D01*
X86750Y16940D01*
Y18059D01*
X86460Y19140D01*
X85901Y20110D01*
X85110Y20901D01*
X84140Y21460D01*
X83060Y21750D01*
D02*
G37*
%LPD*%
D13*
X52825Y224175D02*
X58000Y219000D01*
X49325Y224175D02*
X52825D01*
X58000Y216500D02*
Y219000D01*
X66500Y217500D02*
Y223500D01*
X61825Y228175D02*
X66500Y223500D01*
X49325Y228175D02*
X61825D01*
X65000Y232500D02*
X74500Y223000D01*
Y217500D02*
Y223000D01*
X74750Y217750D02*
X76000Y216500D01*
X49000Y232500D02*
X65000D01*
X90500Y217500D02*
Y218500D01*
X49000Y236500D02*
X72500D01*
X90500Y218500D01*
X82500Y240500D02*
X98500Y224500D01*
Y221000D02*
Y224500D01*
X93000Y244500D02*
X106000Y231500D01*
X112500D01*
X102500Y248500D02*
X111500Y239500D01*
X49000Y248500D02*
X102500D01*
X111500Y239500D02*
X112500D01*
X49000Y252500D02*
X106500D01*
X112269Y246731D01*
Y246231D02*
Y246731D01*
Y246231D02*
X113500Y245000D01*
X49000Y272500D02*
X88500D01*
X111500Y295500D02*
X112500D01*
X88500Y272500D02*
X111500Y295500D01*
Y263500D02*
X112500D01*
X49000Y260500D02*
X108500D01*
X111500Y263500D01*
X112000Y272000D02*
X113500D01*
X104500Y264500D02*
X112000Y272000D01*
X49000Y264500D02*
X104500D01*
X49000Y268500D02*
X94500D01*
X105769Y279769D02*
X112269D01*
X94500Y268500D02*
X105769Y279769D01*
X112269D02*
X113500Y281000D01*
X105500Y303500D02*
X112500D01*
X78500Y276500D02*
X105500Y303500D01*
X112500D02*
X113731Y304731D01*
X98500Y309500D02*
Y314000D01*
X69500Y280500D02*
X98500Y309500D01*
X49000Y284500D02*
X58500D01*
X90500Y316500D02*
Y317500D01*
X58500Y284500D02*
X90500Y316500D01*
X5000Y287500D02*
X20000D01*
X42500Y310000D01*
X5000Y295500D02*
X20000D01*
X34500Y310000D01*
X52500Y336500D02*
Y355000D01*
X34500Y318500D02*
X52500Y336500D01*
X12500Y325000D02*
X28000D01*
X34500Y318500D01*
X5000Y317500D02*
X26000D01*
X26500Y317000D01*
X5000Y303500D02*
X12500D01*
X14259Y305259D01*
X14214Y305305D02*
X14259Y305259D01*
X14214Y305305D02*
Y305325D01*
X5000Y279500D02*
X10000D01*
X11500Y281000D01*
X5000Y271500D02*
X12500D01*
X11000Y263500D02*
X11500Y263000D01*
X5000Y263500D02*
X11000D01*
X5000Y255500D02*
X10000D01*
X11500Y254000D01*
X5000Y233000D02*
X11500Y239500D01*
X5000Y217500D02*
Y233000D01*
Y217500D02*
X17500Y205000D01*
X11500Y239500D02*
X12500D01*
X15000Y213500D02*
X22000Y206500D01*
X15000Y213500D02*
Y229000D01*
X12500Y231500D02*
X15000Y229000D01*
X26500Y216500D02*
Y217500D01*
X35000Y208000D02*
X51500D01*
X26500Y216500D02*
X35000Y208000D01*
X34500Y216500D02*
Y217500D01*
X41500Y209500D02*
X52500D01*
X34500Y216500D02*
X41500Y209500D01*
X42500Y216500D02*
Y217500D01*
X48000Y211000D02*
X53500D01*
X42500Y216500D02*
X48000Y211000D01*
X40500Y191500D02*
X50000Y182000D01*
X15000Y191500D02*
X40500D01*
X50000Y155000D02*
Y182000D01*
X41500Y193000D02*
X51500Y183000D01*
X12500Y193000D02*
X41500D01*
X51500Y146500D02*
Y183000D01*
X42500Y194500D02*
X53000Y184000D01*
Y138000D02*
Y184000D01*
X10000Y194500D02*
X42500D01*
X7500Y196000D02*
X43500D01*
X54500Y129500D02*
Y185000D01*
X43500Y196000D02*
X54500Y185000D01*
X44500Y197500D02*
X56000Y186000D01*
X5000Y197500D02*
X44500D01*
X56000Y121000D02*
Y186000D01*
X45500Y199000D02*
X57500Y187000D01*
X7500Y199000D02*
X45500D01*
X57500Y112500D02*
Y187000D01*
X46500Y200500D02*
X59000Y188000D01*
X10000Y200500D02*
X46500D01*
X59000Y104000D02*
Y188000D01*
X60500Y95500D02*
Y189000D01*
X47500Y202000D02*
X60500Y189000D01*
X12500Y202000D02*
X47500D01*
X48500Y203500D02*
X62000Y190000D01*
X15000Y203500D02*
X48500D01*
X62000Y87000D02*
Y190000D01*
X63500Y78500D02*
Y191000D01*
X17500Y205000D02*
X49500D01*
X63500Y191000D01*
X22000Y206500D02*
X50500D01*
X65000Y70000D02*
Y192000D01*
X50500Y206500D02*
X65000Y192000D01*
X51500Y208000D02*
X66500Y193000D01*
Y61500D02*
Y193000D01*
X68000Y53000D02*
Y194000D01*
X52500Y209500D02*
X68000Y194000D01*
X69500Y44500D02*
Y195000D01*
X53500Y211000D02*
X69500Y195000D01*
X50500Y216500D02*
Y217500D01*
Y216500D02*
X71000Y196000D01*
Y36000D02*
Y196000D01*
X49000Y280500D02*
X69500D01*
X49000Y276500D02*
X78500D01*
X49000Y244500D02*
X93000D01*
X49000Y240500D02*
X82500D01*
X45000Y362500D02*
X52500Y355000D01*
X111000Y256500D02*
X113500Y254000D01*
X49000Y256500D02*
X111000D01*
X49000Y228500D02*
X49325Y228175D01*
X49000Y224500D02*
X49325Y224175D01*
X42500Y57500D02*
X63500Y78500D01*
X42500Y37500D02*
X66500Y61500D01*
X42500Y7500D02*
X71000Y36000D01*
X42500Y67500D02*
X62000Y87000D01*
X42500Y87500D02*
X59000Y104000D01*
X42500Y77500D02*
X60500Y95500D01*
X42500Y47500D02*
X65000Y70000D01*
X42500Y117500D02*
X54500Y129500D01*
X42500Y27500D02*
X68000Y53000D01*
X42500Y107500D02*
X56000Y121000D01*
X42500Y97500D02*
X57500Y112500D01*
X42500Y127500D02*
X53000Y138000D01*
X42500Y147500D02*
X50000Y155000D01*
X42500Y17500D02*
X69500Y44500D01*
X42500Y137500D02*
X51500Y146500D01*
X5000Y213500D02*
X15000Y203500D01*
X5000Y209500D02*
X12500Y202000D01*
X5000Y205500D02*
X10000Y200500D01*
X5000Y201500D02*
X7500Y199000D01*
X13000Y189500D02*
X15000Y191500D01*
X9000Y189500D02*
X12500Y193000D01*
X5000Y189500D02*
X10000Y194500D01*
X5000Y193500D02*
X7500Y196000D01*
D23*
X12500Y271500D02*
D03*
Y303500D02*
D03*
Y295500D02*
D03*
Y287500D02*
D03*
Y279500D02*
D03*
Y263500D02*
D03*
Y255500D02*
D03*
Y247500D02*
D03*
Y239500D02*
D03*
Y231500D02*
D03*
X112500D02*
D03*
Y239500D02*
D03*
Y247500D02*
D03*
Y255500D02*
D03*
Y263500D02*
D03*
Y271500D02*
D03*
Y279500D02*
D03*
Y287500D02*
D03*
Y295500D02*
D03*
Y303500D02*
D03*
D24*
X22000Y231500D02*
D03*
D25*
X26500Y217500D02*
D03*
X34500D02*
D03*
X42500D02*
D03*
X50500D02*
D03*
X58500D02*
D03*
X66500D02*
D03*
X74500D02*
D03*
X82500D02*
D03*
X90500D02*
D03*
X98500D02*
D03*
Y317500D02*
D03*
X90500D02*
D03*
X82500D02*
D03*
X74500D02*
D03*
X66500D02*
D03*
X58500D02*
D03*
X50500D02*
D03*
X42500D02*
D03*
X34500D02*
D03*
X26500D02*
D03*
D26*
X92382Y349528D02*
D03*
X94941D02*
D03*
X97500D02*
D03*
X100059D02*
D03*
X102618D02*
D03*
D27*
X82500Y318535D02*
Y325000D01*
X74500Y320000D02*
X76000Y318500D01*
X74500Y320000D02*
Y325000D01*
X79000Y329500D01*
X96500D01*
X105993Y338993D02*
Y349493D01*
X96500Y329500D02*
X105993Y338993D01*
D28*
X88403Y336000D02*
X97490Y345087D01*
Y349518D01*
X97500Y349528D01*
X89385Y333630D02*
X100059Y344304D01*
Y349528D01*
X62343Y333630D02*
X89385D01*
X61361Y336000D02*
X88403D01*
X55685Y321315D02*
X58500Y318500D01*
X55685Y326972D02*
X62343Y333630D01*
X53315Y327954D02*
X61361Y336000D01*
X53315Y321315D02*
Y327954D01*
X58500Y317500D02*
Y318500D01*
X55685Y321315D02*
Y326972D01*
X50500Y317500D02*
Y318500D01*
X53315Y321315D01*
D29*
X90378Y349528D02*
D03*
X104622D02*
D03*
D30*
X22000Y235500D02*
D03*
Y227500D02*
D03*
X42000Y231500D02*
D03*
D31*
X45000Y362500D02*
D03*
Y352500D02*
D03*
X35000Y362500D02*
D03*
Y352500D02*
D03*
X25000Y362500D02*
D03*
Y352500D02*
D03*
D32*
X116988Y351575D02*
D03*
X78012D02*
D03*
D33*
Y367323D02*
D03*
X116988D02*
D03*
D34*
X42500Y177500D02*
D03*
Y167500D02*
D03*
Y157500D02*
D03*
Y147500D02*
D03*
Y137500D02*
D03*
Y127500D02*
D03*
Y117500D02*
D03*
Y107500D02*
D03*
Y97500D02*
D03*
Y87500D02*
D03*
Y77500D02*
D03*
Y67500D02*
D03*
X82500Y177500D02*
D03*
Y167500D02*
D03*
Y157500D02*
D03*
Y147500D02*
D03*
Y137500D02*
D03*
Y127500D02*
D03*
X42500Y57500D02*
D03*
Y47500D02*
D03*
Y37500D02*
D03*
Y27500D02*
D03*
Y17500D02*
D03*
Y7500D02*
D03*
X82500Y117500D02*
D03*
Y107500D02*
D03*
Y97500D02*
D03*
Y87500D02*
D03*
Y77500D02*
D03*
Y67500D02*
D03*
Y57500D02*
D03*
Y47500D02*
D03*
Y37500D02*
D03*
Y27500D02*
D03*
Y17500D02*
D03*
Y7500D02*
D03*
D35*
X49000Y284500D02*
D03*
X82500Y325000D02*
D03*
X74500D02*
D03*
X34500Y310000D02*
D03*
X42500D02*
D03*
X12500Y325000D02*
D03*
X5000Y317500D02*
D03*
Y303500D02*
D03*
Y295500D02*
D03*
Y287500D02*
D03*
Y279500D02*
D03*
Y271500D02*
D03*
Y263500D02*
D03*
Y255500D02*
D03*
X105000Y187500D02*
D03*
X95000D02*
D03*
X115000Y320000D02*
D03*
Y217500D02*
D03*
X80000Y225000D02*
D03*
X87500Y230000D02*
D03*
X95000Y235000D02*
D03*
X102500Y240000D02*
D03*
X105000Y272500D02*
D03*
X97500Y277500D02*
D03*
X90000Y282500D02*
D03*
X82500Y287500D02*
D03*
X75000Y292500D02*
D03*
X67500Y305000D02*
D03*
X55000Y292500D02*
D03*
X42500Y247500D02*
D03*
Y265000D02*
D03*
Y280000D02*
D03*
X22500D02*
D03*
Y265000D02*
D03*
Y247500D02*
D03*
X57500Y342500D02*
D03*
Y355000D02*
D03*
X15000D02*
D03*
X45000Y370000D02*
D03*
X35000D02*
D03*
X15000Y342500D02*
D03*
X45000D02*
D03*
X35000D02*
D03*
X85000D02*
D03*
X112500D02*
D03*
X98500Y337500D02*
D03*
X30000Y187500D02*
D03*
X20000D02*
D03*
X76500Y157500D02*
D03*
Y147500D02*
D03*
Y137500D02*
D03*
Y127500D02*
D03*
Y117500D02*
D03*
Y107500D02*
D03*
Y97500D02*
D03*
Y87500D02*
D03*
Y77500D02*
D03*
Y67500D02*
D03*
Y57500D02*
D03*
Y47500D02*
D03*
Y37500D02*
D03*
Y27500D02*
D03*
Y17500D02*
D03*
X48500Y7500D02*
D03*
Y17500D02*
D03*
Y27500D02*
D03*
Y37500D02*
D03*
Y47500D02*
D03*
Y57500D02*
D03*
Y67500D02*
D03*
Y77500D02*
D03*
Y87500D02*
D03*
Y97500D02*
D03*
Y107500D02*
D03*
Y117500D02*
D03*
Y127500D02*
D03*
Y137500D02*
D03*
Y147500D02*
D03*
X49000Y280500D02*
D03*
Y276500D02*
D03*
Y272500D02*
D03*
Y268500D02*
D03*
Y264500D02*
D03*
Y260500D02*
D03*
Y256500D02*
D03*
Y252500D02*
D03*
Y248500D02*
D03*
Y244500D02*
D03*
Y240500D02*
D03*
Y236500D02*
D03*
Y232500D02*
D03*
Y228500D02*
D03*
Y224500D02*
D03*
X13000Y189500D02*
D03*
X9000D02*
D03*
X5000D02*
D03*
Y193500D02*
D03*
Y213500D02*
D03*
Y209500D02*
D03*
Y205500D02*
D03*
Y201500D02*
D03*
Y197500D02*
D03*
M02*
