G04*
G04 #@! TF.GenerationSoftware,Altium Limited,Altium Designer,22.4.2 (48)*
G04*
G04 Layer_Color=8388736*
%FSLAX25Y25*%
%MOIN*%
G70*
G04*
G04 #@! TF.SameCoordinates,CDAD1D31-92B0-4844-B762-6F75AC63F9A2*
G04*
G04*
G04 #@! TF.FilePolarity,Negative*
G04*
G01*
G75*
%ADD14R,0.08400X0.06400*%
%ADD15O,0.08900X0.16400*%
%ADD16R,0.06400X0.08400*%
%ADD17R,0.02150X0.04750*%
%ADD18C,0.08900*%
%ADD19C,0.08400*%
%ADD20O,0.05124X0.08668*%
%ADD21O,0.05124X0.09849*%
%ADD22C,0.07400*%
D14*
X12500Y271500D02*
D03*
Y303500D02*
D03*
Y295500D02*
D03*
Y287500D02*
D03*
Y279500D02*
D03*
Y263500D02*
D03*
Y255500D02*
D03*
Y247500D02*
D03*
Y239500D02*
D03*
Y231500D02*
D03*
X112500D02*
D03*
Y239500D02*
D03*
Y247500D02*
D03*
Y255500D02*
D03*
Y263500D02*
D03*
Y271500D02*
D03*
Y279500D02*
D03*
Y287500D02*
D03*
Y295500D02*
D03*
Y303500D02*
D03*
D15*
X22000Y231500D02*
D03*
D16*
X26500Y217500D02*
D03*
X34500D02*
D03*
X42500D02*
D03*
X50500D02*
D03*
X58500D02*
D03*
X66500D02*
D03*
X74500D02*
D03*
X82500D02*
D03*
X90500D02*
D03*
X98500D02*
D03*
Y317500D02*
D03*
X90500D02*
D03*
X82500D02*
D03*
X74500D02*
D03*
X66500D02*
D03*
X58500D02*
D03*
X50500D02*
D03*
X42500D02*
D03*
X34500D02*
D03*
X26500D02*
D03*
D17*
X92382Y349528D02*
D03*
X94941D02*
D03*
X97500D02*
D03*
X100059D02*
D03*
X102618D02*
D03*
D18*
X22000Y235500D02*
D03*
Y227500D02*
D03*
X42000Y231500D02*
D03*
D19*
X45000Y362500D02*
D03*
Y352500D02*
D03*
X35000Y362500D02*
D03*
Y352500D02*
D03*
X25000Y362500D02*
D03*
Y352500D02*
D03*
D20*
X116988Y351575D02*
D03*
X78012D02*
D03*
D21*
Y367323D02*
D03*
X116988D02*
D03*
D22*
X42500Y177500D02*
D03*
Y167500D02*
D03*
Y157500D02*
D03*
Y147500D02*
D03*
Y137500D02*
D03*
Y127500D02*
D03*
Y117500D02*
D03*
Y107500D02*
D03*
Y97500D02*
D03*
Y87500D02*
D03*
Y77500D02*
D03*
Y67500D02*
D03*
X82500Y177500D02*
D03*
Y167500D02*
D03*
Y157500D02*
D03*
Y147500D02*
D03*
Y137500D02*
D03*
Y127500D02*
D03*
X42500Y57500D02*
D03*
Y47500D02*
D03*
Y37500D02*
D03*
Y27500D02*
D03*
Y17500D02*
D03*
Y7500D02*
D03*
X82500Y117500D02*
D03*
Y107500D02*
D03*
Y97500D02*
D03*
Y87500D02*
D03*
Y77500D02*
D03*
Y67500D02*
D03*
Y57500D02*
D03*
Y47500D02*
D03*
Y37500D02*
D03*
Y27500D02*
D03*
Y17500D02*
D03*
Y7500D02*
D03*
M02*
