G04*
G04 #@! TF.GenerationSoftware,Altium Limited,Altium Designer,22.4.2 (48)*
G04*
G04 Layer_Color=32896*
%FSLAX25Y25*%
%MOIN*%
G70*
G04*
G04 #@! TF.SameCoordinates,8F61AF4B-F53A-42A9-915A-93109ADE89DC*
G04*
G04*
G04 #@! TF.FilePolarity,Positive*
G04*
G01*
G75*
%ADD36C,0.00600*%
D36*
X73496Y8999D02*
X74496D01*
X73996D01*
Y6500D01*
X74496Y6001D01*
X74996D01*
X75496Y6500D01*
X72497Y8999D02*
Y6001D01*
X70497D01*
X67498Y8500D02*
X67998Y8999D01*
X68998D01*
X69498Y8500D01*
Y6500D01*
X68998Y6001D01*
X67998D01*
X67498Y6500D01*
X64499Y8999D02*
X65499D01*
X64999D01*
Y6500D01*
X65499Y6001D01*
X65999D01*
X66499Y6500D01*
X63500Y8999D02*
Y6001D01*
X61500D01*
X58501Y8500D02*
X59001Y8999D01*
X60001D01*
X60501Y8500D01*
Y6500D01*
X60001Y6001D01*
X59001D01*
X58501Y6500D01*
X55502Y8999D02*
X56502D01*
X56002D01*
Y6500D01*
X56502Y6001D01*
X57002D01*
X57502Y6500D01*
X54503Y8999D02*
Y6001D01*
X52503D01*
X49504Y8500D02*
X50004Y8999D01*
X51004D01*
X51503Y8500D01*
Y6500D01*
X51004Y6001D01*
X50004D01*
X49504Y6500D01*
M02*
