G04*
G04 #@! TF.GenerationSoftware,Altium Limited,Altium Designer,22.4.2 (48)*
G04*
G04 Layer_Physical_Order=1*
G04 Layer_Color=255*
%FSLAX25Y25*%
%MOIN*%
G70*
G04*
G04 #@! TF.SameCoordinates,8F61AF4B-F53A-42A9-915A-93109ADE89DC*
G04*
G04*
G04 #@! TF.FilePolarity,Positive*
G04*
G01*
G75*
%ADD11C,0.01000*%
%ADD13C,0.00800*%
%ADD23R,0.06000X0.08000*%
%ADD24R,0.08000X0.06000*%
%ADD25O,0.08500X0.16000*%
%ADD26R,0.01750X0.04350*%
%ADD27C,0.01730*%
%ADD28C,0.03000*%
%ADD29R,0.05757X0.04350*%
%ADD30C,0.08500*%
%ADD31C,0.08000*%
%ADD32O,0.04724X0.08268*%
%ADD33O,0.04724X0.09449*%
%ADD34C,0.07000*%
%ADD35C,0.02500*%
G36*
X123339Y373755D02*
X123755Y373339D01*
X123980Y372795D01*
Y372500D01*
X123980Y187500D01*
Y187206D01*
X123755Y186661D01*
X123339Y186245D01*
X122794Y186020D01*
X92500D01*
X92450Y186010D01*
X92400Y186015D01*
X91912Y185967D01*
X91769Y185923D01*
X91622Y185894D01*
X90721Y185521D01*
X90390Y185300D01*
X90091Y185000D01*
X90000D01*
Y184909D01*
X89700Y184610D01*
X89479Y184279D01*
X89106Y183378D01*
X89077Y183231D01*
X89033Y183088D01*
X88985Y182600D01*
X88990Y182550D01*
X88981Y182500D01*
X88981Y2500D01*
Y2206D01*
X88755Y1661D01*
X88339Y1245D01*
X87795Y1020D01*
X37500D01*
X37205Y1020D01*
X36661Y1245D01*
X36245Y1661D01*
X36020Y2206D01*
Y2500D01*
X36020Y182500D01*
X36010Y182550D01*
X36015Y182600D01*
X35967Y183088D01*
X35923Y183231D01*
X35894Y183378D01*
X35521Y184279D01*
X35300Y184610D01*
X35000Y184909D01*
Y185000D01*
X34909D01*
X34610Y185300D01*
X34279Y185521D01*
X33378Y185894D01*
X33231Y185923D01*
X33088Y185967D01*
X32600Y186015D01*
X32550Y186010D01*
X32500Y186020D01*
X2500Y186020D01*
X2206D01*
X1661Y186245D01*
X1245Y186661D01*
X1020Y187206D01*
Y187500D01*
Y372500D01*
Y372795D01*
X1245Y373339D01*
X1661Y373755D01*
X2206Y373980D01*
X80929D01*
Y371817D01*
X80429Y371647D01*
X80231Y371905D01*
X79581Y372404D01*
X78824Y372717D01*
X78012Y372824D01*
X77199Y372717D01*
X76442Y372404D01*
X75792Y371905D01*
X75293Y371255D01*
X74980Y370497D01*
X74873Y369685D01*
Y364961D01*
X74980Y364148D01*
X75293Y363391D01*
X75792Y362741D01*
X76442Y362242D01*
X77199Y361929D01*
X78012Y361822D01*
X78824Y361929D01*
X79581Y362242D01*
X80231Y362741D01*
X80429Y362999D01*
X80929Y362829D01*
Y356186D01*
X80949Y356087D01*
Y355987D01*
X81070Y355379D01*
X81034Y355342D01*
X80373Y355382D01*
X80231Y355566D01*
X79581Y356065D01*
X78824Y356379D01*
X78012Y356486D01*
X77199Y356379D01*
X76442Y356065D01*
X75792Y355566D01*
X75293Y354916D01*
X74980Y354159D01*
X74873Y353346D01*
Y349803D01*
X74980Y348991D01*
X75293Y348234D01*
X75792Y347584D01*
X76442Y347085D01*
X77199Y346771D01*
X78012Y346664D01*
X78824Y346771D01*
X79581Y347085D01*
X80231Y347584D01*
X80730Y348234D01*
X81044Y348991D01*
X81151Y349803D01*
Y353346D01*
X81044Y354159D01*
X81015Y354229D01*
X81459Y354438D01*
X81804Y353922D01*
X81875Y353851D01*
X81931Y353767D01*
X82370Y353329D01*
X82453Y353273D01*
X82524Y353202D01*
X83040Y352857D01*
X83133Y352819D01*
X83216Y352763D01*
X83789Y352525D01*
X83888Y352506D01*
X83981Y352467D01*
X84589Y352346D01*
X84690D01*
X84788Y352327D01*
X85098D01*
X85098Y352327D01*
X93316D01*
Y346603D01*
X95843D01*
Y345769D01*
X88681Y338607D01*
X63806D01*
X63176Y338481D01*
X62642Y338124D01*
X51151Y326633D01*
X50794Y326099D01*
X50668Y325469D01*
Y323330D01*
X50588Y323250D01*
X45250D01*
Y313750D01*
X52750D01*
Y320755D01*
X53163Y321168D01*
X53500Y321466D01*
X53837Y321168D01*
X54250Y320755D01*
Y313750D01*
X61750D01*
Y323250D01*
X56412D01*
X56332Y323330D01*
Y323805D01*
X65470Y332943D01*
X90345D01*
X90975Y333069D01*
X91509Y333426D01*
X101223Y343140D01*
X101580Y343674D01*
X101706Y344304D01*
Y346557D01*
X101743Y346588D01*
X103699D01*
Y339943D01*
X95550Y331794D01*
X80500D01*
X79622Y331620D01*
X78878Y331122D01*
X74378Y326622D01*
X73881Y325878D01*
X73706Y325000D01*
Y323250D01*
X72250D01*
Y313750D01*
X79750D01*
Y323250D01*
X78294D01*
Y324050D01*
X81450Y327206D01*
X83351D01*
X83503Y326706D01*
X83378Y326622D01*
X82881Y325878D01*
X82706Y325000D01*
Y323250D01*
X81250D01*
Y313750D01*
X88750D01*
Y323250D01*
X87294D01*
Y325000D01*
X87119Y325878D01*
X86622Y326622D01*
X86497Y326706D01*
X86648Y327206D01*
X96500D01*
X97378Y327380D01*
X98122Y327878D01*
X107615Y337371D01*
X108113Y338115D01*
X108287Y338993D01*
Y349493D01*
X108265Y349606D01*
Y351703D01*
X108240Y351827D01*
X108490Y352243D01*
X108586Y352327D01*
X109901D01*
X109902Y352327D01*
X110212D01*
X110310Y352346D01*
X110411D01*
X111019Y352467D01*
X111112Y352506D01*
X111211Y352525D01*
X111784Y352763D01*
X111867Y352819D01*
X111960Y352857D01*
X112476Y353202D01*
X112547Y353273D01*
X112630Y353329D01*
X113069Y353767D01*
X113125Y353851D01*
X113196Y353922D01*
X113540Y354438D01*
X113985Y354229D01*
X113956Y354159D01*
X113849Y353346D01*
Y349803D01*
X113956Y348991D01*
X114270Y348234D01*
X114769Y347584D01*
X115419Y347085D01*
X116176Y346771D01*
X116988Y346664D01*
X117801Y346771D01*
X118558Y347085D01*
X119208Y347584D01*
X119707Y348234D01*
X120020Y348991D01*
X120127Y349803D01*
Y353346D01*
X120020Y354159D01*
X119707Y354916D01*
X119208Y355566D01*
X118558Y356065D01*
X117801Y356379D01*
X116988Y356486D01*
X116176Y356379D01*
X115419Y356065D01*
X114769Y355566D01*
X114627Y355382D01*
X113966Y355342D01*
X113930Y355379D01*
X114051Y355987D01*
Y356087D01*
X114071Y356186D01*
Y362829D01*
X114571Y362999D01*
X114769Y362741D01*
X115419Y362242D01*
X116176Y361929D01*
X116988Y361822D01*
X117801Y361929D01*
X118558Y362242D01*
X119208Y362741D01*
X119707Y363391D01*
X120020Y364148D01*
X120127Y364961D01*
Y369685D01*
X120020Y370497D01*
X119707Y371255D01*
X119208Y371905D01*
X118558Y372404D01*
X117801Y372717D01*
X116988Y372824D01*
X116176Y372717D01*
X115419Y372404D01*
X114769Y371905D01*
X114571Y371647D01*
X114071Y371817D01*
Y373980D01*
X122794D01*
X123339Y373755D01*
D02*
G37*
%LPC*%
G36*
X35625Y367250D02*
X34375D01*
X33167Y366926D01*
X32083Y366301D01*
X31199Y365417D01*
X30574Y364333D01*
X30250Y363125D01*
Y361875D01*
X30574Y360667D01*
X31199Y359583D01*
X32083Y358699D01*
X33167Y358074D01*
X34375Y357750D01*
X35625D01*
X36833Y358074D01*
X37917Y358699D01*
X38801Y359583D01*
X39426Y360667D01*
X39750Y361875D01*
Y363125D01*
X39426Y364333D01*
X38801Y365417D01*
X37917Y366301D01*
X36833Y366926D01*
X35625Y367250D01*
D02*
G37*
G36*
X45625Y357250D02*
X44375D01*
X43167Y356926D01*
X42083Y356301D01*
X41199Y355417D01*
X40574Y354333D01*
X40250Y353125D01*
Y351875D01*
X40574Y350667D01*
X41199Y349583D01*
X42083Y348699D01*
X43167Y348074D01*
X44375Y347750D01*
X45625D01*
X46833Y348074D01*
X47917Y348699D01*
X48801Y349583D01*
X49426Y350667D01*
X49750Y351875D01*
Y353125D01*
X49426Y354333D01*
X48801Y355417D01*
X47917Y356301D01*
X46833Y356926D01*
X45625Y357250D01*
D02*
G37*
G36*
X35625D02*
X34375D01*
X33167Y356926D01*
X32083Y356301D01*
X31199Y355417D01*
X30574Y354333D01*
X30250Y353125D01*
Y351875D01*
X30574Y350667D01*
X31199Y349583D01*
X32083Y348699D01*
X33167Y348074D01*
X34375Y347750D01*
X35625D01*
X36833Y348074D01*
X37917Y348699D01*
X38801Y349583D01*
X39426Y350667D01*
X39750Y351875D01*
Y353125D01*
X39426Y354333D01*
X38801Y355417D01*
X37917Y356301D01*
X36833Y356926D01*
X35625Y357250D01*
D02*
G37*
G36*
X25625D02*
X24375D01*
X23167Y356926D01*
X22083Y356301D01*
X21199Y355417D01*
X20574Y354333D01*
X20250Y353125D01*
Y351875D01*
X20574Y350667D01*
X21199Y349583D01*
X22083Y348699D01*
X23167Y348074D01*
X24375Y347750D01*
X25625D01*
X26833Y348074D01*
X27917Y348699D01*
X28801Y349583D01*
X29426Y350667D01*
X29750Y351875D01*
Y353125D01*
X29426Y354333D01*
X28801Y355417D01*
X27917Y356301D01*
X26833Y356926D01*
X25625Y357250D01*
D02*
G37*
G36*
X45625Y367250D02*
X44375D01*
X43167Y366926D01*
X42083Y366301D01*
X41199Y365417D01*
X40574Y364333D01*
X40250Y363125D01*
Y361875D01*
X40574Y360667D01*
X41199Y359583D01*
X42083Y358699D01*
X43167Y358074D01*
X44375Y357750D01*
X45625D01*
X46833Y358074D01*
X47426Y358416D01*
X51328Y354514D01*
Y341486D01*
X33092Y323250D01*
X28908D01*
X25329Y326829D01*
X24949Y327083D01*
X24500Y327172D01*
X15656D01*
X15133Y327695D01*
X14398Y328000D01*
X13602D01*
X12867Y327695D01*
X12304Y327133D01*
X12000Y326398D01*
Y325602D01*
X12304Y324867D01*
X12867Y324305D01*
X13602Y324000D01*
X14398D01*
X15133Y324305D01*
X15656Y324828D01*
X24014D01*
X25130Y323712D01*
X24938Y323250D01*
X18250D01*
Y318173D01*
X6656D01*
X6133Y318695D01*
X5398Y319000D01*
X4602D01*
X3867Y318695D01*
X3305Y318133D01*
X3000Y317398D01*
Y316602D01*
X3305Y315867D01*
X3867Y315304D01*
X4602Y315000D01*
X5398D01*
X6133Y315304D01*
X6656Y315827D01*
X18250D01*
Y313750D01*
X25750D01*
Y322439D01*
X26212Y322630D01*
X27250Y321592D01*
Y313750D01*
X29215D01*
X29422Y313250D01*
X29305Y313133D01*
X29000Y312398D01*
Y311658D01*
X17514Y300172D01*
X16250D01*
Y302750D01*
X6750D01*
Y300785D01*
X6250Y300578D01*
X6133Y300695D01*
X5398Y301000D01*
X4602D01*
X3867Y300695D01*
X3305Y300133D01*
X3000Y299398D01*
Y298602D01*
X3305Y297867D01*
X3867Y297305D01*
X4602Y297000D01*
X5398D01*
X6133Y297305D01*
X6250Y297422D01*
X6750Y297215D01*
Y295250D01*
X16250D01*
Y297828D01*
X18000D01*
X18449Y297917D01*
X18829Y298171D01*
X30658Y310000D01*
X31398D01*
X32133Y310304D01*
X32695Y310867D01*
X33000Y311602D01*
Y312398D01*
X32695Y313133D01*
X32578Y313250D01*
X32785Y313750D01*
X34750D01*
Y321592D01*
X53329Y340171D01*
X53583Y340551D01*
X53672Y341000D01*
Y355000D01*
X53583Y355449D01*
X53329Y355829D01*
X49084Y360074D01*
X49426Y360667D01*
X49750Y361875D01*
Y363125D01*
X49426Y364333D01*
X48801Y365417D01*
X47917Y366301D01*
X46833Y366926D01*
X45625Y367250D01*
D02*
G37*
G36*
X16250Y311750D02*
X6750D01*
Y309786D01*
X6250Y309578D01*
X6133Y309696D01*
X5398Y310000D01*
X4602D01*
X3867Y309696D01*
X3305Y309133D01*
X3000Y308398D01*
Y307602D01*
X3305Y306867D01*
X3867Y306305D01*
X4602Y306000D01*
X5398D01*
X6133Y306305D01*
X6250Y306422D01*
X6750Y306214D01*
Y304250D01*
X16250D01*
Y311750D01*
D02*
G37*
G36*
X40398Y314000D02*
X39602D01*
X38867Y313696D01*
X38304Y313133D01*
X38000Y312398D01*
Y311658D01*
X17514Y291173D01*
X16250D01*
Y293750D01*
X6750D01*
Y291786D01*
X6250Y291578D01*
X6133Y291695D01*
X5398Y292000D01*
X4602D01*
X3867Y291695D01*
X3305Y291133D01*
X3000Y290398D01*
Y289602D01*
X3305Y288867D01*
X3867Y288304D01*
X4602Y288000D01*
X5398D01*
X6133Y288304D01*
X6250Y288422D01*
X6750Y288214D01*
Y286250D01*
X16250D01*
Y288827D01*
X18000D01*
X18449Y288917D01*
X18829Y289171D01*
X39658Y310000D01*
X40398D01*
X41133Y310304D01*
X41695Y310867D01*
X42000Y311602D01*
Y312398D01*
X41695Y313133D01*
X41133Y313696D01*
X40398Y314000D01*
D02*
G37*
G36*
X16250Y284750D02*
X6750D01*
Y282786D01*
X6250Y282578D01*
X6133Y282696D01*
X5398Y283000D01*
X4602D01*
X3867Y282696D01*
X3305Y282133D01*
X3000Y281398D01*
Y280602D01*
X3305Y279867D01*
X3867Y279305D01*
X4602Y279000D01*
X5398D01*
X6133Y279305D01*
X6250Y279422D01*
X6750Y279215D01*
Y277250D01*
X16250D01*
Y284750D01*
D02*
G37*
G36*
X106750Y323250D02*
X99250D01*
Y313750D01*
X100438D01*
X100630Y313288D01*
X69014Y281673D01*
X50656D01*
X50133Y282195D01*
X50001Y282250D01*
Y282750D01*
X50133Y282804D01*
X50656Y283328D01*
X63000D01*
X63449Y283417D01*
X63829Y283671D01*
X93098Y312940D01*
X93352Y313320D01*
X93437Y313750D01*
X97750D01*
Y323250D01*
X90250D01*
Y313750D01*
X90250Y313750D01*
X90250D01*
X90126Y313284D01*
X62514Y285672D01*
X50656D01*
X50133Y286195D01*
X49398Y286500D01*
X48602D01*
X47867Y286195D01*
X47304Y285633D01*
X47000Y284898D01*
Y284102D01*
X47304Y283367D01*
X47867Y282804D01*
X47999Y282750D01*
Y282250D01*
X47867Y282195D01*
X47304Y281633D01*
X47000Y280898D01*
Y280102D01*
X47304Y279367D01*
X47867Y278804D01*
X47999Y278750D01*
Y278250D01*
X47867Y278196D01*
X47304Y277633D01*
X47000Y276898D01*
Y276102D01*
X47304Y275367D01*
X47867Y274804D01*
X47999Y274750D01*
Y274250D01*
X47867Y274196D01*
X47304Y273633D01*
X47000Y272898D01*
Y272102D01*
X47304Y271367D01*
X47867Y270805D01*
X47999Y270750D01*
Y270250D01*
X47867Y270196D01*
X47304Y269633D01*
X47000Y268898D01*
Y268102D01*
X47304Y267367D01*
X47867Y266805D01*
X47999Y266750D01*
Y266250D01*
X47867Y266196D01*
X47304Y265633D01*
X47000Y264898D01*
Y264102D01*
X47304Y263367D01*
X47867Y262805D01*
X47999Y262750D01*
Y262250D01*
X47867Y262195D01*
X47304Y261633D01*
X47000Y260898D01*
Y260102D01*
X47304Y259367D01*
X47867Y258804D01*
X47999Y258750D01*
Y258250D01*
X47867Y258195D01*
X47304Y257633D01*
X47000Y256898D01*
Y256102D01*
X47304Y255367D01*
X47867Y254804D01*
X47999Y254750D01*
Y254250D01*
X47867Y254195D01*
X47304Y253633D01*
X47000Y252898D01*
Y252102D01*
X47304Y251367D01*
X47867Y250804D01*
X47999Y250750D01*
Y250250D01*
X47867Y250196D01*
X47304Y249633D01*
X47000Y248898D01*
Y248102D01*
X47304Y247367D01*
X47867Y246804D01*
X47999Y246750D01*
Y246250D01*
X47867Y246196D01*
X47304Y245633D01*
X47000Y244898D01*
Y244102D01*
X47304Y243367D01*
X47867Y242805D01*
X47999Y242750D01*
Y242250D01*
X47867Y242196D01*
X47304Y241633D01*
X47000Y240898D01*
Y240102D01*
X47304Y239367D01*
X47867Y238805D01*
X47999Y238750D01*
Y238250D01*
X47867Y238195D01*
X47304Y237633D01*
X47000Y236898D01*
Y236102D01*
X47304Y235367D01*
X47867Y234805D01*
X47999Y234750D01*
Y234250D01*
X47867Y234195D01*
X47304Y233633D01*
X47194Y233366D01*
X46667Y233401D01*
X46659Y233430D01*
X46001Y234570D01*
X45070Y235501D01*
X43930Y236159D01*
X42658Y236500D01*
X41342D01*
X40070Y236159D01*
X38930Y235501D01*
X37999Y234570D01*
X37341Y233430D01*
X37000Y232158D01*
Y230842D01*
X37341Y229570D01*
X37999Y228430D01*
X38930Y227499D01*
X40070Y226841D01*
X41342Y226500D01*
X42658D01*
X43930Y226841D01*
X45070Y227499D01*
X46001Y228430D01*
X46659Y229570D01*
X47000Y230842D01*
Y230964D01*
X47500Y231172D01*
X47867Y230804D01*
X47999Y230750D01*
Y230250D01*
X47867Y230195D01*
X47304Y229633D01*
X47000Y228898D01*
Y228102D01*
X47304Y227367D01*
X47867Y226804D01*
X47999Y226750D01*
Y226250D01*
X47867Y226196D01*
X47304Y225633D01*
X47000Y224898D01*
Y224102D01*
X47304Y223367D01*
X47867Y222804D01*
X48602Y222500D01*
X49398D01*
X50133Y222804D01*
X50331Y223002D01*
X50840D01*
X52130Y221712D01*
X51938Y221250D01*
X45250D01*
Y212615D01*
X44750Y212408D01*
X43750Y213408D01*
Y221250D01*
X36250D01*
Y212561D01*
X35788Y212370D01*
X34750Y213408D01*
Y221250D01*
X27250D01*
Y212561D01*
X26788Y212370D01*
X25750Y213408D01*
Y221250D01*
X18250D01*
Y213079D01*
X17750Y212812D01*
X17673Y212863D01*
Y223000D01*
X17583Y223449D01*
X17329Y223829D01*
X16250Y224908D01*
Y230750D01*
X7562D01*
X7370Y231212D01*
X8408Y232250D01*
X16250D01*
Y239750D01*
X6750D01*
Y233908D01*
X4171Y231329D01*
X3917Y230949D01*
X3827Y230500D01*
Y217500D01*
X3917Y217051D01*
X4171Y216671D01*
X4880Y215962D01*
X4688Y215500D01*
X4602D01*
X3867Y215195D01*
X3305Y214633D01*
X3000Y213898D01*
Y213102D01*
X3305Y212367D01*
X3867Y211805D01*
X3999Y211750D01*
Y211250D01*
X3867Y211195D01*
X3305Y210633D01*
X3000Y209898D01*
Y209102D01*
X3305Y208367D01*
X3867Y207804D01*
X3999Y207750D01*
Y207250D01*
X3867Y207195D01*
X3305Y206633D01*
X3000Y205898D01*
Y205102D01*
X3305Y204367D01*
X3867Y203804D01*
X3999Y203750D01*
Y203250D01*
X3867Y203196D01*
X3305Y202633D01*
X3000Y201898D01*
Y201102D01*
X3305Y200367D01*
X3867Y199804D01*
X3999Y199750D01*
Y199250D01*
X3867Y199196D01*
X3305Y198633D01*
X3000Y197898D01*
Y197102D01*
X3305Y196367D01*
X3867Y195805D01*
X3999Y195750D01*
Y195250D01*
X3867Y195195D01*
X3305Y194633D01*
X3000Y193898D01*
Y193102D01*
X3305Y192367D01*
X3867Y191805D01*
X3999Y191750D01*
Y191250D01*
X3867Y191195D01*
X3305Y190633D01*
X3000Y189898D01*
Y189102D01*
X3305Y188367D01*
X3867Y187804D01*
X4602Y187500D01*
X5398D01*
X6133Y187804D01*
X6696Y188367D01*
X6750Y188499D01*
X7250D01*
X7305Y188367D01*
X7867Y187804D01*
X8602Y187500D01*
X9398D01*
X10133Y187804D01*
X10695Y188367D01*
X10750Y188499D01*
X11250D01*
X11304Y188367D01*
X11867Y187804D01*
X12602Y187500D01*
X13398D01*
X14133Y187804D01*
X14695Y188367D01*
X15000Y189102D01*
Y189842D01*
X15486Y190328D01*
X37514D01*
X48827Y179014D01*
Y155486D01*
X44560Y151218D01*
X44140Y151460D01*
X43060Y151750D01*
X41941D01*
X40860Y151460D01*
X39890Y150901D01*
X39099Y150110D01*
X38540Y149140D01*
X38250Y148059D01*
Y146941D01*
X38540Y145860D01*
X39099Y144890D01*
X39890Y144099D01*
X40860Y143540D01*
X41941Y143250D01*
X43060D01*
X44140Y143540D01*
X45110Y144099D01*
X45901Y144890D01*
X46460Y145860D01*
X46750Y146941D01*
Y148059D01*
X46460Y149140D01*
X46218Y149560D01*
X49865Y153207D01*
X50327Y153016D01*
Y146986D01*
X44560Y141218D01*
X44140Y141460D01*
X43060Y141750D01*
X41941D01*
X40860Y141460D01*
X39890Y140901D01*
X39099Y140110D01*
X38540Y139140D01*
X38250Y138059D01*
Y136941D01*
X38540Y135860D01*
X39099Y134890D01*
X39890Y134099D01*
X40860Y133540D01*
X41941Y133250D01*
X43060D01*
X44140Y133540D01*
X45110Y134099D01*
X45901Y134890D01*
X46460Y135860D01*
X46750Y136941D01*
Y138059D01*
X46460Y139140D01*
X46218Y139560D01*
X51366Y144707D01*
X51828Y144516D01*
Y138486D01*
X44560Y131218D01*
X44140Y131460D01*
X43060Y131750D01*
X41941D01*
X40860Y131460D01*
X39890Y130901D01*
X39099Y130110D01*
X38540Y129140D01*
X38250Y128059D01*
Y126941D01*
X38540Y125860D01*
X39099Y124890D01*
X39890Y124099D01*
X40860Y123540D01*
X41941Y123250D01*
X43060D01*
X44140Y123540D01*
X45110Y124099D01*
X45901Y124890D01*
X46460Y125860D01*
X46750Y126941D01*
Y128059D01*
X46460Y129140D01*
X46218Y129560D01*
X52865Y136207D01*
X53328Y136016D01*
Y129986D01*
X44560Y121218D01*
X44140Y121460D01*
X43060Y121750D01*
X41941D01*
X40860Y121460D01*
X39890Y120901D01*
X39099Y120110D01*
X38540Y119140D01*
X38250Y118060D01*
Y116940D01*
X38540Y115860D01*
X39099Y114890D01*
X39890Y114099D01*
X40860Y113540D01*
X41941Y113250D01*
X43060D01*
X44140Y113540D01*
X45110Y114099D01*
X45901Y114890D01*
X46460Y115860D01*
X46750Y116940D01*
Y118060D01*
X46460Y119140D01*
X46218Y119560D01*
X54365Y127707D01*
X54827Y127516D01*
Y121486D01*
X44560Y111218D01*
X44140Y111460D01*
X43060Y111750D01*
X41941D01*
X40860Y111460D01*
X39890Y110901D01*
X39099Y110110D01*
X38540Y109140D01*
X38250Y108060D01*
Y106940D01*
X38540Y105860D01*
X39099Y104890D01*
X39890Y104099D01*
X40860Y103540D01*
X41941Y103250D01*
X43060D01*
X44140Y103540D01*
X45110Y104099D01*
X45901Y104890D01*
X46460Y105860D01*
X46750Y106940D01*
Y108060D01*
X46460Y109140D01*
X46218Y109560D01*
X55866Y119207D01*
X56327Y119016D01*
Y112986D01*
X44560Y101218D01*
X44140Y101460D01*
X43060Y101750D01*
X41941D01*
X40860Y101460D01*
X39890Y100901D01*
X39099Y100110D01*
X38540Y99140D01*
X38250Y98059D01*
Y96940D01*
X38540Y95860D01*
X39099Y94890D01*
X39890Y94099D01*
X40860Y93540D01*
X41941Y93250D01*
X43060D01*
X44140Y93540D01*
X45110Y94099D01*
X45901Y94890D01*
X46460Y95860D01*
X46750Y96940D01*
Y98059D01*
X46460Y99140D01*
X46218Y99560D01*
X57366Y110707D01*
X57828Y110516D01*
Y104486D01*
X44560Y91218D01*
X44140Y91460D01*
X43060Y91750D01*
X41941D01*
X40860Y91460D01*
X39890Y90901D01*
X39099Y90110D01*
X38540Y89140D01*
X38250Y88060D01*
Y86940D01*
X38540Y85860D01*
X39099Y84890D01*
X39890Y84099D01*
X40860Y83540D01*
X41941Y83250D01*
X43060D01*
X44140Y83540D01*
X45110Y84099D01*
X45901Y84890D01*
X46460Y85860D01*
X46750Y86940D01*
Y88060D01*
X46460Y89140D01*
X46218Y89560D01*
X58865Y102207D01*
X59328Y102016D01*
Y95986D01*
X44560Y81218D01*
X44140Y81460D01*
X43060Y81750D01*
X41941D01*
X40860Y81460D01*
X39890Y80901D01*
X39099Y80110D01*
X38540Y79140D01*
X38250Y78060D01*
Y76941D01*
X38540Y75860D01*
X39099Y74890D01*
X39890Y74099D01*
X40860Y73540D01*
X41941Y73250D01*
X43060D01*
X44140Y73540D01*
X45110Y74099D01*
X45901Y74890D01*
X46460Y75860D01*
X46750Y76941D01*
Y78060D01*
X46460Y79140D01*
X46218Y79560D01*
X60365Y93707D01*
X60827Y93516D01*
Y87486D01*
X44560Y71218D01*
X44140Y71460D01*
X43060Y71750D01*
X41941D01*
X40860Y71460D01*
X39890Y70901D01*
X39099Y70110D01*
X38540Y69140D01*
X38250Y68059D01*
Y66940D01*
X38540Y65860D01*
X39099Y64890D01*
X39890Y64099D01*
X40860Y63540D01*
X41941Y63250D01*
X43060D01*
X44140Y63540D01*
X45110Y64099D01*
X45901Y64890D01*
X46460Y65860D01*
X46750Y66940D01*
Y68059D01*
X46460Y69140D01*
X46218Y69560D01*
X61866Y85207D01*
X62327Y85016D01*
Y78986D01*
X44560Y61218D01*
X44140Y61460D01*
X43060Y61750D01*
X41941D01*
X40860Y61460D01*
X39890Y60901D01*
X39099Y60110D01*
X38540Y59140D01*
X38250Y58060D01*
Y56941D01*
X38540Y55860D01*
X39099Y54890D01*
X39890Y54099D01*
X40860Y53540D01*
X41941Y53250D01*
X43060D01*
X44140Y53540D01*
X45110Y54099D01*
X45901Y54890D01*
X46460Y55860D01*
X46750Y56941D01*
Y58060D01*
X46460Y59140D01*
X46218Y59560D01*
X63366Y76707D01*
X63827Y76516D01*
Y70486D01*
X44560Y51218D01*
X44140Y51460D01*
X43060Y51750D01*
X41941D01*
X40860Y51460D01*
X39890Y50901D01*
X39099Y50110D01*
X38540Y49140D01*
X38250Y48059D01*
Y46940D01*
X38540Y45860D01*
X39099Y44890D01*
X39890Y44099D01*
X40860Y43540D01*
X41941Y43250D01*
X43060D01*
X44140Y43540D01*
X45110Y44099D01*
X45901Y44890D01*
X46460Y45860D01*
X46750Y46940D01*
Y48059D01*
X46460Y49140D01*
X46218Y49560D01*
X64865Y68207D01*
X65328Y68016D01*
Y61986D01*
X44560Y41218D01*
X44140Y41460D01*
X43060Y41750D01*
X41941D01*
X40860Y41460D01*
X39890Y40901D01*
X39099Y40110D01*
X38540Y39140D01*
X38250Y38059D01*
Y36941D01*
X38540Y35860D01*
X39099Y34890D01*
X39890Y34099D01*
X40860Y33540D01*
X41941Y33250D01*
X43060D01*
X44140Y33540D01*
X45110Y34099D01*
X45901Y34890D01*
X46460Y35860D01*
X46750Y36941D01*
Y38059D01*
X46460Y39140D01*
X46218Y39560D01*
X66365Y59707D01*
X66827Y59516D01*
Y53486D01*
X44560Y31218D01*
X44140Y31460D01*
X43060Y31750D01*
X41941D01*
X40860Y31460D01*
X39890Y30901D01*
X39099Y30110D01*
X38540Y29140D01*
X38250Y28060D01*
Y26941D01*
X38540Y25860D01*
X39099Y24890D01*
X39890Y24099D01*
X40860Y23540D01*
X41941Y23250D01*
X43060D01*
X44140Y23540D01*
X45110Y24099D01*
X45901Y24890D01*
X46460Y25860D01*
X46750Y26941D01*
Y28060D01*
X46460Y29140D01*
X46218Y29560D01*
X67866Y51207D01*
X68327Y51016D01*
Y44986D01*
X44560Y21218D01*
X44140Y21460D01*
X43060Y21750D01*
X41941D01*
X40860Y21460D01*
X39890Y20901D01*
X39099Y20110D01*
X38540Y19140D01*
X38250Y18059D01*
Y16940D01*
X38540Y15860D01*
X39099Y14890D01*
X39890Y14099D01*
X40860Y13540D01*
X41941Y13250D01*
X43060D01*
X44140Y13540D01*
X45110Y14099D01*
X45901Y14890D01*
X46460Y15860D01*
X46750Y16940D01*
Y18059D01*
X46460Y19140D01*
X46218Y19560D01*
X69366Y42707D01*
X69827Y42516D01*
Y36486D01*
X44560Y11218D01*
X44140Y11460D01*
X43060Y11750D01*
X41941D01*
X40860Y11460D01*
X39890Y10901D01*
X39099Y10110D01*
X38540Y9140D01*
X38250Y8060D01*
Y6940D01*
X38540Y5860D01*
X39099Y4890D01*
X39890Y4099D01*
X40860Y3540D01*
X41941Y3250D01*
X43060D01*
X44140Y3540D01*
X45110Y4099D01*
X45901Y4890D01*
X46460Y5860D01*
X46750Y6940D01*
Y8060D01*
X46460Y9140D01*
X46218Y9560D01*
X71829Y35171D01*
X72083Y35551D01*
X72172Y36000D01*
Y193500D01*
X72083Y193949D01*
X71829Y194329D01*
X54870Y211288D01*
X55062Y211750D01*
X61750D01*
Y221250D01*
X55908D01*
X52154Y225004D01*
X51774Y225258D01*
X51325Y225347D01*
X50814D01*
X50696Y225633D01*
X50133Y226195D01*
X50133Y226198D01*
X50081Y226712D01*
X50397Y227002D01*
X58840D01*
X63227Y222614D01*
Y219100D01*
X63250Y218987D01*
Y211750D01*
X70750D01*
Y221250D01*
X65573D01*
Y223100D01*
X65483Y223549D01*
X65229Y223929D01*
X60154Y229004D01*
X59774Y229258D01*
X59325Y229347D01*
X50814D01*
X50696Y229633D01*
X50133Y230195D01*
X50001Y230250D01*
Y230750D01*
X50133Y230804D01*
X50656Y231328D01*
X64514D01*
X72828Y223014D01*
Y221250D01*
X72250D01*
Y211750D01*
X79750D01*
Y221250D01*
X75173D01*
Y223500D01*
X75083Y223949D01*
X74829Y224329D01*
X65829Y233329D01*
X65449Y233583D01*
X65000Y233672D01*
X50656D01*
X50133Y234195D01*
X50001Y234250D01*
Y234750D01*
X50133Y234805D01*
X50656Y235328D01*
X74514D01*
X90250Y219592D01*
Y211750D01*
X97750D01*
Y221250D01*
X91908D01*
X75829Y237329D01*
X75449Y237583D01*
X75000Y237672D01*
X50656D01*
X50133Y238195D01*
X50001Y238250D01*
Y238750D01*
X50133Y238805D01*
X50656Y239328D01*
X82014D01*
X99630Y221712D01*
X99439Y221250D01*
X99250D01*
Y211750D01*
X106750D01*
Y221250D01*
X102937D01*
X102852Y221680D01*
X102598Y222060D01*
X83329Y241329D01*
X82949Y241583D01*
X82500Y241672D01*
X50656D01*
X50133Y242196D01*
X50001Y242250D01*
Y242750D01*
X50133Y242805D01*
X50656Y243327D01*
X92514D01*
X107940Y227902D01*
X108320Y227648D01*
X108750Y227563D01*
Y223250D01*
X118250D01*
Y230750D01*
X108750D01*
X108750Y230750D01*
Y230750D01*
X108284Y230874D01*
X93829Y245329D01*
X93449Y245583D01*
X93000Y245672D01*
X50656D01*
X50133Y246196D01*
X50001Y246250D01*
Y246750D01*
X50133Y246804D01*
X50656Y247327D01*
X97514D01*
X107940Y236902D01*
X108320Y236648D01*
X108750Y236563D01*
Y232250D01*
X118250D01*
Y239750D01*
X108750D01*
X108750Y239750D01*
Y239750D01*
X108284Y239874D01*
X98829Y249329D01*
X98449Y249583D01*
X98000Y249673D01*
X50656D01*
X50133Y250196D01*
X50001Y250250D01*
Y250750D01*
X50133Y250804D01*
X50656Y251327D01*
X102014D01*
X107940Y245402D01*
X108320Y245148D01*
X108750Y245063D01*
Y241250D01*
X118250D01*
Y248750D01*
X108750D01*
Y248562D01*
X108288Y248370D01*
X103329Y253329D01*
X102949Y253583D01*
X102500Y253673D01*
X50656D01*
X50133Y254195D01*
X50001Y254250D01*
Y254750D01*
X50133Y254804D01*
X50656Y255328D01*
X108750D01*
Y250250D01*
X118250D01*
Y257750D01*
X108750D01*
Y257673D01*
X50656D01*
X50133Y258195D01*
X50001Y258250D01*
Y258750D01*
X50133Y258804D01*
X50656Y259328D01*
X108750D01*
Y259250D01*
X110877D01*
X111000Y259226D01*
X111123Y259250D01*
X118250D01*
Y266750D01*
X108750D01*
Y261672D01*
X50656D01*
X50133Y262195D01*
X50001Y262250D01*
Y262750D01*
X50133Y262805D01*
X50656Y263328D01*
X103000D01*
X103449Y263417D01*
X103829Y263671D01*
X108279Y268121D01*
X108750Y268250D01*
Y268250D01*
X108750Y268250D01*
X118250D01*
Y275750D01*
X108750D01*
Y271437D01*
X108320Y271352D01*
X107940Y271098D01*
X102514Y265672D01*
X50656D01*
X50133Y266196D01*
X50001Y266250D01*
Y266750D01*
X50133Y266805D01*
X50656Y267327D01*
X97500D01*
X97949Y267417D01*
X98329Y267671D01*
X108288Y277630D01*
X108750Y277438D01*
Y277250D01*
X118250D01*
Y284750D01*
X108750D01*
Y280937D01*
X108320Y280852D01*
X107940Y280598D01*
X97014Y269672D01*
X50656D01*
X50133Y270196D01*
X50001Y270250D01*
Y270750D01*
X50133Y270805D01*
X50656Y271327D01*
X86000D01*
X86449Y271417D01*
X86829Y271671D01*
X110408Y295250D01*
X118250D01*
Y302750D01*
X108750D01*
Y296908D01*
X85514Y273673D01*
X50656D01*
X50133Y274196D01*
X50001Y274250D01*
Y274750D01*
X50133Y274804D01*
X50656Y275327D01*
X78500D01*
X78949Y275417D01*
X79329Y275671D01*
X108288Y304630D01*
X108750Y304438D01*
Y304250D01*
X118250D01*
Y311750D01*
X108750D01*
Y307937D01*
X108320Y307852D01*
X107940Y307598D01*
X78014Y277673D01*
X50656D01*
X50133Y278196D01*
X50001Y278250D01*
Y278750D01*
X50133Y278804D01*
X50656Y279328D01*
X69500D01*
X69949Y279417D01*
X70329Y279671D01*
X103598Y312940D01*
X103852Y313320D01*
X103937Y313750D01*
X106750D01*
Y323250D01*
D02*
G37*
G36*
X16250Y275750D02*
X6750D01*
Y273785D01*
X6250Y273578D01*
X6133Y273695D01*
X5398Y274000D01*
X4602D01*
X3867Y273695D01*
X3305Y273133D01*
X3000Y272398D01*
Y271602D01*
X3305Y270867D01*
X3867Y270304D01*
X4602Y270000D01*
X5398D01*
X6133Y270304D01*
X6250Y270422D01*
X6750Y270215D01*
Y268250D01*
X16250D01*
Y275750D01*
D02*
G37*
G36*
Y266750D02*
X6750D01*
Y264786D01*
X6250Y264578D01*
X6133Y264696D01*
X5398Y265000D01*
X4602D01*
X3867Y264696D01*
X3305Y264133D01*
X3000Y263398D01*
Y262602D01*
X3305Y261867D01*
X3867Y261304D01*
X4602Y261000D01*
X5398D01*
X6133Y261304D01*
X6250Y261422D01*
X6750Y261214D01*
Y259250D01*
X16250D01*
Y266750D01*
D02*
G37*
G36*
Y257750D02*
X6750D01*
Y255785D01*
X6250Y255578D01*
X6133Y255696D01*
X5398Y256000D01*
X4602D01*
X3867Y255696D01*
X3305Y255133D01*
X3000Y254398D01*
Y253602D01*
X3305Y252867D01*
X3867Y252305D01*
X4602Y252000D01*
X5398D01*
X6133Y252305D01*
X6250Y252422D01*
X6750Y252215D01*
Y250250D01*
X16250D01*
Y257750D01*
D02*
G37*
G36*
X22658Y240500D02*
X21342D01*
X20070Y240159D01*
X18930Y239501D01*
X17999Y238570D01*
X17341Y237430D01*
X17000Y236158D01*
Y235578D01*
X16957Y235250D01*
Y227750D01*
X17000Y227422D01*
Y226842D01*
X17341Y225570D01*
X17999Y224430D01*
X18930Y223499D01*
X20070Y222841D01*
X21342Y222500D01*
X22658D01*
X23930Y222841D01*
X25070Y223499D01*
X26001Y224430D01*
X26659Y225570D01*
X27000Y226842D01*
Y227422D01*
X27043Y227750D01*
Y235250D01*
X27000Y235578D01*
Y236158D01*
X26659Y237430D01*
X26001Y238570D01*
X25070Y239501D01*
X23930Y240159D01*
X22658Y240500D01*
D02*
G37*
G36*
X43060Y181750D02*
X41941D01*
X40860Y181460D01*
X39890Y180901D01*
X39099Y180110D01*
X38540Y179140D01*
X38250Y178059D01*
Y176941D01*
X38540Y175860D01*
X39099Y174890D01*
X39890Y174099D01*
X40860Y173540D01*
X41941Y173250D01*
X43060D01*
X44140Y173540D01*
X45110Y174099D01*
X45901Y174890D01*
X46460Y175860D01*
X46750Y176941D01*
Y178059D01*
X46460Y179140D01*
X45901Y180110D01*
X45110Y180901D01*
X44140Y181460D01*
X43060Y181750D01*
D02*
G37*
G36*
X83060Y171750D02*
X81941D01*
X80860Y171460D01*
X79890Y170901D01*
X79099Y170110D01*
X78540Y169140D01*
X78250Y168060D01*
Y166940D01*
X78540Y165860D01*
X79099Y164890D01*
X79890Y164099D01*
X80860Y163540D01*
X81941Y163250D01*
X83060D01*
X84140Y163540D01*
X85110Y164099D01*
X85901Y164890D01*
X86460Y165860D01*
X86750Y166940D01*
Y168060D01*
X86460Y169140D01*
X85901Y170110D01*
X85110Y170901D01*
X84140Y171460D01*
X83060Y171750D01*
D02*
G37*
G36*
X43060D02*
X41941D01*
X40860Y171460D01*
X39890Y170901D01*
X39099Y170110D01*
X38540Y169140D01*
X38250Y168060D01*
Y166940D01*
X38540Y165860D01*
X39099Y164890D01*
X39890Y164099D01*
X40860Y163540D01*
X41941Y163250D01*
X43060D01*
X44140Y163540D01*
X45110Y164099D01*
X45901Y164890D01*
X46460Y165860D01*
X46750Y166940D01*
Y168060D01*
X46460Y169140D01*
X45901Y170110D01*
X45110Y170901D01*
X44140Y171460D01*
X43060Y171750D01*
D02*
G37*
G36*
X83060Y161750D02*
X81941D01*
X80860Y161460D01*
X79890Y160901D01*
X79099Y160110D01*
X78540Y159140D01*
X78250Y158060D01*
Y156940D01*
X78540Y155860D01*
X79099Y154890D01*
X79890Y154099D01*
X80860Y153540D01*
X81941Y153250D01*
X83060D01*
X84140Y153540D01*
X85110Y154099D01*
X85901Y154890D01*
X86460Y155860D01*
X86750Y156940D01*
Y158060D01*
X86460Y159140D01*
X85901Y160110D01*
X85110Y160901D01*
X84140Y161460D01*
X83060Y161750D01*
D02*
G37*
G36*
Y151750D02*
X81941D01*
X80860Y151460D01*
X79890Y150901D01*
X79099Y150110D01*
X78540Y149140D01*
X78250Y148059D01*
Y146941D01*
X78540Y145860D01*
X79099Y144890D01*
X79890Y144099D01*
X80860Y143540D01*
X81941Y143250D01*
X83060D01*
X84140Y143540D01*
X85110Y144099D01*
X85901Y144890D01*
X86460Y145860D01*
X86750Y146941D01*
Y148059D01*
X86460Y149140D01*
X85901Y150110D01*
X85110Y150901D01*
X84140Y151460D01*
X83060Y151750D01*
D02*
G37*
G36*
Y141750D02*
X81941D01*
X80860Y141460D01*
X79890Y140901D01*
X79099Y140110D01*
X78540Y139140D01*
X78250Y138059D01*
Y136941D01*
X78540Y135860D01*
X79099Y134890D01*
X79890Y134099D01*
X80860Y133540D01*
X81941Y133250D01*
X83060D01*
X84140Y133540D01*
X85110Y134099D01*
X85901Y134890D01*
X86460Y135860D01*
X86750Y136941D01*
Y138059D01*
X86460Y139140D01*
X85901Y140110D01*
X85110Y140901D01*
X84140Y141460D01*
X83060Y141750D01*
D02*
G37*
G36*
Y131750D02*
X81941D01*
X80860Y131460D01*
X79890Y130901D01*
X79099Y130110D01*
X78540Y129140D01*
X78250Y128059D01*
Y126941D01*
X78540Y125860D01*
X79099Y124890D01*
X79890Y124099D01*
X80860Y123540D01*
X81941Y123250D01*
X83060D01*
X84140Y123540D01*
X85110Y124099D01*
X85901Y124890D01*
X86460Y125860D01*
X86750Y126941D01*
Y128059D01*
X86460Y129140D01*
X85901Y130110D01*
X85110Y130901D01*
X84140Y131460D01*
X83060Y131750D01*
D02*
G37*
G36*
Y121750D02*
X81941D01*
X80860Y121460D01*
X79890Y120901D01*
X79099Y120110D01*
X78540Y119140D01*
X78250Y118060D01*
Y116940D01*
X78540Y115860D01*
X79099Y114890D01*
X79890Y114099D01*
X80860Y113540D01*
X81941Y113250D01*
X83060D01*
X84140Y113540D01*
X85110Y114099D01*
X85901Y114890D01*
X86460Y115860D01*
X86750Y116940D01*
Y118060D01*
X86460Y119140D01*
X85901Y120110D01*
X85110Y120901D01*
X84140Y121460D01*
X83060Y121750D01*
D02*
G37*
G36*
Y111750D02*
X81941D01*
X80860Y111460D01*
X79890Y110901D01*
X79099Y110110D01*
X78540Y109140D01*
X78250Y108060D01*
Y106940D01*
X78540Y105860D01*
X79099Y104890D01*
X79890Y104099D01*
X80860Y103540D01*
X81941Y103250D01*
X83060D01*
X84140Y103540D01*
X85110Y104099D01*
X85901Y104890D01*
X86460Y105860D01*
X86750Y106940D01*
Y108060D01*
X86460Y109140D01*
X85901Y110110D01*
X85110Y110901D01*
X84140Y111460D01*
X83060Y111750D01*
D02*
G37*
G36*
Y101750D02*
X81941D01*
X80860Y101460D01*
X79890Y100901D01*
X79099Y100110D01*
X78540Y99140D01*
X78250Y98059D01*
Y96940D01*
X78540Y95860D01*
X79099Y94890D01*
X79890Y94099D01*
X80860Y93540D01*
X81941Y93250D01*
X83060D01*
X84140Y93540D01*
X85110Y94099D01*
X85901Y94890D01*
X86460Y95860D01*
X86750Y96940D01*
Y98059D01*
X86460Y99140D01*
X85901Y100110D01*
X85110Y100901D01*
X84140Y101460D01*
X83060Y101750D01*
D02*
G37*
G36*
Y91750D02*
X81941D01*
X80860Y91460D01*
X79890Y90901D01*
X79099Y90110D01*
X78540Y89140D01*
X78250Y88060D01*
Y86940D01*
X78540Y85860D01*
X79099Y84890D01*
X79890Y84099D01*
X80860Y83540D01*
X81941Y83250D01*
X83060D01*
X84140Y83540D01*
X85110Y84099D01*
X85901Y84890D01*
X86460Y85860D01*
X86750Y86940D01*
Y88060D01*
X86460Y89140D01*
X85901Y90110D01*
X85110Y90901D01*
X84140Y91460D01*
X83060Y91750D01*
D02*
G37*
G36*
Y81750D02*
X81941D01*
X80860Y81460D01*
X79890Y80901D01*
X79099Y80110D01*
X78540Y79140D01*
X78250Y78060D01*
Y76941D01*
X78540Y75860D01*
X79099Y74890D01*
X79890Y74099D01*
X80860Y73540D01*
X81941Y73250D01*
X83060D01*
X84140Y73540D01*
X85110Y74099D01*
X85901Y74890D01*
X86460Y75860D01*
X86750Y76941D01*
Y78060D01*
X86460Y79140D01*
X85901Y80110D01*
X85110Y80901D01*
X84140Y81460D01*
X83060Y81750D01*
D02*
G37*
G36*
Y71750D02*
X81941D01*
X80860Y71460D01*
X79890Y70901D01*
X79099Y70110D01*
X78540Y69140D01*
X78250Y68059D01*
Y66940D01*
X78540Y65860D01*
X79099Y64890D01*
X79890Y64099D01*
X80860Y63540D01*
X81941Y63250D01*
X83060D01*
X84140Y63540D01*
X85110Y64099D01*
X85901Y64890D01*
X86460Y65860D01*
X86750Y66940D01*
Y68059D01*
X86460Y69140D01*
X85901Y70110D01*
X85110Y70901D01*
X84140Y71460D01*
X83060Y71750D01*
D02*
G37*
G36*
Y61750D02*
X81941D01*
X80860Y61460D01*
X79890Y60901D01*
X79099Y60110D01*
X78540Y59140D01*
X78250Y58060D01*
Y56941D01*
X78540Y55860D01*
X79099Y54890D01*
X79890Y54099D01*
X80860Y53540D01*
X81941Y53250D01*
X83060D01*
X84140Y53540D01*
X85110Y54099D01*
X85901Y54890D01*
X86460Y55860D01*
X86750Y56941D01*
Y58060D01*
X86460Y59140D01*
X85901Y60110D01*
X85110Y60901D01*
X84140Y61460D01*
X83060Y61750D01*
D02*
G37*
G36*
Y51750D02*
X81941D01*
X80860Y51460D01*
X79890Y50901D01*
X79099Y50110D01*
X78540Y49140D01*
X78250Y48059D01*
Y46940D01*
X78540Y45860D01*
X79099Y44890D01*
X79890Y44099D01*
X80860Y43540D01*
X81941Y43250D01*
X83060D01*
X84140Y43540D01*
X85110Y44099D01*
X85901Y44890D01*
X86460Y45860D01*
X86750Y46940D01*
Y48059D01*
X86460Y49140D01*
X85901Y50110D01*
X85110Y50901D01*
X84140Y51460D01*
X83060Y51750D01*
D02*
G37*
G36*
Y41750D02*
X81941D01*
X80860Y41460D01*
X79890Y40901D01*
X79099Y40110D01*
X78540Y39140D01*
X78250Y38059D01*
Y36941D01*
X78540Y35860D01*
X79099Y34890D01*
X79890Y34099D01*
X80860Y33540D01*
X81941Y33250D01*
X83060D01*
X84140Y33540D01*
X85110Y34099D01*
X85901Y34890D01*
X86460Y35860D01*
X86750Y36941D01*
Y38059D01*
X86460Y39140D01*
X85901Y40110D01*
X85110Y40901D01*
X84140Y41460D01*
X83060Y41750D01*
D02*
G37*
G36*
Y31750D02*
X81941D01*
X80860Y31460D01*
X79890Y30901D01*
X79099Y30110D01*
X78540Y29140D01*
X78250Y28060D01*
Y26941D01*
X78540Y25860D01*
X79099Y24890D01*
X79890Y24099D01*
X80860Y23540D01*
X81941Y23250D01*
X83060D01*
X84140Y23540D01*
X85110Y24099D01*
X85901Y24890D01*
X86460Y25860D01*
X86750Y26941D01*
Y28060D01*
X86460Y29140D01*
X85901Y30110D01*
X85110Y30901D01*
X84140Y31460D01*
X83060Y31750D01*
D02*
G37*
G36*
Y21750D02*
X81941D01*
X80860Y21460D01*
X79890Y20901D01*
X79099Y20110D01*
X78540Y19140D01*
X78250Y18059D01*
Y16940D01*
X78540Y15860D01*
X79099Y14890D01*
X79890Y14099D01*
X80860Y13540D01*
X81941Y13250D01*
X83060D01*
X84140Y13540D01*
X85110Y14099D01*
X85901Y14890D01*
X86460Y15860D01*
X86750Y16940D01*
Y18059D01*
X86460Y19140D01*
X85901Y20110D01*
X85110Y20901D01*
X84140Y21460D01*
X83060Y21750D01*
D02*
G37*
%LPD*%
D11*
X111000Y260500D02*
X113500Y263000D01*
D13*
X92269Y313769D02*
Y316769D01*
X49000Y284500D02*
X63000D01*
X92269Y316769D02*
X94000Y318500D01*
X63000Y284500D02*
X92269Y313769D01*
X102769Y318269D02*
X103000Y318500D01*
X69500Y280500D02*
X102769Y313769D01*
Y318269D01*
X49000Y280500D02*
X69500D01*
X112269Y306769D02*
X113500Y308000D01*
X49000Y276500D02*
X78500D01*
X108769Y306769D02*
X112269D01*
X78500Y276500D02*
X108769Y306769D01*
X112269Y279769D02*
X113500Y281000D01*
X97500Y268500D02*
X108769Y279769D01*
X49000Y268500D02*
X97500D01*
X108769Y279769D02*
X112269D01*
X111769Y270269D02*
X113500Y272000D01*
X108769Y270269D02*
X111769D01*
X49000Y264500D02*
X103000D01*
X108769Y270269D01*
X112269Y246231D02*
X113500Y245000D01*
X102500Y252500D02*
X108769Y246231D01*
X49000Y252500D02*
X102500D01*
X108769Y246231D02*
X112269D01*
X111769Y237731D02*
X113500Y236000D01*
X98000Y248500D02*
X108769Y237731D01*
X49000Y248500D02*
X98000D01*
X108769Y237731D02*
X111769D01*
X111769Y228731D02*
X113500Y227000D01*
X93000Y244500D02*
X108769Y228731D01*
X49000Y244500D02*
X93000D01*
X108769Y228731D02*
X111769D01*
X101769Y217731D02*
X103000Y216500D01*
X82500Y240500D02*
X101769Y221231D01*
Y217731D02*
Y221231D01*
X49000Y240500D02*
X82500D01*
X65000Y232500D02*
X74000Y223500D01*
X49000Y232500D02*
X65000D01*
X74000Y218500D02*
Y223500D01*
Y218500D02*
X76000Y216500D01*
X59325Y228175D02*
X64400Y223100D01*
Y219100D02*
Y223100D01*
X49325Y228175D02*
X59325D01*
X18000Y290000D02*
X40000Y312000D01*
X11500Y290000D02*
X18000D01*
Y299000D02*
X31000Y312000D01*
X11500Y299000D02*
X18000D01*
X24500Y326000D02*
X31000Y319500D01*
X14000Y326000D02*
X24500D01*
X52500Y341000D02*
Y355000D01*
X31000Y319500D02*
X52500Y341000D01*
X31000Y318500D02*
Y319500D01*
X22000Y318500D02*
Y319500D01*
X5000Y317000D02*
X20500D01*
X22000Y318500D01*
X45000Y362500D02*
X52500Y355000D01*
X49000Y272500D02*
X86000D01*
X112500Y299000D02*
X113500D01*
X86000Y272500D02*
X112500Y299000D01*
X49000Y260500D02*
X111000D01*
Y256500D02*
X113500Y254000D01*
X49000Y256500D02*
X111000D01*
X75000Y236500D02*
X94000Y217500D01*
X49000Y236500D02*
X75000D01*
X49000Y228500D02*
X49325Y228175D01*
X51325Y224175D02*
X58000Y217500D01*
X49325Y224175D02*
X51325D01*
X49000Y224500D02*
X49325Y224175D01*
X58000Y216500D02*
Y217500D01*
X64400Y219100D02*
X67000Y216500D01*
X94000D02*
Y217500D01*
X38000Y191500D02*
X50000Y179500D01*
X39000Y193000D02*
X51500Y180500D01*
X40089Y194500D02*
X53000Y181589D01*
X10000Y194500D02*
X40089D01*
X41000Y196000D02*
X54500Y182500D01*
X42000Y197500D02*
X56000Y183500D01*
X43000Y199000D02*
X57500Y184500D01*
X44000Y200500D02*
X59000Y185500D01*
X45000Y202000D02*
X60500Y186500D01*
X46000Y203500D02*
X62000Y187500D01*
X47000Y205000D02*
X63500Y188500D01*
X48000Y206500D02*
X65000Y189500D01*
Y70000D02*
Y189500D01*
X49000Y208000D02*
X66500Y190500D01*
Y61500D02*
Y190500D01*
X50000Y209500D02*
X68000Y191500D01*
Y53000D02*
Y191500D01*
X51000Y211000D02*
X69500Y192500D01*
X49000Y215500D02*
X71000Y193500D01*
X49000Y215500D02*
Y216500D01*
X71000Y36000D02*
Y193500D01*
X42500Y57500D02*
X63500Y78500D01*
X42500Y37500D02*
X66500Y61500D01*
X42500Y7500D02*
X71000Y36000D01*
X42500Y67500D02*
X62000Y87000D01*
X42500Y87500D02*
X59000Y104000D01*
X42500Y77500D02*
X60500Y95500D01*
X42500Y47500D02*
X65000Y70000D01*
X42500Y117500D02*
X54500Y129500D01*
Y182500D01*
X42500Y27500D02*
X68000Y53000D01*
X42500Y107500D02*
X56000Y121000D01*
X60500Y95500D02*
Y186500D01*
X63500Y78500D02*
Y188500D01*
X42500Y97500D02*
X57500Y112500D01*
X51500Y146500D02*
Y180500D01*
X53000Y138000D02*
Y181589D01*
X56000Y121000D02*
Y183500D01*
X62000Y87000D02*
Y187500D01*
X42500Y127500D02*
X53000Y138000D01*
X42500Y147500D02*
X50000Y155000D01*
X42500Y17500D02*
X69500Y44500D01*
Y192500D01*
X42500Y137500D02*
X51500Y146500D01*
X50000Y155000D02*
Y179500D01*
X57500Y112500D02*
Y184500D01*
X59000Y104000D02*
Y185500D01*
X5000Y217500D02*
X17500Y205000D01*
X5000Y230500D02*
X10500Y236000D01*
X5000Y217500D02*
Y230500D01*
X11500Y227000D02*
X12500D01*
X16500Y212000D02*
X22000Y206500D01*
X16500Y212000D02*
Y223000D01*
X12500Y227000D02*
X16500Y223000D01*
X17500Y205000D02*
X47000D01*
X5000Y213500D02*
X15000Y203500D01*
X46000D01*
X12500Y202000D02*
X45000D01*
X5000Y209500D02*
X12500Y202000D01*
X10000Y200500D02*
X44000D01*
X5000Y205500D02*
X10000Y200500D01*
X7500Y199000D02*
X43000D01*
X5000Y201500D02*
X7500Y199000D01*
X15000Y191500D02*
X38000D01*
X13000Y189500D02*
X15000Y191500D01*
X12500Y193000D02*
X39000D01*
X9000Y189500D02*
X12500Y193000D01*
X5000Y189500D02*
X10000Y194500D01*
X7500Y196000D02*
X41000D01*
X5000Y193500D02*
X7500Y196000D01*
X5000Y197500D02*
X42000D01*
X10500Y236000D02*
X11500D01*
X22000Y206500D02*
X48000D01*
X5000Y308000D02*
X11500D01*
X5000Y299000D02*
X11500D01*
X5000Y290000D02*
X11500D01*
X5000Y281000D02*
X11500D01*
X5000Y272000D02*
X11500D01*
X5000Y263000D02*
X11500D01*
X5000Y254000D02*
X11500D01*
X22000Y215500D02*
X29500Y208000D01*
X49000D01*
X22000Y215500D02*
Y216500D01*
X37000Y209500D02*
X50000D01*
X31000Y215500D02*
X37000Y209500D01*
X31000Y215500D02*
Y216500D01*
X44500Y211000D02*
X51000D01*
X40000Y215500D02*
X44500Y211000D01*
X40000Y215500D02*
Y216500D01*
D23*
X22000Y318500D02*
D03*
X31000D02*
D03*
X40000D02*
D03*
X49000D02*
D03*
X58000D02*
D03*
X67000D02*
D03*
X76000D02*
D03*
X85000D02*
D03*
X94000D02*
D03*
X103000D02*
D03*
Y216500D02*
D03*
X94000D02*
D03*
X85000D02*
D03*
X76000D02*
D03*
X67000D02*
D03*
X58000D02*
D03*
X49000D02*
D03*
X40000D02*
D03*
X31000D02*
D03*
X22000D02*
D03*
D24*
X113500Y308000D02*
D03*
Y299000D02*
D03*
Y290000D02*
D03*
Y281000D02*
D03*
Y272000D02*
D03*
Y263000D02*
D03*
Y254000D02*
D03*
Y245000D02*
D03*
Y236000D02*
D03*
Y227000D02*
D03*
X11500D02*
D03*
Y236000D02*
D03*
Y245000D02*
D03*
Y254000D02*
D03*
Y263000D02*
D03*
Y272000D02*
D03*
Y281000D02*
D03*
Y290000D02*
D03*
Y299000D02*
D03*
Y308000D02*
D03*
D25*
X22000Y231500D02*
D03*
D26*
X92382Y349528D02*
D03*
X94941D02*
D03*
X97500D02*
D03*
X100059D02*
D03*
X102618D02*
D03*
D27*
X100059Y344304D02*
Y349528D01*
X90345Y334590D02*
X100059Y344304D01*
X97490Y345087D02*
Y349518D01*
X89363Y336960D02*
X97490Y345087D01*
Y349518D02*
X97500Y349528D01*
X51135Y321635D02*
X51302D01*
X49000Y319500D02*
X51135Y321635D01*
X63806Y336960D02*
X89363D01*
X52315Y322648D02*
Y325469D01*
X64788Y334590D02*
X90345D01*
X55865Y321635D02*
X58000Y319500D01*
X55698Y321635D02*
X55865D01*
X58000Y318500D02*
Y319500D01*
X52315Y325469D02*
X63806Y336960D01*
X51302Y321635D02*
X52315Y322648D01*
X49000Y318500D02*
Y319500D01*
X54685Y322648D02*
X55698Y321635D01*
X54685Y322648D02*
Y324487D01*
X64788Y334590D01*
D28*
X105993Y338993D02*
Y349493D01*
X96500Y329500D02*
X105993Y338993D01*
X80500Y329500D02*
X96500D01*
X76000Y325000D02*
X80500Y329500D01*
X76000Y318500D02*
Y325000D01*
X85000Y318500D02*
Y325000D01*
D29*
X90378Y349528D02*
D03*
X104622D02*
D03*
D30*
X42000Y231500D02*
D03*
X22000Y227500D02*
D03*
Y235500D02*
D03*
D31*
X45000Y362500D02*
D03*
Y352500D02*
D03*
X35000Y362500D02*
D03*
Y352500D02*
D03*
X25000Y362500D02*
D03*
Y352500D02*
D03*
D32*
X116988Y351575D02*
D03*
X78012D02*
D03*
D33*
Y367323D02*
D03*
X116988D02*
D03*
D34*
X42500Y177500D02*
D03*
Y167500D02*
D03*
Y157500D02*
D03*
Y147500D02*
D03*
Y137500D02*
D03*
Y127500D02*
D03*
Y117500D02*
D03*
Y107500D02*
D03*
Y97500D02*
D03*
Y87500D02*
D03*
Y77500D02*
D03*
Y67500D02*
D03*
X82500Y177500D02*
D03*
Y167500D02*
D03*
Y157500D02*
D03*
Y147500D02*
D03*
Y137500D02*
D03*
Y127500D02*
D03*
X42500Y57500D02*
D03*
Y47500D02*
D03*
Y37500D02*
D03*
Y27500D02*
D03*
Y17500D02*
D03*
Y7500D02*
D03*
X82500Y117500D02*
D03*
Y107500D02*
D03*
Y97500D02*
D03*
Y87500D02*
D03*
Y77500D02*
D03*
Y67500D02*
D03*
Y57500D02*
D03*
Y47500D02*
D03*
Y37500D02*
D03*
Y27500D02*
D03*
Y17500D02*
D03*
Y7500D02*
D03*
D35*
X105000Y187500D02*
D03*
X95000D02*
D03*
X115000Y320000D02*
D03*
Y217500D02*
D03*
X80000Y225000D02*
D03*
X87500Y230000D02*
D03*
X95000Y235000D02*
D03*
X102500Y240000D02*
D03*
X105000Y272500D02*
D03*
X97500Y277500D02*
D03*
X90000Y282500D02*
D03*
X82500Y287500D02*
D03*
X75000Y292500D02*
D03*
X67500Y305000D02*
D03*
X55000Y292500D02*
D03*
X42500Y247500D02*
D03*
Y265000D02*
D03*
Y280000D02*
D03*
X22500D02*
D03*
Y265000D02*
D03*
Y247500D02*
D03*
X57500Y342500D02*
D03*
Y355000D02*
D03*
X15000D02*
D03*
X45000Y370000D02*
D03*
X35000D02*
D03*
X15000Y342500D02*
D03*
X45000D02*
D03*
X35000D02*
D03*
X85000D02*
D03*
X112500D02*
D03*
X98500Y337500D02*
D03*
X30000Y187500D02*
D03*
X20000D02*
D03*
X76500Y157500D02*
D03*
Y147500D02*
D03*
Y137500D02*
D03*
Y127500D02*
D03*
Y117500D02*
D03*
Y107500D02*
D03*
Y97500D02*
D03*
Y87500D02*
D03*
Y77500D02*
D03*
Y67500D02*
D03*
Y57500D02*
D03*
Y47500D02*
D03*
Y37500D02*
D03*
Y27500D02*
D03*
Y17500D02*
D03*
X48500Y7500D02*
D03*
Y17500D02*
D03*
Y27500D02*
D03*
Y37500D02*
D03*
Y47500D02*
D03*
Y57500D02*
D03*
Y67500D02*
D03*
Y77500D02*
D03*
Y87500D02*
D03*
Y97500D02*
D03*
Y107500D02*
D03*
Y117500D02*
D03*
Y127500D02*
D03*
Y137500D02*
D03*
Y147500D02*
D03*
X40000Y312000D02*
D03*
X31000D02*
D03*
X14000Y326000D02*
D03*
X5000Y317000D02*
D03*
X85000Y325000D02*
D03*
X76000D02*
D03*
X49000Y284500D02*
D03*
Y280500D02*
D03*
Y276500D02*
D03*
Y272500D02*
D03*
Y268500D02*
D03*
Y264500D02*
D03*
Y260500D02*
D03*
Y256500D02*
D03*
Y252500D02*
D03*
Y248500D02*
D03*
Y244500D02*
D03*
Y240500D02*
D03*
Y236500D02*
D03*
Y232500D02*
D03*
Y228500D02*
D03*
Y224500D02*
D03*
X13000Y189500D02*
D03*
X9000D02*
D03*
X5000D02*
D03*
Y193500D02*
D03*
Y213500D02*
D03*
Y209500D02*
D03*
Y205500D02*
D03*
Y201500D02*
D03*
Y197500D02*
D03*
Y308000D02*
D03*
Y299000D02*
D03*
Y290000D02*
D03*
Y281000D02*
D03*
Y272000D02*
D03*
Y263000D02*
D03*
Y254000D02*
D03*
M02*
