G04*
G04 #@! TF.GenerationSoftware,Altium Limited,Altium Designer,22.4.2 (48)*
G04*
G04 Layer_Color=16711935*
%FSLAX25Y25*%
%MOIN*%
G70*
G04*
G04 #@! TF.SameCoordinates,D1D02850-E0A3-49D7-BBEB-9C0FD6D2D351*
G04*
G04*
G04 #@! TF.FilePolarity,Negative*
G04*
G01*
G75*
G04:AMPARAMS|DCode=59|XSize=63.94mil|YSize=83.94mil|CornerRadius=16.97mil|HoleSize=0mil|Usage=FLASHONLY|Rotation=90.000|XOffset=0mil|YOffset=0mil|HoleType=Round|Shape=RoundedRectangle|*
%AMROUNDEDRECTD59*
21,1,0.06394,0.05000,0,0,90.0*
21,1,0.03000,0.08394,0,0,90.0*
1,1,0.03394,0.02500,0.01500*
1,1,0.03394,0.02500,-0.01500*
1,1,0.03394,-0.02500,-0.01500*
1,1,0.03394,-0.02500,0.01500*
%
%ADD59ROUNDEDRECTD59*%
G04:AMPARAMS|DCode=60|XSize=63.94mil|YSize=83.94mil|CornerRadius=16.97mil|HoleSize=0mil|Usage=FLASHONLY|Rotation=180.000|XOffset=0mil|YOffset=0mil|HoleType=Round|Shape=RoundedRectangle|*
%AMROUNDEDRECTD60*
21,1,0.06394,0.05000,0,0,180.0*
21,1,0.03000,0.08394,0,0,180.0*
1,1,0.03394,-0.01500,0.02500*
1,1,0.03394,0.01500,0.02500*
1,1,0.03394,0.01500,-0.02500*
1,1,0.03394,-0.01500,-0.02500*
%
%ADD60ROUNDEDRECTD60*%
%ADD61C,0.04284*%
D59*
X0Y90500D02*
D03*
Y81500D02*
D03*
Y72500D02*
D03*
Y63500D02*
D03*
Y54500D02*
D03*
Y45500D02*
D03*
Y36500D02*
D03*
Y27500D02*
D03*
Y18500D02*
D03*
Y9500D02*
D03*
X100000D02*
D03*
Y18500D02*
D03*
Y27500D02*
D03*
Y36500D02*
D03*
Y45500D02*
D03*
Y54500D02*
D03*
Y63500D02*
D03*
Y72500D02*
D03*
Y81500D02*
D03*
Y90500D02*
D03*
D60*
X9500Y0D02*
D03*
X18500D02*
D03*
X27500D02*
D03*
X36500D02*
D03*
X45500D02*
D03*
X54500D02*
D03*
X63500D02*
D03*
X72500D02*
D03*
X81500D02*
D03*
X90500D02*
D03*
Y100000D02*
D03*
X81500D02*
D03*
X72500D02*
D03*
X63500D02*
D03*
X54500D02*
D03*
X45500D02*
D03*
X36500D02*
D03*
X27500D02*
D03*
X18500D02*
D03*
X9500D02*
D03*
D61*
Y10000D02*
D03*
Y18000D02*
D03*
X29500Y14000D02*
D03*
M02*
