G04*
G04 #@! TF.GenerationSoftware,Altium Limited,Altium Designer,22.4.2 (48)*
G04*
G04 Layer_Physical_Order=2*
G04 Layer_Color=153*
%FSLAX25Y25*%
%MOIN*%
G70*
G04*
G04 #@! TF.SameCoordinates,024BFFEA-EEA5-4CD3-8026-DF8E4E0E0677*
G04*
G04*
G04 #@! TF.FilePolarity,Positive*
G04*
G01*
G75*
%ADD10C,0.02000*%
%ADD64C,0.00550*%
G04:AMPARAMS|DCode=68|XSize=50mil|YSize=80mil|CornerRadius=12.5mil|HoleSize=0mil|Usage=FLASHONLY|Rotation=90.000|XOffset=0mil|YOffset=0mil|HoleType=Round|Shape=RoundedRectangle|*
%AMROUNDEDRECTD68*
21,1,0.05000,0.05500,0,0,90.0*
21,1,0.02500,0.08000,0,0,90.0*
1,1,0.02500,0.02750,0.01250*
1,1,0.02500,0.02750,-0.01250*
1,1,0.02500,-0.02750,-0.01250*
1,1,0.02500,-0.02750,0.01250*
%
%ADD68ROUNDEDRECTD68*%
G04:AMPARAMS|DCode=69|XSize=50mil|YSize=80mil|CornerRadius=12.5mil|HoleSize=0mil|Usage=FLASHONLY|Rotation=180.000|XOffset=0mil|YOffset=0mil|HoleType=Round|Shape=RoundedRectangle|*
%AMROUNDEDRECTD69*
21,1,0.05000,0.05500,0,0,180.0*
21,1,0.02500,0.08000,0,0,180.0*
1,1,0.02500,-0.01250,0.02750*
1,1,0.02500,0.01250,0.02750*
1,1,0.02500,0.01250,-0.02750*
1,1,0.02500,-0.01250,-0.02750*
%
%ADD69ROUNDEDRECTD69*%
%ADD70C,0.03890*%
%ADD71C,0.01900*%
%ADD72C,0.02000*%
G36*
X34711Y98980D02*
Y97250D01*
X34866Y96470D01*
X35308Y95808D01*
X35970Y95366D01*
X36750Y95211D01*
X39250D01*
X40030Y95366D01*
X40692Y95808D01*
X41134Y96470D01*
X41289Y97250D01*
Y98980D01*
X42711D01*
Y97250D01*
X42866Y96470D01*
X43308Y95808D01*
X43970Y95366D01*
X44750Y95211D01*
X47250D01*
X48030Y95366D01*
X48692Y95808D01*
X49134Y96470D01*
X49289Y97250D01*
Y98980D01*
X57500Y98980D01*
Y93920D01*
X57000Y93821D01*
X56941Y93963D01*
X56463Y94441D01*
X55838Y94700D01*
X55162D01*
X54537Y94441D01*
X54059Y93963D01*
X53800Y93338D01*
Y92662D01*
X54059Y92037D01*
X54537Y91559D01*
X55162Y91300D01*
X55838D01*
X56463Y91559D01*
X56941Y92037D01*
X57000Y92179D01*
X57500Y92080D01*
Y88765D01*
X55200D01*
X55037Y88732D01*
X54941Y88963D01*
X54463Y89441D01*
X53838Y89700D01*
X53162D01*
X52537Y89441D01*
X52059Y88963D01*
X51963Y88732D01*
X51800Y88765D01*
X43000D01*
X42707Y88706D01*
X42459Y88541D01*
X42294Y88293D01*
X42235Y88000D01*
Y67000D01*
X42294Y66707D01*
X42459Y66459D01*
X42459Y66459D01*
X44238Y64681D01*
X44101Y64162D01*
X44072Y64092D01*
X44031Y64030D01*
X44016Y63956D01*
X43987Y63886D01*
Y63811D01*
X43972Y63737D01*
X43987Y63663D01*
Y63588D01*
X44020Y63425D01*
Y63239D01*
X44078Y62946D01*
X44244Y62698D01*
X47668Y59274D01*
X47723Y59191D01*
X47777Y59137D01*
X47819Y59075D01*
X47835Y59058D01*
X47844Y59036D01*
X47869Y59000D01*
X47844Y58883D01*
X47733Y58644D01*
X47672Y58578D01*
X47640Y58554D01*
X47580Y58525D01*
X47510Y58500D01*
X45558D01*
X42529Y61529D01*
X42281Y61695D01*
X42264Y61698D01*
Y61723D01*
X42150Y61998D01*
X42072Y62116D01*
X41980Y62575D01*
Y62761D01*
X41922Y63054D01*
X41756Y63302D01*
X40832Y64226D01*
X40827Y64233D01*
X40774Y64287D01*
X40732Y64349D01*
X34241Y70841D01*
X33291Y71791D01*
X33183Y71863D01*
X33080Y71940D01*
X33060Y71945D01*
X33043Y71956D01*
X32916Y71982D01*
X32790Y72014D01*
X32770Y72011D01*
X32750Y72015D01*
X32623Y71989D01*
X32495Y71971D01*
X31495Y71617D01*
X31477Y71607D01*
X31457Y71603D01*
X31350Y71531D01*
X31239Y71465D01*
X31226Y71449D01*
X31209Y71437D01*
X31137Y71330D01*
X31060Y71226D01*
X31055Y71206D01*
X31043Y71189D01*
X31018Y71062D01*
X30986Y70937D01*
X30989Y70916D01*
X30985Y70896D01*
Y70804D01*
X30835Y70442D01*
X30558Y70165D01*
X30196Y70015D01*
X29804D01*
X29442Y70165D01*
X29165Y70442D01*
X29015Y70804D01*
Y71196D01*
X29165Y71558D01*
X29316Y71709D01*
X29482Y71957D01*
X29540Y72250D01*
X29482Y72543D01*
X29316Y72791D01*
X29165Y72942D01*
X29015Y73304D01*
Y73696D01*
X29165Y74058D01*
X29442Y74335D01*
X29804Y74485D01*
X30196D01*
X30558Y74335D01*
X30863Y74031D01*
X30864Y74027D01*
X30918Y73974D01*
X30959Y73911D01*
X31022Y73869D01*
X31075Y73816D01*
X31145Y73787D01*
X31207Y73745D01*
X31281Y73730D01*
X31351Y73702D01*
X31426D01*
X31500Y73687D01*
X31574Y73702D01*
X31649D01*
X32649Y73901D01*
X32719Y73929D01*
X32793Y73944D01*
X32855Y73986D01*
X32925Y74015D01*
X32978Y74068D01*
X33041Y74110D01*
X33083Y74173D01*
X33136Y74226D01*
X33165Y74295D01*
X33206Y74358D01*
X33221Y74432D01*
X33250Y74501D01*
Y74577D01*
X33265Y74651D01*
Y88000D01*
X33206Y88293D01*
X33041Y88541D01*
X32793Y88706D01*
X32500Y88765D01*
X24000D01*
Y91563D01*
X24262Y91738D01*
X24648Y92317D01*
X24784Y93000D01*
X24648Y93683D01*
X24262Y94262D01*
X24000Y94437D01*
Y95360D01*
X24030Y95366D01*
X24692Y95808D01*
X25134Y96470D01*
X25289Y97250D01*
Y98980D01*
X34711D01*
D02*
G37*
G36*
X60750Y87652D02*
X61016Y87009D01*
X61509Y86516D01*
X62152Y86250D01*
X62848D01*
X63491Y86516D01*
X63984Y87009D01*
X65044Y86956D01*
X78298Y73702D01*
X78059Y73463D01*
X77800Y72838D01*
Y72162D01*
X78059Y71537D01*
X78537Y71059D01*
X79162Y70800D01*
X79500D01*
Y47952D01*
X79250Y47348D01*
Y46652D01*
X79500Y46048D01*
Y35904D01*
X79059Y35463D01*
X78800Y34838D01*
Y34162D01*
X79059Y33537D01*
X79455Y33141D01*
Y32433D01*
X78624Y31602D01*
X77479Y31871D01*
X77441Y31963D01*
X76963Y32441D01*
X76338Y32700D01*
X75662D01*
X75037Y32441D01*
X74559Y31963D01*
X74300Y31338D01*
Y30662D01*
X74559Y30037D01*
X75037Y29559D01*
X75129Y29521D01*
X75398Y28376D01*
X70567Y23545D01*
X37857D01*
X37325Y24367D01*
X37685Y25300D01*
X37838D01*
X38463Y25559D01*
X38941Y26037D01*
X39200Y26662D01*
Y27338D01*
X38941Y27963D01*
X38463Y28441D01*
X37838Y28700D01*
X37162D01*
X36537Y28441D01*
X36059Y27963D01*
X36041Y27920D01*
X34959D01*
X34941Y27963D01*
X34463Y28441D01*
X33838Y28700D01*
X33162D01*
X32537Y28441D01*
X32059Y27963D01*
X31117Y28001D01*
X30531Y28587D01*
X30549Y29644D01*
X30941Y30037D01*
X31200Y30662D01*
Y31338D01*
X30941Y31963D01*
X30463Y32441D01*
X30420Y32459D01*
Y33541D01*
X30463Y33559D01*
X30941Y34037D01*
X31200Y34662D01*
Y35338D01*
X30941Y35963D01*
X30463Y36441D01*
X29838Y36700D01*
X29162D01*
X28537Y36441D01*
X28059Y35963D01*
X27800Y35338D01*
Y34700D01*
X27162D01*
X26537Y34441D01*
X26059Y33963D01*
X25800Y33338D01*
Y32662D01*
X25388Y32045D01*
X22147D01*
X21747Y31966D01*
X21408Y31739D01*
X20687Y31018D01*
X15359D01*
X14963Y31414D01*
X14338Y31673D01*
X13662D01*
X13037Y31414D01*
X12559Y30936D01*
X12300Y30311D01*
Y30041D01*
X11572Y29343D01*
X11376Y29264D01*
X11045Y29359D01*
Y33067D01*
X17239Y39261D01*
X17466Y39600D01*
X17501Y39781D01*
X17508Y39790D01*
X18092Y40191D01*
X18545Y40348D01*
X18662Y40300D01*
X19338D01*
X19963Y40559D01*
X20441Y41037D01*
X20700Y41662D01*
X21509Y42371D01*
X22185Y42132D01*
X22300Y41909D01*
Y41662D01*
X22559Y41037D01*
X23037Y40559D01*
X23662Y40300D01*
X24338D01*
X24963Y40559D01*
X25441Y41037D01*
X25700Y41662D01*
Y42338D01*
X25441Y42963D01*
X24963Y43441D01*
X24338Y43700D01*
X24091D01*
X23504Y44004D01*
X23200Y44591D01*
Y44838D01*
X22941Y45463D01*
X22463Y45941D01*
X21838Y46200D01*
X21162D01*
X20537Y45941D01*
X20141Y45545D01*
X17500D01*
X17100Y45465D01*
X16761Y45239D01*
X15761Y44239D01*
X15688Y44130D01*
X15415Y43870D01*
X14485Y43639D01*
X14338Y43700D01*
X13662D01*
X13037Y43441D01*
X12559Y42963D01*
X12300Y42338D01*
Y41662D01*
X12559Y41037D01*
X13037Y40559D01*
X13662Y40300D01*
X13908D01*
X14322Y39300D01*
X9284Y34262D01*
X9184Y34266D01*
X8284Y34577D01*
Y79443D01*
X16842Y88000D01*
X32500D01*
Y74651D01*
X31500Y74452D01*
X31484Y74491D01*
X30991Y74984D01*
X30348Y75250D01*
X29652D01*
X29009Y74984D01*
X28516Y74491D01*
X28250Y73848D01*
Y73152D01*
X28516Y72509D01*
X28775Y72250D01*
X28516Y71991D01*
X28250Y71348D01*
Y70652D01*
X28516Y70009D01*
X29009Y69516D01*
X29652Y69250D01*
X30348D01*
X30991Y69516D01*
X31484Y70009D01*
X31750Y70652D01*
Y70896D01*
X32750Y71250D01*
X33700Y70300D01*
Y70300D01*
X33700Y70300D01*
X40191Y63809D01*
X40238Y63738D01*
X41216Y62761D01*
Y62500D01*
X41352Y61817D01*
X41514Y61574D01*
X41448Y61529D01*
X37209Y57291D01*
X37043Y57043D01*
X36985Y56750D01*
X37043Y56457D01*
X37209Y56209D01*
X39722Y53697D01*
X39857Y53606D01*
X39750Y53348D01*
Y52652D01*
X40016Y52009D01*
X40509Y51516D01*
X41152Y51250D01*
X41848D01*
X42106Y51357D01*
X42197Y51222D01*
X51216Y42202D01*
X51325Y42130D01*
X51187Y41796D01*
Y41100D01*
X51454Y40457D01*
X51946Y39965D01*
X52589Y39698D01*
X53285D01*
X53618Y39836D01*
X53691Y39728D01*
X53691Y39728D01*
X56209Y37209D01*
X56457Y37043D01*
X56750Y36985D01*
X57043Y37043D01*
X57291Y37209D01*
X68589Y48507D01*
X69037Y48059D01*
X69662Y47800D01*
X70300D01*
Y47162D01*
X70559Y46537D01*
X71037Y46059D01*
X71662Y45800D01*
X72300D01*
Y45162D01*
X72559Y44537D01*
X73037Y44059D01*
X73662Y43800D01*
X74338D01*
X74963Y44059D01*
X75441Y44537D01*
X75700Y45162D01*
Y45838D01*
X75441Y46463D01*
X74963Y46941D01*
X74338Y47200D01*
X73700D01*
Y47838D01*
X73441Y48463D01*
X72963Y48941D01*
X72338Y49200D01*
X71700D01*
Y49838D01*
X71441Y50463D01*
X70963Y50941D01*
X70338Y51200D01*
X69662D01*
X69106Y50970D01*
X69093Y50988D01*
X51173Y68908D01*
X50925Y69074D01*
X50632Y69132D01*
X50340Y69074D01*
X50340Y69074D01*
X50196Y69015D01*
X49804D01*
X49660Y69074D01*
X49660Y69074D01*
X49368Y69132D01*
X49182Y69095D01*
X49075Y69074D01*
X48827Y68908D01*
X44959Y65041D01*
X43000Y67000D01*
Y88000D01*
X51800D01*
Y87662D01*
X52059Y87037D01*
X52537Y86559D01*
X53162Y86300D01*
X53838D01*
X54463Y86559D01*
X54941Y87037D01*
X55200Y87662D01*
Y88000D01*
X60750D01*
Y87652D01*
D02*
G37*
G36*
X68552Y50448D02*
X68300Y49838D01*
Y49300D01*
X56750Y37750D01*
X54232Y40268D01*
X54421Y40457D01*
X54687Y41100D01*
Y41796D01*
X54421Y42440D01*
X53928Y42932D01*
X53285Y43198D01*
X52589D01*
X51946Y42932D01*
X51757Y42743D01*
X42737Y51763D01*
X42984Y52009D01*
X43250Y52652D01*
Y53348D01*
X42984Y53991D01*
X42491Y54484D01*
X41848Y54750D01*
X41152D01*
X40509Y54484D01*
X40263Y54237D01*
X37750Y56750D01*
X41988Y60988D01*
X45738Y57238D01*
X45884Y57141D01*
X46009Y57016D01*
X46171Y56949D01*
X46317Y56852D01*
X46490Y56817D01*
X46652Y56750D01*
X46828D01*
X47000Y56716D01*
X47172Y56750D01*
X47348D01*
X47510Y56817D01*
X47683Y56852D01*
X47829Y56949D01*
X47991Y57016D01*
X48116Y57141D01*
X48262Y57238D01*
X48359Y57384D01*
X48484Y57509D01*
X48551Y57671D01*
X48649Y57817D01*
X48683Y57990D01*
X48750Y58152D01*
Y58328D01*
X48784Y58500D01*
X48750Y58672D01*
Y58848D01*
X48683Y59010D01*
X48649Y59183D01*
X48551Y59329D01*
X48484Y59491D01*
X48359Y59615D01*
X48262Y59762D01*
X44784Y63239D01*
Y63500D01*
X44737Y63737D01*
X49368Y68368D01*
X49652Y68250D01*
X50348D01*
X50632Y68368D01*
X68552Y50448D01*
D02*
G37*
%LPC*%
G36*
X22848Y80750D02*
X22152D01*
X21509Y80484D01*
X21016Y79991D01*
X20750Y79348D01*
Y78652D01*
X21016Y78009D01*
X21509Y77516D01*
X22152Y77250D01*
X22848D01*
X23491Y77516D01*
X23984Y78009D01*
X24250Y78652D01*
Y79348D01*
X23984Y79991D01*
X23491Y80484D01*
X22848Y80750D01*
D02*
G37*
G36*
X57302Y81457D02*
X56626D01*
X56001Y81198D01*
X55523Y80720D01*
X55264Y80095D01*
Y79932D01*
X54970D01*
X54327Y79665D01*
X53834Y79173D01*
X53568Y78530D01*
Y77834D01*
X53834Y77191D01*
X54327Y76698D01*
X54970Y76432D01*
X55666D01*
X56309Y76698D01*
X56802Y77191D01*
X57068Y77834D01*
Y78057D01*
X57302D01*
X57927Y78316D01*
X58405Y78794D01*
X58664Y79419D01*
Y80095D01*
X58405Y80720D01*
X57927Y81198D01*
X57302Y81457D01*
D02*
G37*
G36*
X70838Y73700D02*
X70162D01*
X69537Y73441D01*
X69059Y72963D01*
X69041Y72921D01*
X67959D01*
X67941Y72963D01*
X67463Y73441D01*
X66838Y73700D01*
X66162D01*
X65537Y73441D01*
X65059Y72963D01*
X64889Y72554D01*
X64700Y72261D01*
X64143Y72304D01*
X63645Y72470D01*
X63441Y72963D01*
X62963Y73441D01*
X62338Y73700D01*
X61662D01*
X61037Y73441D01*
X60559Y72963D01*
X60541Y72921D01*
X59459D01*
X59441Y72963D01*
X58963Y73441D01*
X58338Y73700D01*
X57662D01*
X57037Y73441D01*
X56559Y72963D01*
X56300Y72338D01*
Y71700D01*
X55662D01*
X55037Y71441D01*
X54559Y70963D01*
X54300Y70338D01*
Y69662D01*
X54559Y69037D01*
X55037Y68559D01*
X55662Y68300D01*
X56338D01*
X56963Y68559D01*
X57441Y69037D01*
X57459Y69080D01*
X58541D01*
X58559Y69037D01*
X59037Y68559D01*
X59662Y68300D01*
X60338D01*
X60963Y68559D01*
X61441Y69037D01*
X61459Y69080D01*
X62541D01*
X62559Y69037D01*
X63037Y68559D01*
X63662Y68300D01*
X64338D01*
X64963Y68559D01*
X65441Y69037D01*
X65611Y69446D01*
X65800Y69739D01*
X66357Y69696D01*
X66855Y69530D01*
X67059Y69037D01*
X67537Y68559D01*
X68162Y68300D01*
X68838D01*
X69463Y68559D01*
X69941Y69037D01*
X70200Y69662D01*
Y70300D01*
X70838D01*
X71463Y70559D01*
X71941Y71037D01*
X72200Y71662D01*
Y72338D01*
X71941Y72963D01*
X71463Y73441D01*
X70838Y73700D01*
D02*
G37*
G36*
X16838Y72200D02*
X16162D01*
X15537Y71941D01*
X15059Y71463D01*
X14800Y70838D01*
Y70162D01*
X15059Y69537D01*
X15537Y69059D01*
X16162Y68800D01*
X16838D01*
X17463Y69059D01*
X17941Y69537D01*
X18200Y70162D01*
Y70838D01*
X17941Y71463D01*
X17463Y71941D01*
X16838Y72200D01*
D02*
G37*
G36*
X75838Y64200D02*
X75162D01*
X74537Y63941D01*
X74059Y63463D01*
X73800Y62838D01*
Y62162D01*
X74059Y61537D01*
X74537Y61059D01*
X75162Y60800D01*
X75838D01*
X76463Y61059D01*
X76941Y61537D01*
X77200Y62162D01*
Y62838D01*
X76941Y63463D01*
X76463Y63941D01*
X75838Y64200D01*
D02*
G37*
G36*
X24338Y59700D02*
X23662D01*
X23037Y59441D01*
X22559Y58963D01*
X22300Y58338D01*
Y57662D01*
X22559Y57037D01*
X23037Y56559D01*
X23662Y56300D01*
X24338D01*
X24963Y56559D01*
X25441Y57037D01*
X25700Y57662D01*
Y58338D01*
X25441Y58963D01*
X24963Y59441D01*
X24338Y59700D01*
D02*
G37*
G36*
X19338D02*
X18662D01*
X18037Y59441D01*
X17559Y58963D01*
X17300Y58338D01*
Y57662D01*
X17559Y57037D01*
X18037Y56559D01*
X18662Y56300D01*
X19338D01*
X19963Y56559D01*
X20441Y57037D01*
X20700Y57662D01*
Y58338D01*
X20441Y58963D01*
X19963Y59441D01*
X19338Y59700D01*
D02*
G37*
G36*
X69838Y62200D02*
X69162D01*
X68537Y61941D01*
X68059Y61463D01*
X67800Y60838D01*
Y60162D01*
X68059Y59537D01*
X68537Y59059D01*
X68580Y59041D01*
Y57959D01*
X68537Y57941D01*
X68059Y57463D01*
X67800Y56838D01*
Y56162D01*
X68059Y55537D01*
X68537Y55059D01*
X69162Y54800D01*
X69800D01*
Y54162D01*
X70059Y53537D01*
X70537Y53059D01*
X71162Y52800D01*
X71838D01*
X72462Y53058D01*
X72467Y53056D01*
X73309Y52491D01*
X73250Y52348D01*
Y51652D01*
X73516Y51009D01*
X74009Y50516D01*
X74652Y50250D01*
X75348D01*
X75991Y50516D01*
X76484Y51009D01*
X76750Y51652D01*
Y52348D01*
X76484Y52991D01*
X75991Y53484D01*
X75348Y53750D01*
X74652D01*
X74009Y53484D01*
X73996Y53471D01*
X73149Y54038D01*
X73200Y54162D01*
Y54838D01*
X72941Y55463D01*
X72463Y55941D01*
X72421Y55959D01*
Y57041D01*
X72463Y57059D01*
X72941Y57537D01*
X73200Y58162D01*
Y58838D01*
X72941Y59463D01*
X72463Y59941D01*
X71838Y60200D01*
X71200D01*
Y60838D01*
X70941Y61463D01*
X70463Y61941D01*
X69838Y62200D01*
D02*
G37*
G36*
X24338Y52700D02*
X23662D01*
X23037Y52441D01*
X22559Y51963D01*
X22300Y51338D01*
Y50662D01*
X22559Y50037D01*
X23037Y49559D01*
X23662Y49300D01*
X24338D01*
X24963Y49559D01*
X25441Y50037D01*
X25700Y50662D01*
Y51338D01*
X25441Y51963D01*
X24963Y52441D01*
X24338Y52700D01*
D02*
G37*
G36*
X14348Y54750D02*
X13652D01*
X13009Y54484D01*
X12516Y53991D01*
X12250Y53348D01*
Y52652D01*
X12516Y52009D01*
X13009Y51516D01*
X13652Y51250D01*
X14348D01*
X14909Y50400D01*
X15059Y50037D01*
X15537Y49559D01*
X16162Y49300D01*
X16838D01*
X17389Y48446D01*
X17559Y48037D01*
X18037Y47559D01*
X18662Y47300D01*
X19338D01*
X19963Y47559D01*
X20441Y48037D01*
X20700Y48662D01*
Y49338D01*
X20441Y49963D01*
X19963Y50441D01*
X19920Y50459D01*
Y51541D01*
X19963Y51559D01*
X20441Y52037D01*
X20700Y52662D01*
Y53338D01*
X20441Y53963D01*
X19963Y54441D01*
X19338Y54700D01*
X18662D01*
X18037Y54441D01*
X17559Y53963D01*
X17300Y53338D01*
X17049Y52991D01*
X15963Y53013D01*
X15750Y53348D01*
X15484Y53991D01*
X14991Y54484D01*
X14348Y54750D01*
D02*
G37*
G36*
X14338Y48700D02*
X13662D01*
X13037Y48441D01*
X12559Y47963D01*
X12300Y47338D01*
Y46662D01*
X12559Y46037D01*
X13037Y45559D01*
X13662Y45300D01*
X14338D01*
X14963Y45559D01*
X15441Y46037D01*
X15700Y46662D01*
Y47338D01*
X15441Y47963D01*
X14963Y48441D01*
X14338Y48700D01*
D02*
G37*
G36*
X41848Y48750D02*
X41152D01*
X40509Y48484D01*
X40016Y47991D01*
X39750Y47348D01*
Y46652D01*
X40016Y46009D01*
X40509Y45516D01*
X41152Y45250D01*
X41848D01*
X42491Y45516D01*
X42984Y46009D01*
X43250Y46652D01*
Y47348D01*
X42984Y47991D01*
X42491Y48484D01*
X41848Y48750D01*
D02*
G37*
G36*
X47285Y43198D02*
X46589D01*
X45946Y42932D01*
X45454Y42440D01*
X45187Y41796D01*
Y41100D01*
X45227Y41003D01*
X45545Y40052D01*
X45067Y39574D01*
X44808Y38949D01*
Y38273D01*
X45067Y37648D01*
X45545Y37170D01*
X46170Y36911D01*
X46847D01*
X47471Y37170D01*
X47949Y37648D01*
X48208Y38273D01*
Y38949D01*
X47949Y39574D01*
X47867Y39656D01*
X47928Y39965D01*
X48421Y40457D01*
X48687Y41100D01*
Y41796D01*
X48421Y42440D01*
X47928Y42932D01*
X47285Y43198D01*
D02*
G37*
G36*
X50838Y32700D02*
X50162D01*
X49537Y32441D01*
X49059Y31963D01*
X48800Y31338D01*
Y30700D01*
X48162D01*
X47537Y30441D01*
X47059Y29963D01*
X46800Y29338D01*
Y28700D01*
X46162D01*
X45537Y28441D01*
X45059Y27963D01*
X44800Y27338D01*
Y26662D01*
X45059Y26037D01*
X45537Y25559D01*
X46162Y25300D01*
X46838D01*
X47463Y25559D01*
X47941Y26037D01*
X48200Y26662D01*
Y27300D01*
X48838D01*
X49463Y27559D01*
X49941Y28037D01*
X49959Y28080D01*
X51041D01*
X51059Y28037D01*
X51537Y27559D01*
X52162Y27300D01*
X52800D01*
Y26662D01*
X53059Y26037D01*
X53537Y25559D01*
X54162Y25300D01*
X54838D01*
X55463Y25559D01*
X55941Y26037D01*
X55959Y26080D01*
X57041D01*
X57059Y26037D01*
X57537Y25559D01*
X58162Y25300D01*
X58838D01*
X59463Y25559D01*
X59941Y26037D01*
X60200Y26662D01*
Y27338D01*
X59941Y27963D01*
X59463Y28441D01*
X58838Y28700D01*
X58200D01*
Y29338D01*
X57941Y29963D01*
X57463Y30441D01*
X56838Y30700D01*
X56162D01*
X55537Y30441D01*
X55059Y29963D01*
X55041Y29920D01*
X53959D01*
X53941Y29963D01*
X53463Y30441D01*
X52838Y30700D01*
X52200D01*
Y31338D01*
X51941Y31963D01*
X51463Y32441D01*
X50838Y32700D01*
D02*
G37*
G36*
X53348Y60250D02*
X52652D01*
X52009Y59984D01*
X51516Y59491D01*
X51250Y58848D01*
Y58152D01*
X51516Y57509D01*
X52009Y57016D01*
X52652Y56750D01*
X53348D01*
X53991Y57016D01*
X54484Y57509D01*
X54750Y58152D01*
Y58848D01*
X54484Y59491D01*
X53991Y59984D01*
X53348Y60250D01*
D02*
G37*
G36*
X58848Y54750D02*
X58152D01*
X57509Y54484D01*
X57016Y53991D01*
X56750Y53348D01*
Y52652D01*
X57016Y52009D01*
X57509Y51516D01*
X58152Y51250D01*
X58848D01*
X59491Y51516D01*
X59984Y52009D01*
X60250Y52652D01*
Y53348D01*
X59984Y53991D01*
X59491Y54484D01*
X58848Y54750D01*
D02*
G37*
G36*
Y48750D02*
X58152D01*
X57509Y48484D01*
X57016Y47991D01*
X56750Y47348D01*
Y46652D01*
X57016Y46009D01*
X57509Y45516D01*
X58152Y45250D01*
X58848D01*
X59491Y45516D01*
X59984Y46009D01*
X60250Y46652D01*
Y47348D01*
X59984Y47991D01*
X59491Y48484D01*
X58848Y48750D01*
D02*
G37*
%LPD*%
D10*
X14500Y8000D02*
X23500Y17000D01*
Y22528D01*
X21028Y25000D02*
X23500Y22528D01*
X6500Y27000D02*
X8500Y25000D01*
X21028D01*
X6500Y27000D02*
Y80182D01*
X19318Y93000D01*
X23000D01*
X41500Y65000D02*
X43000Y63500D01*
Y62500D02*
Y63500D01*
Y62500D02*
X47000Y58500D01*
X82500Y38500D02*
X85000Y36000D01*
Y29707D02*
Y36000D01*
X68000Y38500D02*
X82500D01*
X85000Y29707D02*
X87475Y27232D01*
X67000Y37500D02*
X68000Y38500D01*
X89000Y81500D02*
X91500D01*
X72500Y94000D02*
X85000Y81500D01*
X89000D01*
X72500Y94000D02*
Y100000D01*
D64*
X71000Y22500D02*
X80500Y32000D01*
X29000Y22500D02*
X71000D01*
X24000Y27500D02*
X29000Y22500D01*
X10000Y28322D02*
X10822Y27500D01*
X24000D01*
X10000Y33500D02*
X16500Y40000D01*
X10000Y28322D02*
Y33500D01*
X16500Y43500D02*
X17500Y44500D01*
X16500Y40000D02*
Y43500D01*
X17500Y44500D02*
X21500D01*
X19525Y6025D02*
X82525D01*
X19500Y6000D02*
X19525Y6025D01*
X82525D02*
X94000Y17500D01*
X62000Y8000D02*
X71000Y17000D01*
X24500Y8000D02*
X62000D01*
X87500Y17000D02*
X91000Y20500D01*
X88500Y38500D02*
X91000Y36000D01*
Y20500D02*
Y36000D01*
X21120Y29973D02*
X22147Y31000D01*
X29500D01*
X14000Y29973D02*
X21120D01*
X88500Y38500D02*
Y41000D01*
X93500Y46000D01*
X94000Y17500D02*
Y37136D01*
X94025Y37161D02*
Y38839D01*
X94000Y37136D02*
X94025Y37161D01*
X93500Y42635D02*
Y43000D01*
X94000Y38864D02*
Y42135D01*
X93500Y42635D02*
X94000Y42135D01*
Y38864D02*
X94025Y38839D01*
X71000Y17000D02*
X87500D01*
X80500Y32000D02*
Y34500D01*
D68*
X0Y14000D02*
D03*
Y22000D02*
D03*
Y30000D02*
D03*
Y38000D02*
D03*
Y46000D02*
D03*
Y54000D02*
D03*
Y62000D02*
D03*
Y70000D02*
D03*
Y78000D02*
D03*
Y86000D02*
D03*
X100000D02*
D03*
Y78000D02*
D03*
Y70000D02*
D03*
Y62000D02*
D03*
Y54000D02*
D03*
Y46000D02*
D03*
Y38000D02*
D03*
Y30000D02*
D03*
Y22000D02*
D03*
Y14000D02*
D03*
D69*
X86000Y0D02*
D03*
X78000D02*
D03*
X70000D02*
D03*
X62000D02*
D03*
X54000D02*
D03*
X46000D02*
D03*
X38000D02*
D03*
X30000D02*
D03*
X22000D02*
D03*
X14000D02*
D03*
Y100000D02*
D03*
X22000D02*
D03*
X30000D02*
D03*
X38000D02*
D03*
X46000D02*
D03*
X54000D02*
D03*
X62000D02*
D03*
X70000D02*
D03*
X78000D02*
D03*
X86000D02*
D03*
D70*
X9500Y10000D02*
D03*
Y18000D02*
D03*
X29500Y14000D02*
D03*
D71*
X16500Y51000D02*
D03*
X6500Y6500D02*
D03*
X34500Y14500D02*
D03*
X23000Y93000D02*
D03*
X19500Y6000D02*
D03*
X24500Y8000D02*
D03*
X14500D02*
D03*
X27500Y33000D02*
D03*
X19500Y21500D02*
D03*
X14000Y29973D02*
D03*
X69000Y11000D02*
D03*
X93500Y46000D02*
D03*
Y43000D02*
D03*
X89000Y9000D02*
D03*
X80500Y34500D02*
D03*
X21000Y90000D02*
D03*
X55500Y93000D02*
D03*
X87475Y27232D02*
D03*
X21500Y44500D02*
D03*
X53500Y88000D02*
D03*
X13500Y73500D02*
D03*
X29000Y83500D02*
D03*
X26000D02*
D03*
X75500Y62500D02*
D03*
X26025Y44232D02*
D03*
X76000Y31000D02*
D03*
X75982Y23000D02*
D03*
X58500Y13500D02*
D03*
X42000Y16000D02*
D03*
X24000Y42000D02*
D03*
X59110Y44182D02*
D03*
X47524Y62498D02*
D03*
X42003Y56932D02*
D03*
X89000Y81500D02*
D03*
X6000Y83500D02*
D03*
X8000Y92000D02*
D03*
X16500Y70500D02*
D03*
X79500Y72500D02*
D03*
X56964Y79757D02*
D03*
X80500Y93500D02*
D03*
X91500D02*
D03*
X14500Y20000D02*
D03*
X46508Y38611D02*
D03*
X46500Y27000D02*
D03*
X70500Y72000D02*
D03*
X68500Y70000D02*
D03*
X66500Y72000D02*
D03*
X64000Y70000D02*
D03*
X60000D02*
D03*
X62000Y72000D02*
D03*
X56000Y70000D02*
D03*
X58000Y72000D02*
D03*
X71500Y54500D02*
D03*
X69500Y56500D02*
D03*
Y60500D02*
D03*
X71500Y58500D02*
D03*
X70000Y49500D02*
D03*
X72000Y47500D02*
D03*
X74000Y45500D02*
D03*
X58500Y27000D02*
D03*
X56500Y29000D02*
D03*
X50500Y31000D02*
D03*
X48500Y29000D02*
D03*
X52500D02*
D03*
X54500Y27000D02*
D03*
X37500D02*
D03*
X35500Y25000D02*
D03*
X33500Y27000D02*
D03*
X29500D02*
D03*
X27500Y29000D02*
D03*
X29500Y31000D02*
D03*
Y35000D02*
D03*
X14000Y47000D02*
D03*
X19000Y53000D02*
D03*
Y49000D02*
D03*
X24000Y51000D02*
D03*
X19000Y42000D02*
D03*
X14000D02*
D03*
X19000Y58000D02*
D03*
X24000D02*
D03*
D72*
X62500Y88000D02*
D03*
X75000Y52000D02*
D03*
X88000Y63500D02*
D03*
X86000Y13500D02*
D03*
X55000Y10500D02*
D03*
X14000Y53000D02*
D03*
X22500Y79000D02*
D03*
X81000Y47000D02*
D03*
X67000Y37500D02*
D03*
X91500Y39000D02*
D03*
X72500Y65500D02*
D03*
X41000Y33000D02*
D03*
X53000Y70000D02*
D03*
X50000D02*
D03*
X47000D02*
D03*
X39000Y63500D02*
D03*
X37000Y65500D02*
D03*
X53000Y58500D02*
D03*
X47000D02*
D03*
X58500Y47000D02*
D03*
Y53000D02*
D03*
X46937Y41448D02*
D03*
X52937D02*
D03*
X41500Y47000D02*
D03*
Y53000D02*
D03*
X91500Y81500D02*
D03*
X30000Y73500D02*
D03*
Y71000D02*
D03*
X55318Y78182D02*
D03*
M02*
