G04*
G04 #@! TF.GenerationSoftware,Altium Limited,Altium Designer,22.4.2 (48)*
G04*
G04 Layer_Color=32896*
%FSLAX25Y25*%
%MOIN*%
G70*
G04*
G04 #@! TF.SameCoordinates,024BFFEA-EEA5-4CD3-8026-DF8E4E0E0677*
G04*
G04*
G04 #@! TF.FilePolarity,Positive*
G04*
G01*
G75*
%ADD12C,0.00600*%
D12*
X92401Y8599D02*
X93400D01*
X92901D01*
Y6100D01*
X93400Y5600D01*
X93900D01*
X94400Y6100D01*
X91401Y8599D02*
Y5600D01*
X89402D01*
X86403Y8099D02*
X86902Y8599D01*
X87902D01*
X88402Y8099D01*
Y6100D01*
X87902Y5600D01*
X86902D01*
X86403Y6100D01*
X83404Y8599D02*
X84403D01*
X83903D01*
Y6100D01*
X84403Y5600D01*
X84903D01*
X85403Y6100D01*
X82404Y8599D02*
Y5600D01*
X80405D01*
X77406Y8099D02*
X77905Y8599D01*
X78905D01*
X79405Y8099D01*
Y6100D01*
X78905Y5600D01*
X77905D01*
X77406Y6100D01*
X74406Y8599D02*
X75406D01*
X74906D01*
Y6100D01*
X75406Y5600D01*
X75906D01*
X76406Y6100D01*
X73407Y8599D02*
Y5600D01*
X71407D01*
X68408Y8099D02*
X68908Y8599D01*
X69908D01*
X70408Y8099D01*
Y6100D01*
X69908Y5600D01*
X68908D01*
X68408Y6100D01*
X65409Y8599D02*
X66409D01*
X65909D01*
Y6100D01*
X66409Y5600D01*
X66909D01*
X67409Y6100D01*
X64410Y8599D02*
Y5600D01*
X62410D01*
X59411Y8099D02*
X59911Y8599D01*
X60911D01*
X61411Y8099D01*
Y6100D01*
X60911Y5600D01*
X59911D01*
X59411Y6100D01*
M02*
