G04*
G04 #@! TF.GenerationSoftware,Altium Limited,Altium Designer,22.4.2 (48)*
G04*
G04 Layer_Color=32896*
%FSLAX25Y25*%
%MOIN*%
G70*
G04*
G04 #@! TF.SameCoordinates,1F286525-8613-48BA-B55B-26260A7FDAC8*
G04*
G04*
G04 #@! TF.FilePolarity,Positive*
G04*
G01*
G75*
%ADD12C,0.00600*%
D12*
X90401Y9099D02*
X91400D01*
X90900D01*
Y6600D01*
X91400Y6100D01*
X91900D01*
X92400Y6600D01*
X89401Y9099D02*
Y6100D01*
X87402D01*
X84403Y8599D02*
X84902Y9099D01*
X85902D01*
X86402Y8599D01*
Y6600D01*
X85902Y6100D01*
X84902D01*
X84403Y6600D01*
X81404Y9099D02*
X82403D01*
X81903D01*
Y6600D01*
X82403Y6100D01*
X82903D01*
X83403Y6600D01*
X80404Y9099D02*
Y6100D01*
X78404D01*
X75406Y8599D02*
X75905Y9099D01*
X76905D01*
X77405Y8599D01*
Y6600D01*
X76905Y6100D01*
X75905D01*
X75406Y6600D01*
X72407Y9099D02*
X73406D01*
X72906D01*
Y6600D01*
X73406Y6100D01*
X73906D01*
X74406Y6600D01*
X71407Y9099D02*
Y6100D01*
X69407D01*
X66408Y8599D02*
X66908Y9099D01*
X67908D01*
X68408Y8599D01*
Y6600D01*
X67908Y6100D01*
X66908D01*
X66408Y6600D01*
X63409Y9099D02*
X64409D01*
X63909D01*
Y6600D01*
X64409Y6100D01*
X64909D01*
X65409Y6600D01*
X62410Y9099D02*
Y6100D01*
X60410D01*
X57411Y8599D02*
X57911Y9099D01*
X58911D01*
X59411Y8599D01*
Y6600D01*
X58911Y6100D01*
X57911D01*
X57411Y6600D01*
M02*
