G04*
G04 #@! TF.GenerationSoftware,Altium Limited,Altium Designer,22.4.2 (48)*
G04*
G04 Layer_Color=8388736*
%FSLAX25Y25*%
%MOIN*%
G70*
G04*
G04 #@! TF.SameCoordinates,E33717C8-1156-47A2-ABF9-324644F10D76*
G04*
G04*
G04 #@! TF.FilePolarity,Negative*
G04*
G01*
G75*
%ADD36R,0.02894X0.02894*%
G04:AMPARAMS|DCode=37|XSize=59.06mil|YSize=51.18mil|CornerRadius=0mil|HoleSize=0mil|Usage=FLASHONLY|Rotation=45.000|XOffset=0mil|YOffset=0mil|HoleType=Round|Shape=Rectangle|*
%AMROTATEDRECTD37*
4,1,4,-0.00278,-0.03897,-0.03897,-0.00278,0.00278,0.03897,0.03897,0.00278,-0.00278,-0.03897,0.0*
%
%ADD37ROTATEDRECTD37*%

%ADD38O,0.02874X0.09252*%
G04:AMPARAMS|DCode=39|XSize=47.24mil|YSize=11.81mil|CornerRadius=0mil|HoleSize=0mil|Usage=FLASHONLY|Rotation=45.000|XOffset=0mil|YOffset=0mil|HoleType=Round|Shape=Rectangle|*
%AMROTATEDRECTD39*
4,1,4,-0.01253,-0.02088,-0.02088,-0.01253,0.01253,0.02088,0.02088,0.01253,-0.01253,-0.02088,0.0*
%
%ADD39ROTATEDRECTD39*%

G04:AMPARAMS|DCode=40|XSize=47.24mil|YSize=11.81mil|CornerRadius=0mil|HoleSize=0mil|Usage=FLASHONLY|Rotation=135.000|XOffset=0mil|YOffset=0mil|HoleType=Round|Shape=Rectangle|*
%AMROTATEDRECTD40*
4,1,4,0.02088,-0.01253,0.01253,-0.02088,-0.02088,0.01253,-0.01253,0.02088,0.02088,-0.01253,0.0*
%
%ADD40ROTATEDRECTD40*%

%ADD41P,0.18374X4X90.0*%
%ADD42R,0.03894X0.03094*%
%ADD43R,0.04606X0.02756*%
%ADD44R,0.04331X0.02559*%
%ADD45R,0.03543X0.07087*%
%ADD46P,0.04092X4X360.0*%
%ADD47R,0.02894X0.02894*%
%ADD48P,0.04092X4X90.0*%
%ADD49R,0.04853X0.05815*%
%ADD50R,0.03894X0.03594*%
%ADD51R,0.03594X0.03894*%
%ADD52C,0.03494*%
%ADD53P,0.05011X4X270.0*%
%ADD54R,0.04331X0.03347*%
%ADD55R,0.03347X0.04331*%
G04:AMPARAMS|DCode=56|XSize=33.94mil|YSize=25.44mil|CornerRadius=0mil|HoleSize=0mil|Usage=FLASHONLY|Rotation=135.000|XOffset=0mil|YOffset=0mil|HoleType=Round|Shape=Rectangle|*
%AMROTATEDRECTD56*
4,1,4,0.02099,-0.00301,0.00301,-0.02099,-0.02099,0.00301,-0.00301,0.02099,0.02099,-0.00301,0.0*
%
%ADD56ROTATEDRECTD56*%

%ADD57R,0.02544X0.03394*%
%ADD58R,0.03394X0.02544*%
%ADD59R,0.03937X0.03543*%
G04:AMPARAMS|DCode=60|XSize=53.94mil|YSize=83.94mil|CornerRadius=14.47mil|HoleSize=0mil|Usage=FLASHONLY|Rotation=90.000|XOffset=0mil|YOffset=0mil|HoleType=Round|Shape=RoundedRectangle|*
%AMROUNDEDRECTD60*
21,1,0.05394,0.05500,0,0,90.0*
21,1,0.02500,0.08394,0,0,90.0*
1,1,0.02894,0.02750,0.01250*
1,1,0.02894,0.02750,-0.01250*
1,1,0.02894,-0.02750,-0.01250*
1,1,0.02894,-0.02750,0.01250*
%
%ADD60ROUNDEDRECTD60*%
G04:AMPARAMS|DCode=61|XSize=53.94mil|YSize=83.94mil|CornerRadius=14.47mil|HoleSize=0mil|Usage=FLASHONLY|Rotation=180.000|XOffset=0mil|YOffset=0mil|HoleType=Round|Shape=RoundedRectangle|*
%AMROUNDEDRECTD61*
21,1,0.05394,0.05500,0,0,180.0*
21,1,0.02500,0.08394,0,0,180.0*
1,1,0.02894,-0.01250,0.02750*
1,1,0.02894,0.01250,0.02750*
1,1,0.02894,0.01250,-0.02750*
1,1,0.02894,-0.01250,-0.02750*
%
%ADD61ROUNDEDRECTD61*%
%ADD62C,0.04284*%
D36*
X24000Y28200D02*
D03*
Y24800D02*
D03*
X83500Y34700D02*
D03*
Y31300D02*
D03*
X87000D02*
D03*
Y34700D02*
D03*
X21000Y87200D02*
D03*
Y83800D02*
D03*
D37*
X60072Y22804D02*
D03*
X66196Y28928D02*
D03*
X70929Y24196D02*
D03*
X64804Y18071D02*
D03*
D38*
X24000Y63898D02*
D03*
X19000D02*
D03*
X14000D02*
D03*
X9000D02*
D03*
X24000Y36102D02*
D03*
X19000D02*
D03*
X14000D02*
D03*
X9000D02*
D03*
D39*
X32879Y47355D02*
D03*
X33993Y46242D02*
D03*
X35106Y45128D02*
D03*
X36220Y44015D02*
D03*
X37333Y42901D02*
D03*
X38447Y41787D02*
D03*
X39560Y40674D02*
D03*
X40674Y39560D02*
D03*
X41787Y38447D02*
D03*
X42901Y37333D02*
D03*
X44015Y36220D02*
D03*
X45128Y35106D02*
D03*
X46242Y33993D02*
D03*
X47355Y32879D02*
D03*
X67121Y52645D02*
D03*
X66007Y53758D02*
D03*
X64894Y54872D02*
D03*
X63780Y55985D02*
D03*
X62667Y57099D02*
D03*
X61553Y58213D02*
D03*
X60440Y59326D02*
D03*
X59326Y60440D02*
D03*
X58213Y61553D02*
D03*
X57099Y62667D02*
D03*
X55985Y63780D02*
D03*
X54872Y64894D02*
D03*
X53758Y66007D02*
D03*
X52645Y67121D02*
D03*
D40*
Y32879D02*
D03*
X53758Y33993D02*
D03*
X54872Y35106D02*
D03*
X55985Y36220D02*
D03*
X57099Y37333D02*
D03*
X58213Y38447D02*
D03*
X59326Y39560D02*
D03*
X60440Y40674D02*
D03*
X61553Y41787D02*
D03*
X62667Y42901D02*
D03*
X63780Y44015D02*
D03*
X64894Y45128D02*
D03*
X66007Y46242D02*
D03*
X67121Y47355D02*
D03*
X47355Y67121D02*
D03*
X46242Y66007D02*
D03*
X45128Y64894D02*
D03*
X44015Y63780D02*
D03*
X42901Y62667D02*
D03*
X41787Y61553D02*
D03*
X40674Y60440D02*
D03*
X39560Y59326D02*
D03*
X38447Y58213D02*
D03*
X37333Y57099D02*
D03*
X36220Y55985D02*
D03*
X35106Y54872D02*
D03*
X33993Y53758D02*
D03*
X32879Y52645D02*
D03*
D41*
X50000Y50000D02*
D03*
D42*
X16600Y87630D02*
D03*
Y83370D02*
D03*
X9400D02*
D03*
Y87630D02*
D03*
D43*
X33138Y92240D02*
D03*
Y84760D02*
D03*
X42863Y88500D02*
D03*
D44*
X75488Y70260D02*
D03*
Y74000D02*
D03*
Y77740D02*
D03*
X86512D02*
D03*
Y74000D02*
D03*
Y70260D02*
D03*
D45*
X92693Y11000D02*
D03*
X79307D02*
D03*
X92693Y22500D02*
D03*
X79307D02*
D03*
D46*
X50202Y18798D02*
D03*
X47798Y21202D02*
D03*
X78202Y38298D02*
D03*
X75798Y40702D02*
D03*
X80702Y40798D02*
D03*
X78298Y43202D02*
D03*
D47*
X79800Y62000D02*
D03*
X83200D02*
D03*
Y65500D02*
D03*
X79800D02*
D03*
D48*
X65202Y34202D02*
D03*
X62798Y31798D02*
D03*
D49*
X10196Y26000D02*
D03*
X17804D02*
D03*
D50*
X40000Y73000D02*
D03*
Y79000D02*
D03*
X35500Y73000D02*
D03*
Y79000D02*
D03*
D51*
X52000Y82500D02*
D03*
X46000D02*
D03*
D52*
X24500Y16500D02*
D03*
Y11500D02*
D03*
X19500D02*
D03*
Y16500D02*
D03*
X14500Y11500D02*
D03*
Y16500D02*
D03*
D53*
X39631Y23369D02*
D03*
X44369Y18631D02*
D03*
D54*
X7884Y77000D02*
D03*
X17117D02*
D03*
D55*
X74000Y83384D02*
D03*
Y92616D02*
D03*
X66500Y83384D02*
D03*
Y92616D02*
D03*
X59000Y83384D02*
D03*
Y92616D02*
D03*
D56*
X70480Y31520D02*
D03*
X73520Y28480D02*
D03*
X60520Y15480D02*
D03*
X57480Y18520D02*
D03*
X40480Y28520D02*
D03*
X43520Y25480D02*
D03*
X70480Y36020D02*
D03*
X73520Y32980D02*
D03*
X70480Y63520D02*
D03*
X73520Y60480D02*
D03*
X72980Y38520D02*
D03*
X76020Y35480D02*
D03*
D57*
X29500Y42650D02*
D03*
Y38350D02*
D03*
X53000Y72850D02*
D03*
Y77150D02*
D03*
X50000Y72850D02*
D03*
Y77150D02*
D03*
X26000Y86350D02*
D03*
Y90650D02*
D03*
X29000Y86350D02*
D03*
Y90650D02*
D03*
X47500Y87850D02*
D03*
Y92150D02*
D03*
X50500Y87850D02*
D03*
Y92150D02*
D03*
X84500Y85350D02*
D03*
Y89650D02*
D03*
X87500Y85350D02*
D03*
Y89650D02*
D03*
X44000Y72850D02*
D03*
Y77150D02*
D03*
X47000Y72850D02*
D03*
Y77150D02*
D03*
D58*
X34150Y68500D02*
D03*
X29850D02*
D03*
X34150Y65500D02*
D03*
X29850D02*
D03*
X15150Y92000D02*
D03*
X10850D02*
D03*
X34150Y62500D02*
D03*
X29850D02*
D03*
X9350Y70500D02*
D03*
X13650D02*
D03*
D59*
X80500Y90255D02*
D03*
Y84745D02*
D03*
X91500Y90255D02*
D03*
Y84745D02*
D03*
Y76755D02*
D03*
Y71245D02*
D03*
D60*
X0Y14000D02*
D03*
Y22000D02*
D03*
Y30000D02*
D03*
Y38000D02*
D03*
Y46000D02*
D03*
Y54000D02*
D03*
Y62000D02*
D03*
Y70000D02*
D03*
Y78000D02*
D03*
Y86000D02*
D03*
X100000D02*
D03*
Y78000D02*
D03*
Y70000D02*
D03*
Y62000D02*
D03*
Y54000D02*
D03*
Y46000D02*
D03*
Y38000D02*
D03*
Y30000D02*
D03*
Y22000D02*
D03*
Y14000D02*
D03*
D61*
X86000Y0D02*
D03*
X78000D02*
D03*
X70000D02*
D03*
X62000D02*
D03*
X54000D02*
D03*
X46000D02*
D03*
X38000D02*
D03*
X30000D02*
D03*
X22000D02*
D03*
X14000D02*
D03*
Y100000D02*
D03*
X22000D02*
D03*
X30000D02*
D03*
X38000D02*
D03*
X46000D02*
D03*
X54000D02*
D03*
X62000D02*
D03*
X70000D02*
D03*
X78000D02*
D03*
X86000D02*
D03*
D62*
X9500Y10000D02*
D03*
Y18000D02*
D03*
X29500Y14000D02*
D03*
M02*
