G04*
G04 #@! TF.GenerationSoftware,Altium Limited,Altium Designer,22.4.2 (48)*
G04*
G04 Layer_Physical_Order=3*
G04 Layer_Color=9720587*
%FSLAX25Y25*%
%MOIN*%
G70*
G04*
G04 #@! TF.SameCoordinates,E33717C8-1156-47A2-ABF9-324644F10D76*
G04*
G04*
G04 #@! TF.FilePolarity,Positive*
G04*
G01*
G75*
%ADD10C,0.02000*%
%ADD64C,0.00550*%
G04:AMPARAMS|DCode=68|XSize=50mil|YSize=80mil|CornerRadius=12.5mil|HoleSize=0mil|Usage=FLASHONLY|Rotation=90.000|XOffset=0mil|YOffset=0mil|HoleType=Round|Shape=RoundedRectangle|*
%AMROUNDEDRECTD68*
21,1,0.05000,0.05500,0,0,90.0*
21,1,0.02500,0.08000,0,0,90.0*
1,1,0.02500,0.02750,0.01250*
1,1,0.02500,0.02750,-0.01250*
1,1,0.02500,-0.02750,-0.01250*
1,1,0.02500,-0.02750,0.01250*
%
%ADD68ROUNDEDRECTD68*%
G04:AMPARAMS|DCode=69|XSize=50mil|YSize=80mil|CornerRadius=12.5mil|HoleSize=0mil|Usage=FLASHONLY|Rotation=180.000|XOffset=0mil|YOffset=0mil|HoleType=Round|Shape=RoundedRectangle|*
%AMROUNDEDRECTD69*
21,1,0.05000,0.05500,0,0,180.0*
21,1,0.02500,0.08000,0,0,180.0*
1,1,0.02500,-0.01250,0.02750*
1,1,0.02500,0.01250,0.02750*
1,1,0.02500,0.01250,-0.02750*
1,1,0.02500,-0.01250,-0.02750*
%
%ADD69ROUNDEDRECTD69*%
%ADD70C,0.03890*%
%ADD71C,0.01900*%
%ADD72C,0.02000*%
D10*
X23000Y93000D02*
X55500D01*
X21000Y90000D02*
X23000Y88000D01*
X53500D01*
D64*
X0Y14000D02*
X1000Y13000D01*
X78000Y93000D02*
Y100000D01*
X72500Y87500D02*
X78000Y93000D01*
X67500Y87500D02*
X72500D01*
X56000Y76000D02*
X67500Y87500D01*
X86000Y92000D02*
Y100000D01*
X79500Y85500D02*
X86000Y92000D01*
X56000Y70000D02*
Y76000D01*
X82000Y83500D02*
X87500Y89000D01*
X95500D02*
X98500Y86000D01*
X87500Y89000D02*
X95500D01*
X98500Y86000D02*
X100000D01*
X87500D02*
X90500D01*
X98500Y78000D01*
X100000D01*
X70000Y77500D02*
X80500D01*
X93500Y59000D02*
Y64500D01*
X80500Y77500D02*
X93500Y64500D01*
X69500Y79500D02*
X81000D01*
X97000Y63500D01*
X100000D01*
X93500Y51000D02*
Y56500D01*
X91500Y58500D02*
Y64000D01*
Y58500D02*
X93500Y56500D01*
X98000Y54500D02*
X100000D01*
X93500Y59000D02*
X98000Y54500D01*
X99000Y45500D02*
X100000D01*
X93500Y51000D02*
X99000Y45500D01*
X98500Y38000D02*
X100000D01*
X95497Y38003D02*
X98497D01*
X91500Y42000D02*
X95497Y38003D01*
X98500Y38000D02*
X100000Y36500D01*
X98497Y38003D02*
X98500Y38000D01*
X95497Y30503D02*
X99497D01*
X89000Y37000D02*
X95497Y30503D01*
X99497D02*
X100000Y30000D01*
X95500Y22000D02*
X100000D01*
X87500Y30000D02*
X95500Y22000D01*
X85500Y23000D02*
X94500Y14000D01*
X100568D01*
X83500Y8000D02*
X86000Y5500D01*
Y-251D02*
Y5500D01*
X78000Y3651D02*
X78735Y2916D01*
X78000Y3651D02*
Y47500D01*
X76000Y49500D02*
X78000Y47500D01*
X78735Y2916D02*
X79416D01*
X67062Y6562D02*
X70062D01*
X72000Y8500D02*
Y39500D01*
X70062Y6562D02*
X72000Y8500D01*
X62000Y0D02*
Y1500D01*
X67062Y6562D01*
X72000Y39500D02*
X76500Y44000D01*
X54000Y0D02*
Y1500D01*
X63500Y11000D02*
X69000D01*
X54000Y1500D02*
X63500Y11000D01*
X34500Y6000D02*
X38000D01*
X30000Y0D02*
Y1500D01*
X34500Y6000D01*
X28000Y7500D02*
X36500D01*
X22000Y1500D02*
X28000Y7500D01*
X22000Y1500D02*
Y2000D01*
Y0D02*
Y1500D01*
Y2503D02*
Y3500D01*
Y2000D02*
Y2503D01*
X21003D02*
X22000D01*
X21003D02*
X22000Y3500D01*
X25000Y11000D02*
X27000Y9000D01*
X14003Y4503D02*
X20500Y11000D01*
X25000D01*
X14003Y3D02*
Y4503D01*
X14000Y0D02*
X14003Y3D01*
X1000Y13000D02*
X25500D01*
X28000Y10500D01*
X5500Y16500D02*
X7000Y15000D01*
X12500D02*
X14500Y17000D01*
X7000Y15000D02*
X12500D01*
X5500Y16500D02*
Y18500D01*
X2000Y22000D02*
X5500Y18500D01*
X0Y22000D02*
X2000D01*
X1500Y38000D02*
X5500Y34000D01*
Y32500D02*
Y34000D01*
Y32500D02*
X19500Y18500D01*
X1500Y46000D02*
X7500Y40000D01*
Y33000D02*
X12502Y27998D01*
X7500Y33000D02*
Y40000D01*
X0Y38000D02*
X1500D01*
X19500Y18500D02*
X37500D01*
X0Y46000D02*
X1500D01*
X6000Y54000D02*
X9000Y51000D01*
X0Y54000D02*
X6000D01*
X9000Y62000D02*
X11500Y59500D01*
X0Y62000D02*
X9000D01*
X4000Y67500D02*
X20000D01*
X0Y70000D02*
X1500D01*
X4000Y67500D01*
X13000Y78000D02*
X30000Y61000D01*
X-426Y78000D02*
X13000D01*
X6929Y86071D02*
X32000Y61000D01*
Y43000D02*
Y61000D01*
X-71Y86071D02*
X6929D01*
X18500Y78500D02*
Y95000D01*
X22000Y98500D02*
Y100000D01*
X18500Y95000D02*
X22000Y98500D01*
X14000Y81000D02*
X34000Y61000D01*
X14000Y81000D02*
Y100000D01*
X27000Y9000D02*
X35000D01*
X39500Y13500D01*
X37220Y31280D02*
X40000Y28500D01*
Y23500D02*
Y28500D01*
X36500Y20000D02*
X40000Y23500D01*
X33220Y31280D02*
X37220D01*
X29500Y35000D02*
X33220Y31280D01*
X21000Y20000D02*
X36500D01*
X19500Y21500D02*
X21000Y20000D01*
X37500Y18500D02*
X44000Y25000D01*
X35500Y21500D02*
X37500Y23500D01*
X17002Y27998D02*
X23500Y21500D01*
X35500D01*
X44000Y25000D02*
Y36103D01*
X14500Y17000D02*
X38000D01*
X46500Y25500D02*
Y27000D01*
X38000Y17000D02*
X46500Y25500D01*
X9000Y38500D02*
X24500Y23000D01*
X33500D02*
X35500Y25000D01*
X24500Y23000D02*
X33500D01*
X12502Y27998D02*
X17002D01*
X18500Y78500D02*
X36000Y61000D01*
Y41500D02*
Y61000D01*
X34000Y43000D02*
Y61000D01*
X27500Y36500D02*
X34000Y43000D01*
X29500Y35000D02*
X36000Y41500D01*
X27500Y33000D02*
Y36500D01*
X25000Y36000D02*
X32000Y43000D01*
X25000Y32500D02*
Y36000D01*
X23000D02*
X30000Y43000D01*
Y61000D01*
X23000Y32015D02*
Y36000D01*
X81000Y54500D02*
X83500Y52000D01*
Y8000D02*
Y52000D01*
X89000Y37000D02*
Y55500D01*
X84000Y60500D02*
X89000Y55500D01*
X70000Y49500D02*
X76000D01*
X69025Y36661D02*
Y38339D01*
X69000Y11000D02*
Y36636D01*
Y38364D02*
X69025Y38339D01*
X69000Y40500D02*
X74000Y45500D01*
X69000Y38364D02*
Y40500D01*
Y36636D02*
X69025Y36661D01*
X91500Y42000D02*
Y56000D01*
X72025Y47475D02*
X75525D01*
X76500Y44000D02*
Y46500D01*
X75525Y47475D02*
X76500Y46500D01*
X72000Y47500D02*
X72025Y47475D01*
X28000Y10500D02*
X33500D01*
X48500Y25500D01*
X9000Y38500D02*
Y51000D01*
X11500Y38500D02*
Y59500D01*
X25000Y25000D02*
X31500D01*
X11500Y38500D02*
X25000Y25000D01*
X44000Y36103D02*
X46508Y38611D01*
X50000Y6000D02*
X55500D01*
X61500Y12000D02*
Y24000D01*
X55500Y6000D02*
X61500Y12000D01*
X45500Y1500D02*
X50000Y6000D01*
X45500Y0D02*
Y1500D01*
X58500Y27000D02*
X61500Y24000D01*
X39500Y13500D02*
X44000D01*
X50500Y20000D01*
Y31000D01*
X40000Y11000D02*
X45000D01*
X36500Y7500D02*
X40000Y11000D01*
X45000D02*
X52500Y18500D01*
Y29000D01*
X40500Y8500D02*
X46000D01*
X38000Y6000D02*
X40500Y8500D01*
X46000D02*
X54500Y17000D01*
Y27000D01*
X47000Y6000D02*
X56500Y15500D01*
X41000Y6000D02*
X47000D01*
X36500Y1500D02*
X41000Y6000D01*
X36500Y0D02*
Y1500D01*
X56500Y15500D02*
Y29000D01*
X20000Y67500D02*
X28000Y59500D01*
X80000Y75500D02*
X91500Y64000D01*
X70359Y75500D02*
X80000D01*
X66705Y72205D02*
Y74205D01*
X66500Y72000D02*
X66705Y72205D01*
Y74205D02*
X70000Y77500D01*
X83000Y81500D02*
X87500Y86000D01*
X69000Y81500D02*
X83000D01*
X62000Y74500D02*
X69000Y81500D01*
X68500Y83500D02*
X82000D01*
X68000Y85500D02*
X79500D01*
X48500Y25500D02*
Y29000D01*
X37500Y23500D02*
Y27000D01*
X28000Y43000D02*
Y59500D01*
X31500Y25000D02*
X33500Y27000D01*
X21000Y31500D02*
X25500Y27000D01*
X21000Y31500D02*
Y36000D01*
X25500Y27000D02*
X29500D01*
X21000Y36000D02*
X28000Y43000D01*
X23000Y32015D02*
X25757Y29258D01*
X26500Y31000D02*
X29500D01*
X25000Y32500D02*
X26500Y31000D01*
X27242Y29258D02*
X27500Y29000D01*
X25757Y29258D02*
X27242D01*
X71500Y54500D02*
X81000D01*
X85500Y23000D02*
Y53000D01*
X69500Y56500D02*
X82000D01*
X85500Y53000D01*
X87500Y30000D02*
Y54000D01*
X83000Y58500D02*
X87500Y54000D01*
X71500Y58500D02*
X83000D01*
X69500Y60500D02*
X84000D01*
X75500Y72000D02*
X91500Y56000D01*
X70500Y72000D02*
X75500D01*
X68525Y73666D02*
X70359Y75500D01*
X68525Y70025D02*
Y73666D01*
X64525Y74525D02*
X69500Y79500D01*
X58000Y72000D02*
Y75500D01*
X68000Y85500D01*
X60000Y75000D02*
X68500Y83500D01*
X60000Y70000D02*
Y75000D01*
X62000Y72000D02*
Y74500D01*
X64525Y70890D02*
Y74525D01*
X64000Y70365D02*
X64525Y70890D01*
X64000Y70000D02*
Y70365D01*
X68500Y70000D02*
X68525Y70025D01*
X14000Y42000D02*
Y47000D01*
X19000Y53000D02*
Y58000D01*
Y42000D02*
Y49000D01*
X24000Y51000D02*
Y58000D01*
D68*
X0Y14000D02*
D03*
Y22000D02*
D03*
Y30000D02*
D03*
Y38000D02*
D03*
Y46000D02*
D03*
Y54000D02*
D03*
Y62000D02*
D03*
Y70000D02*
D03*
Y78000D02*
D03*
Y86000D02*
D03*
X100000D02*
D03*
Y78000D02*
D03*
Y70000D02*
D03*
Y62000D02*
D03*
Y54000D02*
D03*
Y46000D02*
D03*
Y38000D02*
D03*
Y30000D02*
D03*
Y22000D02*
D03*
Y14000D02*
D03*
D69*
X86000Y0D02*
D03*
X78000D02*
D03*
X70000D02*
D03*
X62000D02*
D03*
X54000D02*
D03*
X46000D02*
D03*
X38000D02*
D03*
X30000D02*
D03*
X22000D02*
D03*
X14000D02*
D03*
Y100000D02*
D03*
X22000D02*
D03*
X30000D02*
D03*
X38000D02*
D03*
X46000D02*
D03*
X54000D02*
D03*
X62000D02*
D03*
X70000D02*
D03*
X78000D02*
D03*
X86000D02*
D03*
D70*
X9500Y10000D02*
D03*
Y18000D02*
D03*
X29500Y14000D02*
D03*
D71*
X16500Y51000D02*
D03*
X6500Y6500D02*
D03*
X34500Y14500D02*
D03*
X23000Y93000D02*
D03*
X19500Y6000D02*
D03*
X24500Y8000D02*
D03*
X14500D02*
D03*
X27500Y33000D02*
D03*
X19500Y21500D02*
D03*
X14000Y29973D02*
D03*
X69000Y11000D02*
D03*
X93500Y46000D02*
D03*
Y43000D02*
D03*
X89000Y9000D02*
D03*
X80500Y34500D02*
D03*
X21000Y90000D02*
D03*
X55500Y93000D02*
D03*
X87475Y27232D02*
D03*
X21500Y44500D02*
D03*
X53500Y88000D02*
D03*
X13500Y73500D02*
D03*
X29000Y83500D02*
D03*
X26000D02*
D03*
X75500Y62500D02*
D03*
X26025Y44232D02*
D03*
X76000Y31000D02*
D03*
X75982Y23000D02*
D03*
X58500Y13500D02*
D03*
X42000Y16000D02*
D03*
X24000Y42000D02*
D03*
X59110Y44182D02*
D03*
X47524Y62498D02*
D03*
X42003Y56932D02*
D03*
X89000Y81500D02*
D03*
X6000Y83500D02*
D03*
X8000Y92000D02*
D03*
X16500Y70500D02*
D03*
X79500Y72500D02*
D03*
X56964Y79757D02*
D03*
X80500Y93500D02*
D03*
X91500D02*
D03*
X14500Y20000D02*
D03*
X46508Y38611D02*
D03*
X46500Y27000D02*
D03*
X70500Y72000D02*
D03*
X68500Y70000D02*
D03*
X66500Y72000D02*
D03*
X64000Y70000D02*
D03*
X60000D02*
D03*
X62000Y72000D02*
D03*
X56000Y70000D02*
D03*
X58000Y72000D02*
D03*
X71500Y54500D02*
D03*
X69500Y56500D02*
D03*
Y60500D02*
D03*
X71500Y58500D02*
D03*
X70000Y49500D02*
D03*
X72000Y47500D02*
D03*
X74000Y45500D02*
D03*
X58500Y27000D02*
D03*
X56500Y29000D02*
D03*
X50500Y31000D02*
D03*
X48500Y29000D02*
D03*
X52500D02*
D03*
X54500Y27000D02*
D03*
X37500D02*
D03*
X35500Y25000D02*
D03*
X33500Y27000D02*
D03*
X29500D02*
D03*
X27500Y29000D02*
D03*
X29500Y31000D02*
D03*
Y35000D02*
D03*
X14000Y47000D02*
D03*
X19000Y53000D02*
D03*
Y49000D02*
D03*
X24000Y51000D02*
D03*
X19000Y42000D02*
D03*
X14000D02*
D03*
X19000Y58000D02*
D03*
X24000D02*
D03*
D72*
X62500Y88000D02*
D03*
X75000Y52000D02*
D03*
X88000Y63500D02*
D03*
X86000Y13500D02*
D03*
X55000Y10500D02*
D03*
X14000Y53000D02*
D03*
X22500Y79000D02*
D03*
X81000Y47000D02*
D03*
X67000Y37500D02*
D03*
X91500Y39000D02*
D03*
X72500Y65500D02*
D03*
X41000Y33000D02*
D03*
X53000Y70000D02*
D03*
X50000D02*
D03*
X47000D02*
D03*
X39000Y63500D02*
D03*
X37000Y65500D02*
D03*
X53000Y58500D02*
D03*
X47000D02*
D03*
X58500Y47000D02*
D03*
Y53000D02*
D03*
X46937Y41448D02*
D03*
X52937D02*
D03*
X41500Y47000D02*
D03*
Y53000D02*
D03*
X91500Y81500D02*
D03*
X30000Y73500D02*
D03*
Y71000D02*
D03*
X55318Y78182D02*
D03*
M02*
