G04*
G04 #@! TF.GenerationSoftware,Altium Limited,Altium Designer,22.4.2 (48)*
G04*
G04 Layer_Physical_Order=4*
G04 Layer_Color=16711680*
%FSLAX25Y25*%
%MOIN*%
G70*
G04*
G04 #@! TF.SameCoordinates,D1D02850-E0A3-49D7-BBEB-9C0FD6D2D351*
G04*
G04*
G04 #@! TF.FilePolarity,Positive*
G04*
G01*
G75*
%ADD63C,0.02000*%
G04:AMPARAMS|DCode=68|XSize=60mil|YSize=80mil|CornerRadius=15mil|HoleSize=0mil|Usage=FLASHONLY|Rotation=90.000|XOffset=0mil|YOffset=0mil|HoleType=Round|Shape=RoundedRectangle|*
%AMROUNDEDRECTD68*
21,1,0.06000,0.05000,0,0,90.0*
21,1,0.03000,0.08000,0,0,90.0*
1,1,0.03000,0.02500,0.01500*
1,1,0.03000,0.02500,-0.01500*
1,1,0.03000,-0.02500,-0.01500*
1,1,0.03000,-0.02500,0.01500*
%
%ADD68ROUNDEDRECTD68*%
G04:AMPARAMS|DCode=69|XSize=60mil|YSize=80mil|CornerRadius=15mil|HoleSize=0mil|Usage=FLASHONLY|Rotation=180.000|XOffset=0mil|YOffset=0mil|HoleType=Round|Shape=RoundedRectangle|*
%AMROUNDEDRECTD69*
21,1,0.06000,0.05000,0,0,180.0*
21,1,0.03000,0.08000,0,0,180.0*
1,1,0.03000,-0.01500,0.02500*
1,1,0.03000,0.01500,0.02500*
1,1,0.03000,0.01500,-0.02500*
1,1,0.03000,-0.01500,-0.02500*
%
%ADD69ROUNDEDRECTD69*%
%ADD70C,0.03890*%
%ADD71C,0.02000*%
%ADD72C,0.01900*%
G36*
X32000Y98980D02*
Y95000D01*
X50000D01*
Y98980D01*
X59000D01*
Y95000D01*
X95000D01*
Y77000D01*
X95500Y76500D01*
X98980D01*
Y67500D01*
X95000D01*
Y48219D01*
X94991Y48205D01*
X94000Y47633D01*
X93838Y47700D01*
X93162D01*
X92537Y47441D01*
X92059Y46963D01*
X91800Y46338D01*
Y45662D01*
X92059Y45037D01*
X92490Y44500D01*
X92059Y43963D01*
X91800Y43338D01*
Y42662D01*
X92059Y42037D01*
X92537Y41559D01*
X93162Y41300D01*
X93838D01*
X94000Y41367D01*
X94991Y40795D01*
X95000Y40781D01*
Y5000D01*
X77000D01*
Y1020D01*
X68000D01*
Y5000D01*
X21219D01*
X21205Y5009D01*
X20639Y5990D01*
X21162Y6800D01*
X21838D01*
X22463Y7059D01*
X22941Y7537D01*
X23200Y8162D01*
Y8838D01*
X22941Y9463D01*
X22463Y9941D01*
X21838Y10200D01*
X21162D01*
X20537Y9941D01*
X20059Y9463D01*
X19889Y9054D01*
X19338Y8200D01*
X18662D01*
X18037Y7941D01*
X17559Y7463D01*
X17300Y6838D01*
Y6162D01*
X17367Y6000D01*
X16795Y5009D01*
X16781Y5000D01*
X5000D01*
Y18781D01*
X5009Y18795D01*
X6000Y19367D01*
X6162Y19300D01*
X6800Y18355D01*
Y17645D01*
X6984Y16958D01*
X7339Y16342D01*
X7842Y15840D01*
X8458Y15484D01*
X9144Y15300D01*
X9855D01*
X10542Y15484D01*
X11158Y15840D01*
X11660Y16342D01*
X12016Y16958D01*
X12200Y17645D01*
Y18356D01*
X12016Y19042D01*
X11660Y19658D01*
X11158Y20161D01*
X10542Y20516D01*
X9855Y20700D01*
X9144D01*
X8200Y21338D01*
X7941Y21963D01*
X7463Y22441D01*
X6838Y22700D01*
X6162D01*
X6000Y22633D01*
X5000Y23000D01*
Y23000D01*
X1020D01*
Y32000D01*
X5000D01*
Y71281D01*
X5009Y71295D01*
X6000Y71867D01*
X6162Y71800D01*
X6838D01*
X7463Y72059D01*
X7941Y72537D01*
X8200Y73162D01*
Y73838D01*
X7941Y74463D01*
X7463Y74941D01*
X6838Y75200D01*
X6162D01*
X6000Y75133D01*
X5009Y75705D01*
X5000Y75719D01*
Y95000D01*
X23000D01*
Y98980D01*
X32000D01*
D02*
G37*
%LPC*%
G36*
X55838Y94700D02*
X55162D01*
X54537Y94441D01*
X54059Y93963D01*
X53800Y93338D01*
Y92662D01*
X54059Y92037D01*
X54537Y91559D01*
X55162Y91300D01*
X55838D01*
X56463Y91559D01*
X56941Y92037D01*
X57200Y92662D01*
Y93338D01*
X56941Y93963D01*
X56463Y94441D01*
X55838Y94700D01*
D02*
G37*
G36*
X21338Y91700D02*
X20662D01*
X20037Y91441D01*
X19559Y90963D01*
X19300Y90338D01*
Y89662D01*
X19559Y89037D01*
X20037Y88559D01*
X20662Y88300D01*
X21338D01*
X21963Y88559D01*
X22441Y89037D01*
X22700Y89662D01*
Y90338D01*
X22441Y90963D01*
X21963Y91441D01*
X21338Y91700D01*
D02*
G37*
G36*
X53838Y89700D02*
X53162D01*
X52537Y89441D01*
X52059Y88963D01*
X51800Y88338D01*
Y87662D01*
X52059Y87037D01*
X52537Y86559D01*
X53162Y86300D01*
X53838D01*
X54463Y86559D01*
X54941Y87037D01*
X55200Y87662D01*
Y88338D01*
X54941Y88963D01*
X54463Y89441D01*
X53838Y89700D01*
D02*
G37*
G36*
X29338Y85200D02*
X28662D01*
X28037Y84941D01*
X27500Y84510D01*
X26963Y84941D01*
X26338Y85200D01*
X25662D01*
X25037Y84941D01*
X24559Y84463D01*
X24300Y83838D01*
Y83162D01*
X24559Y82537D01*
X25037Y82059D01*
X25662Y81800D01*
X26338D01*
X26963Y82059D01*
X27500Y82490D01*
X28037Y82059D01*
X28662Y81800D01*
X29338D01*
X29963Y82059D01*
X30441Y82537D01*
X30700Y83162D01*
Y83838D01*
X30441Y84463D01*
X29963Y84941D01*
X29338Y85200D01*
D02*
G37*
G36*
X91848Y83250D02*
X91152D01*
X90509Y82984D01*
X90215Y82689D01*
X89963Y82941D01*
X89338Y83200D01*
X88662D01*
X88037Y82941D01*
X87559Y82463D01*
X87300Y81838D01*
Y81162D01*
X87559Y80537D01*
X88037Y80059D01*
X88662Y79800D01*
X89338D01*
X89963Y80059D01*
X90215Y80310D01*
X90509Y80016D01*
X91152Y79750D01*
X91848D01*
X92491Y80016D01*
X92984Y80509D01*
X93250Y81152D01*
Y81848D01*
X92984Y82491D01*
X92491Y82984D01*
X91848Y83250D01*
D02*
G37*
G36*
X70838Y73700D02*
X70162D01*
X69537Y73441D01*
X69059Y72963D01*
X69041Y72921D01*
X67959D01*
X67941Y72963D01*
X67463Y73441D01*
X66838Y73700D01*
X66162D01*
X65537Y73441D01*
X65059Y72963D01*
X64800Y72338D01*
X64700Y72200D01*
X64128Y72279D01*
X63651Y72456D01*
X63441Y72963D01*
X62963Y73441D01*
X62338Y73700D01*
X61662D01*
X61037Y73441D01*
X60559Y72963D01*
X60541Y72921D01*
X59459D01*
X59441Y72963D01*
X58963Y73441D01*
X58338Y73700D01*
X57662D01*
X57037Y73441D01*
X56559Y72963D01*
X56300Y72338D01*
Y71700D01*
X55662D01*
X55037Y71441D01*
X54507Y71010D01*
X53991Y71484D01*
X53348Y71750D01*
X52652D01*
X52009Y71484D01*
X51500Y71007D01*
X50991Y71484D01*
X50348Y71750D01*
X49652D01*
X49009Y71484D01*
X48500Y71007D01*
X47991Y71484D01*
X47348Y71750D01*
X46652D01*
X46009Y71484D01*
X45516Y70991D01*
X45250Y70348D01*
Y69652D01*
X45516Y69009D01*
X46009Y68516D01*
X46652Y68250D01*
X47348D01*
X47991Y68516D01*
X48500Y68993D01*
X49009Y68516D01*
X49652Y68250D01*
X50348D01*
X50991Y68516D01*
X51500Y68993D01*
X52009Y68516D01*
X52652Y68250D01*
X53348D01*
X53991Y68516D01*
X54507Y68990D01*
X55037Y68559D01*
X55662Y68300D01*
X56338D01*
X56963Y68559D01*
X57441Y69037D01*
X57459Y69080D01*
X58541D01*
X58559Y69037D01*
X59037Y68559D01*
X59662Y68300D01*
X60338D01*
X60963Y68559D01*
X61441Y69037D01*
X61459Y69080D01*
X62541D01*
X62559Y69037D01*
X63037Y68559D01*
X63662Y68300D01*
X64338D01*
X64963Y68559D01*
X65441Y69037D01*
X65611Y69446D01*
X65800Y69739D01*
X66357Y69696D01*
X66855Y69530D01*
X67059Y69037D01*
X67537Y68559D01*
X68162Y68300D01*
X68838D01*
X69463Y68559D01*
X69941Y69037D01*
X70200Y69662D01*
Y70300D01*
X70838D01*
X71463Y70559D01*
X71941Y71037D01*
X72200Y71662D01*
Y72338D01*
X71941Y72963D01*
X71463Y73441D01*
X70838Y73700D01*
D02*
G37*
G36*
X13838Y75200D02*
X13162D01*
X12537Y74941D01*
X12059Y74463D01*
X11800Y73838D01*
Y73162D01*
X12059Y72537D01*
X12537Y72059D01*
X13162Y71800D01*
X13838D01*
X14463Y72059D01*
X14941Y72537D01*
X15200Y73162D01*
Y73838D01*
X14941Y74463D01*
X14463Y74941D01*
X13838Y75200D01*
D02*
G37*
G36*
X72848Y67250D02*
X72152D01*
X71509Y66984D01*
X71016Y66491D01*
X70750Y65848D01*
Y65152D01*
X71016Y64509D01*
X71509Y64016D01*
X72152Y63750D01*
X72848D01*
X73491Y64016D01*
X73984Y64509D01*
X74250Y65152D01*
Y65848D01*
X73984Y66491D01*
X73491Y66984D01*
X72848Y67250D01*
D02*
G37*
G36*
X37348D02*
X36652D01*
X36009Y66984D01*
X35516Y66491D01*
X35250Y65848D01*
Y65152D01*
X35516Y64509D01*
X36009Y64016D01*
X36652Y63750D01*
X37250D01*
Y63152D01*
X37516Y62509D01*
X38009Y62016D01*
X38652Y61750D01*
X39348D01*
X39991Y62016D01*
X40484Y62509D01*
X40750Y63152D01*
Y63848D01*
X40484Y64491D01*
X39991Y64984D01*
X39348Y65250D01*
X38750D01*
Y65848D01*
X38484Y66491D01*
X37991Y66984D01*
X37348Y67250D01*
D02*
G37*
G36*
X47862Y64198D02*
X47186D01*
X46561Y63939D01*
X46083Y63461D01*
X45824Y62836D01*
Y62160D01*
X46083Y61535D01*
X46561Y61057D01*
X47186Y60798D01*
X47862D01*
X48487Y61057D01*
X48965Y61535D01*
X49224Y62160D01*
Y62836D01*
X48965Y63461D01*
X48487Y63939D01*
X47862Y64198D01*
D02*
G37*
G36*
X24338Y59700D02*
X23662D01*
X23037Y59441D01*
X22559Y58963D01*
X22300Y58338D01*
Y57662D01*
X22559Y57037D01*
X23037Y56559D01*
X23662Y56300D01*
X24338D01*
X24963Y56559D01*
X25441Y57037D01*
X25700Y57662D01*
Y58338D01*
X25441Y58963D01*
X24963Y59441D01*
X24338Y59700D01*
D02*
G37*
G36*
X19338D02*
X18662D01*
X18037Y59441D01*
X17559Y58963D01*
X17300Y58338D01*
Y57662D01*
X17559Y57037D01*
X18037Y56559D01*
X18662Y56300D01*
X19338D01*
X19963Y56559D01*
X20441Y57037D01*
X20700Y57662D01*
Y58338D01*
X20441Y58963D01*
X19963Y59441D01*
X19338Y59700D01*
D02*
G37*
G36*
X42341Y58632D02*
X41665D01*
X41040Y58373D01*
X40562Y57895D01*
X40303Y57270D01*
Y56594D01*
X40562Y55969D01*
X41040Y55491D01*
X41665Y55232D01*
X42341D01*
X42966Y55491D01*
X43444Y55969D01*
X43703Y56594D01*
Y57270D01*
X43444Y57895D01*
X42966Y58373D01*
X42341Y58632D01*
D02*
G37*
G36*
X69838Y62200D02*
X69162D01*
X68537Y61941D01*
X68059Y61463D01*
X67800Y60838D01*
Y60162D01*
X68059Y59537D01*
X68537Y59059D01*
X68580Y59041D01*
Y57959D01*
X68537Y57941D01*
X68059Y57463D01*
X67800Y56838D01*
Y56162D01*
X68059Y55537D01*
X68537Y55059D01*
X69162Y54800D01*
X69800D01*
Y54162D01*
X70059Y53537D01*
X70537Y53059D01*
X71162Y52800D01*
X71838D01*
X72463Y53059D01*
X72941Y53537D01*
X73200Y54162D01*
Y54838D01*
X72941Y55463D01*
X72463Y55941D01*
X72421Y55959D01*
Y57041D01*
X72463Y57059D01*
X72941Y57537D01*
X73200Y58162D01*
Y58838D01*
X72941Y59463D01*
X72463Y59941D01*
X71838Y60200D01*
X71200D01*
Y60838D01*
X70941Y61463D01*
X70463Y61941D01*
X69838Y62200D01*
D02*
G37*
G36*
X24338Y52700D02*
X23662D01*
X23037Y52441D01*
X22559Y51963D01*
X22300Y51338D01*
Y50662D01*
X22559Y50037D01*
X23037Y49559D01*
X23662Y49300D01*
X24338D01*
X24963Y49559D01*
X25441Y50037D01*
X25700Y50662D01*
Y51338D01*
X25441Y51963D01*
X24963Y52441D01*
X24338Y52700D01*
D02*
G37*
G36*
X19338Y54700D02*
X18662D01*
X18037Y54441D01*
X17559Y53963D01*
X17300Y53338D01*
Y52662D01*
X17559Y52037D01*
X18037Y51559D01*
X18080Y51541D01*
Y50459D01*
X18037Y50441D01*
X17559Y49963D01*
X17300Y49338D01*
Y48662D01*
X17559Y48037D01*
X18037Y47559D01*
X18662Y47300D01*
X19338D01*
X19963Y47559D01*
X20441Y48037D01*
X20700Y48662D01*
Y49338D01*
X20441Y49963D01*
X19963Y50441D01*
X19920Y50459D01*
Y51541D01*
X19963Y51559D01*
X20441Y52037D01*
X20700Y52662D01*
Y53338D01*
X20441Y53963D01*
X19963Y54441D01*
X19338Y54700D01*
D02*
G37*
G36*
X14338Y48700D02*
X13662D01*
X13037Y48441D01*
X12559Y47963D01*
X12300Y47338D01*
Y46662D01*
X12559Y46037D01*
X13037Y45559D01*
X13662Y45300D01*
X14338D01*
X14963Y45559D01*
X15441Y46037D01*
X15700Y46662D01*
Y47338D01*
X15441Y47963D01*
X14963Y48441D01*
X14338Y48700D01*
D02*
G37*
G36*
X70338Y51200D02*
X69662D01*
X69037Y50941D01*
X68559Y50463D01*
X68300Y49838D01*
Y49162D01*
X68559Y48537D01*
X69037Y48059D01*
X69662Y47800D01*
X70300D01*
Y47162D01*
X70559Y46537D01*
X71037Y46059D01*
X71662Y45800D01*
X72300D01*
Y45162D01*
X72559Y44537D01*
X73037Y44059D01*
X73662Y43800D01*
X74338D01*
X74963Y44059D01*
X75441Y44537D01*
X75700Y45162D01*
Y45838D01*
X75441Y46463D01*
X74963Y46941D01*
X74338Y47200D01*
X73700D01*
Y47838D01*
X73441Y48463D01*
X72963Y48941D01*
X72338Y49200D01*
X71700D01*
Y49838D01*
X71441Y50463D01*
X70963Y50941D01*
X70338Y51200D01*
D02*
G37*
G36*
X26363Y45932D02*
X25687D01*
X25062Y45673D01*
X24584Y45195D01*
X24325Y44570D01*
Y43894D01*
X24584Y43269D01*
X25062Y42791D01*
X25687Y42532D01*
X26363D01*
X26988Y42791D01*
X27466Y43269D01*
X27725Y43894D01*
Y44570D01*
X27466Y45195D01*
X26988Y45673D01*
X26363Y45932D01*
D02*
G37*
G36*
X59449Y45882D02*
X58772D01*
X58148Y45623D01*
X57669Y45145D01*
X57411Y44520D01*
Y43844D01*
X57669Y43219D01*
X58148Y42741D01*
X58772Y42482D01*
X59449D01*
X60074Y42741D01*
X60552Y43219D01*
X60811Y43844D01*
Y44520D01*
X60552Y45145D01*
X60074Y45623D01*
X59449Y45882D01*
D02*
G37*
G36*
X21838Y46200D02*
X21162D01*
X20537Y45941D01*
X20059Y45463D01*
X19800Y44838D01*
Y44591D01*
X19496Y44004D01*
X18909Y43700D01*
X18662D01*
X18037Y43441D01*
X17559Y42963D01*
X17300Y42338D01*
Y41662D01*
X17559Y41037D01*
X18037Y40559D01*
X18662Y40300D01*
X19338D01*
X19963Y40559D01*
X20441Y41037D01*
X20700Y41662D01*
Y41909D01*
X21004Y42496D01*
X21591Y42800D01*
X21838D01*
X22463Y43059D01*
X22941Y43537D01*
X23200Y44162D01*
Y44838D01*
X22941Y45463D01*
X22463Y45941D01*
X21838Y46200D01*
D02*
G37*
G36*
X14338Y43700D02*
X13662D01*
X13037Y43441D01*
X12559Y42963D01*
X12300Y42338D01*
Y41662D01*
X12559Y41037D01*
X13037Y40559D01*
X13662Y40300D01*
X14338D01*
X14963Y40559D01*
X15441Y41037D01*
X15700Y41662D01*
Y42338D01*
X15441Y42963D01*
X14963Y43441D01*
X14338Y43700D01*
D02*
G37*
G36*
X46847Y40311D02*
X46170D01*
X45545Y40052D01*
X45067Y39574D01*
X44808Y38949D01*
Y38273D01*
X45067Y37648D01*
X45545Y37170D01*
X46170Y36911D01*
X46847D01*
X47471Y37170D01*
X47949Y37648D01*
X48208Y38273D01*
Y38949D01*
X47949Y39574D01*
X47471Y40052D01*
X46847Y40311D01*
D02*
G37*
G36*
X67348Y39250D02*
X66652D01*
X66009Y38984D01*
X65516Y38491D01*
X65250Y37848D01*
Y37152D01*
X65516Y36509D01*
X66009Y36016D01*
X66652Y35750D01*
X67348D01*
X67991Y36016D01*
X68484Y36509D01*
X68750Y37152D01*
Y37848D01*
X68484Y38491D01*
X67991Y38984D01*
X67348Y39250D01*
D02*
G37*
G36*
X80838Y36200D02*
X80162D01*
X79537Y35941D01*
X79059Y35463D01*
X78800Y34838D01*
Y34162D01*
X79059Y33537D01*
X79537Y33059D01*
X80162Y32800D01*
X80838D01*
X81463Y33059D01*
X81941Y33537D01*
X82200Y34162D01*
Y34838D01*
X81941Y35463D01*
X81463Y35941D01*
X80838Y36200D01*
D02*
G37*
G36*
X41348Y34750D02*
X40652D01*
X40009Y34484D01*
X39516Y33991D01*
X39250Y33348D01*
Y32652D01*
X39516Y32009D01*
X40009Y31516D01*
X40652Y31250D01*
X41348D01*
X41991Y31516D01*
X42484Y32009D01*
X42750Y32652D01*
Y33348D01*
X42484Y33991D01*
X41991Y34484D01*
X41348Y34750D01*
D02*
G37*
G36*
X87813Y28932D02*
X87137D01*
X86512Y28673D01*
X86034Y28195D01*
X85775Y27570D01*
Y26894D01*
X86034Y26269D01*
X86512Y25791D01*
X87137Y25532D01*
X87813D01*
X88438Y25791D01*
X88916Y26269D01*
X89175Y26894D01*
Y27570D01*
X88916Y28195D01*
X88438Y28673D01*
X87813Y28932D01*
D02*
G37*
G36*
X50838Y32700D02*
X50162D01*
X49537Y32441D01*
X49059Y31963D01*
X48800Y31338D01*
Y30700D01*
X48162D01*
X47537Y30441D01*
X47059Y29963D01*
X46800Y29338D01*
Y28700D01*
X46162D01*
X45537Y28441D01*
X45059Y27963D01*
X44800Y27338D01*
Y26662D01*
X45059Y26037D01*
X45537Y25559D01*
X46162Y25300D01*
X46838D01*
X47463Y25559D01*
X47941Y26037D01*
X48200Y26662D01*
Y27300D01*
X48838D01*
X49463Y27559D01*
X49941Y28037D01*
X49959Y28080D01*
X51041D01*
X51059Y28037D01*
X51537Y27559D01*
X52162Y27300D01*
X52800D01*
Y26662D01*
X53059Y26037D01*
X53537Y25559D01*
X54162Y25300D01*
X54838D01*
X55463Y25559D01*
X55941Y26037D01*
X55959Y26080D01*
X57041D01*
X57059Y26037D01*
X57537Y25559D01*
X58162Y25300D01*
X58838D01*
X59463Y25559D01*
X59941Y26037D01*
X60200Y26662D01*
Y27338D01*
X59941Y27963D01*
X59463Y28441D01*
X58838Y28700D01*
X58200D01*
Y29338D01*
X57941Y29963D01*
X57463Y30441D01*
X56838Y30700D01*
X56162D01*
X55537Y30441D01*
X55059Y29963D01*
X55041Y29920D01*
X53959D01*
X53941Y29963D01*
X53463Y30441D01*
X52838Y30700D01*
X52200D01*
Y31338D01*
X51941Y31963D01*
X51463Y32441D01*
X50838Y32700D01*
D02*
G37*
G36*
X29838Y36700D02*
X29162D01*
X28537Y36441D01*
X28059Y35963D01*
X27800Y35338D01*
Y34662D01*
X28059Y34037D01*
X28537Y33559D01*
X28580Y33541D01*
Y32459D01*
X28537Y32441D01*
X28059Y31963D01*
X27800Y31338D01*
Y30700D01*
X27162D01*
X26537Y30441D01*
X26059Y29963D01*
X25800Y29338D01*
Y28662D01*
X26059Y28037D01*
X26537Y27559D01*
X27162Y27300D01*
X27800D01*
Y26662D01*
X28059Y26037D01*
X28537Y25559D01*
X29162Y25300D01*
X29838D01*
X30463Y25559D01*
X30941Y26037D01*
X30959Y26080D01*
X32041D01*
X32059Y26037D01*
X32537Y25559D01*
X33162Y25300D01*
X33800D01*
Y24662D01*
X34059Y24037D01*
X34537Y23559D01*
X35162Y23300D01*
X35838D01*
X36463Y23559D01*
X36941Y24037D01*
X37200Y24662D01*
Y25300D01*
X37838D01*
X38463Y25559D01*
X38941Y26037D01*
X39200Y26662D01*
Y27338D01*
X38941Y27963D01*
X38463Y28441D01*
X37838Y28700D01*
X37162D01*
X36537Y28441D01*
X36059Y27963D01*
X36041Y27920D01*
X34959D01*
X34941Y27963D01*
X34463Y28441D01*
X33838Y28700D01*
X33162D01*
X32537Y28441D01*
X32059Y27963D01*
X31117Y28001D01*
X30531Y28587D01*
X30549Y29644D01*
X30941Y30037D01*
X31200Y30662D01*
Y31338D01*
X30941Y31963D01*
X30463Y32441D01*
X30420Y32459D01*
Y33541D01*
X30463Y33559D01*
X30941Y34037D01*
X31200Y34662D01*
Y35338D01*
X30941Y35963D01*
X30463Y36441D01*
X29838Y36700D01*
D02*
G37*
G36*
X18963Y26700D02*
X18287D01*
X17662Y26441D01*
X17184Y25963D01*
X16925Y25338D01*
Y24662D01*
X17184Y24037D01*
X17662Y23559D01*
X18287Y23300D01*
X18963D01*
X19588Y23559D01*
X20066Y24037D01*
X20325Y24662D01*
Y25338D01*
X20066Y25963D01*
X19588Y26441D01*
X18963Y26700D01*
D02*
G37*
G36*
X10385Y26247D02*
X9708D01*
X9084Y25988D01*
X8605Y25510D01*
X8347Y24885D01*
Y24208D01*
X8605Y23584D01*
X9084Y23105D01*
X9708Y22847D01*
X10385D01*
X11010Y23105D01*
X11488Y23584D01*
X11746Y24208D01*
Y24885D01*
X11488Y25510D01*
X11010Y25988D01*
X10385Y26247D01*
D02*
G37*
G36*
X36570Y17725D02*
X35894D01*
X35269Y17466D01*
X34791Y16988D01*
X34532Y16363D01*
Y16330D01*
X34338Y16200D01*
X33662D01*
X33037Y15941D01*
X32793Y15697D01*
X31831Y15664D01*
X31587Y15731D01*
X31158Y16161D01*
X30542Y16516D01*
X29855Y16700D01*
X29144D01*
X28458Y16516D01*
X27842Y16161D01*
X27340Y15658D01*
X26984Y15042D01*
X26800Y14356D01*
Y13645D01*
X26984Y12958D01*
X27340Y12342D01*
X27842Y11840D01*
X28458Y11484D01*
X29144Y11300D01*
X29855D01*
X30542Y11484D01*
X31158Y11840D01*
X31661Y12342D01*
X31909Y12773D01*
X32655Y13021D01*
X33025Y13058D01*
X33074Y13043D01*
X33662Y12800D01*
X34338D01*
X34963Y13059D01*
X35441Y13537D01*
X35700Y14162D01*
Y14196D01*
X35894Y14325D01*
X36570D01*
X37195Y14584D01*
X37673Y15062D01*
X37932Y15687D01*
Y16363D01*
X37673Y16988D01*
X37195Y17466D01*
X36570Y17725D01*
D02*
G37*
G36*
X69338Y12700D02*
X68662D01*
X68037Y12441D01*
X67559Y11963D01*
X67300Y11338D01*
Y10662D01*
X67559Y10037D01*
X68037Y9559D01*
X68662Y9300D01*
X69338D01*
X69963Y9559D01*
X70441Y10037D01*
X70700Y10662D01*
Y11338D01*
X70441Y11963D01*
X69963Y12441D01*
X69338Y12700D01*
D02*
G37*
G36*
X9855D02*
X9144D01*
X8458Y12516D01*
X7842Y12161D01*
X7339Y11658D01*
X6984Y11042D01*
X6800Y10356D01*
Y9645D01*
X6984Y8958D01*
X7339Y8342D01*
X7842Y7840D01*
X8458Y7484D01*
X9144Y7300D01*
X9855D01*
X10542Y7484D01*
X11158Y7840D01*
X11660Y8342D01*
X12016Y8958D01*
X12200Y9645D01*
Y10356D01*
X12016Y11042D01*
X11660Y11658D01*
X11158Y12161D01*
X10542Y12516D01*
X9855Y12700D01*
D02*
G37*
%LPD*%
D63*
X52000Y93000D02*
X52809Y93809D01*
Y98309D01*
X54500Y100000D01*
X27500Y93000D02*
Y100000D01*
X99500Y73000D02*
X100000Y72500D01*
X93500Y73000D02*
X99500D01*
X73000Y500D02*
Y6500D01*
X72500Y0D02*
X73000Y500D01*
X7000Y27500D02*
X7500Y28000D01*
X0Y27500D02*
X7000D01*
D68*
X0Y90500D02*
D03*
Y81500D02*
D03*
Y72500D02*
D03*
Y63500D02*
D03*
Y54500D02*
D03*
Y45500D02*
D03*
Y36500D02*
D03*
Y27500D02*
D03*
Y18500D02*
D03*
Y9500D02*
D03*
X100000D02*
D03*
Y18500D02*
D03*
Y27500D02*
D03*
Y36500D02*
D03*
Y45500D02*
D03*
Y54500D02*
D03*
Y63500D02*
D03*
Y72500D02*
D03*
Y81500D02*
D03*
Y90500D02*
D03*
D69*
X9500Y0D02*
D03*
X18500D02*
D03*
X27500D02*
D03*
X36500D02*
D03*
X45500D02*
D03*
X54500D02*
D03*
X63500D02*
D03*
X72500D02*
D03*
X81500D02*
D03*
X90500D02*
D03*
Y100000D02*
D03*
X81500D02*
D03*
X72500D02*
D03*
X63500D02*
D03*
X54500D02*
D03*
X45500D02*
D03*
X36500D02*
D03*
X27500D02*
D03*
X18500D02*
D03*
X9500D02*
D03*
D70*
Y10000D02*
D03*
Y18000D02*
D03*
X29500Y14000D02*
D03*
D71*
X62500Y88000D02*
D03*
X75000Y52000D02*
D03*
X88000Y63500D02*
D03*
X86000Y13500D02*
D03*
X55000Y10500D02*
D03*
X14000Y53000D02*
D03*
X22500Y79000D02*
D03*
X81000Y47000D02*
D03*
X67000Y37500D02*
D03*
X91500Y39000D02*
D03*
X72500Y65500D02*
D03*
X41000Y33000D02*
D03*
X53000Y70000D02*
D03*
X50000D02*
D03*
X47000D02*
D03*
X39000Y63500D02*
D03*
X37000Y65500D02*
D03*
X53000Y58500D02*
D03*
X47000D02*
D03*
X58500Y47000D02*
D03*
Y53000D02*
D03*
X46937Y41448D02*
D03*
X52937D02*
D03*
X41500Y47000D02*
D03*
Y53000D02*
D03*
X91500Y81500D02*
D03*
X30000Y73500D02*
D03*
Y71000D02*
D03*
X55318Y78182D02*
D03*
D72*
X69000Y11000D02*
D03*
X93500Y46000D02*
D03*
Y43000D02*
D03*
X89000Y9000D02*
D03*
X80500Y34500D02*
D03*
X19000Y6500D02*
D03*
X21500Y8500D02*
D03*
X21000Y90000D02*
D03*
X55500Y93000D02*
D03*
X34000Y14500D02*
D03*
X36232Y16025D02*
D03*
X18625Y25000D02*
D03*
X6500Y73500D02*
D03*
X10046Y24546D02*
D03*
X6500Y21000D02*
D03*
X87475Y27232D02*
D03*
X21500Y44500D02*
D03*
X53500Y88000D02*
D03*
X13500Y73500D02*
D03*
X29000Y83500D02*
D03*
X26000D02*
D03*
X75500Y62500D02*
D03*
X26025Y44232D02*
D03*
X76000Y31000D02*
D03*
X75982Y23000D02*
D03*
X58500Y13500D02*
D03*
X42000Y16000D02*
D03*
X24000Y42000D02*
D03*
X59110Y44182D02*
D03*
X47524Y62498D02*
D03*
X42003Y56932D02*
D03*
X89000Y81500D02*
D03*
X6000Y83500D02*
D03*
X8000Y92000D02*
D03*
X16500Y70500D02*
D03*
X79500Y72500D02*
D03*
X56964Y79757D02*
D03*
X80500Y93500D02*
D03*
X91500D02*
D03*
X14500Y20000D02*
D03*
X46508Y38611D02*
D03*
X46500Y27000D02*
D03*
X70500Y72000D02*
D03*
X68500Y70000D02*
D03*
X66500Y72000D02*
D03*
X64000Y70000D02*
D03*
X60000D02*
D03*
X62000Y72000D02*
D03*
X56000Y70000D02*
D03*
X58000Y72000D02*
D03*
X71500Y54500D02*
D03*
X69500Y56500D02*
D03*
Y60500D02*
D03*
X71500Y58500D02*
D03*
X70000Y49500D02*
D03*
X72000Y47500D02*
D03*
X74000Y45500D02*
D03*
X58500Y27000D02*
D03*
X56500Y29000D02*
D03*
X50500Y31000D02*
D03*
X48500Y29000D02*
D03*
X52500D02*
D03*
X54500Y27000D02*
D03*
X37500D02*
D03*
X35500Y25000D02*
D03*
X33500Y27000D02*
D03*
X29500D02*
D03*
X27500Y29000D02*
D03*
X29500Y31000D02*
D03*
Y35000D02*
D03*
X14000Y47000D02*
D03*
X19000Y53000D02*
D03*
Y49000D02*
D03*
X24000Y51000D02*
D03*
X19000Y42000D02*
D03*
X14000D02*
D03*
X19000Y58000D02*
D03*
X24000D02*
D03*
M02*
