M48
;Layer_Color=9474304
;FILE_FORMAT=2:4
INCH,TZ
;TYPE=PLATED
T1F00S00C0.0080
T2F00S00C0.0400
;TYPE=NON_PLATED
T3F00S00C0.0390
%
T01
X1950Y600
X2450Y800
X1450
Y2000
X1950Y2150
X1400Y2997
Y4200
Y4700
Y5300
X1900
Y4900
X2150Y4450
X2603Y4423
X2400Y4200
X1900
X2400Y5100
Y5800
X1900
X1650Y7050
X1350Y7350
X2250Y7900
X2600Y8350
X2900
X3000Y7350
Y7100
X3700Y6550
X3900Y6350
X4752Y6250
X4700Y5850
X5300
X5850Y5300
Y4700
X5911Y4418
X5294Y4145
X4694
X4651Y3861
X4100Y3300
X3750Y2700
X3550Y2500
X3350Y2700
X2950
X2750Y2900
Y3300
X2950Y3100
Y3500
X4150Y4700
Y5300
X4200Y5693
X4700Y7000
X5000
X5300
X5600
X6000
X6400
X6200Y7200
X5800
X6650
X7050
X6850Y7000
X7250Y6550
X7550Y6250
X6950Y6050
Y5650
X7150Y5450
Y5850
X7500Y5200
X7000Y4950
X7200Y4750
X7400Y4550
X8100Y4700
X8050Y3450
X7600Y3100
X7598Y2300
X8748Y2723
X8600Y1350
X8900Y900
X6900Y1100
X5850Y1350
X5500Y1050
X5450Y2700
X5850
X5650Y2900
X5250
X5050Y3100
X4850Y2900
X4650Y2700
X4200Y1600
X6700Y3750
X9150Y3900
X9350Y4300
Y4600
X8800Y6350
X7950Y7250
X8900Y8150
X9150
Y9350
X8050
X6250Y8800
X5350
X5550Y9300
X5696Y7976
X5532Y7818
X2100Y9000
X800Y9200
X600Y8350
T02
X950Y0
X1850
X2750
X3650
X4550
X5450
X6350
X7250
X8150
X9050
X10000Y950
Y1850
Y2750
Y3650
Y4550
Y5450
Y6350
Y7250
Y8150
Y9050
X9050Y10000
X8150
X7250
X6350
X5450
X4550
X3650
X2750
X1850
X950
X0Y9050
Y8150
Y7250
Y6350
Y5450
Y4550
Y3650
Y2750
Y1850
Y950
T03
X950Y1000
Y1800
X2950Y1400
M30
