M48
;Layer_Color=9474304
;FILE_FORMAT=2:4
INCH,TZ
;TYPE=PLATED
T1F00S00C0.0080
T2F00S00C0.0400
;TYPE=NON_PLATED
T3F00S00C0.0390
%
T01
X1900Y650
X2150Y850
X3400Y1450
X3623Y1602
X4200Y1600
X4650Y2700
X4850Y2900
X5050Y3100
X5250Y2900
X5650
X5850Y2700
X5450
X5294Y4145
X4694
X4651Y3861
X4100Y3300
X3750Y2700
X3550Y2500
X3350Y2700
X2950
X2750Y2900
X2950Y3100
Y3500
X2400Y4200
X2603Y4423
X2150Y4450
X1900Y4200
X1400
Y4700
Y5300
X1900
Y4900
X2400Y5100
Y5800
X1900
X1650Y7050
X1350Y7350
X650
X600Y8350
X800Y9200
X2100Y9000
X2600Y8350
X2900
X2250Y7900
X3000Y7350
Y7100
X3700Y6550
X3900Y6350
X4752Y6250
X4700Y5850
X5300
X5850Y5300
Y4700
X5911Y4418
X6700Y3750
X7000Y4950
X7200Y4750
X7400Y4550
X7500Y5200
X7150Y5450
X6950Y5650
Y6050
X7150Y5850
X7250Y6550
X7550Y6250
X8800Y6350
X7950Y7250
X7050Y7200
X6850Y7000
X6650Y7200
X6400Y7000
X6000
X6200Y7200
X5800
X5600Y7000
X5300
X5000
X4700
X5532Y7818
X5696Y7976
X5350Y8800
X5550Y9300
X6250Y8800
X8050Y9350
X9150
Y8150
X8900
X9350Y4600
Y4300
X9150Y3900
X8050Y3450
X7600Y3100
X7598Y2300
X8748Y2723
X8600Y1350
X8900Y900
X6900Y1100
X5850Y1350
X5500Y1050
X4150Y4700
Y5300
X4200Y5693
X8100Y4700
X1863Y2500
X1005Y2455
X650Y2100
X1450Y2000
T02
X950Y0
X1850
X2750
X3650
X4550
X5450
X6350
X7250
X8150
X9050
X10000Y950
Y1850
Y2750
Y3650
Y4550
Y5450
Y6350
Y7250
Y8150
Y9050
X9050Y10000
X8150
X7250
X6350
X5450
X4550
X3650
X2750
X1850
X950
X0Y9050
Y8150
Y7250
Y6350
Y5450
Y4550
Y3650
Y2750
Y1850
Y950
T03
X950Y1000
Y1800
X2950Y1400
M30
