G04*
G04 #@! TF.GenerationSoftware,Altium Limited,Altium Designer,22.4.2 (48)*
G04*
G04 Layer_Color=16711935*
%FSLAX25Y25*%
%MOIN*%
G70*
G04*
G04 #@! TF.SameCoordinates,672AAA3E-DD7D-455D-AD33-57807C77CB51*
G04*
G04*
G04 #@! TF.FilePolarity,Positive*
G04*
G01*
G75*
%ADD73C,0.05000*%
D73*
X27500Y120000D02*
X107500D01*
X120000Y27500D02*
Y107500D01*
X27500Y15000D02*
X107500D01*
X15000Y27500D02*
Y107500D01*
X132500Y120000D02*
X212500D01*
X225000Y27500D02*
Y107500D01*
X132500Y15000D02*
X212500D01*
X120000Y27500D02*
Y107500D01*
X237500Y120000D02*
X317500D01*
X330000Y27500D02*
Y107500D01*
X237500Y15000D02*
X317500D01*
X225000Y27500D02*
Y107500D01*
X27500Y225000D02*
X107500D01*
X120000Y132500D02*
Y212500D01*
X27500Y120000D02*
X107500D01*
X15000Y132500D02*
Y212500D01*
X132500Y225000D02*
X212500D01*
X225000Y132500D02*
Y212500D01*
X132500Y120000D02*
X212500D01*
X120000Y132500D02*
Y212500D01*
X237500Y225000D02*
X317500D01*
X330000Y132500D02*
Y212500D01*
X237500Y120000D02*
X317500D01*
X225000Y132500D02*
Y212500D01*
X27500Y330000D02*
X107500D01*
X120000Y237500D02*
Y317500D01*
X27500Y225000D02*
X107500D01*
X15000Y237500D02*
Y317500D01*
X132500Y330000D02*
X212500D01*
X225000Y237500D02*
Y317500D01*
X132500Y225000D02*
X212500D01*
X120000Y237500D02*
Y317500D01*
X237500Y330000D02*
X317500D01*
X330000Y237500D02*
Y317500D01*
X237500Y225000D02*
X317500D01*
X225000Y237500D02*
Y317500D01*
M02*
