G04*
G04 #@! TF.GenerationSoftware,Altium Limited,Altium Designer,22.4.2 (48)*
G04*
G04 Layer_Physical_Order=3*
G04 Layer_Color=9720587*
%FSLAX25Y25*%
%MOIN*%
G70*
G04*
G04 #@! TF.SameCoordinates,672AAA3E-DD7D-455D-AD33-57807C77CB51*
G04*
G04*
G04 #@! TF.FilePolarity,Positive*
G04*
G01*
G75*
%ADD34C,0.02000*%
%ADD36C,0.00550*%
G04:AMPARAMS|DCode=41|XSize=50mil|YSize=80mil|CornerRadius=12.5mil|HoleSize=0mil|Usage=FLASHONLY|Rotation=90.000|XOffset=0mil|YOffset=0mil|HoleType=Round|Shape=RoundedRectangle|*
%AMROUNDEDRECTD41*
21,1,0.05000,0.05500,0,0,90.0*
21,1,0.02500,0.08000,0,0,90.0*
1,1,0.02500,0.02750,0.01250*
1,1,0.02500,0.02750,-0.01250*
1,1,0.02500,-0.02750,-0.01250*
1,1,0.02500,-0.02750,0.01250*
%
%ADD41ROUNDEDRECTD41*%
G04:AMPARAMS|DCode=42|XSize=50mil|YSize=80mil|CornerRadius=12.5mil|HoleSize=0mil|Usage=FLASHONLY|Rotation=180.000|XOffset=0mil|YOffset=0mil|HoleType=Round|Shape=RoundedRectangle|*
%AMROUNDEDRECTD42*
21,1,0.05000,0.05500,0,0,180.0*
21,1,0.02500,0.08000,0,0,180.0*
1,1,0.02500,-0.01250,0.02750*
1,1,0.02500,0.01250,0.02750*
1,1,0.02500,0.01250,-0.02750*
1,1,0.02500,-0.01250,-0.02750*
%
%ADD42ROUNDEDRECTD42*%
%ADD44C,0.01900*%
D34*
X40500Y110500D02*
X73000D01*
X38500Y107500D02*
X40500Y105500D01*
X71000D01*
X145500Y110500D02*
X178000D01*
X143500Y107500D02*
X145500Y105500D01*
X176000D01*
X250500Y110500D02*
X283000D01*
X248500Y107500D02*
X250500Y105500D01*
X281000D01*
X40500Y215500D02*
X73000D01*
X38500Y212500D02*
X40500Y210500D01*
X71000D01*
X145500Y215500D02*
X178000D01*
X143500Y212500D02*
X145500Y210500D01*
X176000D01*
X250500Y215500D02*
X283000D01*
X248500Y212500D02*
X250500Y210500D01*
X281000D01*
X40500Y320500D02*
X73000D01*
X38500Y317500D02*
X40500Y315500D01*
X71000D01*
X145500Y320500D02*
X178000D01*
X143500Y317500D02*
X145500Y315500D01*
X176000D01*
X250500Y320500D02*
X283000D01*
X248500Y317500D02*
X250500Y315500D01*
X281000D01*
D36*
X17500Y31500D02*
X18500Y30500D01*
X95500Y110500D02*
Y117500D01*
X90000Y105000D02*
X95500Y110500D01*
X85000Y105000D02*
X90000D01*
X73500Y93500D02*
X85000Y105000D01*
X103500Y109500D02*
Y117500D01*
X97000Y103000D02*
X103500Y109500D01*
X73500Y87500D02*
Y93500D01*
X99500Y101000D02*
X105000Y106500D01*
X113000D02*
X116000Y103500D01*
X105000Y106500D02*
X113000D01*
X116000Y103500D02*
X117500D01*
X105000D02*
X108000D01*
X116000Y95500D01*
X117500D01*
X87500Y95000D02*
X98000D01*
X111000Y76500D02*
Y82000D01*
X98000Y95000D02*
X111000Y82000D01*
X87000Y97000D02*
X98500D01*
X114500Y81000D01*
X117500D01*
X111000Y68500D02*
Y74000D01*
X109000Y76000D02*
Y81500D01*
Y76000D02*
X111000Y74000D01*
X115500Y72000D02*
X117500D01*
X111000Y76500D02*
X115500Y72000D01*
X116500Y63000D02*
X117500D01*
X111000Y68500D02*
X116500Y63000D01*
X116000Y55500D02*
X117500D01*
X112997Y55503D02*
X115997D01*
X109000Y59500D02*
X112997Y55503D01*
X116000Y55500D02*
X117500Y54000D01*
X115997Y55503D02*
X116000Y55500D01*
X112997Y48003D02*
X116997D01*
X106500Y54500D02*
X112997Y48003D01*
X116997D02*
X117500Y47500D01*
X113000Y39500D02*
X117500D01*
X105000Y47500D02*
X113000Y39500D01*
X103000Y40500D02*
X112000Y31500D01*
X118068D01*
X101000Y25500D02*
X103500Y23000D01*
Y17249D02*
Y23000D01*
X95500Y21151D02*
X96235Y20416D01*
X95500Y21151D02*
Y65000D01*
X93500Y67000D02*
X95500Y65000D01*
X96235Y20416D02*
X96916D01*
X84562Y24062D02*
X87562D01*
X89500Y26000D02*
Y57000D01*
X87562Y24062D02*
X89500Y26000D01*
X79500Y17500D02*
Y19000D01*
X84562Y24062D01*
X89500Y57000D02*
X94000Y61500D01*
X71500Y17500D02*
Y19000D01*
X81000Y28500D02*
X86500D01*
X71500Y19000D02*
X81000Y28500D01*
X52000Y23500D02*
X55500D01*
X47500Y17500D02*
Y19000D01*
X52000Y23500D01*
X45500Y25000D02*
X54000D01*
X39500Y19000D02*
X45500Y25000D01*
X39500Y19000D02*
Y19500D01*
Y17500D02*
Y19000D01*
Y20003D02*
Y21000D01*
Y19500D02*
Y20003D01*
X38503D02*
X39500D01*
X38503D02*
X39500Y21000D01*
X42500Y28500D02*
X44500Y26500D01*
X31503Y22003D02*
X38000Y28500D01*
X42500D01*
X31503Y17503D02*
Y22003D01*
X31500Y17500D02*
X31503Y17503D01*
X18500Y30500D02*
X43000D01*
X45500Y28000D01*
X23000Y34000D02*
X24500Y32500D01*
X30000D02*
X32000Y34500D01*
X24500Y32500D02*
X30000D01*
X23000Y34000D02*
Y36000D01*
X19500Y39500D02*
X23000Y36000D01*
X17500Y39500D02*
X19500D01*
X19000Y55500D02*
X23000Y51500D01*
Y50000D02*
Y51500D01*
Y50000D02*
X37000Y36000D01*
X19000Y63500D02*
X25000Y57500D01*
Y50500D02*
X30002Y45498D01*
X25000Y50500D02*
Y57500D01*
X17500Y55500D02*
X19000D01*
X37000Y36000D02*
X55000D01*
X17500Y63500D02*
X19000D01*
X23500Y71500D02*
X26500Y68500D01*
X17500Y71500D02*
X23500D01*
X26500Y79500D02*
X29000Y77000D01*
X17500Y79500D02*
X26500D01*
X21500Y85000D02*
X37500D01*
X17500Y87500D02*
X19000D01*
X21500Y85000D01*
X30500Y95500D02*
X47500Y78500D01*
X17074Y95500D02*
X30500D01*
X24429Y103571D02*
X49500Y78500D01*
Y60500D02*
Y78500D01*
X17429Y103571D02*
X24429D01*
X36000Y96000D02*
Y112500D01*
X39500Y116000D02*
Y117500D01*
X36000Y112500D02*
X39500Y116000D01*
X31500Y98500D02*
X51500Y78500D01*
X31500Y98500D02*
Y117500D01*
X44500Y26500D02*
X52500D01*
X57000Y31000D01*
X54720Y48780D02*
X57500Y46000D01*
Y41000D02*
Y46000D01*
X54000Y37500D02*
X57500Y41000D01*
X50720Y48780D02*
X54720D01*
X47000Y52500D02*
X50720Y48780D01*
X38500Y37500D02*
X54000D01*
X37000Y39000D02*
X38500Y37500D01*
X55000Y36000D02*
X61500Y42500D01*
X53000Y39000D02*
X55000Y41000D01*
X34502Y45498D02*
X41000Y39000D01*
X53000D01*
X61500Y42500D02*
Y53603D01*
X32000Y34500D02*
X55500D01*
X64000Y43000D02*
Y44500D01*
X55500Y34500D02*
X64000Y43000D01*
X26500Y56000D02*
X42000Y40500D01*
X51000D02*
X53000Y42500D01*
X42000Y40500D02*
X51000D01*
X30002Y45498D02*
X34502D01*
X36000Y96000D02*
X53500Y78500D01*
Y59000D02*
Y78500D01*
X51500Y60500D02*
Y78500D01*
X45000Y54000D02*
X51500Y60500D01*
X47000Y52500D02*
X53500Y59000D01*
X45000Y50500D02*
Y54000D01*
X42500Y53500D02*
X49500Y60500D01*
X42500Y50000D02*
Y53500D01*
X40500D02*
X47500Y60500D01*
Y78500D01*
X40500Y49515D02*
Y53500D01*
X98500Y72000D02*
X101000Y69500D01*
Y25500D02*
Y69500D01*
X106500Y54500D02*
Y73000D01*
X101500Y78000D02*
X106500Y73000D01*
X87500Y67000D02*
X93500D01*
X86525Y54161D02*
Y55839D01*
X86500Y28500D02*
Y54136D01*
Y55864D02*
X86525Y55839D01*
X86500Y58000D02*
X91500Y63000D01*
X86500Y55864D02*
Y58000D01*
Y54136D02*
X86525Y54161D01*
X109000Y59500D02*
Y73500D01*
X89525Y64975D02*
X93025D01*
X94000Y61500D02*
Y64000D01*
X93025Y64975D02*
X94000Y64000D01*
X89500Y65000D02*
X89525Y64975D01*
X45500Y28000D02*
X51000D01*
X66000Y43000D01*
X26500Y56000D02*
Y68500D01*
X29000Y56000D02*
Y77000D01*
X42500Y42500D02*
X49000D01*
X29000Y56000D02*
X42500Y42500D01*
X61500Y53603D02*
X64008Y56111D01*
X67500Y23500D02*
X73000D01*
X79000Y29500D02*
Y41500D01*
X73000Y23500D02*
X79000Y29500D01*
X63000Y19000D02*
X67500Y23500D01*
X63000Y17500D02*
Y19000D01*
X76000Y44500D02*
X79000Y41500D01*
X57000Y31000D02*
X61500D01*
X68000Y37500D01*
Y48500D01*
X57500Y28500D02*
X62500D01*
X54000Y25000D02*
X57500Y28500D01*
X62500D02*
X70000Y36000D01*
Y46500D01*
X58000Y26000D02*
X63500D01*
X55500Y23500D02*
X58000Y26000D01*
X63500D02*
X72000Y34500D01*
Y44500D01*
X64500Y23500D02*
X74000Y33000D01*
X58500Y23500D02*
X64500D01*
X54000Y19000D02*
X58500Y23500D01*
X54000Y17500D02*
Y19000D01*
X74000Y33000D02*
Y46500D01*
X37500Y85000D02*
X45500Y77000D01*
X97500Y93000D02*
X109000Y81500D01*
X87859Y93000D02*
X97500D01*
X84205Y89705D02*
Y91705D01*
X84000Y89500D02*
X84205Y89705D01*
Y91705D02*
X87500Y95000D01*
X100500Y99000D02*
X105000Y103500D01*
X86500Y99000D02*
X100500D01*
X79500Y92000D02*
X86500Y99000D01*
X86000Y101000D02*
X99500D01*
X85500Y103000D02*
X97000D01*
X66000Y43000D02*
Y46500D01*
X55000Y41000D02*
Y44500D01*
X45500Y60500D02*
Y77000D01*
X49000Y42500D02*
X51000Y44500D01*
X38500Y49000D02*
X43000Y44500D01*
X38500Y49000D02*
Y53500D01*
X43000Y44500D02*
X47000D01*
X38500Y53500D02*
X45500Y60500D01*
X40500Y49515D02*
X43257Y46758D01*
X44000Y48500D02*
X47000D01*
X42500Y50000D02*
X44000Y48500D01*
X44742Y46758D02*
X45000Y46500D01*
X43257Y46758D02*
X44742D01*
X89000Y72000D02*
X98500D01*
X103000Y40500D02*
Y70500D01*
X87000Y74000D02*
X99500D01*
X103000Y70500D01*
X105000Y47500D02*
Y71500D01*
X100500Y76000D02*
X105000Y71500D01*
X89000Y76000D02*
X100500D01*
X87000Y78000D02*
X101500D01*
X93000Y89500D02*
X109000Y73500D01*
X88000Y89500D02*
X93000D01*
X86025Y91166D02*
X87859Y93000D01*
X86025Y87525D02*
Y91166D01*
X82025Y92025D02*
X87000Y97000D01*
X75500Y89500D02*
Y93000D01*
X85500Y103000D01*
X77500Y92500D02*
X86000Y101000D01*
X77500Y87500D02*
Y92500D01*
X79500Y89500D02*
Y92000D01*
X82025Y88390D02*
Y92025D01*
X81500Y87865D02*
X82025Y88390D01*
X81500Y87500D02*
Y87865D01*
X86000Y87500D02*
X86025Y87525D01*
X31500Y59500D02*
Y64500D01*
X36500Y70500D02*
Y75500D01*
Y59500D02*
Y66500D01*
X41500Y68500D02*
Y75500D01*
X122500Y31500D02*
X123500Y30500D01*
X200500Y110500D02*
Y117500D01*
X195000Y105000D02*
X200500Y110500D01*
X190000Y105000D02*
X195000D01*
X178500Y93500D02*
X190000Y105000D01*
X208500Y109500D02*
Y117500D01*
X202000Y103000D02*
X208500Y109500D01*
X178500Y87500D02*
Y93500D01*
X204500Y101000D02*
X210000Y106500D01*
X218000D02*
X221000Y103500D01*
X210000Y106500D02*
X218000D01*
X221000Y103500D02*
X222500D01*
X210000D02*
X213000D01*
X221000Y95500D01*
X222500D01*
X192500Y95000D02*
X203000D01*
X216000Y76500D02*
Y82000D01*
X203000Y95000D02*
X216000Y82000D01*
X192000Y97000D02*
X203500D01*
X219500Y81000D01*
X222500D01*
X216000Y68500D02*
Y74000D01*
X214000Y76000D02*
Y81500D01*
Y76000D02*
X216000Y74000D01*
X220500Y72000D02*
X222500D01*
X216000Y76500D02*
X220500Y72000D01*
X221500Y63000D02*
X222500D01*
X216000Y68500D02*
X221500Y63000D01*
X221000Y55500D02*
X222500D01*
X217997Y55503D02*
X220997D01*
X214000Y59500D02*
X217997Y55503D01*
X221000Y55500D02*
X222500Y54000D01*
X220997Y55503D02*
X221000Y55500D01*
X217997Y48003D02*
X221997D01*
X211500Y54500D02*
X217997Y48003D01*
X221997D02*
X222500Y47500D01*
X218000Y39500D02*
X222500D01*
X210000Y47500D02*
X218000Y39500D01*
X208000Y40500D02*
X217000Y31500D01*
X223068D01*
X206000Y25500D02*
X208500Y23000D01*
Y17249D02*
Y23000D01*
X200500Y21151D02*
X201235Y20416D01*
X200500Y21151D02*
Y65000D01*
X198500Y67000D02*
X200500Y65000D01*
X201235Y20416D02*
X201916D01*
X189562Y24062D02*
X192562D01*
X194500Y26000D02*
Y57000D01*
X192562Y24062D02*
X194500Y26000D01*
X184500Y17500D02*
Y19000D01*
X189562Y24062D01*
X194500Y57000D02*
X199000Y61500D01*
X176500Y17500D02*
Y19000D01*
X186000Y28500D02*
X191500D01*
X176500Y19000D02*
X186000Y28500D01*
X157000Y23500D02*
X160500D01*
X152500Y17500D02*
Y19000D01*
X157000Y23500D01*
X150500Y25000D02*
X159000D01*
X144500Y19000D02*
X150500Y25000D01*
X144500Y19000D02*
Y19500D01*
Y17500D02*
Y19000D01*
Y20003D02*
Y21000D01*
Y19500D02*
Y20003D01*
X143503D02*
X144500D01*
X143503D02*
X144500Y21000D01*
X147500Y28500D02*
X149500Y26500D01*
X136503Y22003D02*
X143000Y28500D01*
X147500D01*
X136503Y17503D02*
Y22003D01*
X136500Y17500D02*
X136503Y17503D01*
X123500Y30500D02*
X148000D01*
X150500Y28000D01*
X128000Y34000D02*
X129500Y32500D01*
X135000D02*
X137000Y34500D01*
X129500Y32500D02*
X135000D01*
X128000Y34000D02*
Y36000D01*
X124500Y39500D02*
X128000Y36000D01*
X122500Y39500D02*
X124500D01*
X124000Y55500D02*
X128000Y51500D01*
Y50000D02*
Y51500D01*
Y50000D02*
X142000Y36000D01*
X124000Y63500D02*
X130000Y57500D01*
Y50500D02*
X135002Y45498D01*
X130000Y50500D02*
Y57500D01*
X122500Y55500D02*
X124000D01*
X142000Y36000D02*
X160000D01*
X122500Y63500D02*
X124000D01*
X128500Y71500D02*
X131500Y68500D01*
X122500Y71500D02*
X128500D01*
X131500Y79500D02*
X134000Y77000D01*
X122500Y79500D02*
X131500D01*
X126500Y85000D02*
X142500D01*
X122500Y87500D02*
X124000D01*
X126500Y85000D01*
X135500Y95500D02*
X152500Y78500D01*
X122074Y95500D02*
X135500D01*
X129429Y103571D02*
X154500Y78500D01*
Y60500D02*
Y78500D01*
X122429Y103571D02*
X129429D01*
X141000Y96000D02*
Y112500D01*
X144500Y116000D02*
Y117500D01*
X141000Y112500D02*
X144500Y116000D01*
X136500Y98500D02*
X156500Y78500D01*
X136500Y98500D02*
Y117500D01*
X149500Y26500D02*
X157500D01*
X162000Y31000D01*
X159720Y48780D02*
X162500Y46000D01*
Y41000D02*
Y46000D01*
X159000Y37500D02*
X162500Y41000D01*
X155720Y48780D02*
X159720D01*
X152000Y52500D02*
X155720Y48780D01*
X143500Y37500D02*
X159000D01*
X142000Y39000D02*
X143500Y37500D01*
X160000Y36000D02*
X166500Y42500D01*
X158000Y39000D02*
X160000Y41000D01*
X139502Y45498D02*
X146000Y39000D01*
X158000D01*
X166500Y42500D02*
Y53603D01*
X137000Y34500D02*
X160500D01*
X169000Y43000D02*
Y44500D01*
X160500Y34500D02*
X169000Y43000D01*
X131500Y56000D02*
X147000Y40500D01*
X156000D02*
X158000Y42500D01*
X147000Y40500D02*
X156000D01*
X135002Y45498D02*
X139502D01*
X141000Y96000D02*
X158500Y78500D01*
Y59000D02*
Y78500D01*
X156500Y60500D02*
Y78500D01*
X150000Y54000D02*
X156500Y60500D01*
X152000Y52500D02*
X158500Y59000D01*
X150000Y50500D02*
Y54000D01*
X147500Y53500D02*
X154500Y60500D01*
X147500Y50000D02*
Y53500D01*
X145500D02*
X152500Y60500D01*
Y78500D01*
X145500Y49515D02*
Y53500D01*
X203500Y72000D02*
X206000Y69500D01*
Y25500D02*
Y69500D01*
X211500Y54500D02*
Y73000D01*
X206500Y78000D02*
X211500Y73000D01*
X192500Y67000D02*
X198500D01*
X191525Y54161D02*
Y55839D01*
X191500Y28500D02*
Y54136D01*
Y55864D02*
X191525Y55839D01*
X191500Y58000D02*
X196500Y63000D01*
X191500Y55864D02*
Y58000D01*
Y54136D02*
X191525Y54161D01*
X214000Y59500D02*
Y73500D01*
X194525Y64975D02*
X198025D01*
X199000Y61500D02*
Y64000D01*
X198025Y64975D02*
X199000Y64000D01*
X194500Y65000D02*
X194525Y64975D01*
X150500Y28000D02*
X156000D01*
X171000Y43000D01*
X131500Y56000D02*
Y68500D01*
X134000Y56000D02*
Y77000D01*
X147500Y42500D02*
X154000D01*
X134000Y56000D02*
X147500Y42500D01*
X166500Y53603D02*
X169008Y56111D01*
X172500Y23500D02*
X178000D01*
X184000Y29500D02*
Y41500D01*
X178000Y23500D02*
X184000Y29500D01*
X168000Y19000D02*
X172500Y23500D01*
X168000Y17500D02*
Y19000D01*
X181000Y44500D02*
X184000Y41500D01*
X162000Y31000D02*
X166500D01*
X173000Y37500D01*
Y48500D01*
X162500Y28500D02*
X167500D01*
X159000Y25000D02*
X162500Y28500D01*
X167500D02*
X175000Y36000D01*
Y46500D01*
X163000Y26000D02*
X168500D01*
X160500Y23500D02*
X163000Y26000D01*
X168500D02*
X177000Y34500D01*
Y44500D01*
X169500Y23500D02*
X179000Y33000D01*
X163500Y23500D02*
X169500D01*
X159000Y19000D02*
X163500Y23500D01*
X159000Y17500D02*
Y19000D01*
X179000Y33000D02*
Y46500D01*
X142500Y85000D02*
X150500Y77000D01*
X202500Y93000D02*
X214000Y81500D01*
X192859Y93000D02*
X202500D01*
X189205Y89705D02*
Y91705D01*
X189000Y89500D02*
X189205Y89705D01*
Y91705D02*
X192500Y95000D01*
X205500Y99000D02*
X210000Y103500D01*
X191500Y99000D02*
X205500D01*
X184500Y92000D02*
X191500Y99000D01*
X191000Y101000D02*
X204500D01*
X190500Y103000D02*
X202000D01*
X171000Y43000D02*
Y46500D01*
X160000Y41000D02*
Y44500D01*
X150500Y60500D02*
Y77000D01*
X154000Y42500D02*
X156000Y44500D01*
X143500Y49000D02*
X148000Y44500D01*
X143500Y49000D02*
Y53500D01*
X148000Y44500D02*
X152000D01*
X143500Y53500D02*
X150500Y60500D01*
X145500Y49515D02*
X148257Y46758D01*
X149000Y48500D02*
X152000D01*
X147500Y50000D02*
X149000Y48500D01*
X149742Y46758D02*
X150000Y46500D01*
X148257Y46758D02*
X149742D01*
X194000Y72000D02*
X203500D01*
X208000Y40500D02*
Y70500D01*
X192000Y74000D02*
X204500D01*
X208000Y70500D01*
X210000Y47500D02*
Y71500D01*
X205500Y76000D02*
X210000Y71500D01*
X194000Y76000D02*
X205500D01*
X192000Y78000D02*
X206500D01*
X198000Y89500D02*
X214000Y73500D01*
X193000Y89500D02*
X198000D01*
X191025Y91166D02*
X192859Y93000D01*
X191025Y87525D02*
Y91166D01*
X187025Y92025D02*
X192000Y97000D01*
X180500Y89500D02*
Y93000D01*
X190500Y103000D01*
X182500Y92500D02*
X191000Y101000D01*
X182500Y87500D02*
Y92500D01*
X184500Y89500D02*
Y92000D01*
X187025Y88390D02*
Y92025D01*
X186500Y87865D02*
X187025Y88390D01*
X186500Y87500D02*
Y87865D01*
X191000Y87500D02*
X191025Y87525D01*
X136500Y59500D02*
Y64500D01*
X141500Y70500D02*
Y75500D01*
Y59500D02*
Y66500D01*
X146500Y68500D02*
Y75500D01*
X227500Y31500D02*
X228500Y30500D01*
X305500Y110500D02*
Y117500D01*
X300000Y105000D02*
X305500Y110500D01*
X295000Y105000D02*
X300000D01*
X283500Y93500D02*
X295000Y105000D01*
X313500Y109500D02*
Y117500D01*
X307000Y103000D02*
X313500Y109500D01*
X283500Y87500D02*
Y93500D01*
X309500Y101000D02*
X315000Y106500D01*
X323000D02*
X326000Y103500D01*
X315000Y106500D02*
X323000D01*
X326000Y103500D02*
X327500D01*
X315000D02*
X318000D01*
X326000Y95500D01*
X327500D01*
X297500Y95000D02*
X308000D01*
X321000Y76500D02*
Y82000D01*
X308000Y95000D02*
X321000Y82000D01*
X297000Y97000D02*
X308500D01*
X324500Y81000D01*
X327500D01*
X321000Y68500D02*
Y74000D01*
X319000Y76000D02*
Y81500D01*
Y76000D02*
X321000Y74000D01*
X325500Y72000D02*
X327500D01*
X321000Y76500D02*
X325500Y72000D01*
X326500Y63000D02*
X327500D01*
X321000Y68500D02*
X326500Y63000D01*
X326000Y55500D02*
X327500D01*
X322997Y55503D02*
X325997D01*
X319000Y59500D02*
X322997Y55503D01*
X326000Y55500D02*
X327500Y54000D01*
X325997Y55503D02*
X326000Y55500D01*
X322997Y48003D02*
X326997D01*
X316500Y54500D02*
X322997Y48003D01*
X326997D02*
X327500Y47500D01*
X323000Y39500D02*
X327500D01*
X315000Y47500D02*
X323000Y39500D01*
X313000Y40500D02*
X322000Y31500D01*
X328068D01*
X311000Y25500D02*
X313500Y23000D01*
Y17249D02*
Y23000D01*
X305500Y21151D02*
X306235Y20416D01*
X305500Y21151D02*
Y65000D01*
X303500Y67000D02*
X305500Y65000D01*
X306235Y20416D02*
X306916D01*
X294562Y24062D02*
X297562D01*
X299500Y26000D02*
Y57000D01*
X297562Y24062D02*
X299500Y26000D01*
X289500Y17500D02*
Y19000D01*
X294562Y24062D01*
X299500Y57000D02*
X304000Y61500D01*
X281500Y17500D02*
Y19000D01*
X291000Y28500D02*
X296500D01*
X281500Y19000D02*
X291000Y28500D01*
X262000Y23500D02*
X265500D01*
X257500Y17500D02*
Y19000D01*
X262000Y23500D01*
X255500Y25000D02*
X264000D01*
X249500Y19000D02*
X255500Y25000D01*
X249500Y19000D02*
Y19500D01*
Y17500D02*
Y19000D01*
Y20003D02*
Y21000D01*
Y19500D02*
Y20003D01*
X248503D02*
X249500D01*
X248503D02*
X249500Y21000D01*
X252500Y28500D02*
X254500Y26500D01*
X241503Y22003D02*
X248000Y28500D01*
X252500D01*
X241503Y17503D02*
Y22003D01*
X241500Y17500D02*
X241503Y17503D01*
X228500Y30500D02*
X253000D01*
X255500Y28000D01*
X233000Y34000D02*
X234500Y32500D01*
X240000D02*
X242000Y34500D01*
X234500Y32500D02*
X240000D01*
X233000Y34000D02*
Y36000D01*
X229500Y39500D02*
X233000Y36000D01*
X227500Y39500D02*
X229500D01*
X229000Y55500D02*
X233000Y51500D01*
Y50000D02*
Y51500D01*
Y50000D02*
X247000Y36000D01*
X229000Y63500D02*
X235000Y57500D01*
Y50500D02*
X240002Y45498D01*
X235000Y50500D02*
Y57500D01*
X227500Y55500D02*
X229000D01*
X247000Y36000D02*
X265000D01*
X227500Y63500D02*
X229000D01*
X233500Y71500D02*
X236500Y68500D01*
X227500Y71500D02*
X233500D01*
X236500Y79500D02*
X239000Y77000D01*
X227500Y79500D02*
X236500D01*
X231500Y85000D02*
X247500D01*
X227500Y87500D02*
X229000D01*
X231500Y85000D01*
X240500Y95500D02*
X257500Y78500D01*
X227074Y95500D02*
X240500D01*
X234429Y103571D02*
X259500Y78500D01*
Y60500D02*
Y78500D01*
X227429Y103571D02*
X234429D01*
X246000Y96000D02*
Y112500D01*
X249500Y116000D02*
Y117500D01*
X246000Y112500D02*
X249500Y116000D01*
X241500Y98500D02*
X261500Y78500D01*
X241500Y98500D02*
Y117500D01*
X254500Y26500D02*
X262500D01*
X267000Y31000D01*
X264720Y48780D02*
X267500Y46000D01*
Y41000D02*
Y46000D01*
X264000Y37500D02*
X267500Y41000D01*
X260720Y48780D02*
X264720D01*
X257000Y52500D02*
X260720Y48780D01*
X248500Y37500D02*
X264000D01*
X247000Y39000D02*
X248500Y37500D01*
X265000Y36000D02*
X271500Y42500D01*
X263000Y39000D02*
X265000Y41000D01*
X244502Y45498D02*
X251000Y39000D01*
X263000D01*
X271500Y42500D02*
Y53603D01*
X242000Y34500D02*
X265500D01*
X274000Y43000D02*
Y44500D01*
X265500Y34500D02*
X274000Y43000D01*
X236500Y56000D02*
X252000Y40500D01*
X261000D02*
X263000Y42500D01*
X252000Y40500D02*
X261000D01*
X240002Y45498D02*
X244502D01*
X246000Y96000D02*
X263500Y78500D01*
Y59000D02*
Y78500D01*
X261500Y60500D02*
Y78500D01*
X255000Y54000D02*
X261500Y60500D01*
X257000Y52500D02*
X263500Y59000D01*
X255000Y50500D02*
Y54000D01*
X252500Y53500D02*
X259500Y60500D01*
X252500Y50000D02*
Y53500D01*
X250500D02*
X257500Y60500D01*
Y78500D01*
X250500Y49515D02*
Y53500D01*
X308500Y72000D02*
X311000Y69500D01*
Y25500D02*
Y69500D01*
X316500Y54500D02*
Y73000D01*
X311500Y78000D02*
X316500Y73000D01*
X297500Y67000D02*
X303500D01*
X296525Y54161D02*
Y55839D01*
X296500Y28500D02*
Y54136D01*
Y55864D02*
X296525Y55839D01*
X296500Y58000D02*
X301500Y63000D01*
X296500Y55864D02*
Y58000D01*
Y54136D02*
X296525Y54161D01*
X319000Y59500D02*
Y73500D01*
X299525Y64975D02*
X303025D01*
X304000Y61500D02*
Y64000D01*
X303025Y64975D02*
X304000Y64000D01*
X299500Y65000D02*
X299525Y64975D01*
X255500Y28000D02*
X261000D01*
X276000Y43000D01*
X236500Y56000D02*
Y68500D01*
X239000Y56000D02*
Y77000D01*
X252500Y42500D02*
X259000D01*
X239000Y56000D02*
X252500Y42500D01*
X271500Y53603D02*
X274008Y56111D01*
X277500Y23500D02*
X283000D01*
X289000Y29500D02*
Y41500D01*
X283000Y23500D02*
X289000Y29500D01*
X273000Y19000D02*
X277500Y23500D01*
X273000Y17500D02*
Y19000D01*
X286000Y44500D02*
X289000Y41500D01*
X267000Y31000D02*
X271500D01*
X278000Y37500D01*
Y48500D01*
X267500Y28500D02*
X272500D01*
X264000Y25000D02*
X267500Y28500D01*
X272500D02*
X280000Y36000D01*
Y46500D01*
X268000Y26000D02*
X273500D01*
X265500Y23500D02*
X268000Y26000D01*
X273500D02*
X282000Y34500D01*
Y44500D01*
X274500Y23500D02*
X284000Y33000D01*
X268500Y23500D02*
X274500D01*
X264000Y19000D02*
X268500Y23500D01*
X264000Y17500D02*
Y19000D01*
X284000Y33000D02*
Y46500D01*
X247500Y85000D02*
X255500Y77000D01*
X307500Y93000D02*
X319000Y81500D01*
X297859Y93000D02*
X307500D01*
X294205Y89705D02*
Y91705D01*
X294000Y89500D02*
X294205Y89705D01*
Y91705D02*
X297500Y95000D01*
X310500Y99000D02*
X315000Y103500D01*
X296500Y99000D02*
X310500D01*
X289500Y92000D02*
X296500Y99000D01*
X296000Y101000D02*
X309500D01*
X295500Y103000D02*
X307000D01*
X276000Y43000D02*
Y46500D01*
X265000Y41000D02*
Y44500D01*
X255500Y60500D02*
Y77000D01*
X259000Y42500D02*
X261000Y44500D01*
X248500Y49000D02*
X253000Y44500D01*
X248500Y49000D02*
Y53500D01*
X253000Y44500D02*
X257000D01*
X248500Y53500D02*
X255500Y60500D01*
X250500Y49515D02*
X253257Y46758D01*
X254000Y48500D02*
X257000D01*
X252500Y50000D02*
X254000Y48500D01*
X254742Y46758D02*
X255000Y46500D01*
X253257Y46758D02*
X254742D01*
X299000Y72000D02*
X308500D01*
X313000Y40500D02*
Y70500D01*
X297000Y74000D02*
X309500D01*
X313000Y70500D01*
X315000Y47500D02*
Y71500D01*
X310500Y76000D02*
X315000Y71500D01*
X299000Y76000D02*
X310500D01*
X297000Y78000D02*
X311500D01*
X303000Y89500D02*
X319000Y73500D01*
X298000Y89500D02*
X303000D01*
X296025Y91166D02*
X297859Y93000D01*
X296025Y87525D02*
Y91166D01*
X292025Y92025D02*
X297000Y97000D01*
X285500Y89500D02*
Y93000D01*
X295500Y103000D01*
X287500Y92500D02*
X296000Y101000D01*
X287500Y87500D02*
Y92500D01*
X289500Y89500D02*
Y92000D01*
X292025Y88390D02*
Y92025D01*
X291500Y87865D02*
X292025Y88390D01*
X291500Y87500D02*
Y87865D01*
X296000Y87500D02*
X296025Y87525D01*
X241500Y59500D02*
Y64500D01*
X246500Y70500D02*
Y75500D01*
Y59500D02*
Y66500D01*
X251500Y68500D02*
Y75500D01*
X17500Y136500D02*
X18500Y135500D01*
X95500Y215500D02*
Y222500D01*
X90000Y210000D02*
X95500Y215500D01*
X85000Y210000D02*
X90000D01*
X73500Y198500D02*
X85000Y210000D01*
X103500Y214500D02*
Y222500D01*
X97000Y208000D02*
X103500Y214500D01*
X73500Y192500D02*
Y198500D01*
X99500Y206000D02*
X105000Y211500D01*
X113000D02*
X116000Y208500D01*
X105000Y211500D02*
X113000D01*
X116000Y208500D02*
X117500D01*
X105000D02*
X108000D01*
X116000Y200500D01*
X117500D01*
X87500Y200000D02*
X98000D01*
X111000Y181500D02*
Y187000D01*
X98000Y200000D02*
X111000Y187000D01*
X87000Y202000D02*
X98500D01*
X114500Y186000D01*
X117500D01*
X111000Y173500D02*
Y179000D01*
X109000Y181000D02*
Y186500D01*
Y181000D02*
X111000Y179000D01*
X115500Y177000D02*
X117500D01*
X111000Y181500D02*
X115500Y177000D01*
X116500Y168000D02*
X117500D01*
X111000Y173500D02*
X116500Y168000D01*
X116000Y160500D02*
X117500D01*
X112997Y160503D02*
X115997D01*
X109000Y164500D02*
X112997Y160503D01*
X116000Y160500D02*
X117500Y159000D01*
X115997Y160503D02*
X116000Y160500D01*
X112997Y153003D02*
X116997D01*
X106500Y159500D02*
X112997Y153003D01*
X116997D02*
X117500Y152500D01*
X113000Y144500D02*
X117500D01*
X105000Y152500D02*
X113000Y144500D01*
X103000Y145500D02*
X112000Y136500D01*
X118068D01*
X101000Y130500D02*
X103500Y128000D01*
Y122249D02*
Y128000D01*
X95500Y126151D02*
X96235Y125416D01*
X95500Y126151D02*
Y170000D01*
X93500Y172000D02*
X95500Y170000D01*
X96235Y125416D02*
X96916D01*
X84562Y129062D02*
X87562D01*
X89500Y131000D02*
Y162000D01*
X87562Y129062D02*
X89500Y131000D01*
X79500Y122500D02*
Y124000D01*
X84562Y129062D01*
X89500Y162000D02*
X94000Y166500D01*
X71500Y122500D02*
Y124000D01*
X81000Y133500D02*
X86500D01*
X71500Y124000D02*
X81000Y133500D01*
X52000Y128500D02*
X55500D01*
X47500Y122500D02*
Y124000D01*
X52000Y128500D01*
X45500Y130000D02*
X54000D01*
X39500Y124000D02*
X45500Y130000D01*
X39500Y124000D02*
Y124500D01*
Y122500D02*
Y124000D01*
Y125003D02*
Y126000D01*
Y124500D02*
Y125003D01*
X38503D02*
X39500D01*
X38503D02*
X39500Y126000D01*
X42500Y133500D02*
X44500Y131500D01*
X31503Y127003D02*
X38000Y133500D01*
X42500D01*
X31503Y122503D02*
Y127003D01*
X31500Y122500D02*
X31503Y122503D01*
X18500Y135500D02*
X43000D01*
X45500Y133000D01*
X23000Y139000D02*
X24500Y137500D01*
X30000D02*
X32000Y139500D01*
X24500Y137500D02*
X30000D01*
X23000Y139000D02*
Y141000D01*
X19500Y144500D02*
X23000Y141000D01*
X17500Y144500D02*
X19500D01*
X19000Y160500D02*
X23000Y156500D01*
Y155000D02*
Y156500D01*
Y155000D02*
X37000Y141000D01*
X19000Y168500D02*
X25000Y162500D01*
Y155500D02*
X30002Y150498D01*
X25000Y155500D02*
Y162500D01*
X17500Y160500D02*
X19000D01*
X37000Y141000D02*
X55000D01*
X17500Y168500D02*
X19000D01*
X23500Y176500D02*
X26500Y173500D01*
X17500Y176500D02*
X23500D01*
X26500Y184500D02*
X29000Y182000D01*
X17500Y184500D02*
X26500D01*
X21500Y190000D02*
X37500D01*
X17500Y192500D02*
X19000D01*
X21500Y190000D01*
X30500Y200500D02*
X47500Y183500D01*
X17074Y200500D02*
X30500D01*
X24429Y208571D02*
X49500Y183500D01*
Y165500D02*
Y183500D01*
X17429Y208571D02*
X24429D01*
X36000Y201000D02*
Y217500D01*
X39500Y221000D02*
Y222500D01*
X36000Y217500D02*
X39500Y221000D01*
X31500Y203500D02*
X51500Y183500D01*
X31500Y203500D02*
Y222500D01*
X44500Y131500D02*
X52500D01*
X57000Y136000D01*
X54720Y153780D02*
X57500Y151000D01*
Y146000D02*
Y151000D01*
X54000Y142500D02*
X57500Y146000D01*
X50720Y153780D02*
X54720D01*
X47000Y157500D02*
X50720Y153780D01*
X38500Y142500D02*
X54000D01*
X37000Y144000D02*
X38500Y142500D01*
X55000Y141000D02*
X61500Y147500D01*
X53000Y144000D02*
X55000Y146000D01*
X34502Y150498D02*
X41000Y144000D01*
X53000D01*
X61500Y147500D02*
Y158603D01*
X32000Y139500D02*
X55500D01*
X64000Y148000D02*
Y149500D01*
X55500Y139500D02*
X64000Y148000D01*
X26500Y161000D02*
X42000Y145500D01*
X51000D02*
X53000Y147500D01*
X42000Y145500D02*
X51000D01*
X30002Y150498D02*
X34502D01*
X36000Y201000D02*
X53500Y183500D01*
Y164000D02*
Y183500D01*
X51500Y165500D02*
Y183500D01*
X45000Y159000D02*
X51500Y165500D01*
X47000Y157500D02*
X53500Y164000D01*
X45000Y155500D02*
Y159000D01*
X42500Y158500D02*
X49500Y165500D01*
X42500Y155000D02*
Y158500D01*
X40500D02*
X47500Y165500D01*
Y183500D01*
X40500Y154515D02*
Y158500D01*
X98500Y177000D02*
X101000Y174500D01*
Y130500D02*
Y174500D01*
X106500Y159500D02*
Y178000D01*
X101500Y183000D02*
X106500Y178000D01*
X87500Y172000D02*
X93500D01*
X86525Y159161D02*
Y160839D01*
X86500Y133500D02*
Y159136D01*
Y160864D02*
X86525Y160839D01*
X86500Y163000D02*
X91500Y168000D01*
X86500Y160864D02*
Y163000D01*
Y159136D02*
X86525Y159161D01*
X109000Y164500D02*
Y178500D01*
X89525Y169975D02*
X93025D01*
X94000Y166500D02*
Y169000D01*
X93025Y169975D02*
X94000Y169000D01*
X89500Y170000D02*
X89525Y169975D01*
X45500Y133000D02*
X51000D01*
X66000Y148000D01*
X26500Y161000D02*
Y173500D01*
X29000Y161000D02*
Y182000D01*
X42500Y147500D02*
X49000D01*
X29000Y161000D02*
X42500Y147500D01*
X61500Y158603D02*
X64008Y161111D01*
X67500Y128500D02*
X73000D01*
X79000Y134500D02*
Y146500D01*
X73000Y128500D02*
X79000Y134500D01*
X63000Y124000D02*
X67500Y128500D01*
X63000Y122500D02*
Y124000D01*
X76000Y149500D02*
X79000Y146500D01*
X57000Y136000D02*
X61500D01*
X68000Y142500D01*
Y153500D01*
X57500Y133500D02*
X62500D01*
X54000Y130000D02*
X57500Y133500D01*
X62500D02*
X70000Y141000D01*
Y151500D01*
X58000Y131000D02*
X63500D01*
X55500Y128500D02*
X58000Y131000D01*
X63500D02*
X72000Y139500D01*
Y149500D01*
X64500Y128500D02*
X74000Y138000D01*
X58500Y128500D02*
X64500D01*
X54000Y124000D02*
X58500Y128500D01*
X54000Y122500D02*
Y124000D01*
X74000Y138000D02*
Y151500D01*
X37500Y190000D02*
X45500Y182000D01*
X97500Y198000D02*
X109000Y186500D01*
X87859Y198000D02*
X97500D01*
X84205Y194705D02*
Y196705D01*
X84000Y194500D02*
X84205Y194705D01*
Y196705D02*
X87500Y200000D01*
X100500Y204000D02*
X105000Y208500D01*
X86500Y204000D02*
X100500D01*
X79500Y197000D02*
X86500Y204000D01*
X86000Y206000D02*
X99500D01*
X85500Y208000D02*
X97000D01*
X66000Y148000D02*
Y151500D01*
X55000Y146000D02*
Y149500D01*
X45500Y165500D02*
Y182000D01*
X49000Y147500D02*
X51000Y149500D01*
X38500Y154000D02*
X43000Y149500D01*
X38500Y154000D02*
Y158500D01*
X43000Y149500D02*
X47000D01*
X38500Y158500D02*
X45500Y165500D01*
X40500Y154515D02*
X43257Y151758D01*
X44000Y153500D02*
X47000D01*
X42500Y155000D02*
X44000Y153500D01*
X44742Y151758D02*
X45000Y151500D01*
X43257Y151758D02*
X44742D01*
X89000Y177000D02*
X98500D01*
X103000Y145500D02*
Y175500D01*
X87000Y179000D02*
X99500D01*
X103000Y175500D01*
X105000Y152500D02*
Y176500D01*
X100500Y181000D02*
X105000Y176500D01*
X89000Y181000D02*
X100500D01*
X87000Y183000D02*
X101500D01*
X93000Y194500D02*
X109000Y178500D01*
X88000Y194500D02*
X93000D01*
X86025Y196166D02*
X87859Y198000D01*
X86025Y192525D02*
Y196166D01*
X82025Y197025D02*
X87000Y202000D01*
X75500Y194500D02*
Y198000D01*
X85500Y208000D01*
X77500Y197500D02*
X86000Y206000D01*
X77500Y192500D02*
Y197500D01*
X79500Y194500D02*
Y197000D01*
X82025Y193390D02*
Y197025D01*
X81500Y192865D02*
X82025Y193390D01*
X81500Y192500D02*
Y192865D01*
X86000Y192500D02*
X86025Y192525D01*
X31500Y164500D02*
Y169500D01*
X36500Y175500D02*
Y180500D01*
Y164500D02*
Y171500D01*
X41500Y173500D02*
Y180500D01*
X122500Y136500D02*
X123500Y135500D01*
X200500Y215500D02*
Y222500D01*
X195000Y210000D02*
X200500Y215500D01*
X190000Y210000D02*
X195000D01*
X178500Y198500D02*
X190000Y210000D01*
X208500Y214500D02*
Y222500D01*
X202000Y208000D02*
X208500Y214500D01*
X178500Y192500D02*
Y198500D01*
X204500Y206000D02*
X210000Y211500D01*
X218000D02*
X221000Y208500D01*
X210000Y211500D02*
X218000D01*
X221000Y208500D02*
X222500D01*
X210000D02*
X213000D01*
X221000Y200500D01*
X222500D01*
X192500Y200000D02*
X203000D01*
X216000Y181500D02*
Y187000D01*
X203000Y200000D02*
X216000Y187000D01*
X192000Y202000D02*
X203500D01*
X219500Y186000D01*
X222500D01*
X216000Y173500D02*
Y179000D01*
X214000Y181000D02*
Y186500D01*
Y181000D02*
X216000Y179000D01*
X220500Y177000D02*
X222500D01*
X216000Y181500D02*
X220500Y177000D01*
X221500Y168000D02*
X222500D01*
X216000Y173500D02*
X221500Y168000D01*
X221000Y160500D02*
X222500D01*
X217997Y160503D02*
X220997D01*
X214000Y164500D02*
X217997Y160503D01*
X221000Y160500D02*
X222500Y159000D01*
X220997Y160503D02*
X221000Y160500D01*
X217997Y153003D02*
X221997D01*
X211500Y159500D02*
X217997Y153003D01*
X221997D02*
X222500Y152500D01*
X218000Y144500D02*
X222500D01*
X210000Y152500D02*
X218000Y144500D01*
X208000Y145500D02*
X217000Y136500D01*
X223068D01*
X206000Y130500D02*
X208500Y128000D01*
Y122249D02*
Y128000D01*
X200500Y126151D02*
X201235Y125416D01*
X200500Y126151D02*
Y170000D01*
X198500Y172000D02*
X200500Y170000D01*
X201235Y125416D02*
X201916D01*
X189562Y129062D02*
X192562D01*
X194500Y131000D02*
Y162000D01*
X192562Y129062D02*
X194500Y131000D01*
X184500Y122500D02*
Y124000D01*
X189562Y129062D01*
X194500Y162000D02*
X199000Y166500D01*
X176500Y122500D02*
Y124000D01*
X186000Y133500D02*
X191500D01*
X176500Y124000D02*
X186000Y133500D01*
X157000Y128500D02*
X160500D01*
X152500Y122500D02*
Y124000D01*
X157000Y128500D01*
X150500Y130000D02*
X159000D01*
X144500Y124000D02*
X150500Y130000D01*
X144500Y124000D02*
Y124500D01*
Y122500D02*
Y124000D01*
Y125003D02*
Y126000D01*
Y124500D02*
Y125003D01*
X143503D02*
X144500D01*
X143503D02*
X144500Y126000D01*
X147500Y133500D02*
X149500Y131500D01*
X136503Y127003D02*
X143000Y133500D01*
X147500D01*
X136503Y122503D02*
Y127003D01*
X136500Y122500D02*
X136503Y122503D01*
X123500Y135500D02*
X148000D01*
X150500Y133000D01*
X128000Y139000D02*
X129500Y137500D01*
X135000D02*
X137000Y139500D01*
X129500Y137500D02*
X135000D01*
X128000Y139000D02*
Y141000D01*
X124500Y144500D02*
X128000Y141000D01*
X122500Y144500D02*
X124500D01*
X124000Y160500D02*
X128000Y156500D01*
Y155000D02*
Y156500D01*
Y155000D02*
X142000Y141000D01*
X124000Y168500D02*
X130000Y162500D01*
Y155500D02*
X135002Y150498D01*
X130000Y155500D02*
Y162500D01*
X122500Y160500D02*
X124000D01*
X142000Y141000D02*
X160000D01*
X122500Y168500D02*
X124000D01*
X128500Y176500D02*
X131500Y173500D01*
X122500Y176500D02*
X128500D01*
X131500Y184500D02*
X134000Y182000D01*
X122500Y184500D02*
X131500D01*
X126500Y190000D02*
X142500D01*
X122500Y192500D02*
X124000D01*
X126500Y190000D01*
X135500Y200500D02*
X152500Y183500D01*
X122074Y200500D02*
X135500D01*
X129429Y208571D02*
X154500Y183500D01*
Y165500D02*
Y183500D01*
X122429Y208571D02*
X129429D01*
X141000Y201000D02*
Y217500D01*
X144500Y221000D02*
Y222500D01*
X141000Y217500D02*
X144500Y221000D01*
X136500Y203500D02*
X156500Y183500D01*
X136500Y203500D02*
Y222500D01*
X149500Y131500D02*
X157500D01*
X162000Y136000D01*
X159720Y153780D02*
X162500Y151000D01*
Y146000D02*
Y151000D01*
X159000Y142500D02*
X162500Y146000D01*
X155720Y153780D02*
X159720D01*
X152000Y157500D02*
X155720Y153780D01*
X143500Y142500D02*
X159000D01*
X142000Y144000D02*
X143500Y142500D01*
X160000Y141000D02*
X166500Y147500D01*
X158000Y144000D02*
X160000Y146000D01*
X139502Y150498D02*
X146000Y144000D01*
X158000D01*
X166500Y147500D02*
Y158603D01*
X137000Y139500D02*
X160500D01*
X169000Y148000D02*
Y149500D01*
X160500Y139500D02*
X169000Y148000D01*
X131500Y161000D02*
X147000Y145500D01*
X156000D02*
X158000Y147500D01*
X147000Y145500D02*
X156000D01*
X135002Y150498D02*
X139502D01*
X141000Y201000D02*
X158500Y183500D01*
Y164000D02*
Y183500D01*
X156500Y165500D02*
Y183500D01*
X150000Y159000D02*
X156500Y165500D01*
X152000Y157500D02*
X158500Y164000D01*
X150000Y155500D02*
Y159000D01*
X147500Y158500D02*
X154500Y165500D01*
X147500Y155000D02*
Y158500D01*
X145500D02*
X152500Y165500D01*
Y183500D01*
X145500Y154515D02*
Y158500D01*
X203500Y177000D02*
X206000Y174500D01*
Y130500D02*
Y174500D01*
X211500Y159500D02*
Y178000D01*
X206500Y183000D02*
X211500Y178000D01*
X192500Y172000D02*
X198500D01*
X191525Y159161D02*
Y160839D01*
X191500Y133500D02*
Y159136D01*
Y160864D02*
X191525Y160839D01*
X191500Y163000D02*
X196500Y168000D01*
X191500Y160864D02*
Y163000D01*
Y159136D02*
X191525Y159161D01*
X214000Y164500D02*
Y178500D01*
X194525Y169975D02*
X198025D01*
X199000Y166500D02*
Y169000D01*
X198025Y169975D02*
X199000Y169000D01*
X194500Y170000D02*
X194525Y169975D01*
X150500Y133000D02*
X156000D01*
X171000Y148000D01*
X131500Y161000D02*
Y173500D01*
X134000Y161000D02*
Y182000D01*
X147500Y147500D02*
X154000D01*
X134000Y161000D02*
X147500Y147500D01*
X166500Y158603D02*
X169008Y161111D01*
X172500Y128500D02*
X178000D01*
X184000Y134500D02*
Y146500D01*
X178000Y128500D02*
X184000Y134500D01*
X168000Y124000D02*
X172500Y128500D01*
X168000Y122500D02*
Y124000D01*
X181000Y149500D02*
X184000Y146500D01*
X162000Y136000D02*
X166500D01*
X173000Y142500D01*
Y153500D01*
X162500Y133500D02*
X167500D01*
X159000Y130000D02*
X162500Y133500D01*
X167500D02*
X175000Y141000D01*
Y151500D01*
X163000Y131000D02*
X168500D01*
X160500Y128500D02*
X163000Y131000D01*
X168500D02*
X177000Y139500D01*
Y149500D01*
X169500Y128500D02*
X179000Y138000D01*
X163500Y128500D02*
X169500D01*
X159000Y124000D02*
X163500Y128500D01*
X159000Y122500D02*
Y124000D01*
X179000Y138000D02*
Y151500D01*
X142500Y190000D02*
X150500Y182000D01*
X202500Y198000D02*
X214000Y186500D01*
X192859Y198000D02*
X202500D01*
X189205Y194705D02*
Y196705D01*
X189000Y194500D02*
X189205Y194705D01*
Y196705D02*
X192500Y200000D01*
X205500Y204000D02*
X210000Y208500D01*
X191500Y204000D02*
X205500D01*
X184500Y197000D02*
X191500Y204000D01*
X191000Y206000D02*
X204500D01*
X190500Y208000D02*
X202000D01*
X171000Y148000D02*
Y151500D01*
X160000Y146000D02*
Y149500D01*
X150500Y165500D02*
Y182000D01*
X154000Y147500D02*
X156000Y149500D01*
X143500Y154000D02*
X148000Y149500D01*
X143500Y154000D02*
Y158500D01*
X148000Y149500D02*
X152000D01*
X143500Y158500D02*
X150500Y165500D01*
X145500Y154515D02*
X148257Y151758D01*
X149000Y153500D02*
X152000D01*
X147500Y155000D02*
X149000Y153500D01*
X149742Y151758D02*
X150000Y151500D01*
X148257Y151758D02*
X149742D01*
X194000Y177000D02*
X203500D01*
X208000Y145500D02*
Y175500D01*
X192000Y179000D02*
X204500D01*
X208000Y175500D01*
X210000Y152500D02*
Y176500D01*
X205500Y181000D02*
X210000Y176500D01*
X194000Y181000D02*
X205500D01*
X192000Y183000D02*
X206500D01*
X198000Y194500D02*
X214000Y178500D01*
X193000Y194500D02*
X198000D01*
X191025Y196166D02*
X192859Y198000D01*
X191025Y192525D02*
Y196166D01*
X187025Y197025D02*
X192000Y202000D01*
X180500Y194500D02*
Y198000D01*
X190500Y208000D01*
X182500Y197500D02*
X191000Y206000D01*
X182500Y192500D02*
Y197500D01*
X184500Y194500D02*
Y197000D01*
X187025Y193390D02*
Y197025D01*
X186500Y192865D02*
X187025Y193390D01*
X186500Y192500D02*
Y192865D01*
X191000Y192500D02*
X191025Y192525D01*
X136500Y164500D02*
Y169500D01*
X141500Y175500D02*
Y180500D01*
Y164500D02*
Y171500D01*
X146500Y173500D02*
Y180500D01*
X227500Y136500D02*
X228500Y135500D01*
X305500Y215500D02*
Y222500D01*
X300000Y210000D02*
X305500Y215500D01*
X295000Y210000D02*
X300000D01*
X283500Y198500D02*
X295000Y210000D01*
X313500Y214500D02*
Y222500D01*
X307000Y208000D02*
X313500Y214500D01*
X283500Y192500D02*
Y198500D01*
X309500Y206000D02*
X315000Y211500D01*
X323000D02*
X326000Y208500D01*
X315000Y211500D02*
X323000D01*
X326000Y208500D02*
X327500D01*
X315000D02*
X318000D01*
X326000Y200500D01*
X327500D01*
X297500Y200000D02*
X308000D01*
X321000Y181500D02*
Y187000D01*
X308000Y200000D02*
X321000Y187000D01*
X297000Y202000D02*
X308500D01*
X324500Y186000D01*
X327500D01*
X321000Y173500D02*
Y179000D01*
X319000Y181000D02*
Y186500D01*
Y181000D02*
X321000Y179000D01*
X325500Y177000D02*
X327500D01*
X321000Y181500D02*
X325500Y177000D01*
X326500Y168000D02*
X327500D01*
X321000Y173500D02*
X326500Y168000D01*
X326000Y160500D02*
X327500D01*
X322997Y160503D02*
X325997D01*
X319000Y164500D02*
X322997Y160503D01*
X326000Y160500D02*
X327500Y159000D01*
X325997Y160503D02*
X326000Y160500D01*
X322997Y153003D02*
X326997D01*
X316500Y159500D02*
X322997Y153003D01*
X326997D02*
X327500Y152500D01*
X323000Y144500D02*
X327500D01*
X315000Y152500D02*
X323000Y144500D01*
X313000Y145500D02*
X322000Y136500D01*
X328068D01*
X311000Y130500D02*
X313500Y128000D01*
Y122249D02*
Y128000D01*
X305500Y126151D02*
X306235Y125416D01*
X305500Y126151D02*
Y170000D01*
X303500Y172000D02*
X305500Y170000D01*
X306235Y125416D02*
X306916D01*
X294562Y129062D02*
X297562D01*
X299500Y131000D02*
Y162000D01*
X297562Y129062D02*
X299500Y131000D01*
X289500Y122500D02*
Y124000D01*
X294562Y129062D01*
X299500Y162000D02*
X304000Y166500D01*
X281500Y122500D02*
Y124000D01*
X291000Y133500D02*
X296500D01*
X281500Y124000D02*
X291000Y133500D01*
X262000Y128500D02*
X265500D01*
X257500Y122500D02*
Y124000D01*
X262000Y128500D01*
X255500Y130000D02*
X264000D01*
X249500Y124000D02*
X255500Y130000D01*
X249500Y124000D02*
Y124500D01*
Y122500D02*
Y124000D01*
Y125003D02*
Y126000D01*
Y124500D02*
Y125003D01*
X248503D02*
X249500D01*
X248503D02*
X249500Y126000D01*
X252500Y133500D02*
X254500Y131500D01*
X241503Y127003D02*
X248000Y133500D01*
X252500D01*
X241503Y122503D02*
Y127003D01*
X241500Y122500D02*
X241503Y122503D01*
X228500Y135500D02*
X253000D01*
X255500Y133000D01*
X233000Y139000D02*
X234500Y137500D01*
X240000D02*
X242000Y139500D01*
X234500Y137500D02*
X240000D01*
X233000Y139000D02*
Y141000D01*
X229500Y144500D02*
X233000Y141000D01*
X227500Y144500D02*
X229500D01*
X229000Y160500D02*
X233000Y156500D01*
Y155000D02*
Y156500D01*
Y155000D02*
X247000Y141000D01*
X229000Y168500D02*
X235000Y162500D01*
Y155500D02*
X240002Y150498D01*
X235000Y155500D02*
Y162500D01*
X227500Y160500D02*
X229000D01*
X247000Y141000D02*
X265000D01*
X227500Y168500D02*
X229000D01*
X233500Y176500D02*
X236500Y173500D01*
X227500Y176500D02*
X233500D01*
X236500Y184500D02*
X239000Y182000D01*
X227500Y184500D02*
X236500D01*
X231500Y190000D02*
X247500D01*
X227500Y192500D02*
X229000D01*
X231500Y190000D01*
X240500Y200500D02*
X257500Y183500D01*
X227074Y200500D02*
X240500D01*
X234429Y208571D02*
X259500Y183500D01*
Y165500D02*
Y183500D01*
X227429Y208571D02*
X234429D01*
X246000Y201000D02*
Y217500D01*
X249500Y221000D02*
Y222500D01*
X246000Y217500D02*
X249500Y221000D01*
X241500Y203500D02*
X261500Y183500D01*
X241500Y203500D02*
Y222500D01*
X254500Y131500D02*
X262500D01*
X267000Y136000D01*
X264720Y153780D02*
X267500Y151000D01*
Y146000D02*
Y151000D01*
X264000Y142500D02*
X267500Y146000D01*
X260720Y153780D02*
X264720D01*
X257000Y157500D02*
X260720Y153780D01*
X248500Y142500D02*
X264000D01*
X247000Y144000D02*
X248500Y142500D01*
X265000Y141000D02*
X271500Y147500D01*
X263000Y144000D02*
X265000Y146000D01*
X244502Y150498D02*
X251000Y144000D01*
X263000D01*
X271500Y147500D02*
Y158603D01*
X242000Y139500D02*
X265500D01*
X274000Y148000D02*
Y149500D01*
X265500Y139500D02*
X274000Y148000D01*
X236500Y161000D02*
X252000Y145500D01*
X261000D02*
X263000Y147500D01*
X252000Y145500D02*
X261000D01*
X240002Y150498D02*
X244502D01*
X246000Y201000D02*
X263500Y183500D01*
Y164000D02*
Y183500D01*
X261500Y165500D02*
Y183500D01*
X255000Y159000D02*
X261500Y165500D01*
X257000Y157500D02*
X263500Y164000D01*
X255000Y155500D02*
Y159000D01*
X252500Y158500D02*
X259500Y165500D01*
X252500Y155000D02*
Y158500D01*
X250500D02*
X257500Y165500D01*
Y183500D01*
X250500Y154515D02*
Y158500D01*
X308500Y177000D02*
X311000Y174500D01*
Y130500D02*
Y174500D01*
X316500Y159500D02*
Y178000D01*
X311500Y183000D02*
X316500Y178000D01*
X297500Y172000D02*
X303500D01*
X296525Y159161D02*
Y160839D01*
X296500Y133500D02*
Y159136D01*
Y160864D02*
X296525Y160839D01*
X296500Y163000D02*
X301500Y168000D01*
X296500Y160864D02*
Y163000D01*
Y159136D02*
X296525Y159161D01*
X319000Y164500D02*
Y178500D01*
X299525Y169975D02*
X303025D01*
X304000Y166500D02*
Y169000D01*
X303025Y169975D02*
X304000Y169000D01*
X299500Y170000D02*
X299525Y169975D01*
X255500Y133000D02*
X261000D01*
X276000Y148000D01*
X236500Y161000D02*
Y173500D01*
X239000Y161000D02*
Y182000D01*
X252500Y147500D02*
X259000D01*
X239000Y161000D02*
X252500Y147500D01*
X271500Y158603D02*
X274008Y161111D01*
X277500Y128500D02*
X283000D01*
X289000Y134500D02*
Y146500D01*
X283000Y128500D02*
X289000Y134500D01*
X273000Y124000D02*
X277500Y128500D01*
X273000Y122500D02*
Y124000D01*
X286000Y149500D02*
X289000Y146500D01*
X267000Y136000D02*
X271500D01*
X278000Y142500D01*
Y153500D01*
X267500Y133500D02*
X272500D01*
X264000Y130000D02*
X267500Y133500D01*
X272500D02*
X280000Y141000D01*
Y151500D01*
X268000Y131000D02*
X273500D01*
X265500Y128500D02*
X268000Y131000D01*
X273500D02*
X282000Y139500D01*
Y149500D01*
X274500Y128500D02*
X284000Y138000D01*
X268500Y128500D02*
X274500D01*
X264000Y124000D02*
X268500Y128500D01*
X264000Y122500D02*
Y124000D01*
X284000Y138000D02*
Y151500D01*
X247500Y190000D02*
X255500Y182000D01*
X307500Y198000D02*
X319000Y186500D01*
X297859Y198000D02*
X307500D01*
X294205Y194705D02*
Y196705D01*
X294000Y194500D02*
X294205Y194705D01*
Y196705D02*
X297500Y200000D01*
X310500Y204000D02*
X315000Y208500D01*
X296500Y204000D02*
X310500D01*
X289500Y197000D02*
X296500Y204000D01*
X296000Y206000D02*
X309500D01*
X295500Y208000D02*
X307000D01*
X276000Y148000D02*
Y151500D01*
X265000Y146000D02*
Y149500D01*
X255500Y165500D02*
Y182000D01*
X259000Y147500D02*
X261000Y149500D01*
X248500Y154000D02*
X253000Y149500D01*
X248500Y154000D02*
Y158500D01*
X253000Y149500D02*
X257000D01*
X248500Y158500D02*
X255500Y165500D01*
X250500Y154515D02*
X253257Y151758D01*
X254000Y153500D02*
X257000D01*
X252500Y155000D02*
X254000Y153500D01*
X254742Y151758D02*
X255000Y151500D01*
X253257Y151758D02*
X254742D01*
X299000Y177000D02*
X308500D01*
X313000Y145500D02*
Y175500D01*
X297000Y179000D02*
X309500D01*
X313000Y175500D01*
X315000Y152500D02*
Y176500D01*
X310500Y181000D02*
X315000Y176500D01*
X299000Y181000D02*
X310500D01*
X297000Y183000D02*
X311500D01*
X303000Y194500D02*
X319000Y178500D01*
X298000Y194500D02*
X303000D01*
X296025Y196166D02*
X297859Y198000D01*
X296025Y192525D02*
Y196166D01*
X292025Y197025D02*
X297000Y202000D01*
X285500Y194500D02*
Y198000D01*
X295500Y208000D01*
X287500Y197500D02*
X296000Y206000D01*
X287500Y192500D02*
Y197500D01*
X289500Y194500D02*
Y197000D01*
X292025Y193390D02*
Y197025D01*
X291500Y192865D02*
X292025Y193390D01*
X291500Y192500D02*
Y192865D01*
X296000Y192500D02*
X296025Y192525D01*
X241500Y164500D02*
Y169500D01*
X246500Y175500D02*
Y180500D01*
Y164500D02*
Y171500D01*
X251500Y173500D02*
Y180500D01*
X17500Y241500D02*
X18500Y240500D01*
X95500Y320500D02*
Y327500D01*
X90000Y315000D02*
X95500Y320500D01*
X85000Y315000D02*
X90000D01*
X73500Y303500D02*
X85000Y315000D01*
X103500Y319500D02*
Y327500D01*
X97000Y313000D02*
X103500Y319500D01*
X73500Y297500D02*
Y303500D01*
X99500Y311000D02*
X105000Y316500D01*
X113000D02*
X116000Y313500D01*
X105000Y316500D02*
X113000D01*
X116000Y313500D02*
X117500D01*
X105000D02*
X108000D01*
X116000Y305500D01*
X117500D01*
X87500Y305000D02*
X98000D01*
X111000Y286500D02*
Y292000D01*
X98000Y305000D02*
X111000Y292000D01*
X87000Y307000D02*
X98500D01*
X114500Y291000D01*
X117500D01*
X111000Y278500D02*
Y284000D01*
X109000Y286000D02*
Y291500D01*
Y286000D02*
X111000Y284000D01*
X115500Y282000D02*
X117500D01*
X111000Y286500D02*
X115500Y282000D01*
X116500Y273000D02*
X117500D01*
X111000Y278500D02*
X116500Y273000D01*
X116000Y265500D02*
X117500D01*
X112997Y265503D02*
X115997D01*
X109000Y269500D02*
X112997Y265503D01*
X116000Y265500D02*
X117500Y264000D01*
X115997Y265503D02*
X116000Y265500D01*
X112997Y258003D02*
X116997D01*
X106500Y264500D02*
X112997Y258003D01*
X116997D02*
X117500Y257500D01*
X113000Y249500D02*
X117500D01*
X105000Y257500D02*
X113000Y249500D01*
X103000Y250500D02*
X112000Y241500D01*
X118068D01*
X101000Y235500D02*
X103500Y233000D01*
Y227249D02*
Y233000D01*
X95500Y231151D02*
X96235Y230416D01*
X95500Y231151D02*
Y275000D01*
X93500Y277000D02*
X95500Y275000D01*
X96235Y230416D02*
X96916D01*
X84562Y234062D02*
X87562D01*
X89500Y236000D02*
Y267000D01*
X87562Y234062D02*
X89500Y236000D01*
X79500Y227500D02*
Y229000D01*
X84562Y234062D01*
X89500Y267000D02*
X94000Y271500D01*
X71500Y227500D02*
Y229000D01*
X81000Y238500D02*
X86500D01*
X71500Y229000D02*
X81000Y238500D01*
X52000Y233500D02*
X55500D01*
X47500Y227500D02*
Y229000D01*
X52000Y233500D01*
X45500Y235000D02*
X54000D01*
X39500Y229000D02*
X45500Y235000D01*
X39500Y229000D02*
Y229500D01*
Y227500D02*
Y229000D01*
Y230003D02*
Y231000D01*
Y229500D02*
Y230003D01*
X38503D02*
X39500D01*
X38503D02*
X39500Y231000D01*
X42500Y238500D02*
X44500Y236500D01*
X31503Y232003D02*
X38000Y238500D01*
X42500D01*
X31503Y227503D02*
Y232003D01*
X31500Y227500D02*
X31503Y227503D01*
X18500Y240500D02*
X43000D01*
X45500Y238000D01*
X23000Y244000D02*
X24500Y242500D01*
X30000D02*
X32000Y244500D01*
X24500Y242500D02*
X30000D01*
X23000Y244000D02*
Y246000D01*
X19500Y249500D02*
X23000Y246000D01*
X17500Y249500D02*
X19500D01*
X19000Y265500D02*
X23000Y261500D01*
Y260000D02*
Y261500D01*
Y260000D02*
X37000Y246000D01*
X19000Y273500D02*
X25000Y267500D01*
Y260500D02*
X30002Y255498D01*
X25000Y260500D02*
Y267500D01*
X17500Y265500D02*
X19000D01*
X37000Y246000D02*
X55000D01*
X17500Y273500D02*
X19000D01*
X23500Y281500D02*
X26500Y278500D01*
X17500Y281500D02*
X23500D01*
X26500Y289500D02*
X29000Y287000D01*
X17500Y289500D02*
X26500D01*
X21500Y295000D02*
X37500D01*
X17500Y297500D02*
X19000D01*
X21500Y295000D01*
X30500Y305500D02*
X47500Y288500D01*
X17074Y305500D02*
X30500D01*
X24429Y313571D02*
X49500Y288500D01*
Y270500D02*
Y288500D01*
X17429Y313571D02*
X24429D01*
X36000Y306000D02*
Y322500D01*
X39500Y326000D02*
Y327500D01*
X36000Y322500D02*
X39500Y326000D01*
X31500Y308500D02*
X51500Y288500D01*
X31500Y308500D02*
Y327500D01*
X44500Y236500D02*
X52500D01*
X57000Y241000D01*
X54720Y258780D02*
X57500Y256000D01*
Y251000D02*
Y256000D01*
X54000Y247500D02*
X57500Y251000D01*
X50720Y258780D02*
X54720D01*
X47000Y262500D02*
X50720Y258780D01*
X38500Y247500D02*
X54000D01*
X37000Y249000D02*
X38500Y247500D01*
X55000Y246000D02*
X61500Y252500D01*
X53000Y249000D02*
X55000Y251000D01*
X34502Y255498D02*
X41000Y249000D01*
X53000D01*
X61500Y252500D02*
Y263603D01*
X32000Y244500D02*
X55500D01*
X64000Y253000D02*
Y254500D01*
X55500Y244500D02*
X64000Y253000D01*
X26500Y266000D02*
X42000Y250500D01*
X51000D02*
X53000Y252500D01*
X42000Y250500D02*
X51000D01*
X30002Y255498D02*
X34502D01*
X36000Y306000D02*
X53500Y288500D01*
Y269000D02*
Y288500D01*
X51500Y270500D02*
Y288500D01*
X45000Y264000D02*
X51500Y270500D01*
X47000Y262500D02*
X53500Y269000D01*
X45000Y260500D02*
Y264000D01*
X42500Y263500D02*
X49500Y270500D01*
X42500Y260000D02*
Y263500D01*
X40500D02*
X47500Y270500D01*
Y288500D01*
X40500Y259515D02*
Y263500D01*
X98500Y282000D02*
X101000Y279500D01*
Y235500D02*
Y279500D01*
X106500Y264500D02*
Y283000D01*
X101500Y288000D02*
X106500Y283000D01*
X87500Y277000D02*
X93500D01*
X86525Y264161D02*
Y265839D01*
X86500Y238500D02*
Y264136D01*
Y265864D02*
X86525Y265839D01*
X86500Y268000D02*
X91500Y273000D01*
X86500Y265864D02*
Y268000D01*
Y264136D02*
X86525Y264161D01*
X109000Y269500D02*
Y283500D01*
X89525Y274975D02*
X93025D01*
X94000Y271500D02*
Y274000D01*
X93025Y274975D02*
X94000Y274000D01*
X89500Y275000D02*
X89525Y274975D01*
X45500Y238000D02*
X51000D01*
X66000Y253000D01*
X26500Y266000D02*
Y278500D01*
X29000Y266000D02*
Y287000D01*
X42500Y252500D02*
X49000D01*
X29000Y266000D02*
X42500Y252500D01*
X61500Y263603D02*
X64008Y266111D01*
X67500Y233500D02*
X73000D01*
X79000Y239500D02*
Y251500D01*
X73000Y233500D02*
X79000Y239500D01*
X63000Y229000D02*
X67500Y233500D01*
X63000Y227500D02*
Y229000D01*
X76000Y254500D02*
X79000Y251500D01*
X57000Y241000D02*
X61500D01*
X68000Y247500D01*
Y258500D01*
X57500Y238500D02*
X62500D01*
X54000Y235000D02*
X57500Y238500D01*
X62500D02*
X70000Y246000D01*
Y256500D01*
X58000Y236000D02*
X63500D01*
X55500Y233500D02*
X58000Y236000D01*
X63500D02*
X72000Y244500D01*
Y254500D01*
X64500Y233500D02*
X74000Y243000D01*
X58500Y233500D02*
X64500D01*
X54000Y229000D02*
X58500Y233500D01*
X54000Y227500D02*
Y229000D01*
X74000Y243000D02*
Y256500D01*
X37500Y295000D02*
X45500Y287000D01*
X97500Y303000D02*
X109000Y291500D01*
X87859Y303000D02*
X97500D01*
X84205Y299705D02*
Y301705D01*
X84000Y299500D02*
X84205Y299705D01*
Y301705D02*
X87500Y305000D01*
X100500Y309000D02*
X105000Y313500D01*
X86500Y309000D02*
X100500D01*
X79500Y302000D02*
X86500Y309000D01*
X86000Y311000D02*
X99500D01*
X85500Y313000D02*
X97000D01*
X66000Y253000D02*
Y256500D01*
X55000Y251000D02*
Y254500D01*
X45500Y270500D02*
Y287000D01*
X49000Y252500D02*
X51000Y254500D01*
X38500Y259000D02*
X43000Y254500D01*
X38500Y259000D02*
Y263500D01*
X43000Y254500D02*
X47000D01*
X38500Y263500D02*
X45500Y270500D01*
X40500Y259515D02*
X43257Y256758D01*
X44000Y258500D02*
X47000D01*
X42500Y260000D02*
X44000Y258500D01*
X44742Y256758D02*
X45000Y256500D01*
X43257Y256758D02*
X44742D01*
X89000Y282000D02*
X98500D01*
X103000Y250500D02*
Y280500D01*
X87000Y284000D02*
X99500D01*
X103000Y280500D01*
X105000Y257500D02*
Y281500D01*
X100500Y286000D02*
X105000Y281500D01*
X89000Y286000D02*
X100500D01*
X87000Y288000D02*
X101500D01*
X93000Y299500D02*
X109000Y283500D01*
X88000Y299500D02*
X93000D01*
X86025Y301166D02*
X87859Y303000D01*
X86025Y297525D02*
Y301166D01*
X82025Y302025D02*
X87000Y307000D01*
X75500Y299500D02*
Y303000D01*
X85500Y313000D01*
X77500Y302500D02*
X86000Y311000D01*
X77500Y297500D02*
Y302500D01*
X79500Y299500D02*
Y302000D01*
X82025Y298390D02*
Y302025D01*
X81500Y297865D02*
X82025Y298390D01*
X81500Y297500D02*
Y297865D01*
X86000Y297500D02*
X86025Y297525D01*
X31500Y269500D02*
Y274500D01*
X36500Y280500D02*
Y285500D01*
Y269500D02*
Y276500D01*
X41500Y278500D02*
Y285500D01*
X122500Y241500D02*
X123500Y240500D01*
X200500Y320500D02*
Y327500D01*
X195000Y315000D02*
X200500Y320500D01*
X190000Y315000D02*
X195000D01*
X178500Y303500D02*
X190000Y315000D01*
X208500Y319500D02*
Y327500D01*
X202000Y313000D02*
X208500Y319500D01*
X178500Y297500D02*
Y303500D01*
X204500Y311000D02*
X210000Y316500D01*
X218000D02*
X221000Y313500D01*
X210000Y316500D02*
X218000D01*
X221000Y313500D02*
X222500D01*
X210000D02*
X213000D01*
X221000Y305500D01*
X222500D01*
X192500Y305000D02*
X203000D01*
X216000Y286500D02*
Y292000D01*
X203000Y305000D02*
X216000Y292000D01*
X192000Y307000D02*
X203500D01*
X219500Y291000D01*
X222500D01*
X216000Y278500D02*
Y284000D01*
X214000Y286000D02*
Y291500D01*
Y286000D02*
X216000Y284000D01*
X220500Y282000D02*
X222500D01*
X216000Y286500D02*
X220500Y282000D01*
X221500Y273000D02*
X222500D01*
X216000Y278500D02*
X221500Y273000D01*
X221000Y265500D02*
X222500D01*
X217997Y265503D02*
X220997D01*
X214000Y269500D02*
X217997Y265503D01*
X221000Y265500D02*
X222500Y264000D01*
X220997Y265503D02*
X221000Y265500D01*
X217997Y258003D02*
X221997D01*
X211500Y264500D02*
X217997Y258003D01*
X221997D02*
X222500Y257500D01*
X218000Y249500D02*
X222500D01*
X210000Y257500D02*
X218000Y249500D01*
X208000Y250500D02*
X217000Y241500D01*
X223068D01*
X206000Y235500D02*
X208500Y233000D01*
Y227249D02*
Y233000D01*
X200500Y231151D02*
X201235Y230416D01*
X200500Y231151D02*
Y275000D01*
X198500Y277000D02*
X200500Y275000D01*
X201235Y230416D02*
X201916D01*
X189562Y234062D02*
X192562D01*
X194500Y236000D02*
Y267000D01*
X192562Y234062D02*
X194500Y236000D01*
X184500Y227500D02*
Y229000D01*
X189562Y234062D01*
X194500Y267000D02*
X199000Y271500D01*
X176500Y227500D02*
Y229000D01*
X186000Y238500D02*
X191500D01*
X176500Y229000D02*
X186000Y238500D01*
X157000Y233500D02*
X160500D01*
X152500Y227500D02*
Y229000D01*
X157000Y233500D01*
X150500Y235000D02*
X159000D01*
X144500Y229000D02*
X150500Y235000D01*
X144500Y229000D02*
Y229500D01*
Y227500D02*
Y229000D01*
Y230003D02*
Y231000D01*
Y229500D02*
Y230003D01*
X143503D02*
X144500D01*
X143503D02*
X144500Y231000D01*
X147500Y238500D02*
X149500Y236500D01*
X136503Y232003D02*
X143000Y238500D01*
X147500D01*
X136503Y227503D02*
Y232003D01*
X136500Y227500D02*
X136503Y227503D01*
X123500Y240500D02*
X148000D01*
X150500Y238000D01*
X128000Y244000D02*
X129500Y242500D01*
X135000D02*
X137000Y244500D01*
X129500Y242500D02*
X135000D01*
X128000Y244000D02*
Y246000D01*
X124500Y249500D02*
X128000Y246000D01*
X122500Y249500D02*
X124500D01*
X124000Y265500D02*
X128000Y261500D01*
Y260000D02*
Y261500D01*
Y260000D02*
X142000Y246000D01*
X124000Y273500D02*
X130000Y267500D01*
Y260500D02*
X135002Y255498D01*
X130000Y260500D02*
Y267500D01*
X122500Y265500D02*
X124000D01*
X142000Y246000D02*
X160000D01*
X122500Y273500D02*
X124000D01*
X128500Y281500D02*
X131500Y278500D01*
X122500Y281500D02*
X128500D01*
X131500Y289500D02*
X134000Y287000D01*
X122500Y289500D02*
X131500D01*
X126500Y295000D02*
X142500D01*
X122500Y297500D02*
X124000D01*
X126500Y295000D01*
X135500Y305500D02*
X152500Y288500D01*
X122074Y305500D02*
X135500D01*
X129429Y313571D02*
X154500Y288500D01*
Y270500D02*
Y288500D01*
X122429Y313571D02*
X129429D01*
X141000Y306000D02*
Y322500D01*
X144500Y326000D02*
Y327500D01*
X141000Y322500D02*
X144500Y326000D01*
X136500Y308500D02*
X156500Y288500D01*
X136500Y308500D02*
Y327500D01*
X149500Y236500D02*
X157500D01*
X162000Y241000D01*
X159720Y258780D02*
X162500Y256000D01*
Y251000D02*
Y256000D01*
X159000Y247500D02*
X162500Y251000D01*
X155720Y258780D02*
X159720D01*
X152000Y262500D02*
X155720Y258780D01*
X143500Y247500D02*
X159000D01*
X142000Y249000D02*
X143500Y247500D01*
X160000Y246000D02*
X166500Y252500D01*
X158000Y249000D02*
X160000Y251000D01*
X139502Y255498D02*
X146000Y249000D01*
X158000D01*
X166500Y252500D02*
Y263603D01*
X137000Y244500D02*
X160500D01*
X169000Y253000D02*
Y254500D01*
X160500Y244500D02*
X169000Y253000D01*
X131500Y266000D02*
X147000Y250500D01*
X156000D02*
X158000Y252500D01*
X147000Y250500D02*
X156000D01*
X135002Y255498D02*
X139502D01*
X141000Y306000D02*
X158500Y288500D01*
Y269000D02*
Y288500D01*
X156500Y270500D02*
Y288500D01*
X150000Y264000D02*
X156500Y270500D01*
X152000Y262500D02*
X158500Y269000D01*
X150000Y260500D02*
Y264000D01*
X147500Y263500D02*
X154500Y270500D01*
X147500Y260000D02*
Y263500D01*
X145500D02*
X152500Y270500D01*
Y288500D01*
X145500Y259515D02*
Y263500D01*
X203500Y282000D02*
X206000Y279500D01*
Y235500D02*
Y279500D01*
X211500Y264500D02*
Y283000D01*
X206500Y288000D02*
X211500Y283000D01*
X192500Y277000D02*
X198500D01*
X191525Y264161D02*
Y265839D01*
X191500Y238500D02*
Y264136D01*
Y265864D02*
X191525Y265839D01*
X191500Y268000D02*
X196500Y273000D01*
X191500Y265864D02*
Y268000D01*
Y264136D02*
X191525Y264161D01*
X214000Y269500D02*
Y283500D01*
X194525Y274975D02*
X198025D01*
X199000Y271500D02*
Y274000D01*
X198025Y274975D02*
X199000Y274000D01*
X194500Y275000D02*
X194525Y274975D01*
X150500Y238000D02*
X156000D01*
X171000Y253000D01*
X131500Y266000D02*
Y278500D01*
X134000Y266000D02*
Y287000D01*
X147500Y252500D02*
X154000D01*
X134000Y266000D02*
X147500Y252500D01*
X166500Y263603D02*
X169008Y266111D01*
X172500Y233500D02*
X178000D01*
X184000Y239500D02*
Y251500D01*
X178000Y233500D02*
X184000Y239500D01*
X168000Y229000D02*
X172500Y233500D01*
X168000Y227500D02*
Y229000D01*
X181000Y254500D02*
X184000Y251500D01*
X162000Y241000D02*
X166500D01*
X173000Y247500D01*
Y258500D01*
X162500Y238500D02*
X167500D01*
X159000Y235000D02*
X162500Y238500D01*
X167500D02*
X175000Y246000D01*
Y256500D01*
X163000Y236000D02*
X168500D01*
X160500Y233500D02*
X163000Y236000D01*
X168500D02*
X177000Y244500D01*
Y254500D01*
X169500Y233500D02*
X179000Y243000D01*
X163500Y233500D02*
X169500D01*
X159000Y229000D02*
X163500Y233500D01*
X159000Y227500D02*
Y229000D01*
X179000Y243000D02*
Y256500D01*
X142500Y295000D02*
X150500Y287000D01*
X202500Y303000D02*
X214000Y291500D01*
X192859Y303000D02*
X202500D01*
X189205Y299705D02*
Y301705D01*
X189000Y299500D02*
X189205Y299705D01*
Y301705D02*
X192500Y305000D01*
X205500Y309000D02*
X210000Y313500D01*
X191500Y309000D02*
X205500D01*
X184500Y302000D02*
X191500Y309000D01*
X191000Y311000D02*
X204500D01*
X190500Y313000D02*
X202000D01*
X171000Y253000D02*
Y256500D01*
X160000Y251000D02*
Y254500D01*
X150500Y270500D02*
Y287000D01*
X154000Y252500D02*
X156000Y254500D01*
X143500Y259000D02*
X148000Y254500D01*
X143500Y259000D02*
Y263500D01*
X148000Y254500D02*
X152000D01*
X143500Y263500D02*
X150500Y270500D01*
X145500Y259515D02*
X148257Y256758D01*
X149000Y258500D02*
X152000D01*
X147500Y260000D02*
X149000Y258500D01*
X149742Y256758D02*
X150000Y256500D01*
X148257Y256758D02*
X149742D01*
X194000Y282000D02*
X203500D01*
X208000Y250500D02*
Y280500D01*
X192000Y284000D02*
X204500D01*
X208000Y280500D01*
X210000Y257500D02*
Y281500D01*
X205500Y286000D02*
X210000Y281500D01*
X194000Y286000D02*
X205500D01*
X192000Y288000D02*
X206500D01*
X198000Y299500D02*
X214000Y283500D01*
X193000Y299500D02*
X198000D01*
X191025Y301166D02*
X192859Y303000D01*
X191025Y297525D02*
Y301166D01*
X187025Y302025D02*
X192000Y307000D01*
X180500Y299500D02*
Y303000D01*
X190500Y313000D01*
X182500Y302500D02*
X191000Y311000D01*
X182500Y297500D02*
Y302500D01*
X184500Y299500D02*
Y302000D01*
X187025Y298390D02*
Y302025D01*
X186500Y297865D02*
X187025Y298390D01*
X186500Y297500D02*
Y297865D01*
X191000Y297500D02*
X191025Y297525D01*
X136500Y269500D02*
Y274500D01*
X141500Y280500D02*
Y285500D01*
Y269500D02*
Y276500D01*
X146500Y278500D02*
Y285500D01*
X227500Y241500D02*
X228500Y240500D01*
X305500Y320500D02*
Y327500D01*
X300000Y315000D02*
X305500Y320500D01*
X295000Y315000D02*
X300000D01*
X283500Y303500D02*
X295000Y315000D01*
X313500Y319500D02*
Y327500D01*
X307000Y313000D02*
X313500Y319500D01*
X283500Y297500D02*
Y303500D01*
X309500Y311000D02*
X315000Y316500D01*
X323000D02*
X326000Y313500D01*
X315000Y316500D02*
X323000D01*
X326000Y313500D02*
X327500D01*
X315000D02*
X318000D01*
X326000Y305500D01*
X327500D01*
X297500Y305000D02*
X308000D01*
X321000Y286500D02*
Y292000D01*
X308000Y305000D02*
X321000Y292000D01*
X297000Y307000D02*
X308500D01*
X324500Y291000D01*
X327500D01*
X321000Y278500D02*
Y284000D01*
X319000Y286000D02*
Y291500D01*
Y286000D02*
X321000Y284000D01*
X325500Y282000D02*
X327500D01*
X321000Y286500D02*
X325500Y282000D01*
X326500Y273000D02*
X327500D01*
X321000Y278500D02*
X326500Y273000D01*
X326000Y265500D02*
X327500D01*
X322997Y265503D02*
X325997D01*
X319000Y269500D02*
X322997Y265503D01*
X326000Y265500D02*
X327500Y264000D01*
X325997Y265503D02*
X326000Y265500D01*
X322997Y258003D02*
X326997D01*
X316500Y264500D02*
X322997Y258003D01*
X326997D02*
X327500Y257500D01*
X323000Y249500D02*
X327500D01*
X315000Y257500D02*
X323000Y249500D01*
X313000Y250500D02*
X322000Y241500D01*
X328068D01*
X311000Y235500D02*
X313500Y233000D01*
Y227249D02*
Y233000D01*
X305500Y231151D02*
X306235Y230416D01*
X305500Y231151D02*
Y275000D01*
X303500Y277000D02*
X305500Y275000D01*
X306235Y230416D02*
X306916D01*
X294562Y234062D02*
X297562D01*
X299500Y236000D02*
Y267000D01*
X297562Y234062D02*
X299500Y236000D01*
X289500Y227500D02*
Y229000D01*
X294562Y234062D01*
X299500Y267000D02*
X304000Y271500D01*
X281500Y227500D02*
Y229000D01*
X291000Y238500D02*
X296500D01*
X281500Y229000D02*
X291000Y238500D01*
X262000Y233500D02*
X265500D01*
X257500Y227500D02*
Y229000D01*
X262000Y233500D01*
X255500Y235000D02*
X264000D01*
X249500Y229000D02*
X255500Y235000D01*
X249500Y229000D02*
Y229500D01*
Y227500D02*
Y229000D01*
Y230003D02*
Y231000D01*
Y229500D02*
Y230003D01*
X248503D02*
X249500D01*
X248503D02*
X249500Y231000D01*
X252500Y238500D02*
X254500Y236500D01*
X241503Y232003D02*
X248000Y238500D01*
X252500D01*
X241503Y227503D02*
Y232003D01*
X241500Y227500D02*
X241503Y227503D01*
X228500Y240500D02*
X253000D01*
X255500Y238000D01*
X233000Y244000D02*
X234500Y242500D01*
X240000D02*
X242000Y244500D01*
X234500Y242500D02*
X240000D01*
X233000Y244000D02*
Y246000D01*
X229500Y249500D02*
X233000Y246000D01*
X227500Y249500D02*
X229500D01*
X229000Y265500D02*
X233000Y261500D01*
Y260000D02*
Y261500D01*
Y260000D02*
X247000Y246000D01*
X229000Y273500D02*
X235000Y267500D01*
Y260500D02*
X240002Y255498D01*
X235000Y260500D02*
Y267500D01*
X227500Y265500D02*
X229000D01*
X247000Y246000D02*
X265000D01*
X227500Y273500D02*
X229000D01*
X233500Y281500D02*
X236500Y278500D01*
X227500Y281500D02*
X233500D01*
X236500Y289500D02*
X239000Y287000D01*
X227500Y289500D02*
X236500D01*
X231500Y295000D02*
X247500D01*
X227500Y297500D02*
X229000D01*
X231500Y295000D01*
X240500Y305500D02*
X257500Y288500D01*
X227074Y305500D02*
X240500D01*
X234429Y313571D02*
X259500Y288500D01*
Y270500D02*
Y288500D01*
X227429Y313571D02*
X234429D01*
X246000Y306000D02*
Y322500D01*
X249500Y326000D02*
Y327500D01*
X246000Y322500D02*
X249500Y326000D01*
X241500Y308500D02*
X261500Y288500D01*
X241500Y308500D02*
Y327500D01*
X254500Y236500D02*
X262500D01*
X267000Y241000D01*
X264720Y258780D02*
X267500Y256000D01*
Y251000D02*
Y256000D01*
X264000Y247500D02*
X267500Y251000D01*
X260720Y258780D02*
X264720D01*
X257000Y262500D02*
X260720Y258780D01*
X248500Y247500D02*
X264000D01*
X247000Y249000D02*
X248500Y247500D01*
X265000Y246000D02*
X271500Y252500D01*
X263000Y249000D02*
X265000Y251000D01*
X244502Y255498D02*
X251000Y249000D01*
X263000D01*
X271500Y252500D02*
Y263603D01*
X242000Y244500D02*
X265500D01*
X274000Y253000D02*
Y254500D01*
X265500Y244500D02*
X274000Y253000D01*
X236500Y266000D02*
X252000Y250500D01*
X261000D02*
X263000Y252500D01*
X252000Y250500D02*
X261000D01*
X240002Y255498D02*
X244502D01*
X246000Y306000D02*
X263500Y288500D01*
Y269000D02*
Y288500D01*
X261500Y270500D02*
Y288500D01*
X255000Y264000D02*
X261500Y270500D01*
X257000Y262500D02*
X263500Y269000D01*
X255000Y260500D02*
Y264000D01*
X252500Y263500D02*
X259500Y270500D01*
X252500Y260000D02*
Y263500D01*
X250500D02*
X257500Y270500D01*
Y288500D01*
X250500Y259515D02*
Y263500D01*
X308500Y282000D02*
X311000Y279500D01*
Y235500D02*
Y279500D01*
X316500Y264500D02*
Y283000D01*
X311500Y288000D02*
X316500Y283000D01*
X297500Y277000D02*
X303500D01*
X296525Y264161D02*
Y265839D01*
X296500Y238500D02*
Y264136D01*
Y265864D02*
X296525Y265839D01*
X296500Y268000D02*
X301500Y273000D01*
X296500Y265864D02*
Y268000D01*
Y264136D02*
X296525Y264161D01*
X319000Y269500D02*
Y283500D01*
X299525Y274975D02*
X303025D01*
X304000Y271500D02*
Y274000D01*
X303025Y274975D02*
X304000Y274000D01*
X299500Y275000D02*
X299525Y274975D01*
X255500Y238000D02*
X261000D01*
X276000Y253000D01*
X236500Y266000D02*
Y278500D01*
X239000Y266000D02*
Y287000D01*
X252500Y252500D02*
X259000D01*
X239000Y266000D02*
X252500Y252500D01*
X271500Y263603D02*
X274008Y266111D01*
X277500Y233500D02*
X283000D01*
X289000Y239500D02*
Y251500D01*
X283000Y233500D02*
X289000Y239500D01*
X273000Y229000D02*
X277500Y233500D01*
X273000Y227500D02*
Y229000D01*
X286000Y254500D02*
X289000Y251500D01*
X267000Y241000D02*
X271500D01*
X278000Y247500D01*
Y258500D01*
X267500Y238500D02*
X272500D01*
X264000Y235000D02*
X267500Y238500D01*
X272500D02*
X280000Y246000D01*
Y256500D01*
X268000Y236000D02*
X273500D01*
X265500Y233500D02*
X268000Y236000D01*
X273500D02*
X282000Y244500D01*
Y254500D01*
X274500Y233500D02*
X284000Y243000D01*
X268500Y233500D02*
X274500D01*
X264000Y229000D02*
X268500Y233500D01*
X264000Y227500D02*
Y229000D01*
X284000Y243000D02*
Y256500D01*
X247500Y295000D02*
X255500Y287000D01*
X307500Y303000D02*
X319000Y291500D01*
X297859Y303000D02*
X307500D01*
X294205Y299705D02*
Y301705D01*
X294000Y299500D02*
X294205Y299705D01*
Y301705D02*
X297500Y305000D01*
X310500Y309000D02*
X315000Y313500D01*
X296500Y309000D02*
X310500D01*
X289500Y302000D02*
X296500Y309000D01*
X296000Y311000D02*
X309500D01*
X295500Y313000D02*
X307000D01*
X276000Y253000D02*
Y256500D01*
X265000Y251000D02*
Y254500D01*
X255500Y270500D02*
Y287000D01*
X259000Y252500D02*
X261000Y254500D01*
X248500Y259000D02*
X253000Y254500D01*
X248500Y259000D02*
Y263500D01*
X253000Y254500D02*
X257000D01*
X248500Y263500D02*
X255500Y270500D01*
X250500Y259515D02*
X253257Y256758D01*
X254000Y258500D02*
X257000D01*
X252500Y260000D02*
X254000Y258500D01*
X254742Y256758D02*
X255000Y256500D01*
X253257Y256758D02*
X254742D01*
X299000Y282000D02*
X308500D01*
X313000Y250500D02*
Y280500D01*
X297000Y284000D02*
X309500D01*
X313000Y280500D01*
X315000Y257500D02*
Y281500D01*
X310500Y286000D02*
X315000Y281500D01*
X299000Y286000D02*
X310500D01*
X297000Y288000D02*
X311500D01*
X303000Y299500D02*
X319000Y283500D01*
X298000Y299500D02*
X303000D01*
X296025Y301166D02*
X297859Y303000D01*
X296025Y297525D02*
Y301166D01*
X292025Y302025D02*
X297000Y307000D01*
X285500Y299500D02*
Y303000D01*
X295500Y313000D01*
X287500Y302500D02*
X296000Y311000D01*
X287500Y297500D02*
Y302500D01*
X289500Y299500D02*
Y302000D01*
X292025Y298390D02*
Y302025D01*
X291500Y297865D02*
X292025Y298390D01*
X291500Y297500D02*
Y297865D01*
X296000Y297500D02*
X296025Y297525D01*
X241500Y269500D02*
Y274500D01*
X246500Y280500D02*
Y285500D01*
Y269500D02*
Y276500D01*
X251500Y278500D02*
Y285500D01*
D41*
X17500Y31500D02*
D03*
Y39500D02*
D03*
Y55500D02*
D03*
Y63500D02*
D03*
Y71500D02*
D03*
Y79500D02*
D03*
Y87500D02*
D03*
Y95500D02*
D03*
Y103500D02*
D03*
X117500D02*
D03*
Y95500D02*
D03*
Y79500D02*
D03*
Y71500D02*
D03*
Y63500D02*
D03*
Y55500D02*
D03*
Y47500D02*
D03*
Y39500D02*
D03*
Y31500D02*
D03*
X122500D02*
D03*
Y39500D02*
D03*
Y55500D02*
D03*
Y63500D02*
D03*
Y71500D02*
D03*
Y79500D02*
D03*
Y87500D02*
D03*
Y95500D02*
D03*
Y103500D02*
D03*
X222500D02*
D03*
Y95500D02*
D03*
Y79500D02*
D03*
Y71500D02*
D03*
Y63500D02*
D03*
Y55500D02*
D03*
Y47500D02*
D03*
Y39500D02*
D03*
Y31500D02*
D03*
X227500D02*
D03*
Y39500D02*
D03*
Y55500D02*
D03*
Y63500D02*
D03*
Y71500D02*
D03*
Y79500D02*
D03*
Y87500D02*
D03*
Y95500D02*
D03*
Y103500D02*
D03*
X327500D02*
D03*
Y95500D02*
D03*
Y79500D02*
D03*
Y71500D02*
D03*
Y63500D02*
D03*
Y55500D02*
D03*
Y47500D02*
D03*
Y39500D02*
D03*
Y31500D02*
D03*
X17500Y136500D02*
D03*
Y144500D02*
D03*
Y160500D02*
D03*
Y168500D02*
D03*
Y176500D02*
D03*
Y184500D02*
D03*
Y192500D02*
D03*
Y200500D02*
D03*
Y208500D02*
D03*
X117500D02*
D03*
Y200500D02*
D03*
Y184500D02*
D03*
Y176500D02*
D03*
Y168500D02*
D03*
Y160500D02*
D03*
Y152500D02*
D03*
Y144500D02*
D03*
Y136500D02*
D03*
X122500D02*
D03*
Y144500D02*
D03*
Y160500D02*
D03*
Y168500D02*
D03*
Y176500D02*
D03*
Y184500D02*
D03*
Y192500D02*
D03*
Y200500D02*
D03*
Y208500D02*
D03*
X222500D02*
D03*
Y200500D02*
D03*
Y184500D02*
D03*
Y176500D02*
D03*
Y168500D02*
D03*
Y160500D02*
D03*
Y152500D02*
D03*
Y144500D02*
D03*
Y136500D02*
D03*
X227500D02*
D03*
Y144500D02*
D03*
Y160500D02*
D03*
Y168500D02*
D03*
Y176500D02*
D03*
Y184500D02*
D03*
Y192500D02*
D03*
Y200500D02*
D03*
Y208500D02*
D03*
X327500D02*
D03*
Y200500D02*
D03*
Y184500D02*
D03*
Y176500D02*
D03*
Y168500D02*
D03*
Y160500D02*
D03*
Y152500D02*
D03*
Y144500D02*
D03*
Y136500D02*
D03*
X17500Y241500D02*
D03*
Y249500D02*
D03*
Y265500D02*
D03*
Y273500D02*
D03*
Y281500D02*
D03*
Y289500D02*
D03*
Y297500D02*
D03*
Y305500D02*
D03*
Y313500D02*
D03*
X117500D02*
D03*
Y305500D02*
D03*
Y289500D02*
D03*
Y281500D02*
D03*
Y273500D02*
D03*
Y265500D02*
D03*
Y257500D02*
D03*
Y249500D02*
D03*
Y241500D02*
D03*
X122500D02*
D03*
Y249500D02*
D03*
Y265500D02*
D03*
Y273500D02*
D03*
Y281500D02*
D03*
Y289500D02*
D03*
Y297500D02*
D03*
Y305500D02*
D03*
Y313500D02*
D03*
X222500D02*
D03*
Y305500D02*
D03*
Y289500D02*
D03*
Y281500D02*
D03*
Y273500D02*
D03*
Y265500D02*
D03*
Y257500D02*
D03*
Y249500D02*
D03*
Y241500D02*
D03*
X227500D02*
D03*
Y249500D02*
D03*
Y265500D02*
D03*
Y273500D02*
D03*
Y281500D02*
D03*
Y289500D02*
D03*
Y297500D02*
D03*
Y305500D02*
D03*
Y313500D02*
D03*
X327500D02*
D03*
Y305500D02*
D03*
Y289500D02*
D03*
Y281500D02*
D03*
Y273500D02*
D03*
Y265500D02*
D03*
Y257500D02*
D03*
Y249500D02*
D03*
Y241500D02*
D03*
D42*
X103500Y17500D02*
D03*
X95500D02*
D03*
X79500D02*
D03*
X71500D02*
D03*
X63500D02*
D03*
X55500D02*
D03*
X47500D02*
D03*
X39500D02*
D03*
X31500D02*
D03*
Y117500D02*
D03*
X39500D02*
D03*
X95500D02*
D03*
X103500D02*
D03*
X208500Y17500D02*
D03*
X200500D02*
D03*
X184500D02*
D03*
X176500D02*
D03*
X168500D02*
D03*
X160500D02*
D03*
X152500D02*
D03*
X144500D02*
D03*
X136500D02*
D03*
Y117500D02*
D03*
X144500D02*
D03*
X200500D02*
D03*
X208500D02*
D03*
X313500Y17500D02*
D03*
X305500D02*
D03*
X289500D02*
D03*
X281500D02*
D03*
X273500D02*
D03*
X265500D02*
D03*
X257500D02*
D03*
X249500D02*
D03*
X241500D02*
D03*
Y117500D02*
D03*
X249500D02*
D03*
X305500D02*
D03*
X313500D02*
D03*
X103500Y122500D02*
D03*
X95500D02*
D03*
X79500D02*
D03*
X71500D02*
D03*
X63500D02*
D03*
X55500D02*
D03*
X47500D02*
D03*
X39500D02*
D03*
X31500D02*
D03*
Y222500D02*
D03*
X39500D02*
D03*
X95500D02*
D03*
X103500D02*
D03*
X208500Y122500D02*
D03*
X200500D02*
D03*
X184500D02*
D03*
X176500D02*
D03*
X168500D02*
D03*
X160500D02*
D03*
X152500D02*
D03*
X144500D02*
D03*
X136500D02*
D03*
Y222500D02*
D03*
X144500D02*
D03*
X200500D02*
D03*
X208500D02*
D03*
X313500Y122500D02*
D03*
X305500D02*
D03*
X289500D02*
D03*
X281500D02*
D03*
X273500D02*
D03*
X265500D02*
D03*
X257500D02*
D03*
X249500D02*
D03*
X241500D02*
D03*
Y222500D02*
D03*
X249500D02*
D03*
X305500D02*
D03*
X313500D02*
D03*
X103500Y227500D02*
D03*
X95500D02*
D03*
X79500D02*
D03*
X71500D02*
D03*
X63500D02*
D03*
X55500D02*
D03*
X47500D02*
D03*
X39500D02*
D03*
X31500D02*
D03*
Y327500D02*
D03*
X39500D02*
D03*
X95500D02*
D03*
X103500D02*
D03*
X208500Y227500D02*
D03*
X200500D02*
D03*
X184500D02*
D03*
X176500D02*
D03*
X168500D02*
D03*
X160500D02*
D03*
X152500D02*
D03*
X144500D02*
D03*
X136500D02*
D03*
Y327500D02*
D03*
X144500D02*
D03*
X200500D02*
D03*
X208500D02*
D03*
X313500Y227500D02*
D03*
X305500D02*
D03*
X289500D02*
D03*
X281500D02*
D03*
X273500D02*
D03*
X265500D02*
D03*
X257500D02*
D03*
X249500D02*
D03*
X241500D02*
D03*
Y327500D02*
D03*
X249500D02*
D03*
X305500D02*
D03*
X313500D02*
D03*
D44*
X40500Y110500D02*
D03*
X45000Y50500D02*
D03*
X37000Y39000D02*
D03*
X86500Y28500D02*
D03*
X38500Y107500D02*
D03*
X73000Y110500D02*
D03*
X71000Y105500D02*
D03*
X64008Y56111D02*
D03*
X64000Y44500D02*
D03*
X88000Y89500D02*
D03*
X86000Y87500D02*
D03*
X84000Y89500D02*
D03*
X81500Y87500D02*
D03*
X77500D02*
D03*
X79500Y89500D02*
D03*
X73500Y87500D02*
D03*
X75500Y89500D02*
D03*
X89000Y72000D02*
D03*
X87000Y74000D02*
D03*
Y78000D02*
D03*
X89000Y76000D02*
D03*
X87500Y67000D02*
D03*
X89500Y65000D02*
D03*
X91500Y63000D02*
D03*
X76000Y44500D02*
D03*
X74000Y46500D02*
D03*
X68000Y48500D02*
D03*
X66000Y46500D02*
D03*
X70000D02*
D03*
X72000Y44500D02*
D03*
X55000D02*
D03*
X53000Y42500D02*
D03*
X51000Y44500D02*
D03*
X47000D02*
D03*
X45000Y46500D02*
D03*
X47000Y48500D02*
D03*
Y52500D02*
D03*
X31500Y64500D02*
D03*
X36500Y70500D02*
D03*
Y66500D02*
D03*
X41500Y68500D02*
D03*
X36500Y59500D02*
D03*
X31500D02*
D03*
X36500Y75500D02*
D03*
X41500D02*
D03*
X145500Y110500D02*
D03*
X150000Y50500D02*
D03*
X142000Y39000D02*
D03*
X191500Y28500D02*
D03*
X143500Y107500D02*
D03*
X178000Y110500D02*
D03*
X176000Y105500D02*
D03*
X169008Y56111D02*
D03*
X169000Y44500D02*
D03*
X193000Y89500D02*
D03*
X191000Y87500D02*
D03*
X189000Y89500D02*
D03*
X186500Y87500D02*
D03*
X182500D02*
D03*
X184500Y89500D02*
D03*
X178500Y87500D02*
D03*
X180500Y89500D02*
D03*
X194000Y72000D02*
D03*
X192000Y74000D02*
D03*
Y78000D02*
D03*
X194000Y76000D02*
D03*
X192500Y67000D02*
D03*
X194500Y65000D02*
D03*
X196500Y63000D02*
D03*
X181000Y44500D02*
D03*
X179000Y46500D02*
D03*
X173000Y48500D02*
D03*
X171000Y46500D02*
D03*
X175000D02*
D03*
X177000Y44500D02*
D03*
X160000D02*
D03*
X158000Y42500D02*
D03*
X156000Y44500D02*
D03*
X152000D02*
D03*
X150000Y46500D02*
D03*
X152000Y48500D02*
D03*
Y52500D02*
D03*
X136500Y64500D02*
D03*
X141500Y70500D02*
D03*
Y66500D02*
D03*
X146500Y68500D02*
D03*
X141500Y59500D02*
D03*
X136500D02*
D03*
X141500Y75500D02*
D03*
X146500D02*
D03*
X250500Y110500D02*
D03*
X255000Y50500D02*
D03*
X247000Y39000D02*
D03*
X296500Y28500D02*
D03*
X248500Y107500D02*
D03*
X283000Y110500D02*
D03*
X281000Y105500D02*
D03*
X274008Y56111D02*
D03*
X274000Y44500D02*
D03*
X298000Y89500D02*
D03*
X296000Y87500D02*
D03*
X294000Y89500D02*
D03*
X291500Y87500D02*
D03*
X287500D02*
D03*
X289500Y89500D02*
D03*
X283500Y87500D02*
D03*
X285500Y89500D02*
D03*
X299000Y72000D02*
D03*
X297000Y74000D02*
D03*
Y78000D02*
D03*
X299000Y76000D02*
D03*
X297500Y67000D02*
D03*
X299500Y65000D02*
D03*
X301500Y63000D02*
D03*
X286000Y44500D02*
D03*
X284000Y46500D02*
D03*
X278000Y48500D02*
D03*
X276000Y46500D02*
D03*
X280000D02*
D03*
X282000Y44500D02*
D03*
X265000D02*
D03*
X263000Y42500D02*
D03*
X261000Y44500D02*
D03*
X257000D02*
D03*
X255000Y46500D02*
D03*
X257000Y48500D02*
D03*
Y52500D02*
D03*
X241500Y64500D02*
D03*
X246500Y70500D02*
D03*
Y66500D02*
D03*
X251500Y68500D02*
D03*
X246500Y59500D02*
D03*
X241500D02*
D03*
X246500Y75500D02*
D03*
X251500D02*
D03*
X40500Y215500D02*
D03*
X45000Y155500D02*
D03*
X37000Y144000D02*
D03*
X86500Y133500D02*
D03*
X38500Y212500D02*
D03*
X73000Y215500D02*
D03*
X71000Y210500D02*
D03*
X64008Y161111D02*
D03*
X64000Y149500D02*
D03*
X88000Y194500D02*
D03*
X86000Y192500D02*
D03*
X84000Y194500D02*
D03*
X81500Y192500D02*
D03*
X77500D02*
D03*
X79500Y194500D02*
D03*
X73500Y192500D02*
D03*
X75500Y194500D02*
D03*
X89000Y177000D02*
D03*
X87000Y179000D02*
D03*
Y183000D02*
D03*
X89000Y181000D02*
D03*
X87500Y172000D02*
D03*
X89500Y170000D02*
D03*
X91500Y168000D02*
D03*
X76000Y149500D02*
D03*
X74000Y151500D02*
D03*
X68000Y153500D02*
D03*
X66000Y151500D02*
D03*
X70000D02*
D03*
X72000Y149500D02*
D03*
X55000D02*
D03*
X53000Y147500D02*
D03*
X51000Y149500D02*
D03*
X47000D02*
D03*
X45000Y151500D02*
D03*
X47000Y153500D02*
D03*
Y157500D02*
D03*
X31500Y169500D02*
D03*
X36500Y175500D02*
D03*
Y171500D02*
D03*
X41500Y173500D02*
D03*
X36500Y164500D02*
D03*
X31500D02*
D03*
X36500Y180500D02*
D03*
X41500D02*
D03*
X145500Y215500D02*
D03*
X150000Y155500D02*
D03*
X142000Y144000D02*
D03*
X191500Y133500D02*
D03*
X143500Y212500D02*
D03*
X178000Y215500D02*
D03*
X176000Y210500D02*
D03*
X169008Y161111D02*
D03*
X169000Y149500D02*
D03*
X193000Y194500D02*
D03*
X191000Y192500D02*
D03*
X189000Y194500D02*
D03*
X186500Y192500D02*
D03*
X182500D02*
D03*
X184500Y194500D02*
D03*
X178500Y192500D02*
D03*
X180500Y194500D02*
D03*
X194000Y177000D02*
D03*
X192000Y179000D02*
D03*
Y183000D02*
D03*
X194000Y181000D02*
D03*
X192500Y172000D02*
D03*
X194500Y170000D02*
D03*
X196500Y168000D02*
D03*
X181000Y149500D02*
D03*
X179000Y151500D02*
D03*
X173000Y153500D02*
D03*
X171000Y151500D02*
D03*
X175000D02*
D03*
X177000Y149500D02*
D03*
X160000D02*
D03*
X158000Y147500D02*
D03*
X156000Y149500D02*
D03*
X152000D02*
D03*
X150000Y151500D02*
D03*
X152000Y153500D02*
D03*
Y157500D02*
D03*
X136500Y169500D02*
D03*
X141500Y175500D02*
D03*
Y171500D02*
D03*
X146500Y173500D02*
D03*
X141500Y164500D02*
D03*
X136500D02*
D03*
X141500Y180500D02*
D03*
X146500D02*
D03*
X250500Y215500D02*
D03*
X255000Y155500D02*
D03*
X247000Y144000D02*
D03*
X296500Y133500D02*
D03*
X248500Y212500D02*
D03*
X283000Y215500D02*
D03*
X281000Y210500D02*
D03*
X274008Y161111D02*
D03*
X274000Y149500D02*
D03*
X298000Y194500D02*
D03*
X296000Y192500D02*
D03*
X294000Y194500D02*
D03*
X291500Y192500D02*
D03*
X287500D02*
D03*
X289500Y194500D02*
D03*
X283500Y192500D02*
D03*
X285500Y194500D02*
D03*
X299000Y177000D02*
D03*
X297000Y179000D02*
D03*
Y183000D02*
D03*
X299000Y181000D02*
D03*
X297500Y172000D02*
D03*
X299500Y170000D02*
D03*
X301500Y168000D02*
D03*
X286000Y149500D02*
D03*
X284000Y151500D02*
D03*
X278000Y153500D02*
D03*
X276000Y151500D02*
D03*
X280000D02*
D03*
X282000Y149500D02*
D03*
X265000D02*
D03*
X263000Y147500D02*
D03*
X261000Y149500D02*
D03*
X257000D02*
D03*
X255000Y151500D02*
D03*
X257000Y153500D02*
D03*
Y157500D02*
D03*
X241500Y169500D02*
D03*
X246500Y175500D02*
D03*
Y171500D02*
D03*
X251500Y173500D02*
D03*
X246500Y164500D02*
D03*
X241500D02*
D03*
X246500Y180500D02*
D03*
X251500D02*
D03*
X40500Y320500D02*
D03*
X45000Y260500D02*
D03*
X37000Y249000D02*
D03*
X86500Y238500D02*
D03*
X38500Y317500D02*
D03*
X73000Y320500D02*
D03*
X71000Y315500D02*
D03*
X64008Y266111D02*
D03*
X64000Y254500D02*
D03*
X88000Y299500D02*
D03*
X86000Y297500D02*
D03*
X84000Y299500D02*
D03*
X81500Y297500D02*
D03*
X77500D02*
D03*
X79500Y299500D02*
D03*
X73500Y297500D02*
D03*
X75500Y299500D02*
D03*
X89000Y282000D02*
D03*
X87000Y284000D02*
D03*
Y288000D02*
D03*
X89000Y286000D02*
D03*
X87500Y277000D02*
D03*
X89500Y275000D02*
D03*
X91500Y273000D02*
D03*
X76000Y254500D02*
D03*
X74000Y256500D02*
D03*
X68000Y258500D02*
D03*
X66000Y256500D02*
D03*
X70000D02*
D03*
X72000Y254500D02*
D03*
X55000D02*
D03*
X53000Y252500D02*
D03*
X51000Y254500D02*
D03*
X47000D02*
D03*
X45000Y256500D02*
D03*
X47000Y258500D02*
D03*
Y262500D02*
D03*
X31500Y274500D02*
D03*
X36500Y280500D02*
D03*
Y276500D02*
D03*
X41500Y278500D02*
D03*
X36500Y269500D02*
D03*
X31500D02*
D03*
X36500Y285500D02*
D03*
X41500D02*
D03*
X145500Y320500D02*
D03*
X150000Y260500D02*
D03*
X142000Y249000D02*
D03*
X191500Y238500D02*
D03*
X143500Y317500D02*
D03*
X178000Y320500D02*
D03*
X176000Y315500D02*
D03*
X169008Y266111D02*
D03*
X169000Y254500D02*
D03*
X193000Y299500D02*
D03*
X191000Y297500D02*
D03*
X189000Y299500D02*
D03*
X186500Y297500D02*
D03*
X182500D02*
D03*
X184500Y299500D02*
D03*
X178500Y297500D02*
D03*
X180500Y299500D02*
D03*
X194000Y282000D02*
D03*
X192000Y284000D02*
D03*
Y288000D02*
D03*
X194000Y286000D02*
D03*
X192500Y277000D02*
D03*
X194500Y275000D02*
D03*
X196500Y273000D02*
D03*
X181000Y254500D02*
D03*
X179000Y256500D02*
D03*
X173000Y258500D02*
D03*
X171000Y256500D02*
D03*
X175000D02*
D03*
X177000Y254500D02*
D03*
X160000D02*
D03*
X158000Y252500D02*
D03*
X156000Y254500D02*
D03*
X152000D02*
D03*
X150000Y256500D02*
D03*
X152000Y258500D02*
D03*
Y262500D02*
D03*
X136500Y274500D02*
D03*
X141500Y280500D02*
D03*
Y276500D02*
D03*
X146500Y278500D02*
D03*
X141500Y269500D02*
D03*
X136500D02*
D03*
X141500Y285500D02*
D03*
X146500D02*
D03*
X250500Y320500D02*
D03*
X255000Y260500D02*
D03*
X247000Y249000D02*
D03*
X296500Y238500D02*
D03*
X248500Y317500D02*
D03*
X283000Y320500D02*
D03*
X281000Y315500D02*
D03*
X274008Y266111D02*
D03*
X274000Y254500D02*
D03*
X298000Y299500D02*
D03*
X296000Y297500D02*
D03*
X294000Y299500D02*
D03*
X291500Y297500D02*
D03*
X287500D02*
D03*
X289500Y299500D02*
D03*
X283500Y297500D02*
D03*
X285500Y299500D02*
D03*
X299000Y282000D02*
D03*
X297000Y284000D02*
D03*
Y288000D02*
D03*
X299000Y286000D02*
D03*
X297500Y277000D02*
D03*
X299500Y275000D02*
D03*
X301500Y273000D02*
D03*
X286000Y254500D02*
D03*
X284000Y256500D02*
D03*
X278000Y258500D02*
D03*
X276000Y256500D02*
D03*
X280000D02*
D03*
X282000Y254500D02*
D03*
X265000D02*
D03*
X263000Y252500D02*
D03*
X261000Y254500D02*
D03*
X257000D02*
D03*
X255000Y256500D02*
D03*
X257000Y258500D02*
D03*
Y262500D02*
D03*
X241500Y274500D02*
D03*
X246500Y280500D02*
D03*
Y276500D02*
D03*
X251500Y278500D02*
D03*
X246500Y269500D02*
D03*
X241500D02*
D03*
X246500Y285500D02*
D03*
X251500D02*
D03*
M02*
