G04*
G04 #@! TF.GenerationSoftware,Altium Limited,Altium Designer,22.4.2 (48)*
G04*
G04 Layer_Color=16776960*
%FSLAX25Y25*%
%MOIN*%
G70*
G04*
G04 #@! TF.SameCoordinates,672AAA3E-DD7D-455D-AD33-57807C77CB51*
G04*
G04*
G04 #@! TF.FilePolarity,Positive*
G04*
G01*
G75*
%ADD38C,0.00600*%
D38*
X120000Y110000D02*
X119043Y109810D01*
X118232Y109268D01*
X117690Y108457D01*
X117500Y107500D01*
Y27500D02*
X117690Y26543D01*
X118232Y25732D01*
X119043Y25190D01*
X120000Y25000D01*
X107500Y117500D02*
X108457Y117690D01*
X109268Y118232D01*
X109810Y119043D01*
X110000Y120000D01*
X25000D02*
X25190Y119043D01*
X25732Y118232D01*
X26543Y117690D01*
X27500Y117500D01*
X110000Y15000D02*
X109810Y15957D01*
X109268Y16768D01*
X108457Y17310D01*
X107500Y17500D01*
X27500D02*
X26543Y17310D01*
X25732Y16768D01*
X25190Y15957D01*
X25000Y15000D01*
X15000Y25000D02*
X15957Y25190D01*
X16768Y25732D01*
X17310Y26543D01*
X17500Y27500D01*
Y107500D02*
X17310Y108457D01*
X16768Y109268D01*
X15957Y109810D01*
X15000Y110000D01*
X117500Y27500D02*
Y107500D01*
X27500Y117500D02*
X107500D01*
X120000Y110000D02*
Y120000D01*
X110000D02*
X120000D01*
X15000Y110000D02*
Y120000D01*
X25000D01*
X120000Y15000D02*
Y25000D01*
X110000Y15000D02*
X120000D01*
X15000D02*
X25000D01*
X15000D02*
Y25000D01*
X27500Y17500D02*
X107500D01*
X17500Y27500D02*
Y107500D01*
X225000Y110000D02*
X224043Y109810D01*
X223232Y109268D01*
X222690Y108457D01*
X222500Y107500D01*
Y27500D02*
X222690Y26543D01*
X223232Y25732D01*
X224043Y25190D01*
X225000Y25000D01*
X212500Y117500D02*
X213457Y117690D01*
X214268Y118232D01*
X214810Y119043D01*
X215000Y120000D01*
X130000D02*
X130190Y119043D01*
X130732Y118232D01*
X131543Y117690D01*
X132500Y117500D01*
X215000Y15000D02*
X214810Y15957D01*
X214268Y16768D01*
X213457Y17310D01*
X212500Y17500D01*
X132500D02*
X131543Y17310D01*
X130732Y16768D01*
X130190Y15957D01*
X130000Y15000D01*
X120000Y25000D02*
X120957Y25190D01*
X121768Y25732D01*
X122310Y26543D01*
X122500Y27500D01*
Y107500D02*
X122310Y108457D01*
X121768Y109268D01*
X120957Y109810D01*
X120000Y110000D01*
X222500Y27500D02*
Y107500D01*
X132500Y117500D02*
X212500D01*
X225000Y110000D02*
Y120000D01*
X215000D02*
X225000D01*
X120000Y110000D02*
Y120000D01*
X130000D01*
X225000Y15000D02*
Y25000D01*
X215000Y15000D02*
X225000D01*
X120000D02*
X130000D01*
X120000D02*
Y25000D01*
X132500Y17500D02*
X212500D01*
X122500Y27500D02*
Y107500D01*
X330000Y110000D02*
X329043Y109810D01*
X328232Y109268D01*
X327690Y108457D01*
X327500Y107500D01*
Y27500D02*
X327690Y26543D01*
X328232Y25732D01*
X329043Y25190D01*
X330000Y25000D01*
X317500Y117500D02*
X318457Y117690D01*
X319268Y118232D01*
X319810Y119043D01*
X320000Y120000D01*
X235000D02*
X235190Y119043D01*
X235732Y118232D01*
X236543Y117690D01*
X237500Y117500D01*
X320000Y15000D02*
X319810Y15957D01*
X319268Y16768D01*
X318457Y17310D01*
X317500Y17500D01*
X237500D02*
X236543Y17310D01*
X235732Y16768D01*
X235190Y15957D01*
X235000Y15000D01*
X225000Y25000D02*
X225957Y25190D01*
X226768Y25732D01*
X227310Y26543D01*
X227500Y27500D01*
Y107500D02*
X227310Y108457D01*
X226768Y109268D01*
X225957Y109810D01*
X225000Y110000D01*
X327500Y27500D02*
Y107500D01*
X237500Y117500D02*
X317500D01*
X330000Y110000D02*
Y120000D01*
X320000D02*
X330000D01*
X225000Y110000D02*
Y120000D01*
X235000D01*
X330000Y15000D02*
Y25000D01*
X320000Y15000D02*
X330000D01*
X225000D02*
X235000D01*
X225000D02*
Y25000D01*
X237500Y17500D02*
X317500D01*
X227500Y27500D02*
Y107500D01*
X120000Y215000D02*
X119043Y214810D01*
X118232Y214268D01*
X117690Y213457D01*
X117500Y212500D01*
Y132500D02*
X117690Y131543D01*
X118232Y130732D01*
X119043Y130190D01*
X120000Y130000D01*
X107500Y222500D02*
X108457Y222690D01*
X109268Y223232D01*
X109810Y224043D01*
X110000Y225000D01*
X25000D02*
X25190Y224043D01*
X25732Y223232D01*
X26543Y222690D01*
X27500Y222500D01*
X110000Y120000D02*
X109810Y120957D01*
X109268Y121768D01*
X108457Y122310D01*
X107500Y122500D01*
X27500D02*
X26543Y122310D01*
X25732Y121768D01*
X25190Y120957D01*
X25000Y120000D01*
X15000Y130000D02*
X15957Y130190D01*
X16768Y130732D01*
X17310Y131543D01*
X17500Y132500D01*
Y212500D02*
X17310Y213457D01*
X16768Y214268D01*
X15957Y214810D01*
X15000Y215000D01*
X117500Y132500D02*
Y212500D01*
X27500Y222500D02*
X107500D01*
X120000Y215000D02*
Y225000D01*
X110000D02*
X120000D01*
X15000Y215000D02*
Y225000D01*
X25000D01*
X120000Y120000D02*
Y130000D01*
X110000Y120000D02*
X120000D01*
X15000D02*
X25000D01*
X15000D02*
Y130000D01*
X27500Y122500D02*
X107500D01*
X17500Y132500D02*
Y212500D01*
X225000Y215000D02*
X224043Y214810D01*
X223232Y214268D01*
X222690Y213457D01*
X222500Y212500D01*
Y132500D02*
X222690Y131543D01*
X223232Y130732D01*
X224043Y130190D01*
X225000Y130000D01*
X212500Y222500D02*
X213457Y222690D01*
X214268Y223232D01*
X214810Y224043D01*
X215000Y225000D01*
X130000D02*
X130190Y224043D01*
X130732Y223232D01*
X131543Y222690D01*
X132500Y222500D01*
X215000Y120000D02*
X214810Y120957D01*
X214268Y121768D01*
X213457Y122310D01*
X212500Y122500D01*
X132500D02*
X131543Y122310D01*
X130732Y121768D01*
X130190Y120957D01*
X130000Y120000D01*
X120000Y130000D02*
X120957Y130190D01*
X121768Y130732D01*
X122310Y131543D01*
X122500Y132500D01*
Y212500D02*
X122310Y213457D01*
X121768Y214268D01*
X120957Y214810D01*
X120000Y215000D01*
X222500Y132500D02*
Y212500D01*
X132500Y222500D02*
X212500D01*
X225000Y215000D02*
Y225000D01*
X215000D02*
X225000D01*
X120000Y215000D02*
Y225000D01*
X130000D01*
X225000Y120000D02*
Y130000D01*
X215000Y120000D02*
X225000D01*
X120000D02*
X130000D01*
X120000D02*
Y130000D01*
X132500Y122500D02*
X212500D01*
X122500Y132500D02*
Y212500D01*
X330000Y215000D02*
X329043Y214810D01*
X328232Y214268D01*
X327690Y213457D01*
X327500Y212500D01*
Y132500D02*
X327690Y131543D01*
X328232Y130732D01*
X329043Y130190D01*
X330000Y130000D01*
X317500Y222500D02*
X318457Y222690D01*
X319268Y223232D01*
X319810Y224043D01*
X320000Y225000D01*
X235000D02*
X235190Y224043D01*
X235732Y223232D01*
X236543Y222690D01*
X237500Y222500D01*
X320000Y120000D02*
X319810Y120957D01*
X319268Y121768D01*
X318457Y122310D01*
X317500Y122500D01*
X237500D02*
X236543Y122310D01*
X235732Y121768D01*
X235190Y120957D01*
X235000Y120000D01*
X225000Y130000D02*
X225957Y130190D01*
X226768Y130732D01*
X227310Y131543D01*
X227500Y132500D01*
Y212500D02*
X227310Y213457D01*
X226768Y214268D01*
X225957Y214810D01*
X225000Y215000D01*
X327500Y132500D02*
Y212500D01*
X237500Y222500D02*
X317500D01*
X330000Y215000D02*
Y225000D01*
X320000D02*
X330000D01*
X225000Y215000D02*
Y225000D01*
X235000D01*
X330000Y120000D02*
Y130000D01*
X320000Y120000D02*
X330000D01*
X225000D02*
X235000D01*
X225000D02*
Y130000D01*
X237500Y122500D02*
X317500D01*
X227500Y132500D02*
Y212500D01*
X120000Y320000D02*
X119043Y319810D01*
X118232Y319268D01*
X117690Y318457D01*
X117500Y317500D01*
Y237500D02*
X117690Y236543D01*
X118232Y235732D01*
X119043Y235190D01*
X120000Y235000D01*
X107500Y327500D02*
X108457Y327690D01*
X109268Y328232D01*
X109810Y329043D01*
X110000Y330000D01*
X25000D02*
X25190Y329043D01*
X25732Y328232D01*
X26543Y327690D01*
X27500Y327500D01*
X110000Y225000D02*
X109810Y225957D01*
X109268Y226768D01*
X108457Y227310D01*
X107500Y227500D01*
X27500D02*
X26543Y227310D01*
X25732Y226768D01*
X25190Y225957D01*
X25000Y225000D01*
X15000Y235000D02*
X15957Y235190D01*
X16768Y235732D01*
X17310Y236543D01*
X17500Y237500D01*
Y317500D02*
X17310Y318457D01*
X16768Y319268D01*
X15957Y319810D01*
X15000Y320000D01*
X117500Y237500D02*
Y317500D01*
X27500Y327500D02*
X107500D01*
X120000Y320000D02*
Y330000D01*
X110000D02*
X120000D01*
X15000Y320000D02*
Y330000D01*
X25000D01*
X120000Y225000D02*
Y235000D01*
X110000Y225000D02*
X120000D01*
X15000D02*
X25000D01*
X15000D02*
Y235000D01*
X27500Y227500D02*
X107500D01*
X17500Y237500D02*
Y317500D01*
X225000Y320000D02*
X224043Y319810D01*
X223232Y319268D01*
X222690Y318457D01*
X222500Y317500D01*
Y237500D02*
X222690Y236543D01*
X223232Y235732D01*
X224043Y235190D01*
X225000Y235000D01*
X212500Y327500D02*
X213457Y327690D01*
X214268Y328232D01*
X214810Y329043D01*
X215000Y330000D01*
X130000D02*
X130190Y329043D01*
X130732Y328232D01*
X131543Y327690D01*
X132500Y327500D01*
X215000Y225000D02*
X214810Y225957D01*
X214268Y226768D01*
X213457Y227310D01*
X212500Y227500D01*
X132500D02*
X131543Y227310D01*
X130732Y226768D01*
X130190Y225957D01*
X130000Y225000D01*
X120000Y235000D02*
X120957Y235190D01*
X121768Y235732D01*
X122310Y236543D01*
X122500Y237500D01*
Y317500D02*
X122310Y318457D01*
X121768Y319268D01*
X120957Y319810D01*
X120000Y320000D01*
X222500Y237500D02*
Y317500D01*
X132500Y327500D02*
X212500D01*
X225000Y320000D02*
Y330000D01*
X215000D02*
X225000D01*
X120000Y320000D02*
Y330000D01*
X130000D01*
X225000Y225000D02*
Y235000D01*
X215000Y225000D02*
X225000D01*
X120000D02*
X130000D01*
X120000D02*
Y235000D01*
X132500Y227500D02*
X212500D01*
X122500Y237500D02*
Y317500D01*
X330000Y320000D02*
X329043Y319810D01*
X328232Y319268D01*
X327690Y318457D01*
X327500Y317500D01*
Y237500D02*
X327690Y236543D01*
X328232Y235732D01*
X329043Y235190D01*
X330000Y235000D01*
X317500Y327500D02*
X318457Y327690D01*
X319268Y328232D01*
X319810Y329043D01*
X320000Y330000D01*
X235000D02*
X235190Y329043D01*
X235732Y328232D01*
X236543Y327690D01*
X237500Y327500D01*
X320000Y225000D02*
X319810Y225957D01*
X319268Y226768D01*
X318457Y227310D01*
X317500Y227500D01*
X237500D02*
X236543Y227310D01*
X235732Y226768D01*
X235190Y225957D01*
X235000Y225000D01*
X225000Y235000D02*
X225957Y235190D01*
X226768Y235732D01*
X227310Y236543D01*
X227500Y237500D01*
Y317500D02*
X227310Y318457D01*
X226768Y319268D01*
X225957Y319810D01*
X225000Y320000D01*
X327500Y237500D02*
Y317500D01*
X237500Y327500D02*
X317500D01*
X330000Y320000D02*
Y330000D01*
X320000D02*
X330000D01*
X225000Y320000D02*
Y330000D01*
X235000D01*
X330000Y225000D02*
Y235000D01*
X320000Y225000D02*
X330000D01*
X225000D02*
X235000D01*
X225000D02*
Y235000D01*
X237500Y227500D02*
X317500D01*
X227500Y237500D02*
Y317500D01*
M02*
