G04*
G04 #@! TF.GenerationSoftware,Altium Limited,Altium Designer,22.4.2 (48)*
G04*
G04 Layer_Physical_Order=4*
G04 Layer_Color=16711680*
%FSLAX25Y25*%
%MOIN*%
G70*
G04*
G04 #@! TF.SameCoordinates,672AAA3E-DD7D-455D-AD33-57807C77CB51*
G04*
G04*
G04 #@! TF.FilePolarity,Positive*
G04*
G01*
G75*
%ADD34C,0.02000*%
G04:AMPARAMS|DCode=41|XSize=50mil|YSize=80mil|CornerRadius=12.5mil|HoleSize=0mil|Usage=FLASHONLY|Rotation=90.000|XOffset=0mil|YOffset=0mil|HoleType=Round|Shape=RoundedRectangle|*
%AMROUNDEDRECTD41*
21,1,0.05000,0.05500,0,0,90.0*
21,1,0.02500,0.08000,0,0,90.0*
1,1,0.02500,0.02750,0.01250*
1,1,0.02500,0.02750,-0.01250*
1,1,0.02500,-0.02750,-0.01250*
1,1,0.02500,-0.02750,0.01250*
%
%ADD41ROUNDEDRECTD41*%
G04:AMPARAMS|DCode=42|XSize=50mil|YSize=80mil|CornerRadius=12.5mil|HoleSize=0mil|Usage=FLASHONLY|Rotation=180.000|XOffset=0mil|YOffset=0mil|HoleType=Round|Shape=RoundedRectangle|*
%AMROUNDEDRECTD42*
21,1,0.05000,0.05500,0,0,180.0*
21,1,0.02500,0.08000,0,0,180.0*
1,1,0.02500,-0.01250,0.02750*
1,1,0.02500,0.01250,0.02750*
1,1,0.02500,0.01250,-0.02750*
1,1,0.02500,-0.01250,-0.02750*
%
%ADD42ROUNDEDRECTD42*%
%ADD43C,0.03890*%
%ADD44C,0.01900*%
%ADD45C,0.02000*%
G36*
X285500Y324175D02*
X285500Y322950D01*
X284198Y322096D01*
X283925Y321957D01*
X283338Y322200D01*
X283338Y322200D01*
X283202Y322200D01*
X282662D01*
X282037Y321941D01*
X281559Y321463D01*
X281300Y320838D01*
Y320162D01*
X281559Y319537D01*
X282037Y319059D01*
X282662Y318800D01*
X283338D01*
X283963Y319059D01*
X284441Y319537D01*
X284700Y320162D01*
X284700Y320838D01*
X284748Y321251D01*
X285669Y322392D01*
X285800Y322491D01*
X285835Y322500D01*
X287114Y322500D01*
X322500D01*
Y309968D01*
X320700Y309688D01*
X320484Y309991D01*
X320296Y310179D01*
X319991Y310484D01*
X319348Y310750D01*
X318652D01*
X318009Y310484D01*
X317715Y310190D01*
X317463Y310441D01*
X316838Y310700D01*
X316162D01*
X315537Y310441D01*
X315059Y309963D01*
X314800Y309338D01*
Y308662D01*
X315059Y308037D01*
X315537Y307559D01*
X316162Y307300D01*
X316838D01*
X317463Y307559D01*
X317715Y307810D01*
X318009Y307517D01*
X318652Y307250D01*
X319348D01*
X319991Y307517D01*
X320484Y308009D01*
X320700Y308312D01*
X322500Y308032D01*
Y301500D01*
X326481D01*
Y293500D01*
X322500D01*
Y276667D01*
X321338Y275200D01*
X320662D01*
X320037Y274941D01*
X319559Y274463D01*
X319300Y273838D01*
Y273162D01*
X319559Y272537D01*
Y271463D01*
X319300Y270838D01*
Y270162D01*
X319559Y269537D01*
X320037Y269059D01*
X320662Y268800D01*
X321338D01*
X322500Y267333D01*
Y232500D01*
X301500D01*
Y228520D01*
X293500D01*
Y232500D01*
X253756D01*
X253420Y233160D01*
X253204Y234300D01*
X253441Y234537D01*
X253700Y235162D01*
Y235838D01*
X253441Y236463D01*
X252963Y236941D01*
X252338Y237200D01*
X251662D01*
X251037Y236941D01*
X250559Y236463D01*
X250300Y235838D01*
Y235162D01*
X250559Y234537D01*
X250067Y234072D01*
X248441Y234463D01*
X247963Y234941D01*
X247338Y235200D01*
X246662D01*
X246037Y234941D01*
X245559Y234463D01*
X243933Y234072D01*
X243441Y234537D01*
X243700Y235162D01*
Y235838D01*
X243441Y236463D01*
X242963Y236941D01*
X242338Y237200D01*
X241662D01*
X241494Y237131D01*
X240136Y237679D01*
X239638Y238088D01*
X239516Y238542D01*
X239161Y239158D01*
X238658Y239661D01*
X238042Y240016D01*
X237355Y240200D01*
X236645D01*
X235958Y240016D01*
X235342Y239661D01*
X234840Y239158D01*
X234484Y238542D01*
X234300Y237856D01*
Y237145D01*
X234484Y236458D01*
X234840Y235842D01*
X235342Y235339D01*
X235958Y234984D01*
X236645Y234800D01*
X237355D01*
X238042Y234984D01*
X238381Y235180D01*
X240093Y234593D01*
X240174Y234300D01*
X238833Y232500D01*
X232500D01*
Y253500D01*
X228520D01*
X228520Y261500D01*
X232500D01*
Y322500D01*
X247688D01*
X247796Y322419D01*
X248800Y320838D01*
X248354Y319767D01*
X247537Y318941D01*
X247420Y318824D01*
X247059Y318463D01*
X246800Y317838D01*
Y317162D01*
X247059Y316537D01*
X247537Y316059D01*
X248162Y315800D01*
X248838D01*
X249463Y316059D01*
X249941Y316537D01*
X250137Y317010D01*
X250200Y317162D01*
X250646Y318233D01*
X251463Y319059D01*
X251580Y319176D01*
X251941Y319537D01*
X252200Y320162D01*
Y320700D01*
X252200Y320838D01*
X253204Y322419D01*
X253312Y322500D01*
X253500D01*
Y326481D01*
X261500D01*
Y322500D01*
X277500D01*
Y326481D01*
X285500D01*
Y324175D01*
D02*
G37*
G36*
X180500D02*
X180500Y322950D01*
X179198Y322096D01*
X178925Y321957D01*
X178338Y322200D01*
X178338Y322200D01*
X178202Y322200D01*
X177662D01*
X177037Y321941D01*
X176559Y321463D01*
X176300Y320838D01*
Y320162D01*
X176559Y319537D01*
X177037Y319059D01*
X177662Y318800D01*
X178338D01*
X178963Y319059D01*
X179441Y319537D01*
X179700Y320162D01*
X179700Y320838D01*
X179748Y321251D01*
X180669Y322392D01*
X180800Y322491D01*
X180835Y322500D01*
X182114Y322500D01*
X217500D01*
Y309968D01*
X215700Y309688D01*
X215484Y309991D01*
X215296Y310179D01*
X214991Y310484D01*
X214348Y310750D01*
X213652D01*
X213009Y310484D01*
X212715Y310190D01*
X212463Y310441D01*
X211838Y310700D01*
X211162D01*
X210537Y310441D01*
X210059Y309963D01*
X209800Y309338D01*
Y308662D01*
X210059Y308037D01*
X210537Y307559D01*
X211162Y307300D01*
X211838D01*
X212463Y307559D01*
X212715Y307810D01*
X213009Y307517D01*
X213652Y307250D01*
X214348D01*
X214991Y307517D01*
X215484Y308009D01*
X215700Y308312D01*
X217500Y308032D01*
Y301500D01*
X221480D01*
Y293500D01*
X217500D01*
Y276667D01*
X216338Y275200D01*
X215662D01*
X215037Y274941D01*
X214559Y274463D01*
X214300Y273838D01*
Y273162D01*
X214559Y272537D01*
Y271463D01*
X214300Y270838D01*
Y270162D01*
X214559Y269537D01*
X215037Y269059D01*
X215662Y268800D01*
X216338D01*
X217500Y267333D01*
Y232500D01*
X196500D01*
Y228520D01*
X188500D01*
Y232500D01*
X148756D01*
X148420Y233160D01*
X148204Y234300D01*
X148441Y234537D01*
X148700Y235162D01*
Y235838D01*
X148441Y236463D01*
X147963Y236941D01*
X147338Y237200D01*
X146662D01*
X146037Y236941D01*
X145559Y236463D01*
X145300Y235838D01*
Y235162D01*
X145559Y234537D01*
X145067Y234072D01*
X143441Y234463D01*
X142963Y234941D01*
X142338Y235200D01*
X141662D01*
X141037Y234941D01*
X140559Y234463D01*
X138933Y234072D01*
X138441Y234537D01*
X138700Y235162D01*
Y235838D01*
X138441Y236463D01*
X137963Y236941D01*
X137338Y237200D01*
X136662D01*
X136494Y237131D01*
X135136Y237679D01*
X134638Y238088D01*
X134516Y238542D01*
X134161Y239158D01*
X133658Y239661D01*
X133042Y240016D01*
X132355Y240200D01*
X131645D01*
X130958Y240016D01*
X130342Y239661D01*
X129840Y239158D01*
X129484Y238542D01*
X129300Y237856D01*
Y237145D01*
X129484Y236458D01*
X129840Y235842D01*
X130342Y235339D01*
X130958Y234984D01*
X131645Y234800D01*
X132355D01*
X133042Y234984D01*
X133381Y235180D01*
X135093Y234593D01*
X135174Y234300D01*
X133833Y232500D01*
X127500D01*
Y253500D01*
X123520D01*
X123520Y261500D01*
X127500D01*
Y322500D01*
X142688D01*
X142796Y322419D01*
X143800Y320838D01*
X143354Y319767D01*
X142537Y318941D01*
X142420Y318824D01*
X142059Y318463D01*
X141800Y317838D01*
Y317162D01*
X142059Y316537D01*
X142537Y316059D01*
X143162Y315800D01*
X143838D01*
X144463Y316059D01*
X144941Y316537D01*
X145137Y317010D01*
X145200Y317162D01*
X145646Y318233D01*
X146463Y319059D01*
X146580Y319176D01*
X146941Y319537D01*
X147200Y320162D01*
Y320700D01*
X147200Y320838D01*
X148205Y322419D01*
X148312Y322500D01*
X148500D01*
Y326481D01*
X156500D01*
Y322500D01*
X172500D01*
Y326481D01*
X180500D01*
Y324175D01*
D02*
G37*
G36*
X75500D02*
X75500Y322950D01*
X74198Y322096D01*
X73925Y321957D01*
X73338Y322200D01*
X73338Y322200D01*
X73202Y322200D01*
X72662D01*
X72037Y321941D01*
X71559Y321463D01*
X71300Y320838D01*
Y320162D01*
X71559Y319537D01*
X72037Y319059D01*
X72662Y318800D01*
X73338D01*
X73963Y319059D01*
X74441Y319537D01*
X74700Y320162D01*
X74700Y320838D01*
X74748Y321251D01*
X75669Y322392D01*
X75800Y322491D01*
X75835Y322500D01*
X77114Y322500D01*
X112500D01*
Y309968D01*
X110700Y309688D01*
X110484Y309991D01*
X110296Y310179D01*
X109991Y310484D01*
X109348Y310750D01*
X108652D01*
X108009Y310484D01*
X107715Y310190D01*
X107463Y310441D01*
X106838Y310700D01*
X106162D01*
X105537Y310441D01*
X105059Y309963D01*
X104800Y309338D01*
Y308662D01*
X105059Y308037D01*
X105537Y307559D01*
X106162Y307300D01*
X106838D01*
X107463Y307559D01*
X107715Y307810D01*
X108009Y307517D01*
X108652Y307250D01*
X109348D01*
X109991Y307517D01*
X110484Y308009D01*
X110700Y308312D01*
X112500Y308032D01*
Y301500D01*
X116481D01*
Y293500D01*
X112500D01*
Y276667D01*
X111338Y275200D01*
X110662D01*
X110037Y274941D01*
X109559Y274463D01*
X109300Y273838D01*
Y273162D01*
X109559Y272537D01*
Y271463D01*
X109300Y270838D01*
Y270162D01*
X109559Y269537D01*
X110037Y269059D01*
X110662Y268800D01*
X111338D01*
X112500Y267333D01*
Y232500D01*
X91500D01*
Y228520D01*
X83500D01*
Y232500D01*
X43756D01*
X43420Y233160D01*
X43204Y234300D01*
X43441Y234537D01*
X43700Y235162D01*
Y235838D01*
X43441Y236463D01*
X42963Y236941D01*
X42338Y237200D01*
X41662D01*
X41037Y236941D01*
X40559Y236463D01*
X40300Y235838D01*
Y235162D01*
X40559Y234537D01*
X40067Y234072D01*
X38441Y234463D01*
X37963Y234941D01*
X37338Y235200D01*
X36662D01*
X36037Y234941D01*
X35559Y234463D01*
X33933Y234072D01*
X33441Y234537D01*
X33700Y235162D01*
Y235838D01*
X33441Y236463D01*
X32963Y236941D01*
X32338Y237200D01*
X31662D01*
X31494Y237131D01*
X30136Y237679D01*
X29638Y238088D01*
X29516Y238542D01*
X29161Y239158D01*
X28658Y239661D01*
X28042Y240016D01*
X27356Y240200D01*
X26645D01*
X25958Y240016D01*
X25342Y239661D01*
X24839Y239158D01*
X24484Y238542D01*
X24300Y237856D01*
Y237145D01*
X24484Y236458D01*
X24839Y235842D01*
X25342Y235339D01*
X25958Y234984D01*
X26645Y234800D01*
X27356D01*
X28042Y234984D01*
X28381Y235180D01*
X30094Y234593D01*
X30174Y234300D01*
X28833Y232500D01*
X22500D01*
Y253500D01*
X18520D01*
X18519Y261500D01*
X22500D01*
Y322500D01*
X37688D01*
X37796Y322419D01*
X38800Y320838D01*
X38354Y319767D01*
X37537Y318941D01*
X37420Y318824D01*
X37059Y318463D01*
X36800Y317838D01*
Y317162D01*
X37059Y316537D01*
X37537Y316059D01*
X38162Y315800D01*
X38838D01*
X39463Y316059D01*
X39941Y316537D01*
X40137Y317010D01*
X40200Y317162D01*
X40646Y318233D01*
X41463Y319059D01*
X41580Y319176D01*
X41941Y319537D01*
X42200Y320162D01*
Y320700D01*
X42200Y320838D01*
X43204Y322419D01*
X43312Y322500D01*
X43500D01*
Y326481D01*
X51500D01*
Y322500D01*
X67500D01*
Y326481D01*
X75500D01*
Y324175D01*
D02*
G37*
G36*
X285500Y219175D02*
X285500Y217950D01*
X284198Y217096D01*
X283925Y216957D01*
X283338Y217200D01*
X283338Y217200D01*
X283202Y217200D01*
X282662D01*
X282037Y216941D01*
X281559Y216463D01*
X281300Y215838D01*
Y215162D01*
X281559Y214537D01*
X282037Y214059D01*
X282662Y213800D01*
X283338D01*
X283963Y214059D01*
X284441Y214537D01*
X284700Y215162D01*
X284700Y215838D01*
X284748Y216250D01*
X285669Y217392D01*
X285800Y217491D01*
X285835Y217500D01*
X287114Y217500D01*
X322500D01*
Y204968D01*
X320700Y204688D01*
X320484Y204991D01*
X320296Y205179D01*
X319991Y205484D01*
X319348Y205750D01*
X318652D01*
X318009Y205484D01*
X317715Y205189D01*
X317463Y205441D01*
X316838Y205700D01*
X316162D01*
X315537Y205441D01*
X315059Y204963D01*
X314800Y204338D01*
Y203662D01*
X315059Y203037D01*
X315537Y202559D01*
X316162Y202300D01*
X316838D01*
X317463Y202559D01*
X317715Y202811D01*
X318009Y202517D01*
X318652Y202250D01*
X319348D01*
X319991Y202517D01*
X320484Y203009D01*
X320700Y203312D01*
X322500Y203032D01*
Y196500D01*
X326481D01*
Y188500D01*
X322500D01*
Y171667D01*
X321338Y170200D01*
X320662D01*
X320037Y169941D01*
X319559Y169463D01*
X319300Y168838D01*
Y168162D01*
X319559Y167537D01*
Y166463D01*
X319300Y165838D01*
Y165162D01*
X319559Y164537D01*
X320037Y164059D01*
X320662Y163800D01*
X321338D01*
X322500Y162333D01*
Y127500D01*
X301500D01*
Y123520D01*
X293500D01*
Y127500D01*
X253756D01*
X253420Y128160D01*
X253204Y129300D01*
X253441Y129537D01*
X253700Y130162D01*
Y130838D01*
X253441Y131463D01*
X252963Y131941D01*
X252338Y132200D01*
X251662D01*
X251037Y131941D01*
X250559Y131463D01*
X250300Y130838D01*
Y130162D01*
X250559Y129537D01*
X250067Y129072D01*
X248441Y129463D01*
X247963Y129941D01*
X247338Y130200D01*
X246662D01*
X246037Y129941D01*
X245559Y129463D01*
X243933Y129072D01*
X243441Y129537D01*
X243700Y130162D01*
Y130838D01*
X243441Y131463D01*
X242963Y131941D01*
X242338Y132200D01*
X241662D01*
X241494Y132131D01*
X240136Y132679D01*
X239638Y133088D01*
X239516Y133542D01*
X239161Y134158D01*
X238658Y134661D01*
X238042Y135016D01*
X237355Y135200D01*
X236645D01*
X235958Y135016D01*
X235342Y134661D01*
X234840Y134158D01*
X234484Y133542D01*
X234300Y132855D01*
Y132145D01*
X234484Y131458D01*
X234840Y130842D01*
X235342Y130340D01*
X235958Y129984D01*
X236645Y129800D01*
X237355D01*
X238042Y129984D01*
X238381Y130180D01*
X240093Y129593D01*
X240174Y129300D01*
X238833Y127500D01*
X232500D01*
Y148500D01*
X228520D01*
X228520Y156500D01*
X232500D01*
Y217500D01*
X247688D01*
X247796Y217419D01*
X248800Y215838D01*
X248354Y214767D01*
X247537Y213941D01*
X247420Y213824D01*
X247059Y213463D01*
X246800Y212838D01*
Y212162D01*
X247059Y211537D01*
X247537Y211059D01*
X248162Y210800D01*
X248838D01*
X249463Y211059D01*
X249941Y211537D01*
X250137Y212010D01*
X250200Y212162D01*
X250646Y213233D01*
X251463Y214059D01*
X251580Y214176D01*
X251941Y214537D01*
X252200Y215162D01*
Y215700D01*
X252200Y215838D01*
X253204Y217419D01*
X253312Y217500D01*
X253500D01*
Y221480D01*
X261500D01*
Y217500D01*
X277500D01*
Y221480D01*
X285500D01*
Y219175D01*
D02*
G37*
G36*
X180500D02*
X180500Y217950D01*
X179198Y217096D01*
X178925Y216957D01*
X178338Y217200D01*
X178338Y217200D01*
X178202Y217200D01*
X177662D01*
X177037Y216941D01*
X176559Y216463D01*
X176300Y215838D01*
Y215162D01*
X176559Y214537D01*
X177037Y214059D01*
X177662Y213800D01*
X178338D01*
X178963Y214059D01*
X179441Y214537D01*
X179700Y215162D01*
X179700Y215838D01*
X179748Y216250D01*
X180669Y217392D01*
X180800Y217491D01*
X180835Y217500D01*
X182114Y217500D01*
X217500D01*
Y204968D01*
X215700Y204688D01*
X215484Y204991D01*
X215296Y205179D01*
X214991Y205484D01*
X214348Y205750D01*
X213652D01*
X213009Y205484D01*
X212715Y205189D01*
X212463Y205441D01*
X211838Y205700D01*
X211162D01*
X210537Y205441D01*
X210059Y204963D01*
X209800Y204338D01*
Y203662D01*
X210059Y203037D01*
X210537Y202559D01*
X211162Y202300D01*
X211838D01*
X212463Y202559D01*
X212715Y202811D01*
X213009Y202517D01*
X213652Y202250D01*
X214348D01*
X214991Y202517D01*
X215484Y203009D01*
X215700Y203312D01*
X217500Y203032D01*
Y196500D01*
X221480D01*
Y188500D01*
X217500D01*
Y171667D01*
X216338Y170200D01*
X215662D01*
X215037Y169941D01*
X214559Y169463D01*
X214300Y168838D01*
Y168162D01*
X214559Y167537D01*
Y166463D01*
X214300Y165838D01*
Y165162D01*
X214559Y164537D01*
X215037Y164059D01*
X215662Y163800D01*
X216338D01*
X217500Y162333D01*
Y127500D01*
X196500D01*
Y123520D01*
X188500D01*
Y127500D01*
X148756D01*
X148420Y128160D01*
X148204Y129300D01*
X148441Y129537D01*
X148700Y130162D01*
Y130838D01*
X148441Y131463D01*
X147963Y131941D01*
X147338Y132200D01*
X146662D01*
X146037Y131941D01*
X145559Y131463D01*
X145300Y130838D01*
Y130162D01*
X145559Y129537D01*
X145067Y129072D01*
X143441Y129463D01*
X142963Y129941D01*
X142338Y130200D01*
X141662D01*
X141037Y129941D01*
X140559Y129463D01*
X138933Y129072D01*
X138441Y129537D01*
X138700Y130162D01*
Y130838D01*
X138441Y131463D01*
X137963Y131941D01*
X137338Y132200D01*
X136662D01*
X136494Y132131D01*
X135136Y132679D01*
X134638Y133088D01*
X134516Y133542D01*
X134161Y134158D01*
X133658Y134661D01*
X133042Y135016D01*
X132355Y135200D01*
X131645D01*
X130958Y135016D01*
X130342Y134661D01*
X129840Y134158D01*
X129484Y133542D01*
X129300Y132855D01*
Y132145D01*
X129484Y131458D01*
X129840Y130842D01*
X130342Y130340D01*
X130958Y129984D01*
X131645Y129800D01*
X132355D01*
X133042Y129984D01*
X133381Y130180D01*
X135093Y129593D01*
X135174Y129300D01*
X133833Y127500D01*
X127500D01*
Y148500D01*
X123520D01*
X123520Y156500D01*
X127500D01*
Y217500D01*
X142688D01*
X142796Y217419D01*
X143800Y215838D01*
X143354Y214767D01*
X142537Y213941D01*
X142420Y213824D01*
X142059Y213463D01*
X141800Y212838D01*
Y212162D01*
X142059Y211537D01*
X142537Y211059D01*
X143162Y210800D01*
X143838D01*
X144463Y211059D01*
X144941Y211537D01*
X145137Y212010D01*
X145200Y212162D01*
X145646Y213233D01*
X146463Y214059D01*
X146580Y214176D01*
X146941Y214537D01*
X147200Y215162D01*
Y215700D01*
X147200Y215838D01*
X148205Y217419D01*
X148312Y217500D01*
X148500D01*
Y221480D01*
X156500D01*
Y217500D01*
X172500D01*
Y221480D01*
X180500D01*
Y219175D01*
D02*
G37*
G36*
X75500D02*
X75500Y217950D01*
X74198Y217096D01*
X73925Y216957D01*
X73338Y217200D01*
X73338Y217200D01*
X73202Y217200D01*
X72662D01*
X72037Y216941D01*
X71559Y216463D01*
X71300Y215838D01*
Y215162D01*
X71559Y214537D01*
X72037Y214059D01*
X72662Y213800D01*
X73338D01*
X73963Y214059D01*
X74441Y214537D01*
X74700Y215162D01*
X74700Y215838D01*
X74748Y216250D01*
X75669Y217392D01*
X75800Y217491D01*
X75835Y217500D01*
X77114Y217500D01*
X112500D01*
Y204968D01*
X110700Y204688D01*
X110484Y204991D01*
X110296Y205179D01*
X109991Y205484D01*
X109348Y205750D01*
X108652D01*
X108009Y205484D01*
X107715Y205189D01*
X107463Y205441D01*
X106838Y205700D01*
X106162D01*
X105537Y205441D01*
X105059Y204963D01*
X104800Y204338D01*
Y203662D01*
X105059Y203037D01*
X105537Y202559D01*
X106162Y202300D01*
X106838D01*
X107463Y202559D01*
X107715Y202811D01*
X108009Y202517D01*
X108652Y202250D01*
X109348D01*
X109991Y202517D01*
X110484Y203009D01*
X110700Y203312D01*
X112500Y203032D01*
Y196500D01*
X116481D01*
Y188500D01*
X112500D01*
Y171667D01*
X111338Y170200D01*
X110662D01*
X110037Y169941D01*
X109559Y169463D01*
X109300Y168838D01*
Y168162D01*
X109559Y167537D01*
Y166463D01*
X109300Y165838D01*
Y165162D01*
X109559Y164537D01*
X110037Y164059D01*
X110662Y163800D01*
X111338D01*
X112500Y162333D01*
Y127500D01*
X91500D01*
Y123520D01*
X83500D01*
Y127500D01*
X43756D01*
X43420Y128160D01*
X43204Y129300D01*
X43441Y129537D01*
X43700Y130162D01*
Y130838D01*
X43441Y131463D01*
X42963Y131941D01*
X42338Y132200D01*
X41662D01*
X41037Y131941D01*
X40559Y131463D01*
X40300Y130838D01*
Y130162D01*
X40559Y129537D01*
X40067Y129072D01*
X38441Y129463D01*
X37963Y129941D01*
X37338Y130200D01*
X36662D01*
X36037Y129941D01*
X35559Y129463D01*
X33933Y129072D01*
X33441Y129537D01*
X33700Y130162D01*
Y130838D01*
X33441Y131463D01*
X32963Y131941D01*
X32338Y132200D01*
X31662D01*
X31494Y132131D01*
X30136Y132679D01*
X29638Y133088D01*
X29516Y133542D01*
X29161Y134158D01*
X28658Y134661D01*
X28042Y135016D01*
X27356Y135200D01*
X26645D01*
X25958Y135016D01*
X25342Y134661D01*
X24839Y134158D01*
X24484Y133542D01*
X24300Y132855D01*
Y132145D01*
X24484Y131458D01*
X24839Y130842D01*
X25342Y130340D01*
X25958Y129984D01*
X26645Y129800D01*
X27356D01*
X28042Y129984D01*
X28381Y130180D01*
X30094Y129593D01*
X30174Y129300D01*
X28833Y127500D01*
X22500D01*
Y148500D01*
X18520D01*
X18519Y156500D01*
X22500D01*
Y217500D01*
X37688D01*
X37796Y217419D01*
X38800Y215838D01*
X38354Y214767D01*
X37537Y213941D01*
X37420Y213824D01*
X37059Y213463D01*
X36800Y212838D01*
Y212162D01*
X37059Y211537D01*
X37537Y211059D01*
X38162Y210800D01*
X38838D01*
X39463Y211059D01*
X39941Y211537D01*
X40137Y212010D01*
X40200Y212162D01*
X40646Y213233D01*
X41463Y214059D01*
X41580Y214176D01*
X41941Y214537D01*
X42200Y215162D01*
Y215700D01*
X42200Y215838D01*
X43204Y217419D01*
X43312Y217500D01*
X43500D01*
Y221480D01*
X51500D01*
Y217500D01*
X67500D01*
Y221480D01*
X75500D01*
Y219175D01*
D02*
G37*
G36*
X285500Y114175D02*
X285500Y112950D01*
X284198Y112096D01*
X283925Y111957D01*
X283338Y112200D01*
X283338Y112200D01*
X283202Y112200D01*
X282662D01*
X282037Y111941D01*
X281559Y111463D01*
X281300Y110838D01*
Y110162D01*
X281559Y109537D01*
X282037Y109059D01*
X282662Y108800D01*
X283338D01*
X283963Y109059D01*
X284441Y109537D01*
X284700Y110162D01*
X284700Y110838D01*
X284748Y111250D01*
X285669Y112392D01*
X285800Y112491D01*
X285835Y112500D01*
X287114Y112500D01*
X322500D01*
Y99968D01*
X320700Y99688D01*
X320484Y99991D01*
X320296Y100179D01*
X319991Y100484D01*
X319348Y100750D01*
X318652D01*
X318009Y100484D01*
X317715Y100189D01*
X317463Y100441D01*
X316838Y100700D01*
X316162D01*
X315537Y100441D01*
X315059Y99963D01*
X314800Y99338D01*
Y98662D01*
X315059Y98037D01*
X315537Y97559D01*
X316162Y97300D01*
X316838D01*
X317463Y97559D01*
X317715Y97811D01*
X318009Y97516D01*
X318652Y97250D01*
X319348D01*
X319991Y97516D01*
X320484Y98009D01*
X320700Y98312D01*
X322500Y98032D01*
Y91500D01*
X326481D01*
Y83500D01*
X322500D01*
Y66667D01*
X321338Y65200D01*
X320662D01*
X320037Y64941D01*
X319559Y64463D01*
X319300Y63838D01*
Y63162D01*
X319559Y62537D01*
Y61463D01*
X319300Y60838D01*
Y60162D01*
X319559Y59537D01*
X320037Y59059D01*
X320662Y58800D01*
X321338D01*
X322500Y57333D01*
Y22500D01*
X301500D01*
Y18520D01*
X293500D01*
Y22500D01*
X253756D01*
X253420Y23160D01*
X253204Y24300D01*
X253441Y24537D01*
X253700Y25162D01*
Y25838D01*
X253441Y26463D01*
X252963Y26941D01*
X252338Y27200D01*
X251662D01*
X251037Y26941D01*
X250559Y26463D01*
X250300Y25838D01*
Y25162D01*
X250559Y24537D01*
X250067Y24072D01*
X248441Y24463D01*
X247963Y24941D01*
X247338Y25200D01*
X246662D01*
X246037Y24941D01*
X245559Y24463D01*
X243933Y24072D01*
X243441Y24537D01*
X243700Y25162D01*
Y25838D01*
X243441Y26463D01*
X242963Y26941D01*
X242338Y27200D01*
X241662D01*
X241494Y27131D01*
X240136Y27679D01*
X239638Y28088D01*
X239516Y28542D01*
X239161Y29158D01*
X238658Y29661D01*
X238042Y30016D01*
X237355Y30200D01*
X236645D01*
X235958Y30016D01*
X235342Y29661D01*
X234840Y29158D01*
X234484Y28542D01*
X234300Y27856D01*
Y27145D01*
X234484Y26458D01*
X234840Y25842D01*
X235342Y25339D01*
X235958Y24984D01*
X236645Y24800D01*
X237355D01*
X238042Y24984D01*
X238381Y25180D01*
X240093Y24593D01*
X240174Y24300D01*
X238833Y22500D01*
X232500D01*
Y43500D01*
X228520D01*
X228520Y51500D01*
X232500D01*
Y112500D01*
X247688D01*
X247796Y112419D01*
X248800Y110838D01*
X248354Y109767D01*
X247537Y108941D01*
X247420Y108824D01*
X247059Y108463D01*
X246800Y107838D01*
Y107162D01*
X247059Y106537D01*
X247537Y106059D01*
X248162Y105800D01*
X248838D01*
X249463Y106059D01*
X249941Y106537D01*
X250137Y107010D01*
X250200Y107162D01*
X250646Y108233D01*
X251463Y109059D01*
X251580Y109176D01*
X251941Y109537D01*
X252200Y110162D01*
Y110700D01*
X252200Y110838D01*
X253204Y112419D01*
X253312Y112500D01*
X253500D01*
Y116481D01*
X261500D01*
Y112500D01*
X277500D01*
Y116481D01*
X285500D01*
Y114175D01*
D02*
G37*
G36*
X180500D02*
X180500Y112950D01*
X179198Y112096D01*
X178925Y111957D01*
X178338Y112200D01*
X178338Y112200D01*
X178202Y112200D01*
X177662D01*
X177037Y111941D01*
X176559Y111463D01*
X176300Y110838D01*
Y110162D01*
X176559Y109537D01*
X177037Y109059D01*
X177662Y108800D01*
X178338D01*
X178963Y109059D01*
X179441Y109537D01*
X179700Y110162D01*
X179700Y110838D01*
X179748Y111250D01*
X180669Y112392D01*
X180800Y112491D01*
X180835Y112500D01*
X182114Y112500D01*
X217500D01*
Y99968D01*
X215700Y99688D01*
X215484Y99991D01*
X215296Y100179D01*
X214991Y100484D01*
X214348Y100750D01*
X213652D01*
X213009Y100484D01*
X212715Y100189D01*
X212463Y100441D01*
X211838Y100700D01*
X211162D01*
X210537Y100441D01*
X210059Y99963D01*
X209800Y99338D01*
Y98662D01*
X210059Y98037D01*
X210537Y97559D01*
X211162Y97300D01*
X211838D01*
X212463Y97559D01*
X212715Y97811D01*
X213009Y97516D01*
X213652Y97250D01*
X214348D01*
X214991Y97516D01*
X215484Y98009D01*
X215700Y98312D01*
X217500Y98032D01*
Y91500D01*
X221480D01*
Y83500D01*
X217500D01*
Y66667D01*
X216338Y65200D01*
X215662D01*
X215037Y64941D01*
X214559Y64463D01*
X214300Y63838D01*
Y63162D01*
X214559Y62537D01*
Y61463D01*
X214300Y60838D01*
Y60162D01*
X214559Y59537D01*
X215037Y59059D01*
X215662Y58800D01*
X216338D01*
X217500Y57333D01*
Y22500D01*
X196500D01*
Y18520D01*
X188500D01*
Y22500D01*
X148756D01*
X148420Y23160D01*
X148204Y24300D01*
X148441Y24537D01*
X148700Y25162D01*
Y25838D01*
X148441Y26463D01*
X147963Y26941D01*
X147338Y27200D01*
X146662D01*
X146037Y26941D01*
X145559Y26463D01*
X145300Y25838D01*
Y25162D01*
X145559Y24537D01*
X145067Y24072D01*
X143441Y24463D01*
X142963Y24941D01*
X142338Y25200D01*
X141662D01*
X141037Y24941D01*
X140559Y24463D01*
X138933Y24072D01*
X138441Y24537D01*
X138700Y25162D01*
Y25838D01*
X138441Y26463D01*
X137963Y26941D01*
X137338Y27200D01*
X136662D01*
X136494Y27131D01*
X135136Y27679D01*
X134638Y28088D01*
X134516Y28542D01*
X134161Y29158D01*
X133658Y29661D01*
X133042Y30016D01*
X132355Y30200D01*
X131645D01*
X130958Y30016D01*
X130342Y29661D01*
X129840Y29158D01*
X129484Y28542D01*
X129300Y27856D01*
Y27145D01*
X129484Y26458D01*
X129840Y25842D01*
X130342Y25339D01*
X130958Y24984D01*
X131645Y24800D01*
X132355D01*
X133042Y24984D01*
X133381Y25180D01*
X135093Y24593D01*
X135174Y24300D01*
X133833Y22500D01*
X127500D01*
Y43500D01*
X123520D01*
X123520Y51500D01*
X127500D01*
Y112500D01*
X142688D01*
X142796Y112419D01*
X143800Y110838D01*
X143354Y109767D01*
X142537Y108941D01*
X142420Y108824D01*
X142059Y108463D01*
X141800Y107838D01*
Y107162D01*
X142059Y106537D01*
X142537Y106059D01*
X143162Y105800D01*
X143838D01*
X144463Y106059D01*
X144941Y106537D01*
X145137Y107010D01*
X145200Y107162D01*
X145646Y108233D01*
X146463Y109059D01*
X146580Y109176D01*
X146941Y109537D01*
X147200Y110162D01*
Y110700D01*
X147200Y110838D01*
X148205Y112419D01*
X148312Y112500D01*
X148500D01*
Y116481D01*
X156500D01*
Y112500D01*
X172500D01*
Y116481D01*
X180500D01*
Y114175D01*
D02*
G37*
G36*
X75500D02*
X75500Y112950D01*
X74198Y112096D01*
X73925Y111957D01*
X73338Y112200D01*
X73338Y112200D01*
X73202Y112200D01*
X72662D01*
X72037Y111941D01*
X71559Y111463D01*
X71300Y110838D01*
Y110162D01*
X71559Y109537D01*
X72037Y109059D01*
X72662Y108800D01*
X73338D01*
X73963Y109059D01*
X74441Y109537D01*
X74700Y110162D01*
X74700Y110838D01*
X74748Y111250D01*
X75669Y112392D01*
X75800Y112491D01*
X75835Y112500D01*
X77114Y112500D01*
X112500D01*
Y99968D01*
X110700Y99688D01*
X110484Y99991D01*
X110296Y100179D01*
X109991Y100484D01*
X109348Y100750D01*
X108652D01*
X108009Y100484D01*
X107715Y100189D01*
X107463Y100441D01*
X106838Y100700D01*
X106162D01*
X105537Y100441D01*
X105059Y99963D01*
X104800Y99338D01*
Y98662D01*
X105059Y98037D01*
X105537Y97559D01*
X106162Y97300D01*
X106838D01*
X107463Y97559D01*
X107715Y97811D01*
X108009Y97516D01*
X108652Y97250D01*
X109348D01*
X109991Y97516D01*
X110484Y98009D01*
X110700Y98312D01*
X112500Y98032D01*
Y91500D01*
X116481D01*
Y83500D01*
X112500D01*
Y66667D01*
X111338Y65200D01*
X110662D01*
X110037Y64941D01*
X109559Y64463D01*
X109300Y63838D01*
Y63162D01*
X109559Y62537D01*
Y61463D01*
X109300Y60838D01*
Y60162D01*
X109559Y59537D01*
X110037Y59059D01*
X110662Y58800D01*
X111338D01*
X112500Y57333D01*
Y22500D01*
X91500D01*
Y18520D01*
X83500D01*
Y22500D01*
X43756D01*
X43420Y23160D01*
X43204Y24300D01*
X43441Y24537D01*
X43700Y25162D01*
Y25838D01*
X43441Y26463D01*
X42963Y26941D01*
X42338Y27200D01*
X41662D01*
X41037Y26941D01*
X40559Y26463D01*
X40300Y25838D01*
Y25162D01*
X40559Y24537D01*
X40067Y24072D01*
X38441Y24463D01*
X37963Y24941D01*
X37338Y25200D01*
X36662D01*
X36037Y24941D01*
X35559Y24463D01*
X33933Y24072D01*
X33441Y24537D01*
X33700Y25162D01*
Y25838D01*
X33441Y26463D01*
X32963Y26941D01*
X32338Y27200D01*
X31662D01*
X31494Y27131D01*
X30136Y27679D01*
X29638Y28088D01*
X29516Y28542D01*
X29161Y29158D01*
X28658Y29661D01*
X28042Y30016D01*
X27356Y30200D01*
X26645D01*
X25958Y30016D01*
X25342Y29661D01*
X24839Y29158D01*
X24484Y28542D01*
X24300Y27856D01*
Y27145D01*
X24484Y26458D01*
X24839Y25842D01*
X25342Y25339D01*
X25958Y24984D01*
X26645Y24800D01*
X27356D01*
X28042Y24984D01*
X28381Y25180D01*
X30094Y24593D01*
X30174Y24300D01*
X28833Y22500D01*
X22500D01*
Y43500D01*
X18520D01*
X18519Y51500D01*
X22500D01*
Y112500D01*
X37688D01*
X37796Y112419D01*
X38800Y110838D01*
X38354Y109767D01*
X37537Y108941D01*
X37420Y108824D01*
X37059Y108463D01*
X36800Y107838D01*
Y107162D01*
X37059Y106537D01*
X37537Y106059D01*
X38162Y105800D01*
X38838D01*
X39463Y106059D01*
X39941Y106537D01*
X40137Y107010D01*
X40200Y107162D01*
X40646Y108233D01*
X41463Y109059D01*
X41580Y109176D01*
X41941Y109537D01*
X42200Y110162D01*
Y110700D01*
X42200Y110838D01*
X43204Y112419D01*
X43312Y112500D01*
X43500D01*
Y116481D01*
X51500D01*
Y112500D01*
X67500D01*
Y116481D01*
X75500D01*
Y114175D01*
D02*
G37*
%LPC*%
G36*
X281338Y317200D02*
X280662D01*
X280037Y316941D01*
X279559Y316463D01*
X279300Y315838D01*
Y315162D01*
X279559Y314537D01*
X280037Y314059D01*
X280662Y313800D01*
X281338D01*
X281963Y314059D01*
X282441Y314537D01*
X282700Y315162D01*
Y315838D01*
X282441Y316463D01*
X281963Y316941D01*
X281338Y317200D01*
D02*
G37*
G36*
X253838Y312700D02*
X253162D01*
X252537Y312441D01*
X252059Y311963D01*
X251800Y311338D01*
Y310662D01*
X252059Y310037D01*
X252537Y309559D01*
X253162Y309300D01*
X253838D01*
X254463Y309559D01*
X255537D01*
X256162Y309300D01*
X256838D01*
X257463Y309559D01*
X257941Y310037D01*
X258200Y310662D01*
Y311338D01*
X257941Y311963D01*
X257463Y312441D01*
X256838Y312700D01*
X256162D01*
X255537Y312441D01*
X254463D01*
X253838Y312700D01*
D02*
G37*
G36*
X298338Y301200D02*
X297662D01*
X297037Y300941D01*
X296000Y300630D01*
X294963Y300941D01*
X294338Y301200D01*
X293662D01*
X293037Y300941D01*
X292793Y300697D01*
X291750Y300565D01*
X290707Y300697D01*
X290463Y300941D01*
X289838Y301200D01*
X289162D01*
X288537Y300941D01*
X287500Y300630D01*
X286463Y300941D01*
X285838Y301200D01*
X285162D01*
X284537Y300941D01*
X284059Y300463D01*
X283800Y299838D01*
Y299200D01*
X283162D01*
X282537Y298941D01*
X282007Y298511D01*
X281491Y298984D01*
X281491Y298984D01*
X280848Y299250D01*
X280152D01*
X279509Y298984D01*
X278491D01*
X277848Y299250D01*
X277152D01*
X276509Y298984D01*
X275491D01*
X274848Y299250D01*
X274152D01*
X273509Y298984D01*
X273017Y298491D01*
X272750Y297848D01*
Y297152D01*
X273017Y296509D01*
X273509Y296017D01*
X274152Y295750D01*
X274848D01*
X275491Y296017D01*
X276509D01*
X277152Y295750D01*
X277848D01*
X278491Y296017D01*
X279509D01*
X280152Y295750D01*
X280848D01*
X281491Y296017D01*
X281491Y296017D01*
X282007Y296490D01*
X282537Y296059D01*
X283162Y295800D01*
X283838D01*
X284463Y296059D01*
X285500Y296370D01*
X286537Y296059D01*
X287162Y295800D01*
X287838D01*
X288463Y296059D01*
X289500Y296370D01*
X290537Y296059D01*
X291162Y295800D01*
X291838D01*
X292463Y296059D01*
X292707Y296303D01*
X293750Y296435D01*
X294793Y296303D01*
X295037Y296059D01*
X295662Y295800D01*
X296338D01*
X296963Y296059D01*
X297441Y296537D01*
X297700Y297162D01*
Y297800D01*
X298338D01*
X298963Y298059D01*
X299441Y298537D01*
X299700Y299162D01*
Y299838D01*
X299441Y300463D01*
X298963Y300941D01*
X298338Y301200D01*
D02*
G37*
G36*
X241338Y302700D02*
X240662D01*
X240037Y302441D01*
X239559Y301963D01*
X239300Y301338D01*
Y300662D01*
X239559Y300037D01*
X240037Y299559D01*
X240662Y299300D01*
X241338D01*
X241963Y299559D01*
X242441Y300037D01*
X242700Y300662D01*
Y301338D01*
X242441Y301963D01*
X241963Y302441D01*
X241338Y302700D01*
D02*
G37*
G36*
X300348Y294750D02*
X299652D01*
X299009Y294484D01*
X298517Y293991D01*
X298250Y293348D01*
Y292652D01*
X298517Y292009D01*
X299009Y291516D01*
X299652Y291250D01*
X300348D01*
X300991Y291516D01*
X301484Y292009D01*
X301750Y292652D01*
Y293348D01*
X301484Y293991D01*
X300991Y294484D01*
X300348Y294750D01*
D02*
G37*
G36*
X264848D02*
X264152D01*
X263509Y294484D01*
X263017Y293991D01*
X262750Y293348D01*
Y292652D01*
X263017Y292009D01*
X263509Y291516D01*
X264152Y291250D01*
X264750D01*
Y290652D01*
X265017Y290009D01*
X265509Y289516D01*
X266152Y289250D01*
X266848D01*
X267491Y289516D01*
X267984Y290009D01*
X268250Y290652D01*
Y291348D01*
X267984Y291991D01*
X267491Y292484D01*
X266848Y292750D01*
X266250D01*
Y293348D01*
X265984Y293991D01*
X265491Y294484D01*
X264848Y294750D01*
D02*
G37*
G36*
X275362Y291698D02*
X274686D01*
X274061Y291439D01*
X273583Y290961D01*
X273324Y290336D01*
Y289660D01*
X273583Y289035D01*
X274061Y288557D01*
X274686Y288298D01*
X275362D01*
X275987Y288557D01*
X276465Y289035D01*
X276724Y289660D01*
Y290336D01*
X276465Y290961D01*
X275987Y291439D01*
X275362Y291698D01*
D02*
G37*
G36*
X251838Y287200D02*
X251162D01*
X250537Y286941D01*
X250244Y286649D01*
X250059Y286463D01*
X249932Y286243D01*
X249924Y286234D01*
X249000Y286153D01*
X248076Y286234D01*
X248068Y286243D01*
X247941Y286463D01*
X247463Y286941D01*
X246838Y287200D01*
X246162D01*
X245537Y286941D01*
X245059Y286463D01*
X244800Y285838D01*
Y285162D01*
X245059Y284537D01*
X245352Y284244D01*
X245537Y284059D01*
X245757Y283932D01*
X245765Y283924D01*
X245847Y283000D01*
X245765Y282076D01*
X245757Y282068D01*
X245537Y281941D01*
X245059Y281463D01*
X244800Y280838D01*
Y280162D01*
X245004Y279669D01*
X245057Y279542D01*
X245062Y279526D01*
X245315Y278500D01*
X245062Y277474D01*
X245057Y277458D01*
X245004Y277331D01*
X244800Y276838D01*
Y276162D01*
X245059Y275537D01*
X245537Y275059D01*
X246162Y274800D01*
X246334Y274758D01*
X247058Y274542D01*
X247351Y274404D01*
X247605Y274208D01*
X247661Y274109D01*
X247651Y273993D01*
X247326Y272463D01*
X247243Y272283D01*
X247212Y272253D01*
X245929Y271103D01*
X245537Y270941D01*
X245245Y270649D01*
X245059Y270463D01*
X244932Y270243D01*
X244924Y270234D01*
X244000Y270153D01*
X243076Y270234D01*
X243068Y270243D01*
X242941Y270463D01*
X242756Y270649D01*
X242463Y270941D01*
X242243Y271068D01*
X242234Y271076D01*
X242153Y272000D01*
X242234Y272924D01*
X242243Y272932D01*
X242463Y273059D01*
X242941Y273537D01*
X243200Y274162D01*
Y274838D01*
X242941Y275463D01*
X242463Y275941D01*
X241838Y276200D01*
X241162D01*
X240537Y275941D01*
X240059Y275463D01*
X239800Y274838D01*
Y274162D01*
X240059Y273537D01*
X240352Y273245D01*
X240537Y273059D01*
X240757Y272932D01*
X240766Y272924D01*
X240847Y272000D01*
X240766Y271076D01*
X240757Y271068D01*
X240537Y270941D01*
X240059Y270463D01*
X239800Y269838D01*
Y269162D01*
X240059Y268537D01*
X240537Y268059D01*
X241162Y267800D01*
X241838D01*
X242463Y268059D01*
X242756Y268352D01*
X242941Y268537D01*
X243068Y268757D01*
X243076Y268765D01*
X244000Y268847D01*
X244924Y268765D01*
X244932Y268757D01*
X245059Y268537D01*
X245537Y268059D01*
X246162Y267800D01*
X246838D01*
X247463Y268059D01*
X247941Y268537D01*
X248200Y269162D01*
X249338Y270300D01*
X249963Y270559D01*
X250162Y270758D01*
X251629Y270766D01*
X252221Y270631D01*
X252562Y270291D01*
X253187Y270032D01*
X253863D01*
X254488Y270291D01*
X254966Y270769D01*
X255225Y271394D01*
Y272070D01*
X254966Y272695D01*
X254488Y273173D01*
X253863Y273432D01*
X253187D01*
X252562Y273173D01*
X252363Y272974D01*
X250896Y272966D01*
X250304Y273101D01*
X249963Y273441D01*
X249338Y273700D01*
X249166Y273742D01*
X248442Y273958D01*
X248149Y274096D01*
X247895Y274292D01*
X247839Y274391D01*
X247912Y275207D01*
X247976Y275489D01*
X248104Y275930D01*
X248200Y276162D01*
X248200Y276162D01*
X248200Y276267D01*
Y276838D01*
X247996Y277331D01*
X247943Y277458D01*
X247938Y277474D01*
X247685Y278500D01*
X247938Y279526D01*
X247943Y279542D01*
X247996Y279669D01*
X248200Y280162D01*
Y280838D01*
X247941Y281463D01*
X247649Y281756D01*
X247463Y281941D01*
X247243Y282068D01*
X247235Y282076D01*
X247153Y283000D01*
X247235Y283924D01*
X247243Y283932D01*
X247463Y284059D01*
X247649Y284244D01*
X247941Y284537D01*
X248068Y284757D01*
X248076Y284766D01*
X249000Y284847D01*
X249924Y284766D01*
X249932Y284757D01*
X250059Y284537D01*
X250537Y284059D01*
X251162Y283800D01*
X251838D01*
X252463Y284059D01*
X252941Y284537D01*
X253200Y285162D01*
Y285838D01*
X252941Y286463D01*
X252463Y286941D01*
X251838Y287200D01*
D02*
G37*
G36*
X269841Y286132D02*
X269165D01*
X268540Y285873D01*
X268062Y285395D01*
X267803Y284770D01*
Y284094D01*
X268062Y283469D01*
X268540Y282991D01*
X269165Y282732D01*
X269841D01*
X270466Y282991D01*
X270944Y283469D01*
X271203Y284094D01*
Y284770D01*
X270944Y285395D01*
X270466Y285873D01*
X269841Y286132D01*
D02*
G37*
G36*
X251838Y280200D02*
X251162D01*
X250537Y279941D01*
X250059Y279463D01*
X249800Y278838D01*
Y278162D01*
X250059Y277537D01*
X250537Y277059D01*
X251162Y276800D01*
X251838D01*
X252463Y277059D01*
X252941Y277537D01*
X253200Y278162D01*
Y278838D01*
X252941Y279463D01*
X252463Y279941D01*
X251838Y280200D01*
D02*
G37*
G36*
X297338Y289700D02*
X296662D01*
X296037Y289441D01*
X295559Y288963D01*
X295300Y288338D01*
Y287662D01*
X295559Y287037D01*
X295870Y286000D01*
X295559Y284963D01*
X295300Y284338D01*
Y283662D01*
X295559Y283037D01*
X296037Y282559D01*
X296662Y282300D01*
X297300D01*
Y281662D01*
X297559Y281037D01*
X297764Y280604D01*
X297896Y280296D01*
X297078Y278681D01*
X297010Y278637D01*
X296537Y278441D01*
X296537Y278441D01*
X296059Y277963D01*
X295800Y277338D01*
Y276662D01*
X296059Y276037D01*
X296537Y275559D01*
X297162Y275300D01*
X297800D01*
Y274662D01*
X298059Y274037D01*
X298537Y273559D01*
X299162Y273300D01*
X299800D01*
Y272662D01*
X300059Y272037D01*
X300537Y271559D01*
X301162Y271300D01*
X301838D01*
X302463Y271559D01*
X302941Y272037D01*
X303200Y272662D01*
Y273338D01*
X302941Y273963D01*
X302463Y274441D01*
X301838Y274700D01*
X301200D01*
Y275338D01*
X300941Y275963D01*
X300463Y276441D01*
X299838Y276700D01*
X299200D01*
Y277338D01*
X298941Y277963D01*
X298736Y278397D01*
X298604Y278704D01*
X299422Y280319D01*
X299490Y280363D01*
X299963Y280559D01*
X299963Y280559D01*
X300441Y281037D01*
X300700Y281662D01*
Y282338D01*
X300441Y282963D01*
X300131Y284000D01*
X300441Y285037D01*
X300700Y285662D01*
Y286338D01*
X300441Y286963D01*
X299963Y287441D01*
X299338Y287700D01*
X298700D01*
Y288338D01*
X298441Y288963D01*
X297963Y289441D01*
X297338Y289700D01*
D02*
G37*
G36*
X286949Y273382D02*
X286272D01*
X285648Y273123D01*
X285169Y272645D01*
X284910Y272020D01*
Y271344D01*
X285169Y270719D01*
X285648Y270241D01*
X286272Y269982D01*
X286949D01*
X287574Y270241D01*
X288052Y270719D01*
X288311Y271344D01*
Y272020D01*
X288052Y272645D01*
X287574Y273123D01*
X286949Y273382D01*
D02*
G37*
G36*
X274346Y267811D02*
X273670D01*
X273045Y267552D01*
X272567Y267074D01*
X272308Y266449D01*
Y265773D01*
X272567Y265148D01*
X273045Y264670D01*
X273670Y264411D01*
X274346D01*
X274971Y264670D01*
X275450Y265148D01*
X275708Y265773D01*
Y266449D01*
X275450Y267074D01*
X274971Y267552D01*
X274346Y267811D01*
D02*
G37*
G36*
X294848Y266750D02*
X294152D01*
X293509Y266484D01*
X293017Y265991D01*
X292750Y265348D01*
Y264652D01*
X293017Y264009D01*
X293509Y263516D01*
X294152Y263250D01*
X294848D01*
X295491Y263516D01*
X295984Y264009D01*
X296250Y264652D01*
Y265348D01*
X295984Y265991D01*
X295491Y266484D01*
X294848Y266750D01*
D02*
G37*
G36*
X308338Y263700D02*
X307662D01*
X307037Y263441D01*
X306559Y262963D01*
X306300Y262338D01*
Y261662D01*
X306559Y261037D01*
X307037Y260559D01*
X307662Y260300D01*
X308338D01*
X308963Y260559D01*
X309441Y261037D01*
X309700Y261662D01*
Y262338D01*
X309441Y262963D01*
X308963Y263441D01*
X308338Y263700D01*
D02*
G37*
G36*
X268848Y262250D02*
X268152D01*
X267509Y261984D01*
X267017Y261491D01*
X266750Y260848D01*
Y260152D01*
X267017Y259509D01*
X267509Y259016D01*
X268152Y258750D01*
X268848D01*
X269491Y259016D01*
X269984Y259509D01*
X270250Y260152D01*
Y260848D01*
X269984Y261491D01*
X269491Y261984D01*
X268848Y262250D01*
D02*
G37*
G36*
X241838Y259173D02*
X241162D01*
X240537Y258914D01*
X240059Y258436D01*
X239800Y257811D01*
Y257135D01*
X240059Y256510D01*
X240537Y256032D01*
X241162Y255773D01*
X241838D01*
X242463Y256032D01*
X242941Y256510D01*
X243200Y257135D01*
Y257811D01*
X242941Y258436D01*
X242463Y258914D01*
X241838Y259173D01*
D02*
G37*
G36*
X315313Y256432D02*
X314637D01*
X314012Y256173D01*
X313534Y255695D01*
X313275Y255070D01*
Y254394D01*
X313534Y253769D01*
X314012Y253291D01*
X314637Y253032D01*
X315313D01*
X315938Y253291D01*
X316416Y253769D01*
X316675Y254394D01*
Y255070D01*
X316416Y255695D01*
X315938Y256173D01*
X315313Y256432D01*
D02*
G37*
G36*
X278338Y260200D02*
X277662D01*
X277037Y259941D01*
X276559Y259463D01*
X276300Y258838D01*
Y258200D01*
X275662D01*
X275037Y257941D01*
X274559Y257463D01*
X274300Y256838D01*
Y256200D01*
X273662D01*
X273037Y255941D01*
X272559Y255463D01*
X272300Y254838D01*
Y254162D01*
X272559Y253537D01*
X273037Y253059D01*
X273662Y252800D01*
X274338D01*
X274963Y253059D01*
X275441Y253537D01*
X275700Y254162D01*
Y254800D01*
X276338D01*
X276963Y255059D01*
X278000Y255370D01*
X279037Y255059D01*
X279662Y254800D01*
X280300D01*
Y254162D01*
X280559Y253537D01*
X281037Y253059D01*
X281662Y252800D01*
X282338D01*
X282963Y253059D01*
X284000Y253370D01*
X285037Y253059D01*
X285662Y252800D01*
X286338D01*
X286963Y253059D01*
X287441Y253537D01*
X287700Y254162D01*
Y254838D01*
X287441Y255463D01*
X286963Y255941D01*
X286338Y256200D01*
X285700D01*
Y256838D01*
X285441Y257463D01*
X284963Y257941D01*
X284338Y258200D01*
X283662D01*
X283037Y257941D01*
X282000Y257630D01*
X280963Y257941D01*
X280338Y258200D01*
X279700D01*
Y258838D01*
X279441Y259463D01*
X278963Y259941D01*
X278338Y260200D01*
D02*
G37*
G36*
X257338Y264200D02*
X256662D01*
X256037Y263941D01*
X255559Y263463D01*
X255300Y262838D01*
Y262200D01*
X254662D01*
X254037Y261941D01*
X253559Y261463D01*
X253300Y260838D01*
Y260162D01*
X253559Y259537D01*
X253870Y258500D01*
X253559Y257463D01*
X253300Y256838D01*
Y256162D01*
X253559Y255537D01*
X254037Y255059D01*
X254662Y254800D01*
X255300D01*
Y254162D01*
X255559Y253537D01*
X256037Y253059D01*
X256662Y252800D01*
X256662Y252800D01*
X257338Y252800D01*
X258117Y253069D01*
X258117D01*
X258117Y253069D01*
X258004Y253030D01*
X258507Y253066D01*
X259270Y253050D01*
X259583Y253034D01*
X260018Y252952D01*
X260522Y252641D01*
X260679Y252539D01*
X261013Y252234D01*
X261558Y251540D01*
X261559Y251537D01*
X262037Y251059D01*
X262662Y250800D01*
X263338D01*
X263963Y251059D01*
X264441Y251537D01*
X264700Y252162D01*
Y252800D01*
X265338D01*
X265963Y253059D01*
X266441Y253537D01*
X266700Y254162D01*
Y254838D01*
X266441Y255463D01*
X265963Y255941D01*
X265338Y256200D01*
X264662D01*
X264037Y255941D01*
X263000Y255630D01*
X261963Y255941D01*
X261338Y256200D01*
X260662D01*
X260169Y255996D01*
X260042Y255943D01*
X260026Y255939D01*
X259766Y255874D01*
X258585Y257062D01*
X258441Y257537D01*
X258700Y258162D01*
Y258838D01*
X258441Y259463D01*
X258131Y260500D01*
X258441Y261537D01*
X258700Y262162D01*
Y262838D01*
X258441Y263463D01*
X257963Y263941D01*
X257338Y264200D01*
D02*
G37*
G36*
X247338Y250700D02*
X246662D01*
X246037Y250441D01*
X245559Y249963D01*
X245300Y249338D01*
Y248662D01*
X245559Y248037D01*
X246037Y247559D01*
X246662Y247300D01*
X247338D01*
X247963Y247559D01*
X248441Y248037D01*
X248700Y248662D01*
Y249338D01*
X248441Y249963D01*
X247963Y250441D01*
X247338Y250700D01*
D02*
G37*
G36*
X237355Y248200D02*
X236645D01*
X235958Y248016D01*
X235342Y247661D01*
X234840Y247158D01*
X234484Y246542D01*
X234300Y245855D01*
Y245145D01*
X234484Y244458D01*
X234840Y243842D01*
X235342Y243339D01*
X235958Y242984D01*
X236645Y242800D01*
X237355D01*
X238042Y242984D01*
X238658Y243339D01*
X239161Y243842D01*
X239516Y244458D01*
X239700Y245145D01*
Y245855D01*
X239516Y246542D01*
X239161Y247158D01*
X238658Y247661D01*
X238042Y248016D01*
X237355Y248200D01*
D02*
G37*
G36*
X257355Y244200D02*
X256645D01*
X255958Y244016D01*
X255342Y243661D01*
X254839Y243158D01*
X254484Y242542D01*
X254300Y241856D01*
Y241145D01*
X254484Y240458D01*
X254839Y239842D01*
X255342Y239339D01*
X255958Y238984D01*
X256645Y238800D01*
X257355D01*
X258042Y238984D01*
X258658Y239339D01*
X259161Y239842D01*
X259516Y240458D01*
X259700Y241145D01*
Y241856D01*
X259516Y242542D01*
X259161Y243158D01*
X258658Y243661D01*
X258042Y244016D01*
X257355Y244200D01*
D02*
G37*
G36*
X296838Y240200D02*
X296162D01*
X295537Y239941D01*
X295059Y239463D01*
X294800Y238838D01*
Y238162D01*
X295059Y237537D01*
X295537Y237059D01*
X296162Y236800D01*
X296838D01*
X297463Y237059D01*
X297941Y237537D01*
X298200Y238162D01*
Y238838D01*
X297941Y239463D01*
X297463Y239941D01*
X296838Y240200D01*
D02*
G37*
G36*
X176338Y317200D02*
X175662D01*
X175037Y316941D01*
X174559Y316463D01*
X174300Y315838D01*
Y315162D01*
X174559Y314537D01*
X175037Y314059D01*
X175662Y313800D01*
X176338D01*
X176963Y314059D01*
X177441Y314537D01*
X177700Y315162D01*
Y315838D01*
X177441Y316463D01*
X176963Y316941D01*
X176338Y317200D01*
D02*
G37*
G36*
X148838Y312700D02*
X148162D01*
X147537Y312441D01*
X147059Y311963D01*
X146800Y311338D01*
Y310662D01*
X147059Y310037D01*
X147537Y309559D01*
X148162Y309300D01*
X148838D01*
X149463Y309559D01*
X150537D01*
X151162Y309300D01*
X151838D01*
X152463Y309559D01*
X152941Y310037D01*
X153200Y310662D01*
Y311338D01*
X152941Y311963D01*
X152463Y312441D01*
X151838Y312700D01*
X151162D01*
X150537Y312441D01*
X149463D01*
X148838Y312700D01*
D02*
G37*
G36*
X193338Y301200D02*
X192662D01*
X192037Y300941D01*
X191000Y300630D01*
X189963Y300941D01*
X189338Y301200D01*
X188662D01*
X188037Y300941D01*
X187793Y300697D01*
X186750Y300565D01*
X185707Y300697D01*
X185463Y300941D01*
X184838Y301200D01*
X184162D01*
X183537Y300941D01*
X182500Y300630D01*
X181463Y300941D01*
X180838Y301200D01*
X180162D01*
X179537Y300941D01*
X179059Y300463D01*
X178800Y299838D01*
Y299200D01*
X178162D01*
X177537Y298941D01*
X177007Y298511D01*
X176491Y298984D01*
X176491Y298984D01*
X175848Y299250D01*
X175152D01*
X174509Y298984D01*
X173491D01*
X172848Y299250D01*
X172152D01*
X171509Y298984D01*
X170491D01*
X169848Y299250D01*
X169152D01*
X168509Y298984D01*
X168017Y298491D01*
X167750Y297848D01*
Y297152D01*
X168017Y296509D01*
X168509Y296017D01*
X169152Y295750D01*
X169848D01*
X170491Y296017D01*
X171509D01*
X172152Y295750D01*
X172848D01*
X173491Y296017D01*
X174509D01*
X175152Y295750D01*
X175848D01*
X176491Y296017D01*
X176491Y296017D01*
X177007Y296490D01*
X177537Y296059D01*
X178162Y295800D01*
X178838D01*
X179463Y296059D01*
X180500Y296370D01*
X181537Y296059D01*
X182162Y295800D01*
X182838D01*
X183463Y296059D01*
X184500Y296370D01*
X185537Y296059D01*
X186162Y295800D01*
X186838D01*
X187463Y296059D01*
X187707Y296303D01*
X188750Y296435D01*
X189793Y296303D01*
X190037Y296059D01*
X190662Y295800D01*
X191338D01*
X191963Y296059D01*
X192441Y296537D01*
X192700Y297162D01*
Y297800D01*
X193338D01*
X193963Y298059D01*
X194441Y298537D01*
X194700Y299162D01*
Y299838D01*
X194441Y300463D01*
X193963Y300941D01*
X193338Y301200D01*
D02*
G37*
G36*
X136338Y302700D02*
X135662D01*
X135037Y302441D01*
X134559Y301963D01*
X134300Y301338D01*
Y300662D01*
X134559Y300037D01*
X135037Y299559D01*
X135662Y299300D01*
X136338D01*
X136963Y299559D01*
X137441Y300037D01*
X137700Y300662D01*
Y301338D01*
X137441Y301963D01*
X136963Y302441D01*
X136338Y302700D01*
D02*
G37*
G36*
X195348Y294750D02*
X194652D01*
X194009Y294484D01*
X193517Y293991D01*
X193250Y293348D01*
Y292652D01*
X193517Y292009D01*
X194009Y291516D01*
X194652Y291250D01*
X195348D01*
X195991Y291516D01*
X196484Y292009D01*
X196750Y292652D01*
Y293348D01*
X196484Y293991D01*
X195991Y294484D01*
X195348Y294750D01*
D02*
G37*
G36*
X159848D02*
X159152D01*
X158509Y294484D01*
X158017Y293991D01*
X157750Y293348D01*
Y292652D01*
X158017Y292009D01*
X158509Y291516D01*
X159152Y291250D01*
X159750D01*
Y290652D01*
X160017Y290009D01*
X160509Y289516D01*
X161152Y289250D01*
X161848D01*
X162491Y289516D01*
X162984Y290009D01*
X163250Y290652D01*
Y291348D01*
X162984Y291991D01*
X162491Y292484D01*
X161848Y292750D01*
X161250D01*
Y293348D01*
X160984Y293991D01*
X160491Y294484D01*
X159848Y294750D01*
D02*
G37*
G36*
X170362Y291698D02*
X169686D01*
X169061Y291439D01*
X168583Y290961D01*
X168324Y290336D01*
Y289660D01*
X168583Y289035D01*
X169061Y288557D01*
X169686Y288298D01*
X170362D01*
X170987Y288557D01*
X171465Y289035D01*
X171724Y289660D01*
Y290336D01*
X171465Y290961D01*
X170987Y291439D01*
X170362Y291698D01*
D02*
G37*
G36*
X146838Y287200D02*
X146162D01*
X145537Y286941D01*
X145244Y286649D01*
X145059Y286463D01*
X144932Y286243D01*
X144924Y286234D01*
X144000Y286153D01*
X143076Y286234D01*
X143068Y286243D01*
X142941Y286463D01*
X142463Y286941D01*
X141838Y287200D01*
X141162D01*
X140537Y286941D01*
X140059Y286463D01*
X139800Y285838D01*
Y285162D01*
X140059Y284537D01*
X140351Y284244D01*
X140537Y284059D01*
X140757Y283932D01*
X140766Y283924D01*
X140847Y283000D01*
X140766Y282076D01*
X140757Y282068D01*
X140537Y281941D01*
X140059Y281463D01*
X139800Y280838D01*
Y280162D01*
X140004Y279669D01*
X140057Y279542D01*
X140062Y279526D01*
X140315Y278500D01*
X140062Y277474D01*
X140057Y277458D01*
X140004Y277331D01*
X139800Y276838D01*
Y276162D01*
X140059Y275537D01*
X140537Y275059D01*
X141162Y274800D01*
X141334Y274758D01*
X142058Y274542D01*
X142351Y274404D01*
X142605Y274208D01*
X142661Y274109D01*
X142650Y273993D01*
X142326Y272463D01*
X142243Y272283D01*
X142212Y272253D01*
X140929Y271103D01*
X140537Y270941D01*
X140244Y270649D01*
X140059Y270463D01*
X139932Y270243D01*
X139924Y270234D01*
X139000Y270153D01*
X138076Y270234D01*
X138068Y270243D01*
X137941Y270463D01*
X137756Y270649D01*
X137463Y270941D01*
X137243Y271068D01*
X137234Y271076D01*
X137153Y272000D01*
X137234Y272924D01*
X137243Y272932D01*
X137463Y273059D01*
X137941Y273537D01*
X138200Y274162D01*
Y274838D01*
X137941Y275463D01*
X137463Y275941D01*
X136838Y276200D01*
X136162D01*
X135537Y275941D01*
X135059Y275463D01*
X134800Y274838D01*
Y274162D01*
X135059Y273537D01*
X135352Y273245D01*
X135537Y273059D01*
X135757Y272932D01*
X135766Y272924D01*
X135847Y272000D01*
X135766Y271076D01*
X135757Y271068D01*
X135537Y270941D01*
X135059Y270463D01*
X134800Y269838D01*
Y269162D01*
X135059Y268537D01*
X135537Y268059D01*
X136162Y267800D01*
X136838D01*
X137463Y268059D01*
X137756Y268352D01*
X137941Y268537D01*
X138068Y268757D01*
X138076Y268765D01*
X139000Y268847D01*
X139924Y268765D01*
X139932Y268757D01*
X140059Y268537D01*
X140537Y268059D01*
X141162Y267800D01*
X141838D01*
X142463Y268059D01*
X142941Y268537D01*
X143200Y269162D01*
X144338Y270300D01*
X144963Y270559D01*
X145162Y270758D01*
X146629Y270766D01*
X147222Y270631D01*
X147562Y270291D01*
X148187Y270032D01*
X148863D01*
X149488Y270291D01*
X149966Y270769D01*
X150225Y271394D01*
Y272070D01*
X149966Y272695D01*
X149488Y273173D01*
X148863Y273432D01*
X148187D01*
X147562Y273173D01*
X147363Y272974D01*
X145896Y272966D01*
X145304Y273101D01*
X144963Y273441D01*
X144338Y273700D01*
X144166Y273742D01*
X143442Y273958D01*
X143149Y274096D01*
X142895Y274292D01*
X142839Y274391D01*
X142912Y275207D01*
X142976Y275489D01*
X143104Y275930D01*
X143200Y276162D01*
X143200Y276162D01*
X143200Y276267D01*
Y276838D01*
X142996Y277331D01*
X142943Y277458D01*
X142938Y277474D01*
X142685Y278500D01*
X142938Y279526D01*
X142943Y279542D01*
X142996Y279669D01*
X143200Y280162D01*
Y280838D01*
X142941Y281463D01*
X142649Y281756D01*
X142463Y281941D01*
X142243Y282068D01*
X142235Y282076D01*
X142153Y283000D01*
X142235Y283924D01*
X142243Y283932D01*
X142463Y284059D01*
X142649Y284244D01*
X142941Y284537D01*
X143068Y284757D01*
X143076Y284766D01*
X144000Y284847D01*
X144924Y284766D01*
X144932Y284757D01*
X145059Y284537D01*
X145537Y284059D01*
X146162Y283800D01*
X146838D01*
X147463Y284059D01*
X147941Y284537D01*
X148200Y285162D01*
Y285838D01*
X147941Y286463D01*
X147463Y286941D01*
X146838Y287200D01*
D02*
G37*
G36*
X164841Y286132D02*
X164165D01*
X163540Y285873D01*
X163062Y285395D01*
X162803Y284770D01*
Y284094D01*
X163062Y283469D01*
X163540Y282991D01*
X164165Y282732D01*
X164841D01*
X165466Y282991D01*
X165944Y283469D01*
X166203Y284094D01*
Y284770D01*
X165944Y285395D01*
X165466Y285873D01*
X164841Y286132D01*
D02*
G37*
G36*
X146838Y280200D02*
X146162D01*
X145537Y279941D01*
X145059Y279463D01*
X144800Y278838D01*
Y278162D01*
X145059Y277537D01*
X145537Y277059D01*
X146162Y276800D01*
X146838D01*
X147463Y277059D01*
X147941Y277537D01*
X148200Y278162D01*
Y278838D01*
X147941Y279463D01*
X147463Y279941D01*
X146838Y280200D01*
D02*
G37*
G36*
X192338Y289700D02*
X191662D01*
X191037Y289441D01*
X190559Y288963D01*
X190300Y288338D01*
Y287662D01*
X190559Y287037D01*
X190870Y286000D01*
X190559Y284963D01*
X190300Y284338D01*
Y283662D01*
X190559Y283037D01*
X191037Y282559D01*
X191662Y282300D01*
X192300D01*
Y281662D01*
X192559Y281037D01*
X192764Y280604D01*
X192896Y280296D01*
X192078Y278681D01*
X192010Y278637D01*
X191537Y278441D01*
X191537Y278441D01*
X191059Y277963D01*
X190800Y277338D01*
Y276662D01*
X191059Y276037D01*
X191537Y275559D01*
X192162Y275300D01*
X192800D01*
Y274662D01*
X193059Y274037D01*
X193537Y273559D01*
X194162Y273300D01*
X194800D01*
Y272662D01*
X195059Y272037D01*
X195537Y271559D01*
X196162Y271300D01*
X196838D01*
X197463Y271559D01*
X197941Y272037D01*
X198200Y272662D01*
Y273338D01*
X197941Y273963D01*
X197463Y274441D01*
X196838Y274700D01*
X196200D01*
Y275338D01*
X195941Y275963D01*
X195463Y276441D01*
X194838Y276700D01*
X194200D01*
Y277338D01*
X193941Y277963D01*
X193736Y278397D01*
X193604Y278704D01*
X194422Y280319D01*
X194490Y280363D01*
X194963Y280559D01*
X194963Y280559D01*
X195441Y281037D01*
X195700Y281662D01*
Y282338D01*
X195441Y282963D01*
X195131Y284000D01*
X195441Y285037D01*
X195700Y285662D01*
Y286338D01*
X195441Y286963D01*
X194963Y287441D01*
X194338Y287700D01*
X193700D01*
Y288338D01*
X193441Y288963D01*
X192963Y289441D01*
X192338Y289700D01*
D02*
G37*
G36*
X181949Y273382D02*
X181272D01*
X180648Y273123D01*
X180169Y272645D01*
X179911Y272020D01*
Y271344D01*
X180169Y270719D01*
X180648Y270241D01*
X181272Y269982D01*
X181949D01*
X182573Y270241D01*
X183052Y270719D01*
X183310Y271344D01*
Y272020D01*
X183052Y272645D01*
X182573Y273123D01*
X181949Y273382D01*
D02*
G37*
G36*
X169346Y267811D02*
X168670D01*
X168045Y267552D01*
X167567Y267074D01*
X167308Y266449D01*
Y265773D01*
X167567Y265148D01*
X168045Y264670D01*
X168670Y264411D01*
X169346D01*
X169971Y264670D01*
X170449Y265148D01*
X170708Y265773D01*
Y266449D01*
X170449Y267074D01*
X169971Y267552D01*
X169346Y267811D01*
D02*
G37*
G36*
X189848Y266750D02*
X189152D01*
X188509Y266484D01*
X188016Y265991D01*
X187750Y265348D01*
Y264652D01*
X188016Y264009D01*
X188509Y263516D01*
X189152Y263250D01*
X189848D01*
X190491Y263516D01*
X190984Y264009D01*
X191250Y264652D01*
Y265348D01*
X190984Y265991D01*
X190491Y266484D01*
X189848Y266750D01*
D02*
G37*
G36*
X203338Y263700D02*
X202662D01*
X202037Y263441D01*
X201559Y262963D01*
X201300Y262338D01*
Y261662D01*
X201559Y261037D01*
X202037Y260559D01*
X202662Y260300D01*
X203338D01*
X203963Y260559D01*
X204441Y261037D01*
X204700Y261662D01*
Y262338D01*
X204441Y262963D01*
X203963Y263441D01*
X203338Y263700D01*
D02*
G37*
G36*
X163848Y262250D02*
X163152D01*
X162509Y261984D01*
X162016Y261491D01*
X161750Y260848D01*
Y260152D01*
X162016Y259509D01*
X162509Y259016D01*
X163152Y258750D01*
X163848D01*
X164491Y259016D01*
X164984Y259509D01*
X165250Y260152D01*
Y260848D01*
X164984Y261491D01*
X164491Y261984D01*
X163848Y262250D01*
D02*
G37*
G36*
X136838Y259173D02*
X136162D01*
X135537Y258914D01*
X135059Y258436D01*
X134800Y257811D01*
Y257135D01*
X135059Y256510D01*
X135537Y256032D01*
X136162Y255773D01*
X136838D01*
X137463Y256032D01*
X137941Y256510D01*
X138200Y257135D01*
Y257811D01*
X137941Y258436D01*
X137463Y258914D01*
X136838Y259173D01*
D02*
G37*
G36*
X210313Y256432D02*
X209637D01*
X209012Y256173D01*
X208534Y255695D01*
X208275Y255070D01*
Y254394D01*
X208534Y253769D01*
X209012Y253291D01*
X209637Y253032D01*
X210313D01*
X210938Y253291D01*
X211416Y253769D01*
X211675Y254394D01*
Y255070D01*
X211416Y255695D01*
X210938Y256173D01*
X210313Y256432D01*
D02*
G37*
G36*
X173338Y260200D02*
X172662D01*
X172037Y259941D01*
X171559Y259463D01*
X171300Y258838D01*
Y258200D01*
X170662D01*
X170037Y257941D01*
X169559Y257463D01*
X169300Y256838D01*
Y256200D01*
X168662D01*
X168037Y255941D01*
X167559Y255463D01*
X167300Y254838D01*
Y254162D01*
X167559Y253537D01*
X168037Y253059D01*
X168662Y252800D01*
X169338D01*
X169963Y253059D01*
X170441Y253537D01*
X170700Y254162D01*
Y254800D01*
X171338D01*
X171963Y255059D01*
X173000Y255370D01*
X174037Y255059D01*
X174662Y254800D01*
X175300D01*
Y254162D01*
X175559Y253537D01*
X176037Y253059D01*
X176662Y252800D01*
X177338D01*
X177963Y253059D01*
X179000Y253370D01*
X180037Y253059D01*
X180662Y252800D01*
X181338D01*
X181963Y253059D01*
X182441Y253537D01*
X182700Y254162D01*
Y254838D01*
X182441Y255463D01*
X181963Y255941D01*
X181338Y256200D01*
X180700D01*
Y256838D01*
X180441Y257463D01*
X179963Y257941D01*
X179338Y258200D01*
X178662D01*
X178037Y257941D01*
X177000Y257630D01*
X175963Y257941D01*
X175338Y258200D01*
X174700D01*
Y258838D01*
X174441Y259463D01*
X173963Y259941D01*
X173338Y260200D01*
D02*
G37*
G36*
X152338Y264200D02*
X151662D01*
X151037Y263941D01*
X150559Y263463D01*
X150300Y262838D01*
Y262200D01*
X149662D01*
X149037Y261941D01*
X148559Y261463D01*
X148300Y260838D01*
Y260162D01*
X148559Y259537D01*
X148870Y258500D01*
X148559Y257463D01*
X148300Y256838D01*
Y256162D01*
X148559Y255537D01*
X149037Y255059D01*
X149662Y254800D01*
X150300D01*
Y254162D01*
X150559Y253537D01*
X151037Y253059D01*
X151662Y252800D01*
X151662Y252800D01*
X152338Y252800D01*
X153117Y253069D01*
X153117D01*
X153117Y253069D01*
X153004Y253030D01*
X153507Y253066D01*
X154270Y253050D01*
X154583Y253034D01*
X155018Y252952D01*
X155522Y252641D01*
X155679Y252539D01*
X156013Y252234D01*
X156558Y251540D01*
X156559Y251537D01*
X157037Y251059D01*
X157662Y250800D01*
X158338D01*
X158963Y251059D01*
X159441Y251537D01*
X159700Y252162D01*
Y252800D01*
X160338D01*
X160963Y253059D01*
X161441Y253537D01*
X161700Y254162D01*
Y254838D01*
X161441Y255463D01*
X160963Y255941D01*
X160338Y256200D01*
X159662D01*
X159037Y255941D01*
X158000Y255630D01*
X156963Y255941D01*
X156338Y256200D01*
X155662D01*
X155169Y255996D01*
X155042Y255943D01*
X155026Y255939D01*
X154766Y255874D01*
X153585Y257062D01*
X153441Y257537D01*
X153700Y258162D01*
Y258838D01*
X153441Y259463D01*
X153130Y260500D01*
X153441Y261537D01*
X153700Y262162D01*
Y262838D01*
X153441Y263463D01*
X152963Y263941D01*
X152338Y264200D01*
D02*
G37*
G36*
X142338Y250700D02*
X141662D01*
X141037Y250441D01*
X140559Y249963D01*
X140300Y249338D01*
Y248662D01*
X140559Y248037D01*
X141037Y247559D01*
X141662Y247300D01*
X142338D01*
X142963Y247559D01*
X143441Y248037D01*
X143700Y248662D01*
Y249338D01*
X143441Y249963D01*
X142963Y250441D01*
X142338Y250700D01*
D02*
G37*
G36*
X132355Y248200D02*
X131645D01*
X130958Y248016D01*
X130342Y247661D01*
X129840Y247158D01*
X129484Y246542D01*
X129300Y245855D01*
Y245145D01*
X129484Y244458D01*
X129840Y243842D01*
X130342Y243339D01*
X130958Y242984D01*
X131645Y242800D01*
X132355D01*
X133042Y242984D01*
X133658Y243339D01*
X134161Y243842D01*
X134516Y244458D01*
X134700Y245145D01*
Y245855D01*
X134516Y246542D01*
X134161Y247158D01*
X133658Y247661D01*
X133042Y248016D01*
X132355Y248200D01*
D02*
G37*
G36*
X152356Y244200D02*
X151645D01*
X150958Y244016D01*
X150342Y243661D01*
X149839Y243158D01*
X149484Y242542D01*
X149300Y241856D01*
Y241145D01*
X149484Y240458D01*
X149839Y239842D01*
X150342Y239339D01*
X150958Y238984D01*
X151645Y238800D01*
X152356D01*
X153042Y238984D01*
X153658Y239339D01*
X154161Y239842D01*
X154516Y240458D01*
X154700Y241145D01*
Y241856D01*
X154516Y242542D01*
X154161Y243158D01*
X153658Y243661D01*
X153042Y244016D01*
X152356Y244200D01*
D02*
G37*
G36*
X191838Y240200D02*
X191162D01*
X190537Y239941D01*
X190059Y239463D01*
X189800Y238838D01*
Y238162D01*
X190059Y237537D01*
X190537Y237059D01*
X191162Y236800D01*
X191838D01*
X192463Y237059D01*
X192941Y237537D01*
X193200Y238162D01*
Y238838D01*
X192941Y239463D01*
X192463Y239941D01*
X191838Y240200D01*
D02*
G37*
G36*
X71338Y317200D02*
X70662D01*
X70037Y316941D01*
X69559Y316463D01*
X69300Y315838D01*
Y315162D01*
X69559Y314537D01*
X70037Y314059D01*
X70662Y313800D01*
X71338D01*
X71963Y314059D01*
X72441Y314537D01*
X72700Y315162D01*
Y315838D01*
X72441Y316463D01*
X71963Y316941D01*
X71338Y317200D01*
D02*
G37*
G36*
X43838Y312700D02*
X43162D01*
X42537Y312441D01*
X42059Y311963D01*
X41800Y311338D01*
Y310662D01*
X42059Y310037D01*
X42537Y309559D01*
X43162Y309300D01*
X43838D01*
X44463Y309559D01*
X45537D01*
X46162Y309300D01*
X46838D01*
X47463Y309559D01*
X47941Y310037D01*
X48200Y310662D01*
Y311338D01*
X47941Y311963D01*
X47463Y312441D01*
X46838Y312700D01*
X46162D01*
X45537Y312441D01*
X44463D01*
X43838Y312700D01*
D02*
G37*
G36*
X88338Y301200D02*
X87662D01*
X87037Y300941D01*
X86000Y300630D01*
X84963Y300941D01*
X84338Y301200D01*
X83662D01*
X83037Y300941D01*
X82793Y300697D01*
X81750Y300565D01*
X80707Y300697D01*
X80463Y300941D01*
X79838Y301200D01*
X79162D01*
X78537Y300941D01*
X77500Y300630D01*
X76463Y300941D01*
X75838Y301200D01*
X75162D01*
X74537Y300941D01*
X74059Y300463D01*
X73800Y299838D01*
Y299200D01*
X73162D01*
X72537Y298941D01*
X72007Y298511D01*
X71491Y298984D01*
X71491Y298984D01*
X70848Y299250D01*
X70152D01*
X69509Y298984D01*
X68491D01*
X67848Y299250D01*
X67152D01*
X66509Y298984D01*
X65491D01*
X64848Y299250D01*
X64152D01*
X63509Y298984D01*
X63016Y298491D01*
X62750Y297848D01*
Y297152D01*
X63016Y296509D01*
X63509Y296017D01*
X64152Y295750D01*
X64848D01*
X65491Y296017D01*
X66509D01*
X67152Y295750D01*
X67848D01*
X68491Y296017D01*
X69509D01*
X70152Y295750D01*
X70848D01*
X71491Y296017D01*
X71491Y296017D01*
X72007Y296490D01*
X72537Y296059D01*
X73162Y295800D01*
X73838D01*
X74463Y296059D01*
X75500Y296370D01*
X76537Y296059D01*
X77162Y295800D01*
X77838D01*
X78463Y296059D01*
X79500Y296370D01*
X80537Y296059D01*
X81162Y295800D01*
X81838D01*
X82463Y296059D01*
X82707Y296303D01*
X83750Y296435D01*
X84793Y296303D01*
X85037Y296059D01*
X85662Y295800D01*
X86338D01*
X86963Y296059D01*
X87441Y296537D01*
X87700Y297162D01*
Y297800D01*
X88338D01*
X88963Y298059D01*
X89441Y298537D01*
X89700Y299162D01*
Y299838D01*
X89441Y300463D01*
X88963Y300941D01*
X88338Y301200D01*
D02*
G37*
G36*
X31338Y302700D02*
X30662D01*
X30037Y302441D01*
X29559Y301963D01*
X29300Y301338D01*
Y300662D01*
X29559Y300037D01*
X30037Y299559D01*
X30662Y299300D01*
X31338D01*
X31963Y299559D01*
X32441Y300037D01*
X32700Y300662D01*
Y301338D01*
X32441Y301963D01*
X31963Y302441D01*
X31338Y302700D01*
D02*
G37*
G36*
X90348Y294750D02*
X89652D01*
X89009Y294484D01*
X88516Y293991D01*
X88250Y293348D01*
Y292652D01*
X88516Y292009D01*
X89009Y291516D01*
X89652Y291250D01*
X90348D01*
X90991Y291516D01*
X91484Y292009D01*
X91750Y292652D01*
Y293348D01*
X91484Y293991D01*
X90991Y294484D01*
X90348Y294750D01*
D02*
G37*
G36*
X54848D02*
X54152D01*
X53509Y294484D01*
X53016Y293991D01*
X52750Y293348D01*
Y292652D01*
X53016Y292009D01*
X53509Y291516D01*
X54152Y291250D01*
X54750D01*
Y290652D01*
X55016Y290009D01*
X55509Y289516D01*
X56152Y289250D01*
X56848D01*
X57491Y289516D01*
X57984Y290009D01*
X58250Y290652D01*
Y291348D01*
X57984Y291991D01*
X57491Y292484D01*
X56848Y292750D01*
X56250D01*
Y293348D01*
X55984Y293991D01*
X55491Y294484D01*
X54848Y294750D01*
D02*
G37*
G36*
X65362Y291698D02*
X64686D01*
X64061Y291439D01*
X63583Y290961D01*
X63324Y290336D01*
Y289660D01*
X63583Y289035D01*
X64061Y288557D01*
X64686Y288298D01*
X65362D01*
X65987Y288557D01*
X66465Y289035D01*
X66724Y289660D01*
Y290336D01*
X66465Y290961D01*
X65987Y291439D01*
X65362Y291698D01*
D02*
G37*
G36*
X41838Y287200D02*
X41162D01*
X40537Y286941D01*
X40244Y286649D01*
X40059Y286463D01*
X39932Y286243D01*
X39924Y286234D01*
X39000Y286153D01*
X38076Y286234D01*
X38068Y286243D01*
X37941Y286463D01*
X37463Y286941D01*
X36838Y287200D01*
X36162D01*
X35537Y286941D01*
X35059Y286463D01*
X34800Y285838D01*
Y285162D01*
X35059Y284537D01*
X35351Y284244D01*
X35537Y284059D01*
X35757Y283932D01*
X35765Y283924D01*
X35847Y283000D01*
X35765Y282076D01*
X35757Y282068D01*
X35537Y281941D01*
X35059Y281463D01*
X34800Y280838D01*
Y280162D01*
X35004Y279669D01*
X35057Y279542D01*
X35061Y279526D01*
X35315Y278500D01*
X35061Y277474D01*
X35057Y277458D01*
X35004Y277331D01*
X34800Y276838D01*
Y276162D01*
X35059Y275537D01*
X35537Y275059D01*
X36162Y274800D01*
X36334Y274758D01*
X37058Y274542D01*
X37351Y274404D01*
X37605Y274208D01*
X37661Y274109D01*
X37650Y273993D01*
X37326Y272463D01*
X37243Y272283D01*
X37212Y272253D01*
X35929Y271103D01*
X35537Y270941D01*
X35244Y270649D01*
X35059Y270463D01*
X34932Y270243D01*
X34924Y270234D01*
X34000Y270153D01*
X33076Y270234D01*
X33068Y270243D01*
X32941Y270463D01*
X32756Y270649D01*
X32463Y270941D01*
X32243Y271068D01*
X32234Y271076D01*
X32153Y272000D01*
X32234Y272924D01*
X32243Y272932D01*
X32463Y273059D01*
X32941Y273537D01*
X33200Y274162D01*
Y274838D01*
X32941Y275463D01*
X32463Y275941D01*
X31838Y276200D01*
X31162D01*
X30537Y275941D01*
X30059Y275463D01*
X29800Y274838D01*
Y274162D01*
X30059Y273537D01*
X30351Y273245D01*
X30537Y273059D01*
X30757Y272932D01*
X30766Y272924D01*
X30847Y272000D01*
X30766Y271076D01*
X30757Y271068D01*
X30537Y270941D01*
X30059Y270463D01*
X29800Y269838D01*
Y269162D01*
X30059Y268537D01*
X30537Y268059D01*
X31162Y267800D01*
X31838D01*
X32463Y268059D01*
X32756Y268352D01*
X32941Y268537D01*
X33068Y268757D01*
X33076Y268765D01*
X34000Y268847D01*
X34924Y268765D01*
X34932Y268757D01*
X35059Y268537D01*
X35537Y268059D01*
X36162Y267800D01*
X36838D01*
X37463Y268059D01*
X37941Y268537D01*
X38200Y269162D01*
X39338Y270300D01*
X39963Y270559D01*
X40162Y270758D01*
X41629Y270766D01*
X42222Y270631D01*
X42562Y270291D01*
X43187Y270032D01*
X43863D01*
X44488Y270291D01*
X44966Y270769D01*
X45225Y271394D01*
Y272070D01*
X44966Y272695D01*
X44488Y273173D01*
X43863Y273432D01*
X43187D01*
X42562Y273173D01*
X42363Y272974D01*
X40896Y272966D01*
X40304Y273101D01*
X39963Y273441D01*
X39338Y273700D01*
X39166Y273742D01*
X38442Y273958D01*
X38149Y274096D01*
X37895Y274292D01*
X37839Y274391D01*
X37912Y275207D01*
X37976Y275489D01*
X38104Y275930D01*
X38200Y276162D01*
X38200Y276162D01*
X38200Y276267D01*
Y276838D01*
X37996Y277331D01*
X37943Y277458D01*
X37938Y277474D01*
X37685Y278500D01*
X37938Y279526D01*
X37943Y279542D01*
X37996Y279669D01*
X38200Y280162D01*
Y280838D01*
X37941Y281463D01*
X37649Y281756D01*
X37463Y281941D01*
X37243Y282068D01*
X37235Y282076D01*
X37153Y283000D01*
X37235Y283924D01*
X37243Y283932D01*
X37463Y284059D01*
X37649Y284244D01*
X37941Y284537D01*
X38068Y284757D01*
X38076Y284766D01*
X39000Y284847D01*
X39924Y284766D01*
X39932Y284757D01*
X40059Y284537D01*
X40537Y284059D01*
X41162Y283800D01*
X41838D01*
X42463Y284059D01*
X42941Y284537D01*
X43200Y285162D01*
Y285838D01*
X42941Y286463D01*
X42463Y286941D01*
X41838Y287200D01*
D02*
G37*
G36*
X59841Y286132D02*
X59165D01*
X58540Y285873D01*
X58062Y285395D01*
X57803Y284770D01*
Y284094D01*
X58062Y283469D01*
X58540Y282991D01*
X59165Y282732D01*
X59841D01*
X60466Y282991D01*
X60944Y283469D01*
X61203Y284094D01*
Y284770D01*
X60944Y285395D01*
X60466Y285873D01*
X59841Y286132D01*
D02*
G37*
G36*
X41838Y280200D02*
X41162D01*
X40537Y279941D01*
X40059Y279463D01*
X39800Y278838D01*
Y278162D01*
X40059Y277537D01*
X40537Y277059D01*
X41162Y276800D01*
X41838D01*
X42463Y277059D01*
X42941Y277537D01*
X43200Y278162D01*
Y278838D01*
X42941Y279463D01*
X42463Y279941D01*
X41838Y280200D01*
D02*
G37*
G36*
X87338Y289700D02*
X86662D01*
X86037Y289441D01*
X85559Y288963D01*
X85300Y288338D01*
Y287662D01*
X85559Y287037D01*
X85870Y286000D01*
X85559Y284963D01*
X85300Y284338D01*
Y283662D01*
X85559Y283037D01*
X86037Y282559D01*
X86662Y282300D01*
X87300D01*
Y281662D01*
X87559Y281037D01*
X87764Y280604D01*
X87896Y280296D01*
X87078Y278681D01*
X87010Y278637D01*
X86537Y278441D01*
X86537Y278441D01*
X86059Y277963D01*
X85800Y277338D01*
Y276662D01*
X86059Y276037D01*
X86537Y275559D01*
X87162Y275300D01*
X87800D01*
Y274662D01*
X88059Y274037D01*
X88537Y273559D01*
X89162Y273300D01*
X89800D01*
Y272662D01*
X90059Y272037D01*
X90537Y271559D01*
X91162Y271300D01*
X91838D01*
X92463Y271559D01*
X92941Y272037D01*
X93200Y272662D01*
Y273338D01*
X92941Y273963D01*
X92463Y274441D01*
X91838Y274700D01*
X91200D01*
Y275338D01*
X90941Y275963D01*
X90463Y276441D01*
X89838Y276700D01*
X89200D01*
Y277338D01*
X88941Y277963D01*
X88736Y278397D01*
X88604Y278704D01*
X89422Y280319D01*
X89490Y280363D01*
X89963Y280559D01*
X89963Y280559D01*
X90441Y281037D01*
X90700Y281662D01*
Y282338D01*
X90441Y282963D01*
X90130Y284000D01*
X90441Y285037D01*
X90700Y285662D01*
Y286338D01*
X90441Y286963D01*
X89963Y287441D01*
X89338Y287700D01*
X88700D01*
Y288338D01*
X88441Y288963D01*
X87963Y289441D01*
X87338Y289700D01*
D02*
G37*
G36*
X76949Y273382D02*
X76272D01*
X75647Y273123D01*
X75169Y272645D01*
X74910Y272020D01*
Y271344D01*
X75169Y270719D01*
X75647Y270241D01*
X76272Y269982D01*
X76949D01*
X77574Y270241D01*
X78052Y270719D01*
X78311Y271344D01*
Y272020D01*
X78052Y272645D01*
X77574Y273123D01*
X76949Y273382D01*
D02*
G37*
G36*
X64346Y267811D02*
X63670D01*
X63045Y267552D01*
X62567Y267074D01*
X62308Y266449D01*
Y265773D01*
X62567Y265148D01*
X63045Y264670D01*
X63670Y264411D01*
X64346D01*
X64971Y264670D01*
X65450Y265148D01*
X65708Y265773D01*
Y266449D01*
X65450Y267074D01*
X64971Y267552D01*
X64346Y267811D01*
D02*
G37*
G36*
X84848Y266750D02*
X84152D01*
X83509Y266484D01*
X83016Y265991D01*
X82750Y265348D01*
Y264652D01*
X83016Y264009D01*
X83509Y263516D01*
X84152Y263250D01*
X84848D01*
X85491Y263516D01*
X85984Y264009D01*
X86250Y264652D01*
Y265348D01*
X85984Y265991D01*
X85491Y266484D01*
X84848Y266750D01*
D02*
G37*
G36*
X98338Y263700D02*
X97662D01*
X97037Y263441D01*
X96559Y262963D01*
X96300Y262338D01*
Y261662D01*
X96559Y261037D01*
X97037Y260559D01*
X97662Y260300D01*
X98338D01*
X98963Y260559D01*
X99441Y261037D01*
X99700Y261662D01*
Y262338D01*
X99441Y262963D01*
X98963Y263441D01*
X98338Y263700D01*
D02*
G37*
G36*
X58848Y262250D02*
X58152D01*
X57509Y261984D01*
X57016Y261491D01*
X56750Y260848D01*
Y260152D01*
X57016Y259509D01*
X57509Y259016D01*
X58152Y258750D01*
X58848D01*
X59491Y259016D01*
X59984Y259509D01*
X60250Y260152D01*
Y260848D01*
X59984Y261491D01*
X59491Y261984D01*
X58848Y262250D01*
D02*
G37*
G36*
X31838Y259173D02*
X31162D01*
X30537Y258914D01*
X30059Y258436D01*
X29800Y257811D01*
Y257135D01*
X30059Y256510D01*
X30537Y256032D01*
X31162Y255773D01*
X31838D01*
X32463Y256032D01*
X32941Y256510D01*
X33200Y257135D01*
Y257811D01*
X32941Y258436D01*
X32463Y258914D01*
X31838Y259173D01*
D02*
G37*
G36*
X105313Y256432D02*
X104637D01*
X104012Y256173D01*
X103534Y255695D01*
X103275Y255070D01*
Y254394D01*
X103534Y253769D01*
X104012Y253291D01*
X104637Y253032D01*
X105313D01*
X105938Y253291D01*
X106416Y253769D01*
X106675Y254394D01*
Y255070D01*
X106416Y255695D01*
X105938Y256173D01*
X105313Y256432D01*
D02*
G37*
G36*
X68338Y260200D02*
X67662D01*
X67037Y259941D01*
X66559Y259463D01*
X66300Y258838D01*
Y258200D01*
X65662D01*
X65037Y257941D01*
X64559Y257463D01*
X64300Y256838D01*
Y256200D01*
X63662D01*
X63037Y255941D01*
X62559Y255463D01*
X62300Y254838D01*
Y254162D01*
X62559Y253537D01*
X63037Y253059D01*
X63662Y252800D01*
X64338D01*
X64963Y253059D01*
X65441Y253537D01*
X65700Y254162D01*
Y254800D01*
X66338D01*
X66963Y255059D01*
X68000Y255370D01*
X69037Y255059D01*
X69662Y254800D01*
X70300D01*
Y254162D01*
X70559Y253537D01*
X71037Y253059D01*
X71662Y252800D01*
X72338D01*
X72963Y253059D01*
X74000Y253370D01*
X75037Y253059D01*
X75662Y252800D01*
X76338D01*
X76963Y253059D01*
X77441Y253537D01*
X77700Y254162D01*
Y254838D01*
X77441Y255463D01*
X76963Y255941D01*
X76338Y256200D01*
X75700D01*
Y256838D01*
X75441Y257463D01*
X74963Y257941D01*
X74338Y258200D01*
X73662D01*
X73037Y257941D01*
X72000Y257630D01*
X70963Y257941D01*
X70338Y258200D01*
X69700D01*
Y258838D01*
X69441Y259463D01*
X68963Y259941D01*
X68338Y260200D01*
D02*
G37*
G36*
X47338Y264200D02*
X46662D01*
X46037Y263941D01*
X45559Y263463D01*
X45300Y262838D01*
Y262200D01*
X44662D01*
X44037Y261941D01*
X43559Y261463D01*
X43300Y260838D01*
Y260162D01*
X43559Y259537D01*
X43870Y258500D01*
X43559Y257463D01*
X43300Y256838D01*
Y256162D01*
X43559Y255537D01*
X44037Y255059D01*
X44662Y254800D01*
X45300D01*
Y254162D01*
X45559Y253537D01*
X46037Y253059D01*
X46662Y252800D01*
X46662Y252800D01*
X47338Y252800D01*
X48117Y253069D01*
X48117D01*
X48117Y253069D01*
X48004Y253030D01*
X48507Y253066D01*
X49270Y253050D01*
X49583Y253034D01*
X50018Y252952D01*
X50522Y252641D01*
X50679Y252539D01*
X51013Y252234D01*
X51558Y251540D01*
X51559Y251537D01*
X52037Y251059D01*
X52662Y250800D01*
X53338D01*
X53963Y251059D01*
X54441Y251537D01*
X54700Y252162D01*
Y252800D01*
X55338D01*
X55963Y253059D01*
X56441Y253537D01*
X56700Y254162D01*
Y254838D01*
X56441Y255463D01*
X55963Y255941D01*
X55338Y256200D01*
X54662D01*
X54037Y255941D01*
X53000Y255630D01*
X51963Y255941D01*
X51338Y256200D01*
X50662D01*
X50169Y255996D01*
X50042Y255943D01*
X50026Y255939D01*
X49766Y255874D01*
X48585Y257062D01*
X48441Y257537D01*
X48700Y258162D01*
Y258838D01*
X48441Y259463D01*
X48130Y260500D01*
X48441Y261537D01*
X48700Y262162D01*
Y262838D01*
X48441Y263463D01*
X47963Y263941D01*
X47338Y264200D01*
D02*
G37*
G36*
X37338Y250700D02*
X36662D01*
X36037Y250441D01*
X35559Y249963D01*
X35300Y249338D01*
Y248662D01*
X35559Y248037D01*
X36037Y247559D01*
X36662Y247300D01*
X37338D01*
X37963Y247559D01*
X38441Y248037D01*
X38700Y248662D01*
Y249338D01*
X38441Y249963D01*
X37963Y250441D01*
X37338Y250700D01*
D02*
G37*
G36*
X27356Y248200D02*
X26645D01*
X25958Y248016D01*
X25342Y247661D01*
X24839Y247158D01*
X24484Y246542D01*
X24300Y245855D01*
Y245145D01*
X24484Y244458D01*
X24839Y243842D01*
X25342Y243339D01*
X25958Y242984D01*
X26645Y242800D01*
X27356D01*
X28042Y242984D01*
X28658Y243339D01*
X29161Y243842D01*
X29516Y244458D01*
X29700Y245145D01*
Y245855D01*
X29516Y246542D01*
X29161Y247158D01*
X28658Y247661D01*
X28042Y248016D01*
X27356Y248200D01*
D02*
G37*
G36*
X47355Y244200D02*
X46644D01*
X45958Y244016D01*
X45342Y243661D01*
X44840Y243158D01*
X44484Y242542D01*
X44300Y241856D01*
Y241145D01*
X44484Y240458D01*
X44840Y239842D01*
X45342Y239339D01*
X45958Y238984D01*
X46644Y238800D01*
X47355D01*
X48042Y238984D01*
X48658Y239339D01*
X49161Y239842D01*
X49516Y240458D01*
X49700Y241145D01*
Y241856D01*
X49516Y242542D01*
X49161Y243158D01*
X48658Y243661D01*
X48042Y244016D01*
X47355Y244200D01*
D02*
G37*
G36*
X86838Y240200D02*
X86162D01*
X85537Y239941D01*
X85059Y239463D01*
X84800Y238838D01*
Y238162D01*
X85059Y237537D01*
X85537Y237059D01*
X86162Y236800D01*
X86838D01*
X87463Y237059D01*
X87941Y237537D01*
X88200Y238162D01*
Y238838D01*
X87941Y239463D01*
X87463Y239941D01*
X86838Y240200D01*
D02*
G37*
G36*
X281338Y212200D02*
X280662D01*
X280037Y211941D01*
X279559Y211463D01*
X279300Y210838D01*
Y210162D01*
X279559Y209537D01*
X280037Y209059D01*
X280662Y208800D01*
X281338D01*
X281963Y209059D01*
X282441Y209537D01*
X282700Y210162D01*
Y210838D01*
X282441Y211463D01*
X281963Y211941D01*
X281338Y212200D01*
D02*
G37*
G36*
X253838Y207700D02*
X253162D01*
X252537Y207441D01*
X252059Y206963D01*
X251800Y206338D01*
Y205662D01*
X252059Y205037D01*
X252537Y204559D01*
X253162Y204300D01*
X253838D01*
X254463Y204559D01*
X255537D01*
X256162Y204300D01*
X256838D01*
X257463Y204559D01*
X257941Y205037D01*
X258200Y205662D01*
Y206338D01*
X257941Y206963D01*
X257463Y207441D01*
X256838Y207700D01*
X256162D01*
X255537Y207441D01*
X254463D01*
X253838Y207700D01*
D02*
G37*
G36*
X298338Y196200D02*
X297662D01*
X297037Y195941D01*
X296000Y195631D01*
X294963Y195941D01*
X294338Y196200D01*
X293662D01*
X293037Y195941D01*
X292793Y195697D01*
X291750Y195565D01*
X290707Y195697D01*
X290463Y195941D01*
X289838Y196200D01*
X289162D01*
X288537Y195941D01*
X287500Y195631D01*
X286463Y195941D01*
X285838Y196200D01*
X285162D01*
X284537Y195941D01*
X284059Y195463D01*
X283800Y194838D01*
Y194200D01*
X283162D01*
X282537Y193941D01*
X282007Y193510D01*
X281491Y193983D01*
X281491Y193984D01*
X280848Y194250D01*
X280152D01*
X279509Y193984D01*
X278491D01*
X277848Y194250D01*
X277152D01*
X276509Y193984D01*
X275491D01*
X274848Y194250D01*
X274152D01*
X273509Y193984D01*
X273017Y193491D01*
X272750Y192848D01*
Y192152D01*
X273017Y191509D01*
X273509Y191016D01*
X274152Y190750D01*
X274848D01*
X275491Y191016D01*
X276509D01*
X277152Y190750D01*
X277848D01*
X278491Y191016D01*
X279509D01*
X280152Y190750D01*
X280848D01*
X281491Y191016D01*
X281491Y191016D01*
X282007Y191490D01*
X282537Y191059D01*
X283162Y190800D01*
X283838D01*
X284463Y191059D01*
X285500Y191370D01*
X286537Y191059D01*
X287162Y190800D01*
X287838D01*
X288463Y191059D01*
X289500Y191370D01*
X290537Y191059D01*
X291162Y190800D01*
X291838D01*
X292463Y191059D01*
X292707Y191303D01*
X293750Y191435D01*
X294793Y191303D01*
X295037Y191059D01*
X295662Y190800D01*
X296338D01*
X296963Y191059D01*
X297441Y191537D01*
X297700Y192162D01*
Y192800D01*
X298338D01*
X298963Y193059D01*
X299441Y193537D01*
X299700Y194162D01*
Y194838D01*
X299441Y195463D01*
X298963Y195941D01*
X298338Y196200D01*
D02*
G37*
G36*
X241338Y197700D02*
X240662D01*
X240037Y197441D01*
X239559Y196963D01*
X239300Y196338D01*
Y195662D01*
X239559Y195037D01*
X240037Y194559D01*
X240662Y194300D01*
X241338D01*
X241963Y194559D01*
X242441Y195037D01*
X242700Y195662D01*
Y196338D01*
X242441Y196963D01*
X241963Y197441D01*
X241338Y197700D01*
D02*
G37*
G36*
X300348Y189750D02*
X299652D01*
X299009Y189484D01*
X298517Y188991D01*
X298250Y188348D01*
Y187652D01*
X298517Y187009D01*
X299009Y186516D01*
X299652Y186250D01*
X300348D01*
X300991Y186516D01*
X301484Y187009D01*
X301750Y187652D01*
Y188348D01*
X301484Y188991D01*
X300991Y189484D01*
X300348Y189750D01*
D02*
G37*
G36*
X264848D02*
X264152D01*
X263509Y189484D01*
X263017Y188991D01*
X262750Y188348D01*
Y187652D01*
X263017Y187009D01*
X263509Y186516D01*
X264152Y186250D01*
X264750D01*
Y185652D01*
X265017Y185009D01*
X265509Y184517D01*
X266152Y184250D01*
X266848D01*
X267491Y184517D01*
X267984Y185009D01*
X268250Y185652D01*
Y186348D01*
X267984Y186991D01*
X267491Y187484D01*
X266848Y187750D01*
X266250D01*
Y188348D01*
X265984Y188991D01*
X265491Y189484D01*
X264848Y189750D01*
D02*
G37*
G36*
X275362Y186698D02*
X274686D01*
X274061Y186439D01*
X273583Y185961D01*
X273324Y185336D01*
Y184660D01*
X273583Y184035D01*
X274061Y183557D01*
X274686Y183298D01*
X275362D01*
X275987Y183557D01*
X276465Y184035D01*
X276724Y184660D01*
Y185336D01*
X276465Y185961D01*
X275987Y186439D01*
X275362Y186698D01*
D02*
G37*
G36*
X251838Y182200D02*
X251162D01*
X250537Y181941D01*
X250244Y181649D01*
X250059Y181463D01*
X249932Y181243D01*
X249924Y181235D01*
X249000Y181153D01*
X248076Y181235D01*
X248068Y181243D01*
X247941Y181463D01*
X247463Y181941D01*
X246838Y182200D01*
X246162D01*
X245537Y181941D01*
X245059Y181463D01*
X244800Y180838D01*
Y180162D01*
X245059Y179537D01*
X245352Y179244D01*
X245537Y179059D01*
X245757Y178932D01*
X245765Y178924D01*
X245847Y178000D01*
X245765Y177076D01*
X245757Y177068D01*
X245537Y176941D01*
X245059Y176463D01*
X244800Y175838D01*
Y175162D01*
X245004Y174669D01*
X245057Y174542D01*
X245062Y174526D01*
X245315Y173500D01*
X245062Y172474D01*
X245057Y172458D01*
X245004Y172331D01*
X244800Y171838D01*
Y171162D01*
X245059Y170537D01*
X245537Y170059D01*
X246162Y169800D01*
X246334Y169758D01*
X247058Y169542D01*
X247351Y169404D01*
X247605Y169208D01*
X247661Y169109D01*
X247651Y168993D01*
X247326Y167462D01*
X247243Y167283D01*
X247212Y167253D01*
X245929Y166103D01*
X245537Y165941D01*
X245245Y165649D01*
X245059Y165463D01*
X244932Y165243D01*
X244924Y165234D01*
X244000Y165153D01*
X243076Y165234D01*
X243068Y165243D01*
X242941Y165463D01*
X242756Y165649D01*
X242463Y165941D01*
X242243Y166068D01*
X242234Y166076D01*
X242153Y167000D01*
X242234Y167924D01*
X242243Y167932D01*
X242463Y168059D01*
X242941Y168537D01*
X243200Y169162D01*
Y169838D01*
X242941Y170463D01*
X242463Y170941D01*
X241838Y171200D01*
X241162D01*
X240537Y170941D01*
X240059Y170463D01*
X239800Y169838D01*
Y169162D01*
X240059Y168537D01*
X240352Y168244D01*
X240537Y168059D01*
X240757Y167932D01*
X240766Y167924D01*
X240847Y167000D01*
X240766Y166076D01*
X240757Y166068D01*
X240537Y165941D01*
X240059Y165463D01*
X239800Y164838D01*
Y164162D01*
X240059Y163537D01*
X240537Y163059D01*
X241162Y162800D01*
X241838D01*
X242463Y163059D01*
X242756Y163352D01*
X242941Y163537D01*
X243068Y163757D01*
X243076Y163766D01*
X244000Y163847D01*
X244924Y163766D01*
X244932Y163757D01*
X245059Y163537D01*
X245537Y163059D01*
X246162Y162800D01*
X246838D01*
X247463Y163059D01*
X247941Y163537D01*
X248200Y164162D01*
X249338Y165300D01*
X249963Y165559D01*
X250162Y165758D01*
X251629Y165766D01*
X252221Y165631D01*
X252562Y165291D01*
X253187Y165032D01*
X253863D01*
X254488Y165291D01*
X254966Y165769D01*
X255225Y166394D01*
Y167070D01*
X254966Y167695D01*
X254488Y168173D01*
X253863Y168432D01*
X253187D01*
X252562Y168173D01*
X252363Y167974D01*
X250896Y167966D01*
X250304Y168101D01*
X249963Y168441D01*
X249338Y168700D01*
X249166Y168742D01*
X248442Y168958D01*
X248149Y169096D01*
X247895Y169292D01*
X247839Y169391D01*
X247912Y170207D01*
X247976Y170489D01*
X248104Y170930D01*
X248200Y171162D01*
X248200Y171162D01*
X248200Y171267D01*
Y171838D01*
X247996Y172331D01*
X247943Y172458D01*
X247938Y172474D01*
X247685Y173500D01*
X247938Y174526D01*
X247943Y174542D01*
X247996Y174669D01*
X248200Y175162D01*
Y175838D01*
X247941Y176463D01*
X247649Y176756D01*
X247463Y176941D01*
X247243Y177068D01*
X247235Y177076D01*
X247153Y178000D01*
X247235Y178924D01*
X247243Y178932D01*
X247463Y179059D01*
X247649Y179244D01*
X247941Y179537D01*
X248068Y179757D01*
X248076Y179765D01*
X249000Y179847D01*
X249924Y179765D01*
X249932Y179757D01*
X250059Y179537D01*
X250537Y179059D01*
X251162Y178800D01*
X251838D01*
X252463Y179059D01*
X252941Y179537D01*
X253200Y180162D01*
Y180838D01*
X252941Y181463D01*
X252463Y181941D01*
X251838Y182200D01*
D02*
G37*
G36*
X269841Y181132D02*
X269165D01*
X268540Y180873D01*
X268062Y180395D01*
X267803Y179770D01*
Y179094D01*
X268062Y178469D01*
X268540Y177991D01*
X269165Y177732D01*
X269841D01*
X270466Y177991D01*
X270944Y178469D01*
X271203Y179094D01*
Y179770D01*
X270944Y180395D01*
X270466Y180873D01*
X269841Y181132D01*
D02*
G37*
G36*
X251838Y175200D02*
X251162D01*
X250537Y174941D01*
X250059Y174463D01*
X249800Y173838D01*
Y173162D01*
X250059Y172537D01*
X250537Y172059D01*
X251162Y171800D01*
X251838D01*
X252463Y172059D01*
X252941Y172537D01*
X253200Y173162D01*
Y173838D01*
X252941Y174463D01*
X252463Y174941D01*
X251838Y175200D01*
D02*
G37*
G36*
X297338Y184700D02*
X296662D01*
X296037Y184441D01*
X295559Y183963D01*
X295300Y183338D01*
Y182662D01*
X295559Y182037D01*
X295870Y181000D01*
X295559Y179963D01*
X295300Y179338D01*
Y178662D01*
X295559Y178037D01*
X296037Y177559D01*
X296662Y177300D01*
X297300D01*
Y176662D01*
X297559Y176037D01*
X297764Y175604D01*
X297896Y175296D01*
X297078Y173681D01*
X297010Y173637D01*
X296537Y173441D01*
X296537Y173441D01*
X296059Y172963D01*
X295800Y172338D01*
Y171662D01*
X296059Y171037D01*
X296537Y170559D01*
X297162Y170300D01*
X297800D01*
Y169662D01*
X298059Y169037D01*
X298537Y168559D01*
X299162Y168300D01*
X299800D01*
Y167662D01*
X300059Y167037D01*
X300537Y166559D01*
X301162Y166300D01*
X301838D01*
X302463Y166559D01*
X302941Y167037D01*
X303200Y167662D01*
Y168338D01*
X302941Y168963D01*
X302463Y169441D01*
X301838Y169700D01*
X301200D01*
Y170338D01*
X300941Y170963D01*
X300463Y171441D01*
X299838Y171700D01*
X299200D01*
Y172338D01*
X298941Y172963D01*
X298736Y173397D01*
X298604Y173704D01*
X299422Y175319D01*
X299490Y175363D01*
X299963Y175559D01*
X299963Y175559D01*
X300441Y176037D01*
X300700Y176662D01*
Y177338D01*
X300441Y177963D01*
X300131Y179000D01*
X300441Y180037D01*
X300700Y180662D01*
Y181338D01*
X300441Y181963D01*
X299963Y182441D01*
X299338Y182700D01*
X298700D01*
Y183338D01*
X298441Y183963D01*
X297963Y184441D01*
X297338Y184700D01*
D02*
G37*
G36*
X286949Y168382D02*
X286272D01*
X285648Y168123D01*
X285169Y167645D01*
X284910Y167020D01*
Y166344D01*
X285169Y165719D01*
X285648Y165241D01*
X286272Y164982D01*
X286949D01*
X287574Y165241D01*
X288052Y165719D01*
X288311Y166344D01*
Y167020D01*
X288052Y167645D01*
X287574Y168123D01*
X286949Y168382D01*
D02*
G37*
G36*
X274346Y162811D02*
X273670D01*
X273045Y162552D01*
X272567Y162074D01*
X272308Y161449D01*
Y160773D01*
X272567Y160148D01*
X273045Y159670D01*
X273670Y159411D01*
X274346D01*
X274971Y159670D01*
X275450Y160148D01*
X275708Y160773D01*
Y161449D01*
X275450Y162074D01*
X274971Y162552D01*
X274346Y162811D01*
D02*
G37*
G36*
X294848Y161750D02*
X294152D01*
X293509Y161484D01*
X293017Y160991D01*
X292750Y160348D01*
Y159652D01*
X293017Y159009D01*
X293509Y158517D01*
X294152Y158250D01*
X294848D01*
X295491Y158517D01*
X295984Y159009D01*
X296250Y159652D01*
Y160348D01*
X295984Y160991D01*
X295491Y161484D01*
X294848Y161750D01*
D02*
G37*
G36*
X308338Y158700D02*
X307662D01*
X307037Y158441D01*
X306559Y157963D01*
X306300Y157338D01*
Y156662D01*
X306559Y156037D01*
X307037Y155559D01*
X307662Y155300D01*
X308338D01*
X308963Y155559D01*
X309441Y156037D01*
X309700Y156662D01*
Y157338D01*
X309441Y157963D01*
X308963Y158441D01*
X308338Y158700D01*
D02*
G37*
G36*
X268848Y157250D02*
X268152D01*
X267509Y156984D01*
X267017Y156491D01*
X266750Y155848D01*
Y155152D01*
X267017Y154509D01*
X267509Y154016D01*
X268152Y153750D01*
X268848D01*
X269491Y154016D01*
X269984Y154509D01*
X270250Y155152D01*
Y155848D01*
X269984Y156491D01*
X269491Y156984D01*
X268848Y157250D01*
D02*
G37*
G36*
X241838Y154173D02*
X241162D01*
X240537Y153914D01*
X240059Y153436D01*
X239800Y152811D01*
Y152135D01*
X240059Y151510D01*
X240537Y151032D01*
X241162Y150773D01*
X241838D01*
X242463Y151032D01*
X242941Y151510D01*
X243200Y152135D01*
Y152811D01*
X242941Y153436D01*
X242463Y153914D01*
X241838Y154173D01*
D02*
G37*
G36*
X315313Y151432D02*
X314637D01*
X314012Y151173D01*
X313534Y150695D01*
X313275Y150070D01*
Y149394D01*
X313534Y148769D01*
X314012Y148291D01*
X314637Y148032D01*
X315313D01*
X315938Y148291D01*
X316416Y148769D01*
X316675Y149394D01*
Y150070D01*
X316416Y150695D01*
X315938Y151173D01*
X315313Y151432D01*
D02*
G37*
G36*
X278338Y155200D02*
X277662D01*
X277037Y154941D01*
X276559Y154463D01*
X276300Y153838D01*
Y153200D01*
X275662D01*
X275037Y152941D01*
X274559Y152463D01*
X274300Y151838D01*
Y151200D01*
X273662D01*
X273037Y150941D01*
X272559Y150463D01*
X272300Y149838D01*
Y149162D01*
X272559Y148537D01*
X273037Y148059D01*
X273662Y147800D01*
X274338D01*
X274963Y148059D01*
X275441Y148537D01*
X275700Y149162D01*
Y149800D01*
X276338D01*
X276963Y150059D01*
X278000Y150370D01*
X279037Y150059D01*
X279662Y149800D01*
X280300D01*
Y149162D01*
X280559Y148537D01*
X281037Y148059D01*
X281662Y147800D01*
X282338D01*
X282963Y148059D01*
X284000Y148370D01*
X285037Y148059D01*
X285662Y147800D01*
X286338D01*
X286963Y148059D01*
X287441Y148537D01*
X287700Y149162D01*
Y149838D01*
X287441Y150463D01*
X286963Y150941D01*
X286338Y151200D01*
X285700D01*
Y151838D01*
X285441Y152463D01*
X284963Y152941D01*
X284338Y153200D01*
X283662D01*
X283037Y152941D01*
X282000Y152630D01*
X280963Y152941D01*
X280338Y153200D01*
X279700D01*
Y153838D01*
X279441Y154463D01*
X278963Y154941D01*
X278338Y155200D01*
D02*
G37*
G36*
X257338Y159200D02*
X256662D01*
X256037Y158941D01*
X255559Y158463D01*
X255300Y157838D01*
Y157200D01*
X254662D01*
X254037Y156941D01*
X253559Y156463D01*
X253300Y155838D01*
Y155162D01*
X253559Y154537D01*
X253870Y153500D01*
X253559Y152463D01*
X253300Y151838D01*
Y151162D01*
X253559Y150537D01*
X254037Y150059D01*
X254662Y149800D01*
X255300D01*
Y149162D01*
X255559Y148537D01*
X256037Y148059D01*
X256662Y147800D01*
X256662Y147800D01*
X257338Y147800D01*
X258117Y148069D01*
X258117D01*
X258117Y148069D01*
X258004Y148030D01*
X258507Y148066D01*
X259270Y148050D01*
X259583Y148034D01*
X260018Y147952D01*
X260522Y147641D01*
X260679Y147539D01*
X261013Y147234D01*
X261558Y146540D01*
X261559Y146537D01*
X262037Y146059D01*
X262662Y145800D01*
X263338D01*
X263963Y146059D01*
X264441Y146537D01*
X264700Y147162D01*
Y147800D01*
X265338D01*
X265963Y148059D01*
X266441Y148537D01*
X266700Y149162D01*
Y149838D01*
X266441Y150463D01*
X265963Y150941D01*
X265338Y151200D01*
X264662D01*
X264037Y150941D01*
X263000Y150630D01*
X261963Y150941D01*
X261338Y151200D01*
X260662D01*
X260169Y150996D01*
X260042Y150943D01*
X260026Y150938D01*
X259766Y150874D01*
X258585Y152062D01*
X258441Y152537D01*
X258700Y153162D01*
Y153838D01*
X258441Y154463D01*
X258131Y155500D01*
X258441Y156537D01*
X258700Y157162D01*
Y157838D01*
X258441Y158463D01*
X257963Y158941D01*
X257338Y159200D01*
D02*
G37*
G36*
X247338Y145700D02*
X246662D01*
X246037Y145441D01*
X245559Y144963D01*
X245300Y144338D01*
Y143662D01*
X245559Y143037D01*
X246037Y142559D01*
X246662Y142300D01*
X247338D01*
X247963Y142559D01*
X248441Y143037D01*
X248700Y143662D01*
Y144338D01*
X248441Y144963D01*
X247963Y145441D01*
X247338Y145700D01*
D02*
G37*
G36*
X237355Y143200D02*
X236645D01*
X235958Y143016D01*
X235342Y142661D01*
X234840Y142158D01*
X234484Y141542D01*
X234300Y140856D01*
Y140145D01*
X234484Y139458D01*
X234840Y138842D01*
X235342Y138339D01*
X235958Y137984D01*
X236645Y137800D01*
X237355D01*
X238042Y137984D01*
X238658Y138339D01*
X239161Y138842D01*
X239516Y139458D01*
X239700Y140145D01*
Y140856D01*
X239516Y141542D01*
X239161Y142158D01*
X238658Y142661D01*
X238042Y143016D01*
X237355Y143200D01*
D02*
G37*
G36*
X257355Y139200D02*
X256645D01*
X255958Y139016D01*
X255342Y138661D01*
X254839Y138158D01*
X254484Y137542D01*
X254300Y136855D01*
Y136145D01*
X254484Y135458D01*
X254839Y134842D01*
X255342Y134339D01*
X255958Y133984D01*
X256645Y133800D01*
X257355D01*
X258042Y133984D01*
X258658Y134339D01*
X259161Y134842D01*
X259516Y135458D01*
X259700Y136145D01*
Y136855D01*
X259516Y137542D01*
X259161Y138158D01*
X258658Y138661D01*
X258042Y139016D01*
X257355Y139200D01*
D02*
G37*
G36*
X296838Y135200D02*
X296162D01*
X295537Y134941D01*
X295059Y134463D01*
X294800Y133838D01*
Y133162D01*
X295059Y132537D01*
X295537Y132059D01*
X296162Y131800D01*
X296838D01*
X297463Y132059D01*
X297941Y132537D01*
X298200Y133162D01*
Y133838D01*
X297941Y134463D01*
X297463Y134941D01*
X296838Y135200D01*
D02*
G37*
G36*
X176338Y212200D02*
X175662D01*
X175037Y211941D01*
X174559Y211463D01*
X174300Y210838D01*
Y210162D01*
X174559Y209537D01*
X175037Y209059D01*
X175662Y208800D01*
X176338D01*
X176963Y209059D01*
X177441Y209537D01*
X177700Y210162D01*
Y210838D01*
X177441Y211463D01*
X176963Y211941D01*
X176338Y212200D01*
D02*
G37*
G36*
X148838Y207700D02*
X148162D01*
X147537Y207441D01*
X147059Y206963D01*
X146800Y206338D01*
Y205662D01*
X147059Y205037D01*
X147537Y204559D01*
X148162Y204300D01*
X148838D01*
X149463Y204559D01*
X150537D01*
X151162Y204300D01*
X151838D01*
X152463Y204559D01*
X152941Y205037D01*
X153200Y205662D01*
Y206338D01*
X152941Y206963D01*
X152463Y207441D01*
X151838Y207700D01*
X151162D01*
X150537Y207441D01*
X149463D01*
X148838Y207700D01*
D02*
G37*
G36*
X193338Y196200D02*
X192662D01*
X192037Y195941D01*
X191000Y195631D01*
X189963Y195941D01*
X189338Y196200D01*
X188662D01*
X188037Y195941D01*
X187793Y195697D01*
X186750Y195565D01*
X185707Y195697D01*
X185463Y195941D01*
X184838Y196200D01*
X184162D01*
X183537Y195941D01*
X182500Y195631D01*
X181463Y195941D01*
X180838Y196200D01*
X180162D01*
X179537Y195941D01*
X179059Y195463D01*
X178800Y194838D01*
Y194200D01*
X178162D01*
X177537Y193941D01*
X177007Y193510D01*
X176491Y193983D01*
X176491Y193984D01*
X175848Y194250D01*
X175152D01*
X174509Y193984D01*
X173491D01*
X172848Y194250D01*
X172152D01*
X171509Y193984D01*
X170491D01*
X169848Y194250D01*
X169152D01*
X168509Y193984D01*
X168017Y193491D01*
X167750Y192848D01*
Y192152D01*
X168017Y191509D01*
X168509Y191016D01*
X169152Y190750D01*
X169848D01*
X170491Y191016D01*
X171509D01*
X172152Y190750D01*
X172848D01*
X173491Y191016D01*
X174509D01*
X175152Y190750D01*
X175848D01*
X176491Y191016D01*
X176491Y191016D01*
X177007Y191490D01*
X177537Y191059D01*
X178162Y190800D01*
X178838D01*
X179463Y191059D01*
X180500Y191370D01*
X181537Y191059D01*
X182162Y190800D01*
X182838D01*
X183463Y191059D01*
X184500Y191370D01*
X185537Y191059D01*
X186162Y190800D01*
X186838D01*
X187463Y191059D01*
X187707Y191303D01*
X188750Y191435D01*
X189793Y191303D01*
X190037Y191059D01*
X190662Y190800D01*
X191338D01*
X191963Y191059D01*
X192441Y191537D01*
X192700Y192162D01*
Y192800D01*
X193338D01*
X193963Y193059D01*
X194441Y193537D01*
X194700Y194162D01*
Y194838D01*
X194441Y195463D01*
X193963Y195941D01*
X193338Y196200D01*
D02*
G37*
G36*
X136338Y197700D02*
X135662D01*
X135037Y197441D01*
X134559Y196963D01*
X134300Y196338D01*
Y195662D01*
X134559Y195037D01*
X135037Y194559D01*
X135662Y194300D01*
X136338D01*
X136963Y194559D01*
X137441Y195037D01*
X137700Y195662D01*
Y196338D01*
X137441Y196963D01*
X136963Y197441D01*
X136338Y197700D01*
D02*
G37*
G36*
X195348Y189750D02*
X194652D01*
X194009Y189484D01*
X193517Y188991D01*
X193250Y188348D01*
Y187652D01*
X193517Y187009D01*
X194009Y186516D01*
X194652Y186250D01*
X195348D01*
X195991Y186516D01*
X196484Y187009D01*
X196750Y187652D01*
Y188348D01*
X196484Y188991D01*
X195991Y189484D01*
X195348Y189750D01*
D02*
G37*
G36*
X159848D02*
X159152D01*
X158509Y189484D01*
X158017Y188991D01*
X157750Y188348D01*
Y187652D01*
X158017Y187009D01*
X158509Y186516D01*
X159152Y186250D01*
X159750D01*
Y185652D01*
X160017Y185009D01*
X160509Y184517D01*
X161152Y184250D01*
X161848D01*
X162491Y184517D01*
X162984Y185009D01*
X163250Y185652D01*
Y186348D01*
X162984Y186991D01*
X162491Y187484D01*
X161848Y187750D01*
X161250D01*
Y188348D01*
X160984Y188991D01*
X160491Y189484D01*
X159848Y189750D01*
D02*
G37*
G36*
X170362Y186698D02*
X169686D01*
X169061Y186439D01*
X168583Y185961D01*
X168324Y185336D01*
Y184660D01*
X168583Y184035D01*
X169061Y183557D01*
X169686Y183298D01*
X170362D01*
X170987Y183557D01*
X171465Y184035D01*
X171724Y184660D01*
Y185336D01*
X171465Y185961D01*
X170987Y186439D01*
X170362Y186698D01*
D02*
G37*
G36*
X146838Y182200D02*
X146162D01*
X145537Y181941D01*
X145244Y181649D01*
X145059Y181463D01*
X144932Y181243D01*
X144924Y181235D01*
X144000Y181153D01*
X143076Y181235D01*
X143068Y181243D01*
X142941Y181463D01*
X142463Y181941D01*
X141838Y182200D01*
X141162D01*
X140537Y181941D01*
X140059Y181463D01*
X139800Y180838D01*
Y180162D01*
X140059Y179537D01*
X140351Y179244D01*
X140537Y179059D01*
X140757Y178932D01*
X140766Y178924D01*
X140847Y178000D01*
X140766Y177076D01*
X140757Y177068D01*
X140537Y176941D01*
X140059Y176463D01*
X139800Y175838D01*
Y175162D01*
X140004Y174669D01*
X140057Y174542D01*
X140062Y174526D01*
X140315Y173500D01*
X140062Y172474D01*
X140057Y172458D01*
X140004Y172331D01*
X139800Y171838D01*
Y171162D01*
X140059Y170537D01*
X140537Y170059D01*
X141162Y169800D01*
X141334Y169758D01*
X142058Y169542D01*
X142351Y169404D01*
X142605Y169208D01*
X142661Y169109D01*
X142650Y168993D01*
X142326Y167462D01*
X142243Y167283D01*
X142212Y167253D01*
X140929Y166103D01*
X140537Y165941D01*
X140244Y165649D01*
X140059Y165463D01*
X139932Y165243D01*
X139924Y165234D01*
X139000Y165153D01*
X138076Y165234D01*
X138068Y165243D01*
X137941Y165463D01*
X137756Y165649D01*
X137463Y165941D01*
X137243Y166068D01*
X137234Y166076D01*
X137153Y167000D01*
X137234Y167924D01*
X137243Y167932D01*
X137463Y168059D01*
X137941Y168537D01*
X138200Y169162D01*
Y169838D01*
X137941Y170463D01*
X137463Y170941D01*
X136838Y171200D01*
X136162D01*
X135537Y170941D01*
X135059Y170463D01*
X134800Y169838D01*
Y169162D01*
X135059Y168537D01*
X135352Y168244D01*
X135537Y168059D01*
X135757Y167932D01*
X135766Y167924D01*
X135847Y167000D01*
X135766Y166076D01*
X135757Y166068D01*
X135537Y165941D01*
X135059Y165463D01*
X134800Y164838D01*
Y164162D01*
X135059Y163537D01*
X135537Y163059D01*
X136162Y162800D01*
X136838D01*
X137463Y163059D01*
X137756Y163352D01*
X137941Y163537D01*
X138068Y163757D01*
X138076Y163766D01*
X139000Y163847D01*
X139924Y163766D01*
X139932Y163757D01*
X140059Y163537D01*
X140537Y163059D01*
X141162Y162800D01*
X141838D01*
X142463Y163059D01*
X142941Y163537D01*
X143200Y164162D01*
X144338Y165300D01*
X144963Y165559D01*
X145162Y165758D01*
X146629Y165766D01*
X147222Y165631D01*
X147562Y165291D01*
X148187Y165032D01*
X148863D01*
X149488Y165291D01*
X149966Y165769D01*
X150225Y166394D01*
Y167070D01*
X149966Y167695D01*
X149488Y168173D01*
X148863Y168432D01*
X148187D01*
X147562Y168173D01*
X147363Y167974D01*
X145896Y167966D01*
X145304Y168101D01*
X144963Y168441D01*
X144338Y168700D01*
X144166Y168742D01*
X143442Y168958D01*
X143149Y169096D01*
X142895Y169292D01*
X142839Y169391D01*
X142912Y170207D01*
X142976Y170489D01*
X143104Y170930D01*
X143200Y171162D01*
X143200Y171162D01*
X143200Y171267D01*
Y171838D01*
X142996Y172331D01*
X142943Y172458D01*
X142938Y172474D01*
X142685Y173500D01*
X142938Y174526D01*
X142943Y174542D01*
X142996Y174669D01*
X143200Y175162D01*
Y175838D01*
X142941Y176463D01*
X142649Y176756D01*
X142463Y176941D01*
X142243Y177068D01*
X142235Y177076D01*
X142153Y178000D01*
X142235Y178924D01*
X142243Y178932D01*
X142463Y179059D01*
X142649Y179244D01*
X142941Y179537D01*
X143068Y179757D01*
X143076Y179765D01*
X144000Y179847D01*
X144924Y179765D01*
X144932Y179757D01*
X145059Y179537D01*
X145537Y179059D01*
X146162Y178800D01*
X146838D01*
X147463Y179059D01*
X147941Y179537D01*
X148200Y180162D01*
Y180838D01*
X147941Y181463D01*
X147463Y181941D01*
X146838Y182200D01*
D02*
G37*
G36*
X164841Y181132D02*
X164165D01*
X163540Y180873D01*
X163062Y180395D01*
X162803Y179770D01*
Y179094D01*
X163062Y178469D01*
X163540Y177991D01*
X164165Y177732D01*
X164841D01*
X165466Y177991D01*
X165944Y178469D01*
X166203Y179094D01*
Y179770D01*
X165944Y180395D01*
X165466Y180873D01*
X164841Y181132D01*
D02*
G37*
G36*
X146838Y175200D02*
X146162D01*
X145537Y174941D01*
X145059Y174463D01*
X144800Y173838D01*
Y173162D01*
X145059Y172537D01*
X145537Y172059D01*
X146162Y171800D01*
X146838D01*
X147463Y172059D01*
X147941Y172537D01*
X148200Y173162D01*
Y173838D01*
X147941Y174463D01*
X147463Y174941D01*
X146838Y175200D01*
D02*
G37*
G36*
X192338Y184700D02*
X191662D01*
X191037Y184441D01*
X190559Y183963D01*
X190300Y183338D01*
Y182662D01*
X190559Y182037D01*
X190870Y181000D01*
X190559Y179963D01*
X190300Y179338D01*
Y178662D01*
X190559Y178037D01*
X191037Y177559D01*
X191662Y177300D01*
X192300D01*
Y176662D01*
X192559Y176037D01*
X192764Y175604D01*
X192896Y175296D01*
X192078Y173681D01*
X192010Y173637D01*
X191537Y173441D01*
X191537Y173441D01*
X191059Y172963D01*
X190800Y172338D01*
Y171662D01*
X191059Y171037D01*
X191537Y170559D01*
X192162Y170300D01*
X192800D01*
Y169662D01*
X193059Y169037D01*
X193537Y168559D01*
X194162Y168300D01*
X194800D01*
Y167662D01*
X195059Y167037D01*
X195537Y166559D01*
X196162Y166300D01*
X196838D01*
X197463Y166559D01*
X197941Y167037D01*
X198200Y167662D01*
Y168338D01*
X197941Y168963D01*
X197463Y169441D01*
X196838Y169700D01*
X196200D01*
Y170338D01*
X195941Y170963D01*
X195463Y171441D01*
X194838Y171700D01*
X194200D01*
Y172338D01*
X193941Y172963D01*
X193736Y173397D01*
X193604Y173704D01*
X194422Y175319D01*
X194490Y175363D01*
X194963Y175559D01*
X194963Y175559D01*
X195441Y176037D01*
X195700Y176662D01*
Y177338D01*
X195441Y177963D01*
X195131Y179000D01*
X195441Y180037D01*
X195700Y180662D01*
Y181338D01*
X195441Y181963D01*
X194963Y182441D01*
X194338Y182700D01*
X193700D01*
Y183338D01*
X193441Y183963D01*
X192963Y184441D01*
X192338Y184700D01*
D02*
G37*
G36*
X181949Y168382D02*
X181272D01*
X180648Y168123D01*
X180169Y167645D01*
X179911Y167020D01*
Y166344D01*
X180169Y165719D01*
X180648Y165241D01*
X181272Y164982D01*
X181949D01*
X182573Y165241D01*
X183052Y165719D01*
X183310Y166344D01*
Y167020D01*
X183052Y167645D01*
X182573Y168123D01*
X181949Y168382D01*
D02*
G37*
G36*
X169346Y162811D02*
X168670D01*
X168045Y162552D01*
X167567Y162074D01*
X167308Y161449D01*
Y160773D01*
X167567Y160148D01*
X168045Y159670D01*
X168670Y159411D01*
X169346D01*
X169971Y159670D01*
X170449Y160148D01*
X170708Y160773D01*
Y161449D01*
X170449Y162074D01*
X169971Y162552D01*
X169346Y162811D01*
D02*
G37*
G36*
X189848Y161750D02*
X189152D01*
X188509Y161484D01*
X188016Y160991D01*
X187750Y160348D01*
Y159652D01*
X188016Y159009D01*
X188509Y158517D01*
X189152Y158250D01*
X189848D01*
X190491Y158517D01*
X190984Y159009D01*
X191250Y159652D01*
Y160348D01*
X190984Y160991D01*
X190491Y161484D01*
X189848Y161750D01*
D02*
G37*
G36*
X203338Y158700D02*
X202662D01*
X202037Y158441D01*
X201559Y157963D01*
X201300Y157338D01*
Y156662D01*
X201559Y156037D01*
X202037Y155559D01*
X202662Y155300D01*
X203338D01*
X203963Y155559D01*
X204441Y156037D01*
X204700Y156662D01*
Y157338D01*
X204441Y157963D01*
X203963Y158441D01*
X203338Y158700D01*
D02*
G37*
G36*
X163848Y157250D02*
X163152D01*
X162509Y156984D01*
X162016Y156491D01*
X161750Y155848D01*
Y155152D01*
X162016Y154509D01*
X162509Y154016D01*
X163152Y153750D01*
X163848D01*
X164491Y154016D01*
X164984Y154509D01*
X165250Y155152D01*
Y155848D01*
X164984Y156491D01*
X164491Y156984D01*
X163848Y157250D01*
D02*
G37*
G36*
X136838Y154173D02*
X136162D01*
X135537Y153914D01*
X135059Y153436D01*
X134800Y152811D01*
Y152135D01*
X135059Y151510D01*
X135537Y151032D01*
X136162Y150773D01*
X136838D01*
X137463Y151032D01*
X137941Y151510D01*
X138200Y152135D01*
Y152811D01*
X137941Y153436D01*
X137463Y153914D01*
X136838Y154173D01*
D02*
G37*
G36*
X210313Y151432D02*
X209637D01*
X209012Y151173D01*
X208534Y150695D01*
X208275Y150070D01*
Y149394D01*
X208534Y148769D01*
X209012Y148291D01*
X209637Y148032D01*
X210313D01*
X210938Y148291D01*
X211416Y148769D01*
X211675Y149394D01*
Y150070D01*
X211416Y150695D01*
X210938Y151173D01*
X210313Y151432D01*
D02*
G37*
G36*
X173338Y155200D02*
X172662D01*
X172037Y154941D01*
X171559Y154463D01*
X171300Y153838D01*
Y153200D01*
X170662D01*
X170037Y152941D01*
X169559Y152463D01*
X169300Y151838D01*
Y151200D01*
X168662D01*
X168037Y150941D01*
X167559Y150463D01*
X167300Y149838D01*
Y149162D01*
X167559Y148537D01*
X168037Y148059D01*
X168662Y147800D01*
X169338D01*
X169963Y148059D01*
X170441Y148537D01*
X170700Y149162D01*
Y149800D01*
X171338D01*
X171963Y150059D01*
X173000Y150370D01*
X174037Y150059D01*
X174662Y149800D01*
X175300D01*
Y149162D01*
X175559Y148537D01*
X176037Y148059D01*
X176662Y147800D01*
X177338D01*
X177963Y148059D01*
X179000Y148370D01*
X180037Y148059D01*
X180662Y147800D01*
X181338D01*
X181963Y148059D01*
X182441Y148537D01*
X182700Y149162D01*
Y149838D01*
X182441Y150463D01*
X181963Y150941D01*
X181338Y151200D01*
X180700D01*
Y151838D01*
X180441Y152463D01*
X179963Y152941D01*
X179338Y153200D01*
X178662D01*
X178037Y152941D01*
X177000Y152630D01*
X175963Y152941D01*
X175338Y153200D01*
X174700D01*
Y153838D01*
X174441Y154463D01*
X173963Y154941D01*
X173338Y155200D01*
D02*
G37*
G36*
X152338Y159200D02*
X151662D01*
X151037Y158941D01*
X150559Y158463D01*
X150300Y157838D01*
Y157200D01*
X149662D01*
X149037Y156941D01*
X148559Y156463D01*
X148300Y155838D01*
Y155162D01*
X148559Y154537D01*
X148870Y153500D01*
X148559Y152463D01*
X148300Y151838D01*
Y151162D01*
X148559Y150537D01*
X149037Y150059D01*
X149662Y149800D01*
X150300D01*
Y149162D01*
X150559Y148537D01*
X151037Y148059D01*
X151662Y147800D01*
X151662Y147800D01*
X152338Y147800D01*
X153117Y148069D01*
X153117D01*
X153117Y148069D01*
X153004Y148030D01*
X153507Y148066D01*
X154270Y148050D01*
X154583Y148034D01*
X155018Y147952D01*
X155522Y147641D01*
X155679Y147539D01*
X156013Y147234D01*
X156558Y146540D01*
X156559Y146537D01*
X157037Y146059D01*
X157662Y145800D01*
X158338D01*
X158963Y146059D01*
X159441Y146537D01*
X159700Y147162D01*
Y147800D01*
X160338D01*
X160963Y148059D01*
X161441Y148537D01*
X161700Y149162D01*
Y149838D01*
X161441Y150463D01*
X160963Y150941D01*
X160338Y151200D01*
X159662D01*
X159037Y150941D01*
X158000Y150630D01*
X156963Y150941D01*
X156338Y151200D01*
X155662D01*
X155169Y150996D01*
X155042Y150943D01*
X155026Y150938D01*
X154766Y150874D01*
X153585Y152062D01*
X153441Y152537D01*
X153700Y153162D01*
Y153838D01*
X153441Y154463D01*
X153130Y155500D01*
X153441Y156537D01*
X153700Y157162D01*
Y157838D01*
X153441Y158463D01*
X152963Y158941D01*
X152338Y159200D01*
D02*
G37*
G36*
X142338Y145700D02*
X141662D01*
X141037Y145441D01*
X140559Y144963D01*
X140300Y144338D01*
Y143662D01*
X140559Y143037D01*
X141037Y142559D01*
X141662Y142300D01*
X142338D01*
X142963Y142559D01*
X143441Y143037D01*
X143700Y143662D01*
Y144338D01*
X143441Y144963D01*
X142963Y145441D01*
X142338Y145700D01*
D02*
G37*
G36*
X132355Y143200D02*
X131645D01*
X130958Y143016D01*
X130342Y142661D01*
X129840Y142158D01*
X129484Y141542D01*
X129300Y140856D01*
Y140145D01*
X129484Y139458D01*
X129840Y138842D01*
X130342Y138339D01*
X130958Y137984D01*
X131645Y137800D01*
X132355D01*
X133042Y137984D01*
X133658Y138339D01*
X134161Y138842D01*
X134516Y139458D01*
X134700Y140145D01*
Y140856D01*
X134516Y141542D01*
X134161Y142158D01*
X133658Y142661D01*
X133042Y143016D01*
X132355Y143200D01*
D02*
G37*
G36*
X152356Y139200D02*
X151645D01*
X150958Y139016D01*
X150342Y138661D01*
X149839Y138158D01*
X149484Y137542D01*
X149300Y136855D01*
Y136145D01*
X149484Y135458D01*
X149839Y134842D01*
X150342Y134339D01*
X150958Y133984D01*
X151645Y133800D01*
X152356D01*
X153042Y133984D01*
X153658Y134339D01*
X154161Y134842D01*
X154516Y135458D01*
X154700Y136145D01*
Y136855D01*
X154516Y137542D01*
X154161Y138158D01*
X153658Y138661D01*
X153042Y139016D01*
X152356Y139200D01*
D02*
G37*
G36*
X191838Y135200D02*
X191162D01*
X190537Y134941D01*
X190059Y134463D01*
X189800Y133838D01*
Y133162D01*
X190059Y132537D01*
X190537Y132059D01*
X191162Y131800D01*
X191838D01*
X192463Y132059D01*
X192941Y132537D01*
X193200Y133162D01*
Y133838D01*
X192941Y134463D01*
X192463Y134941D01*
X191838Y135200D01*
D02*
G37*
G36*
X71338Y212200D02*
X70662D01*
X70037Y211941D01*
X69559Y211463D01*
X69300Y210838D01*
Y210162D01*
X69559Y209537D01*
X70037Y209059D01*
X70662Y208800D01*
X71338D01*
X71963Y209059D01*
X72441Y209537D01*
X72700Y210162D01*
Y210838D01*
X72441Y211463D01*
X71963Y211941D01*
X71338Y212200D01*
D02*
G37*
G36*
X43838Y207700D02*
X43162D01*
X42537Y207441D01*
X42059Y206963D01*
X41800Y206338D01*
Y205662D01*
X42059Y205037D01*
X42537Y204559D01*
X43162Y204300D01*
X43838D01*
X44463Y204559D01*
X45537D01*
X46162Y204300D01*
X46838D01*
X47463Y204559D01*
X47941Y205037D01*
X48200Y205662D01*
Y206338D01*
X47941Y206963D01*
X47463Y207441D01*
X46838Y207700D01*
X46162D01*
X45537Y207441D01*
X44463D01*
X43838Y207700D01*
D02*
G37*
G36*
X88338Y196200D02*
X87662D01*
X87037Y195941D01*
X86000Y195631D01*
X84963Y195941D01*
X84338Y196200D01*
X83662D01*
X83037Y195941D01*
X82793Y195697D01*
X81750Y195565D01*
X80707Y195697D01*
X80463Y195941D01*
X79838Y196200D01*
X79162D01*
X78537Y195941D01*
X77500Y195631D01*
X76463Y195941D01*
X75838Y196200D01*
X75162D01*
X74537Y195941D01*
X74059Y195463D01*
X73800Y194838D01*
Y194200D01*
X73162D01*
X72537Y193941D01*
X72007Y193510D01*
X71491Y193983D01*
X71491Y193984D01*
X70848Y194250D01*
X70152D01*
X69509Y193984D01*
X68491D01*
X67848Y194250D01*
X67152D01*
X66509Y193984D01*
X65491D01*
X64848Y194250D01*
X64152D01*
X63509Y193984D01*
X63016Y193491D01*
X62750Y192848D01*
Y192152D01*
X63016Y191509D01*
X63509Y191016D01*
X64152Y190750D01*
X64848D01*
X65491Y191016D01*
X66509D01*
X67152Y190750D01*
X67848D01*
X68491Y191016D01*
X69509D01*
X70152Y190750D01*
X70848D01*
X71491Y191016D01*
X71491Y191016D01*
X72007Y191490D01*
X72537Y191059D01*
X73162Y190800D01*
X73838D01*
X74463Y191059D01*
X75500Y191370D01*
X76537Y191059D01*
X77162Y190800D01*
X77838D01*
X78463Y191059D01*
X79500Y191370D01*
X80537Y191059D01*
X81162Y190800D01*
X81838D01*
X82463Y191059D01*
X82707Y191303D01*
X83750Y191435D01*
X84793Y191303D01*
X85037Y191059D01*
X85662Y190800D01*
X86338D01*
X86963Y191059D01*
X87441Y191537D01*
X87700Y192162D01*
Y192800D01*
X88338D01*
X88963Y193059D01*
X89441Y193537D01*
X89700Y194162D01*
Y194838D01*
X89441Y195463D01*
X88963Y195941D01*
X88338Y196200D01*
D02*
G37*
G36*
X31338Y197700D02*
X30662D01*
X30037Y197441D01*
X29559Y196963D01*
X29300Y196338D01*
Y195662D01*
X29559Y195037D01*
X30037Y194559D01*
X30662Y194300D01*
X31338D01*
X31963Y194559D01*
X32441Y195037D01*
X32700Y195662D01*
Y196338D01*
X32441Y196963D01*
X31963Y197441D01*
X31338Y197700D01*
D02*
G37*
G36*
X90348Y189750D02*
X89652D01*
X89009Y189484D01*
X88516Y188991D01*
X88250Y188348D01*
Y187652D01*
X88516Y187009D01*
X89009Y186516D01*
X89652Y186250D01*
X90348D01*
X90991Y186516D01*
X91484Y187009D01*
X91750Y187652D01*
Y188348D01*
X91484Y188991D01*
X90991Y189484D01*
X90348Y189750D01*
D02*
G37*
G36*
X54848D02*
X54152D01*
X53509Y189484D01*
X53016Y188991D01*
X52750Y188348D01*
Y187652D01*
X53016Y187009D01*
X53509Y186516D01*
X54152Y186250D01*
X54750D01*
Y185652D01*
X55016Y185009D01*
X55509Y184517D01*
X56152Y184250D01*
X56848D01*
X57491Y184517D01*
X57984Y185009D01*
X58250Y185652D01*
Y186348D01*
X57984Y186991D01*
X57491Y187484D01*
X56848Y187750D01*
X56250D01*
Y188348D01*
X55984Y188991D01*
X55491Y189484D01*
X54848Y189750D01*
D02*
G37*
G36*
X65362Y186698D02*
X64686D01*
X64061Y186439D01*
X63583Y185961D01*
X63324Y185336D01*
Y184660D01*
X63583Y184035D01*
X64061Y183557D01*
X64686Y183298D01*
X65362D01*
X65987Y183557D01*
X66465Y184035D01*
X66724Y184660D01*
Y185336D01*
X66465Y185961D01*
X65987Y186439D01*
X65362Y186698D01*
D02*
G37*
G36*
X41838Y182200D02*
X41162D01*
X40537Y181941D01*
X40244Y181649D01*
X40059Y181463D01*
X39932Y181243D01*
X39924Y181235D01*
X39000Y181153D01*
X38076Y181235D01*
X38068Y181243D01*
X37941Y181463D01*
X37463Y181941D01*
X36838Y182200D01*
X36162D01*
X35537Y181941D01*
X35059Y181463D01*
X34800Y180838D01*
Y180162D01*
X35059Y179537D01*
X35351Y179244D01*
X35537Y179059D01*
X35757Y178932D01*
X35765Y178924D01*
X35847Y178000D01*
X35765Y177076D01*
X35757Y177068D01*
X35537Y176941D01*
X35059Y176463D01*
X34800Y175838D01*
Y175162D01*
X35004Y174669D01*
X35057Y174542D01*
X35061Y174526D01*
X35315Y173500D01*
X35061Y172474D01*
X35057Y172458D01*
X35004Y172331D01*
X34800Y171838D01*
Y171162D01*
X35059Y170537D01*
X35537Y170059D01*
X36162Y169800D01*
X36334Y169758D01*
X37058Y169542D01*
X37351Y169404D01*
X37605Y169208D01*
X37661Y169109D01*
X37650Y168993D01*
X37326Y167462D01*
X37243Y167283D01*
X37212Y167253D01*
X35929Y166103D01*
X35537Y165941D01*
X35244Y165649D01*
X35059Y165463D01*
X34932Y165243D01*
X34924Y165234D01*
X34000Y165153D01*
X33076Y165234D01*
X33068Y165243D01*
X32941Y165463D01*
X32756Y165649D01*
X32463Y165941D01*
X32243Y166068D01*
X32234Y166076D01*
X32153Y167000D01*
X32234Y167924D01*
X32243Y167932D01*
X32463Y168059D01*
X32941Y168537D01*
X33200Y169162D01*
Y169838D01*
X32941Y170463D01*
X32463Y170941D01*
X31838Y171200D01*
X31162D01*
X30537Y170941D01*
X30059Y170463D01*
X29800Y169838D01*
Y169162D01*
X30059Y168537D01*
X30351Y168244D01*
X30537Y168059D01*
X30757Y167932D01*
X30766Y167924D01*
X30847Y167000D01*
X30766Y166076D01*
X30757Y166068D01*
X30537Y165941D01*
X30059Y165463D01*
X29800Y164838D01*
Y164162D01*
X30059Y163537D01*
X30537Y163059D01*
X31162Y162800D01*
X31838D01*
X32463Y163059D01*
X32756Y163352D01*
X32941Y163537D01*
X33068Y163757D01*
X33076Y163766D01*
X34000Y163847D01*
X34924Y163766D01*
X34932Y163757D01*
X35059Y163537D01*
X35537Y163059D01*
X36162Y162800D01*
X36838D01*
X37463Y163059D01*
X37941Y163537D01*
X38200Y164162D01*
X39338Y165300D01*
X39963Y165559D01*
X40162Y165758D01*
X41629Y165766D01*
X42222Y165631D01*
X42562Y165291D01*
X43187Y165032D01*
X43863D01*
X44488Y165291D01*
X44966Y165769D01*
X45225Y166394D01*
Y167070D01*
X44966Y167695D01*
X44488Y168173D01*
X43863Y168432D01*
X43187D01*
X42562Y168173D01*
X42363Y167974D01*
X40896Y167966D01*
X40304Y168101D01*
X39963Y168441D01*
X39338Y168700D01*
X39166Y168742D01*
X38442Y168958D01*
X38149Y169096D01*
X37895Y169292D01*
X37839Y169391D01*
X37912Y170207D01*
X37976Y170489D01*
X38104Y170930D01*
X38200Y171162D01*
X38200Y171162D01*
X38200Y171267D01*
Y171838D01*
X37996Y172331D01*
X37943Y172458D01*
X37938Y172474D01*
X37685Y173500D01*
X37938Y174526D01*
X37943Y174542D01*
X37996Y174669D01*
X38200Y175162D01*
Y175838D01*
X37941Y176463D01*
X37649Y176756D01*
X37463Y176941D01*
X37243Y177068D01*
X37235Y177076D01*
X37153Y178000D01*
X37235Y178924D01*
X37243Y178932D01*
X37463Y179059D01*
X37649Y179244D01*
X37941Y179537D01*
X38068Y179757D01*
X38076Y179765D01*
X39000Y179847D01*
X39924Y179765D01*
X39932Y179757D01*
X40059Y179537D01*
X40537Y179059D01*
X41162Y178800D01*
X41838D01*
X42463Y179059D01*
X42941Y179537D01*
X43200Y180162D01*
Y180838D01*
X42941Y181463D01*
X42463Y181941D01*
X41838Y182200D01*
D02*
G37*
G36*
X59841Y181132D02*
X59165D01*
X58540Y180873D01*
X58062Y180395D01*
X57803Y179770D01*
Y179094D01*
X58062Y178469D01*
X58540Y177991D01*
X59165Y177732D01*
X59841D01*
X60466Y177991D01*
X60944Y178469D01*
X61203Y179094D01*
Y179770D01*
X60944Y180395D01*
X60466Y180873D01*
X59841Y181132D01*
D02*
G37*
G36*
X41838Y175200D02*
X41162D01*
X40537Y174941D01*
X40059Y174463D01*
X39800Y173838D01*
Y173162D01*
X40059Y172537D01*
X40537Y172059D01*
X41162Y171800D01*
X41838D01*
X42463Y172059D01*
X42941Y172537D01*
X43200Y173162D01*
Y173838D01*
X42941Y174463D01*
X42463Y174941D01*
X41838Y175200D01*
D02*
G37*
G36*
X87338Y184700D02*
X86662D01*
X86037Y184441D01*
X85559Y183963D01*
X85300Y183338D01*
Y182662D01*
X85559Y182037D01*
X85870Y181000D01*
X85559Y179963D01*
X85300Y179338D01*
Y178662D01*
X85559Y178037D01*
X86037Y177559D01*
X86662Y177300D01*
X87300D01*
Y176662D01*
X87559Y176037D01*
X87764Y175604D01*
X87896Y175296D01*
X87078Y173681D01*
X87010Y173637D01*
X86537Y173441D01*
X86537Y173441D01*
X86059Y172963D01*
X85800Y172338D01*
Y171662D01*
X86059Y171037D01*
X86537Y170559D01*
X87162Y170300D01*
X87800D01*
Y169662D01*
X88059Y169037D01*
X88537Y168559D01*
X89162Y168300D01*
X89800D01*
Y167662D01*
X90059Y167037D01*
X90537Y166559D01*
X91162Y166300D01*
X91838D01*
X92463Y166559D01*
X92941Y167037D01*
X93200Y167662D01*
Y168338D01*
X92941Y168963D01*
X92463Y169441D01*
X91838Y169700D01*
X91200D01*
Y170338D01*
X90941Y170963D01*
X90463Y171441D01*
X89838Y171700D01*
X89200D01*
Y172338D01*
X88941Y172963D01*
X88736Y173397D01*
X88604Y173704D01*
X89422Y175319D01*
X89490Y175363D01*
X89963Y175559D01*
X89963Y175559D01*
X90441Y176037D01*
X90700Y176662D01*
Y177338D01*
X90441Y177963D01*
X90130Y179000D01*
X90441Y180037D01*
X90700Y180662D01*
Y181338D01*
X90441Y181963D01*
X89963Y182441D01*
X89338Y182700D01*
X88700D01*
Y183338D01*
X88441Y183963D01*
X87963Y184441D01*
X87338Y184700D01*
D02*
G37*
G36*
X76949Y168382D02*
X76272D01*
X75647Y168123D01*
X75169Y167645D01*
X74910Y167020D01*
Y166344D01*
X75169Y165719D01*
X75647Y165241D01*
X76272Y164982D01*
X76949D01*
X77574Y165241D01*
X78052Y165719D01*
X78311Y166344D01*
Y167020D01*
X78052Y167645D01*
X77574Y168123D01*
X76949Y168382D01*
D02*
G37*
G36*
X64346Y162811D02*
X63670D01*
X63045Y162552D01*
X62567Y162074D01*
X62308Y161449D01*
Y160773D01*
X62567Y160148D01*
X63045Y159670D01*
X63670Y159411D01*
X64346D01*
X64971Y159670D01*
X65450Y160148D01*
X65708Y160773D01*
Y161449D01*
X65450Y162074D01*
X64971Y162552D01*
X64346Y162811D01*
D02*
G37*
G36*
X84848Y161750D02*
X84152D01*
X83509Y161484D01*
X83016Y160991D01*
X82750Y160348D01*
Y159652D01*
X83016Y159009D01*
X83509Y158517D01*
X84152Y158250D01*
X84848D01*
X85491Y158517D01*
X85984Y159009D01*
X86250Y159652D01*
Y160348D01*
X85984Y160991D01*
X85491Y161484D01*
X84848Y161750D01*
D02*
G37*
G36*
X98338Y158700D02*
X97662D01*
X97037Y158441D01*
X96559Y157963D01*
X96300Y157338D01*
Y156662D01*
X96559Y156037D01*
X97037Y155559D01*
X97662Y155300D01*
X98338D01*
X98963Y155559D01*
X99441Y156037D01*
X99700Y156662D01*
Y157338D01*
X99441Y157963D01*
X98963Y158441D01*
X98338Y158700D01*
D02*
G37*
G36*
X58848Y157250D02*
X58152D01*
X57509Y156984D01*
X57016Y156491D01*
X56750Y155848D01*
Y155152D01*
X57016Y154509D01*
X57509Y154016D01*
X58152Y153750D01*
X58848D01*
X59491Y154016D01*
X59984Y154509D01*
X60250Y155152D01*
Y155848D01*
X59984Y156491D01*
X59491Y156984D01*
X58848Y157250D01*
D02*
G37*
G36*
X31838Y154173D02*
X31162D01*
X30537Y153914D01*
X30059Y153436D01*
X29800Y152811D01*
Y152135D01*
X30059Y151510D01*
X30537Y151032D01*
X31162Y150773D01*
X31838D01*
X32463Y151032D01*
X32941Y151510D01*
X33200Y152135D01*
Y152811D01*
X32941Y153436D01*
X32463Y153914D01*
X31838Y154173D01*
D02*
G37*
G36*
X105313Y151432D02*
X104637D01*
X104012Y151173D01*
X103534Y150695D01*
X103275Y150070D01*
Y149394D01*
X103534Y148769D01*
X104012Y148291D01*
X104637Y148032D01*
X105313D01*
X105938Y148291D01*
X106416Y148769D01*
X106675Y149394D01*
Y150070D01*
X106416Y150695D01*
X105938Y151173D01*
X105313Y151432D01*
D02*
G37*
G36*
X68338Y155200D02*
X67662D01*
X67037Y154941D01*
X66559Y154463D01*
X66300Y153838D01*
Y153200D01*
X65662D01*
X65037Y152941D01*
X64559Y152463D01*
X64300Y151838D01*
Y151200D01*
X63662D01*
X63037Y150941D01*
X62559Y150463D01*
X62300Y149838D01*
Y149162D01*
X62559Y148537D01*
X63037Y148059D01*
X63662Y147800D01*
X64338D01*
X64963Y148059D01*
X65441Y148537D01*
X65700Y149162D01*
Y149800D01*
X66338D01*
X66963Y150059D01*
X68000Y150370D01*
X69037Y150059D01*
X69662Y149800D01*
X70300D01*
Y149162D01*
X70559Y148537D01*
X71037Y148059D01*
X71662Y147800D01*
X72338D01*
X72963Y148059D01*
X74000Y148370D01*
X75037Y148059D01*
X75662Y147800D01*
X76338D01*
X76963Y148059D01*
X77441Y148537D01*
X77700Y149162D01*
Y149838D01*
X77441Y150463D01*
X76963Y150941D01*
X76338Y151200D01*
X75700D01*
Y151838D01*
X75441Y152463D01*
X74963Y152941D01*
X74338Y153200D01*
X73662D01*
X73037Y152941D01*
X72000Y152630D01*
X70963Y152941D01*
X70338Y153200D01*
X69700D01*
Y153838D01*
X69441Y154463D01*
X68963Y154941D01*
X68338Y155200D01*
D02*
G37*
G36*
X47338Y159200D02*
X46662D01*
X46037Y158941D01*
X45559Y158463D01*
X45300Y157838D01*
Y157200D01*
X44662D01*
X44037Y156941D01*
X43559Y156463D01*
X43300Y155838D01*
Y155162D01*
X43559Y154537D01*
X43870Y153500D01*
X43559Y152463D01*
X43300Y151838D01*
Y151162D01*
X43559Y150537D01*
X44037Y150059D01*
X44662Y149800D01*
X45300D01*
Y149162D01*
X45559Y148537D01*
X46037Y148059D01*
X46662Y147800D01*
X46662Y147800D01*
X47338Y147800D01*
X48117Y148069D01*
X48117D01*
X48117Y148069D01*
X48004Y148030D01*
X48507Y148066D01*
X49270Y148050D01*
X49583Y148034D01*
X50018Y147952D01*
X50522Y147641D01*
X50679Y147539D01*
X51013Y147234D01*
X51558Y146540D01*
X51559Y146537D01*
X52037Y146059D01*
X52662Y145800D01*
X53338D01*
X53963Y146059D01*
X54441Y146537D01*
X54700Y147162D01*
Y147800D01*
X55338D01*
X55963Y148059D01*
X56441Y148537D01*
X56700Y149162D01*
Y149838D01*
X56441Y150463D01*
X55963Y150941D01*
X55338Y151200D01*
X54662D01*
X54037Y150941D01*
X53000Y150630D01*
X51963Y150941D01*
X51338Y151200D01*
X50662D01*
X50169Y150996D01*
X50042Y150943D01*
X50026Y150938D01*
X49766Y150874D01*
X48585Y152062D01*
X48441Y152537D01*
X48700Y153162D01*
Y153838D01*
X48441Y154463D01*
X48130Y155500D01*
X48441Y156537D01*
X48700Y157162D01*
Y157838D01*
X48441Y158463D01*
X47963Y158941D01*
X47338Y159200D01*
D02*
G37*
G36*
X37338Y145700D02*
X36662D01*
X36037Y145441D01*
X35559Y144963D01*
X35300Y144338D01*
Y143662D01*
X35559Y143037D01*
X36037Y142559D01*
X36662Y142300D01*
X37338D01*
X37963Y142559D01*
X38441Y143037D01*
X38700Y143662D01*
Y144338D01*
X38441Y144963D01*
X37963Y145441D01*
X37338Y145700D01*
D02*
G37*
G36*
X27356Y143200D02*
X26645D01*
X25958Y143016D01*
X25342Y142661D01*
X24839Y142158D01*
X24484Y141542D01*
X24300Y140856D01*
Y140145D01*
X24484Y139458D01*
X24839Y138842D01*
X25342Y138339D01*
X25958Y137984D01*
X26645Y137800D01*
X27356D01*
X28042Y137984D01*
X28658Y138339D01*
X29161Y138842D01*
X29516Y139458D01*
X29700Y140145D01*
Y140856D01*
X29516Y141542D01*
X29161Y142158D01*
X28658Y142661D01*
X28042Y143016D01*
X27356Y143200D01*
D02*
G37*
G36*
X47355Y139200D02*
X46644D01*
X45958Y139016D01*
X45342Y138661D01*
X44840Y138158D01*
X44484Y137542D01*
X44300Y136855D01*
Y136145D01*
X44484Y135458D01*
X44840Y134842D01*
X45342Y134339D01*
X45958Y133984D01*
X46644Y133800D01*
X47355D01*
X48042Y133984D01*
X48658Y134339D01*
X49161Y134842D01*
X49516Y135458D01*
X49700Y136145D01*
Y136855D01*
X49516Y137542D01*
X49161Y138158D01*
X48658Y138661D01*
X48042Y139016D01*
X47355Y139200D01*
D02*
G37*
G36*
X86838Y135200D02*
X86162D01*
X85537Y134941D01*
X85059Y134463D01*
X84800Y133838D01*
Y133162D01*
X85059Y132537D01*
X85537Y132059D01*
X86162Y131800D01*
X86838D01*
X87463Y132059D01*
X87941Y132537D01*
X88200Y133162D01*
Y133838D01*
X87941Y134463D01*
X87463Y134941D01*
X86838Y135200D01*
D02*
G37*
G36*
X281338Y107200D02*
X280662D01*
X280037Y106941D01*
X279559Y106463D01*
X279300Y105838D01*
Y105162D01*
X279559Y104537D01*
X280037Y104059D01*
X280662Y103800D01*
X281338D01*
X281963Y104059D01*
X282441Y104537D01*
X282700Y105162D01*
Y105838D01*
X282441Y106463D01*
X281963Y106941D01*
X281338Y107200D01*
D02*
G37*
G36*
X253838Y102700D02*
X253162D01*
X252537Y102441D01*
X252059Y101963D01*
X251800Y101338D01*
Y100662D01*
X252059Y100037D01*
X252537Y99559D01*
X253162Y99300D01*
X253838D01*
X254463Y99559D01*
X255537D01*
X256162Y99300D01*
X256838D01*
X257463Y99559D01*
X257941Y100037D01*
X258200Y100662D01*
Y101338D01*
X257941Y101963D01*
X257463Y102441D01*
X256838Y102700D01*
X256162D01*
X255537Y102441D01*
X254463D01*
X253838Y102700D01*
D02*
G37*
G36*
X298338Y91200D02*
X297662D01*
X297037Y90941D01*
X296000Y90630D01*
X294963Y90941D01*
X294338Y91200D01*
X293662D01*
X293037Y90941D01*
X292793Y90697D01*
X291750Y90565D01*
X290707Y90697D01*
X290463Y90941D01*
X289838Y91200D01*
X289162D01*
X288537Y90941D01*
X287500Y90630D01*
X286463Y90941D01*
X285838Y91200D01*
X285162D01*
X284537Y90941D01*
X284059Y90463D01*
X283800Y89838D01*
Y89200D01*
X283162D01*
X282537Y88941D01*
X282007Y88510D01*
X281491Y88984D01*
X281491Y88984D01*
X280848Y89250D01*
X280152D01*
X279509Y88984D01*
X278491D01*
X277848Y89250D01*
X277152D01*
X276509Y88984D01*
X275491D01*
X274848Y89250D01*
X274152D01*
X273509Y88984D01*
X273017Y88491D01*
X272750Y87848D01*
Y87152D01*
X273017Y86509D01*
X273509Y86016D01*
X274152Y85750D01*
X274848D01*
X275491Y86016D01*
X276509D01*
X277152Y85750D01*
X277848D01*
X278491Y86016D01*
X279509D01*
X280152Y85750D01*
X280848D01*
X281491Y86016D01*
X281491Y86016D01*
X282007Y86490D01*
X282537Y86059D01*
X283162Y85800D01*
X283838D01*
X284463Y86059D01*
X285500Y86370D01*
X286537Y86059D01*
X287162Y85800D01*
X287838D01*
X288463Y86059D01*
X289500Y86370D01*
X290537Y86059D01*
X291162Y85800D01*
X291838D01*
X292463Y86059D01*
X292707Y86303D01*
X293750Y86435D01*
X294793Y86303D01*
X295037Y86059D01*
X295662Y85800D01*
X296338D01*
X296963Y86059D01*
X297441Y86537D01*
X297700Y87162D01*
Y87800D01*
X298338D01*
X298963Y88059D01*
X299441Y88537D01*
X299700Y89162D01*
Y89838D01*
X299441Y90463D01*
X298963Y90941D01*
X298338Y91200D01*
D02*
G37*
G36*
X241338Y92700D02*
X240662D01*
X240037Y92441D01*
X239559Y91963D01*
X239300Y91338D01*
Y90662D01*
X239559Y90037D01*
X240037Y89559D01*
X240662Y89300D01*
X241338D01*
X241963Y89559D01*
X242441Y90037D01*
X242700Y90662D01*
Y91338D01*
X242441Y91963D01*
X241963Y92441D01*
X241338Y92700D01*
D02*
G37*
G36*
X300348Y84750D02*
X299652D01*
X299009Y84484D01*
X298517Y83991D01*
X298250Y83348D01*
Y82652D01*
X298517Y82009D01*
X299009Y81516D01*
X299652Y81250D01*
X300348D01*
X300991Y81516D01*
X301484Y82009D01*
X301750Y82652D01*
Y83348D01*
X301484Y83991D01*
X300991Y84484D01*
X300348Y84750D01*
D02*
G37*
G36*
X264848D02*
X264152D01*
X263509Y84484D01*
X263017Y83991D01*
X262750Y83348D01*
Y82652D01*
X263017Y82009D01*
X263509Y81516D01*
X264152Y81250D01*
X264750D01*
Y80652D01*
X265017Y80009D01*
X265509Y79516D01*
X266152Y79250D01*
X266848D01*
X267491Y79516D01*
X267984Y80009D01*
X268250Y80652D01*
Y81348D01*
X267984Y81991D01*
X267491Y82484D01*
X266848Y82750D01*
X266250D01*
Y83348D01*
X265984Y83991D01*
X265491Y84484D01*
X264848Y84750D01*
D02*
G37*
G36*
X275362Y81698D02*
X274686D01*
X274061Y81439D01*
X273583Y80961D01*
X273324Y80336D01*
Y79660D01*
X273583Y79035D01*
X274061Y78557D01*
X274686Y78298D01*
X275362D01*
X275987Y78557D01*
X276465Y79035D01*
X276724Y79660D01*
Y80336D01*
X276465Y80961D01*
X275987Y81439D01*
X275362Y81698D01*
D02*
G37*
G36*
X251838Y77200D02*
X251162D01*
X250537Y76941D01*
X250244Y76649D01*
X250059Y76463D01*
X249932Y76243D01*
X249924Y76235D01*
X249000Y76153D01*
X248076Y76235D01*
X248068Y76243D01*
X247941Y76463D01*
X247463Y76941D01*
X246838Y77200D01*
X246162D01*
X245537Y76941D01*
X245059Y76463D01*
X244800Y75838D01*
Y75162D01*
X245059Y74537D01*
X245352Y74244D01*
X245537Y74059D01*
X245757Y73932D01*
X245765Y73924D01*
X245847Y73000D01*
X245765Y72076D01*
X245757Y72068D01*
X245537Y71941D01*
X245059Y71463D01*
X244800Y70838D01*
Y70162D01*
X245004Y69669D01*
X245057Y69542D01*
X245062Y69526D01*
X245315Y68500D01*
X245062Y67474D01*
X245057Y67458D01*
X245004Y67331D01*
X244800Y66838D01*
Y66162D01*
X245059Y65537D01*
X245537Y65059D01*
X246162Y64800D01*
X246334Y64758D01*
X247058Y64542D01*
X247351Y64404D01*
X247605Y64208D01*
X247661Y64109D01*
X247651Y63993D01*
X247326Y62462D01*
X247243Y62283D01*
X247212Y62253D01*
X245929Y61103D01*
X245537Y60941D01*
X245245Y60649D01*
X245059Y60463D01*
X244932Y60243D01*
X244924Y60234D01*
X244000Y60153D01*
X243076Y60234D01*
X243068Y60243D01*
X242941Y60463D01*
X242756Y60649D01*
X242463Y60941D01*
X242243Y61068D01*
X242234Y61076D01*
X242153Y62000D01*
X242234Y62924D01*
X242243Y62932D01*
X242463Y63059D01*
X242941Y63537D01*
X243200Y64162D01*
Y64838D01*
X242941Y65463D01*
X242463Y65941D01*
X241838Y66200D01*
X241162D01*
X240537Y65941D01*
X240059Y65463D01*
X239800Y64838D01*
Y64162D01*
X240059Y63537D01*
X240352Y63244D01*
X240537Y63059D01*
X240757Y62932D01*
X240766Y62924D01*
X240847Y62000D01*
X240766Y61076D01*
X240757Y61068D01*
X240537Y60941D01*
X240059Y60463D01*
X239800Y59838D01*
Y59162D01*
X240059Y58537D01*
X240537Y58059D01*
X241162Y57800D01*
X241838D01*
X242463Y58059D01*
X242756Y58351D01*
X242941Y58537D01*
X243068Y58757D01*
X243076Y58766D01*
X244000Y58847D01*
X244924Y58766D01*
X244932Y58757D01*
X245059Y58537D01*
X245537Y58059D01*
X246162Y57800D01*
X246838D01*
X247463Y58059D01*
X247941Y58537D01*
X248200Y59162D01*
X249338Y60300D01*
X249963Y60559D01*
X250162Y60758D01*
X251629Y60766D01*
X252221Y60631D01*
X252562Y60291D01*
X253187Y60032D01*
X253863D01*
X254488Y60291D01*
X254966Y60769D01*
X255225Y61394D01*
Y62070D01*
X254966Y62695D01*
X254488Y63173D01*
X253863Y63432D01*
X253187D01*
X252562Y63173D01*
X252363Y62974D01*
X250896Y62966D01*
X250304Y63101D01*
X249963Y63441D01*
X249338Y63700D01*
X249166Y63742D01*
X248442Y63958D01*
X248149Y64096D01*
X247895Y64292D01*
X247839Y64391D01*
X247912Y65207D01*
X247976Y65489D01*
X248104Y65930D01*
X248200Y66162D01*
X248200Y66162D01*
X248200Y66267D01*
Y66838D01*
X247996Y67331D01*
X247943Y67458D01*
X247938Y67474D01*
X247685Y68500D01*
X247938Y69526D01*
X247943Y69542D01*
X247996Y69669D01*
X248200Y70162D01*
Y70838D01*
X247941Y71463D01*
X247649Y71756D01*
X247463Y71941D01*
X247243Y72068D01*
X247235Y72076D01*
X247153Y73000D01*
X247235Y73924D01*
X247243Y73932D01*
X247463Y74059D01*
X247649Y74244D01*
X247941Y74537D01*
X248068Y74757D01*
X248076Y74765D01*
X249000Y74847D01*
X249924Y74765D01*
X249932Y74757D01*
X250059Y74537D01*
X250537Y74059D01*
X251162Y73800D01*
X251838D01*
X252463Y74059D01*
X252941Y74537D01*
X253200Y75162D01*
Y75838D01*
X252941Y76463D01*
X252463Y76941D01*
X251838Y77200D01*
D02*
G37*
G36*
X269841Y76132D02*
X269165D01*
X268540Y75873D01*
X268062Y75395D01*
X267803Y74770D01*
Y74094D01*
X268062Y73469D01*
X268540Y72991D01*
X269165Y72732D01*
X269841D01*
X270466Y72991D01*
X270944Y73469D01*
X271203Y74094D01*
Y74770D01*
X270944Y75395D01*
X270466Y75873D01*
X269841Y76132D01*
D02*
G37*
G36*
X251838Y70200D02*
X251162D01*
X250537Y69941D01*
X250059Y69463D01*
X249800Y68838D01*
Y68162D01*
X250059Y67537D01*
X250537Y67059D01*
X251162Y66800D01*
X251838D01*
X252463Y67059D01*
X252941Y67537D01*
X253200Y68162D01*
Y68838D01*
X252941Y69463D01*
X252463Y69941D01*
X251838Y70200D01*
D02*
G37*
G36*
X297338Y79700D02*
X296662D01*
X296037Y79441D01*
X295559Y78963D01*
X295300Y78338D01*
Y77662D01*
X295559Y77037D01*
X295870Y76000D01*
X295559Y74963D01*
X295300Y74338D01*
Y73662D01*
X295559Y73037D01*
X296037Y72559D01*
X296662Y72300D01*
X297300D01*
Y71662D01*
X297559Y71037D01*
X297764Y70604D01*
X297896Y70296D01*
X297078Y68681D01*
X297010Y68637D01*
X296537Y68441D01*
X296537Y68441D01*
X296059Y67963D01*
X295800Y67338D01*
Y66662D01*
X296059Y66037D01*
X296537Y65559D01*
X297162Y65300D01*
X297800D01*
Y64662D01*
X298059Y64037D01*
X298537Y63559D01*
X299162Y63300D01*
X299800D01*
Y62662D01*
X300059Y62037D01*
X300537Y61559D01*
X301162Y61300D01*
X301838D01*
X302463Y61559D01*
X302941Y62037D01*
X303200Y62662D01*
Y63338D01*
X302941Y63963D01*
X302463Y64441D01*
X301838Y64700D01*
X301200D01*
Y65338D01*
X300941Y65963D01*
X300463Y66441D01*
X299838Y66700D01*
X299200D01*
Y67338D01*
X298941Y67963D01*
X298736Y68397D01*
X298604Y68704D01*
X299422Y70319D01*
X299490Y70363D01*
X299963Y70559D01*
X299963Y70559D01*
X300441Y71037D01*
X300700Y71662D01*
Y72338D01*
X300441Y72963D01*
X300131Y74000D01*
X300441Y75037D01*
X300700Y75662D01*
Y76338D01*
X300441Y76963D01*
X299963Y77441D01*
X299338Y77700D01*
X298700D01*
Y78338D01*
X298441Y78963D01*
X297963Y79441D01*
X297338Y79700D01*
D02*
G37*
G36*
X286949Y63382D02*
X286272D01*
X285648Y63123D01*
X285169Y62645D01*
X284910Y62020D01*
Y61344D01*
X285169Y60719D01*
X285648Y60241D01*
X286272Y59982D01*
X286949D01*
X287574Y60241D01*
X288052Y60719D01*
X288311Y61344D01*
Y62020D01*
X288052Y62645D01*
X287574Y63123D01*
X286949Y63382D01*
D02*
G37*
G36*
X274346Y57811D02*
X273670D01*
X273045Y57552D01*
X272567Y57074D01*
X272308Y56449D01*
Y55773D01*
X272567Y55148D01*
X273045Y54670D01*
X273670Y54411D01*
X274346D01*
X274971Y54670D01*
X275450Y55148D01*
X275708Y55773D01*
Y56449D01*
X275450Y57074D01*
X274971Y57552D01*
X274346Y57811D01*
D02*
G37*
G36*
X294848Y56750D02*
X294152D01*
X293509Y56484D01*
X293017Y55991D01*
X292750Y55348D01*
Y54652D01*
X293017Y54009D01*
X293509Y53516D01*
X294152Y53250D01*
X294848D01*
X295491Y53516D01*
X295984Y54009D01*
X296250Y54652D01*
Y55348D01*
X295984Y55991D01*
X295491Y56484D01*
X294848Y56750D01*
D02*
G37*
G36*
X308338Y53700D02*
X307662D01*
X307037Y53441D01*
X306559Y52963D01*
X306300Y52338D01*
Y51662D01*
X306559Y51037D01*
X307037Y50559D01*
X307662Y50300D01*
X308338D01*
X308963Y50559D01*
X309441Y51037D01*
X309700Y51662D01*
Y52338D01*
X309441Y52963D01*
X308963Y53441D01*
X308338Y53700D01*
D02*
G37*
G36*
X268848Y52250D02*
X268152D01*
X267509Y51984D01*
X267017Y51491D01*
X266750Y50848D01*
Y50152D01*
X267017Y49509D01*
X267509Y49016D01*
X268152Y48750D01*
X268848D01*
X269491Y49016D01*
X269984Y49509D01*
X270250Y50152D01*
Y50848D01*
X269984Y51491D01*
X269491Y51984D01*
X268848Y52250D01*
D02*
G37*
G36*
X241838Y49173D02*
X241162D01*
X240537Y48914D01*
X240059Y48436D01*
X239800Y47811D01*
Y47135D01*
X240059Y46510D01*
X240537Y46032D01*
X241162Y45773D01*
X241838D01*
X242463Y46032D01*
X242941Y46510D01*
X243200Y47135D01*
Y47811D01*
X242941Y48436D01*
X242463Y48914D01*
X241838Y49173D01*
D02*
G37*
G36*
X315313Y46432D02*
X314637D01*
X314012Y46173D01*
X313534Y45695D01*
X313275Y45070D01*
Y44394D01*
X313534Y43769D01*
X314012Y43291D01*
X314637Y43032D01*
X315313D01*
X315938Y43291D01*
X316416Y43769D01*
X316675Y44394D01*
Y45070D01*
X316416Y45695D01*
X315938Y46173D01*
X315313Y46432D01*
D02*
G37*
G36*
X278338Y50200D02*
X277662D01*
X277037Y49941D01*
X276559Y49463D01*
X276300Y48838D01*
Y48200D01*
X275662D01*
X275037Y47941D01*
X274559Y47463D01*
X274300Y46838D01*
Y46200D01*
X273662D01*
X273037Y45941D01*
X272559Y45463D01*
X272300Y44838D01*
Y44162D01*
X272559Y43537D01*
X273037Y43059D01*
X273662Y42800D01*
X274338D01*
X274963Y43059D01*
X275441Y43537D01*
X275700Y44162D01*
Y44800D01*
X276338D01*
X276963Y45059D01*
X278000Y45370D01*
X279037Y45059D01*
X279662Y44800D01*
X280300D01*
Y44162D01*
X280559Y43537D01*
X281037Y43059D01*
X281662Y42800D01*
X282338D01*
X282963Y43059D01*
X284000Y43370D01*
X285037Y43059D01*
X285662Y42800D01*
X286338D01*
X286963Y43059D01*
X287441Y43537D01*
X287700Y44162D01*
Y44838D01*
X287441Y45463D01*
X286963Y45941D01*
X286338Y46200D01*
X285700D01*
Y46838D01*
X285441Y47463D01*
X284963Y47941D01*
X284338Y48200D01*
X283662D01*
X283037Y47941D01*
X282000Y47630D01*
X280963Y47941D01*
X280338Y48200D01*
X279700D01*
Y48838D01*
X279441Y49463D01*
X278963Y49941D01*
X278338Y50200D01*
D02*
G37*
G36*
X257338Y54200D02*
X256662D01*
X256037Y53941D01*
X255559Y53463D01*
X255300Y52838D01*
Y52200D01*
X254662D01*
X254037Y51941D01*
X253559Y51463D01*
X253300Y50838D01*
Y50162D01*
X253559Y49537D01*
X253870Y48500D01*
X253559Y47463D01*
X253300Y46838D01*
Y46162D01*
X253559Y45537D01*
X254037Y45059D01*
X254662Y44800D01*
X255300D01*
Y44162D01*
X255559Y43537D01*
X256037Y43059D01*
X256662Y42800D01*
X256662Y42800D01*
X257338Y42800D01*
X258117Y43069D01*
X258117D01*
X258117Y43069D01*
X258004Y43030D01*
X258507Y43066D01*
X259270Y43050D01*
X259583Y43034D01*
X260018Y42952D01*
X260522Y42641D01*
X260679Y42539D01*
X261013Y42234D01*
X261558Y41540D01*
X261559Y41537D01*
X262037Y41059D01*
X262662Y40800D01*
X263338D01*
X263963Y41059D01*
X264441Y41537D01*
X264700Y42162D01*
Y42800D01*
X265338D01*
X265963Y43059D01*
X266441Y43537D01*
X266700Y44162D01*
Y44838D01*
X266441Y45463D01*
X265963Y45941D01*
X265338Y46200D01*
X264662D01*
X264037Y45941D01*
X263000Y45630D01*
X261963Y45941D01*
X261338Y46200D01*
X260662D01*
X260169Y45996D01*
X260042Y45943D01*
X260026Y45939D01*
X259766Y45874D01*
X258585Y47062D01*
X258441Y47537D01*
X258700Y48162D01*
Y48838D01*
X258441Y49463D01*
X258131Y50500D01*
X258441Y51537D01*
X258700Y52162D01*
Y52838D01*
X258441Y53463D01*
X257963Y53941D01*
X257338Y54200D01*
D02*
G37*
G36*
X247338Y40700D02*
X246662D01*
X246037Y40441D01*
X245559Y39963D01*
X245300Y39338D01*
Y38662D01*
X245559Y38037D01*
X246037Y37559D01*
X246662Y37300D01*
X247338D01*
X247963Y37559D01*
X248441Y38037D01*
X248700Y38662D01*
Y39338D01*
X248441Y39963D01*
X247963Y40441D01*
X247338Y40700D01*
D02*
G37*
G36*
X237355Y38200D02*
X236645D01*
X235958Y38016D01*
X235342Y37661D01*
X234840Y37158D01*
X234484Y36542D01*
X234300Y35855D01*
Y35144D01*
X234484Y34458D01*
X234840Y33842D01*
X235342Y33340D01*
X235958Y32984D01*
X236645Y32800D01*
X237355D01*
X238042Y32984D01*
X238658Y33340D01*
X239161Y33842D01*
X239516Y34458D01*
X239700Y35144D01*
Y35855D01*
X239516Y36542D01*
X239161Y37158D01*
X238658Y37661D01*
X238042Y38016D01*
X237355Y38200D01*
D02*
G37*
G36*
X257355Y34200D02*
X256645D01*
X255958Y34016D01*
X255342Y33661D01*
X254839Y33158D01*
X254484Y32542D01*
X254300Y31855D01*
Y31144D01*
X254484Y30458D01*
X254839Y29842D01*
X255342Y29340D01*
X255958Y28984D01*
X256645Y28800D01*
X257355D01*
X258042Y28984D01*
X258658Y29340D01*
X259161Y29842D01*
X259516Y30458D01*
X259700Y31144D01*
Y31855D01*
X259516Y32542D01*
X259161Y33158D01*
X258658Y33661D01*
X258042Y34016D01*
X257355Y34200D01*
D02*
G37*
G36*
X296838Y30200D02*
X296162D01*
X295537Y29941D01*
X295059Y29463D01*
X294800Y28838D01*
Y28162D01*
X295059Y27537D01*
X295537Y27059D01*
X296162Y26800D01*
X296838D01*
X297463Y27059D01*
X297941Y27537D01*
X298200Y28162D01*
Y28838D01*
X297941Y29463D01*
X297463Y29941D01*
X296838Y30200D01*
D02*
G37*
G36*
X176338Y107200D02*
X175662D01*
X175037Y106941D01*
X174559Y106463D01*
X174300Y105838D01*
Y105162D01*
X174559Y104537D01*
X175037Y104059D01*
X175662Y103800D01*
X176338D01*
X176963Y104059D01*
X177441Y104537D01*
X177700Y105162D01*
Y105838D01*
X177441Y106463D01*
X176963Y106941D01*
X176338Y107200D01*
D02*
G37*
G36*
X148838Y102700D02*
X148162D01*
X147537Y102441D01*
X147059Y101963D01*
X146800Y101338D01*
Y100662D01*
X147059Y100037D01*
X147537Y99559D01*
X148162Y99300D01*
X148838D01*
X149463Y99559D01*
X150537D01*
X151162Y99300D01*
X151838D01*
X152463Y99559D01*
X152941Y100037D01*
X153200Y100662D01*
Y101338D01*
X152941Y101963D01*
X152463Y102441D01*
X151838Y102700D01*
X151162D01*
X150537Y102441D01*
X149463D01*
X148838Y102700D01*
D02*
G37*
G36*
X193338Y91200D02*
X192662D01*
X192037Y90941D01*
X191000Y90630D01*
X189963Y90941D01*
X189338Y91200D01*
X188662D01*
X188037Y90941D01*
X187793Y90697D01*
X186750Y90565D01*
X185707Y90697D01*
X185463Y90941D01*
X184838Y91200D01*
X184162D01*
X183537Y90941D01*
X182500Y90630D01*
X181463Y90941D01*
X180838Y91200D01*
X180162D01*
X179537Y90941D01*
X179059Y90463D01*
X178800Y89838D01*
Y89200D01*
X178162D01*
X177537Y88941D01*
X177007Y88510D01*
X176491Y88984D01*
X176491Y88984D01*
X175848Y89250D01*
X175152D01*
X174509Y88984D01*
X173491D01*
X172848Y89250D01*
X172152D01*
X171509Y88984D01*
X170491D01*
X169848Y89250D01*
X169152D01*
X168509Y88984D01*
X168017Y88491D01*
X167750Y87848D01*
Y87152D01*
X168017Y86509D01*
X168509Y86016D01*
X169152Y85750D01*
X169848D01*
X170491Y86016D01*
X171509D01*
X172152Y85750D01*
X172848D01*
X173491Y86016D01*
X174509D01*
X175152Y85750D01*
X175848D01*
X176491Y86016D01*
X176491Y86016D01*
X177007Y86490D01*
X177537Y86059D01*
X178162Y85800D01*
X178838D01*
X179463Y86059D01*
X180500Y86370D01*
X181537Y86059D01*
X182162Y85800D01*
X182838D01*
X183463Y86059D01*
X184500Y86370D01*
X185537Y86059D01*
X186162Y85800D01*
X186838D01*
X187463Y86059D01*
X187707Y86303D01*
X188750Y86435D01*
X189793Y86303D01*
X190037Y86059D01*
X190662Y85800D01*
X191338D01*
X191963Y86059D01*
X192441Y86537D01*
X192700Y87162D01*
Y87800D01*
X193338D01*
X193963Y88059D01*
X194441Y88537D01*
X194700Y89162D01*
Y89838D01*
X194441Y90463D01*
X193963Y90941D01*
X193338Y91200D01*
D02*
G37*
G36*
X136338Y92700D02*
X135662D01*
X135037Y92441D01*
X134559Y91963D01*
X134300Y91338D01*
Y90662D01*
X134559Y90037D01*
X135037Y89559D01*
X135662Y89300D01*
X136338D01*
X136963Y89559D01*
X137441Y90037D01*
X137700Y90662D01*
Y91338D01*
X137441Y91963D01*
X136963Y92441D01*
X136338Y92700D01*
D02*
G37*
G36*
X195348Y84750D02*
X194652D01*
X194009Y84484D01*
X193517Y83991D01*
X193250Y83348D01*
Y82652D01*
X193517Y82009D01*
X194009Y81516D01*
X194652Y81250D01*
X195348D01*
X195991Y81516D01*
X196484Y82009D01*
X196750Y82652D01*
Y83348D01*
X196484Y83991D01*
X195991Y84484D01*
X195348Y84750D01*
D02*
G37*
G36*
X159848D02*
X159152D01*
X158509Y84484D01*
X158017Y83991D01*
X157750Y83348D01*
Y82652D01*
X158017Y82009D01*
X158509Y81516D01*
X159152Y81250D01*
X159750D01*
Y80652D01*
X160017Y80009D01*
X160509Y79516D01*
X161152Y79250D01*
X161848D01*
X162491Y79516D01*
X162984Y80009D01*
X163250Y80652D01*
Y81348D01*
X162984Y81991D01*
X162491Y82484D01*
X161848Y82750D01*
X161250D01*
Y83348D01*
X160984Y83991D01*
X160491Y84484D01*
X159848Y84750D01*
D02*
G37*
G36*
X170362Y81698D02*
X169686D01*
X169061Y81439D01*
X168583Y80961D01*
X168324Y80336D01*
Y79660D01*
X168583Y79035D01*
X169061Y78557D01*
X169686Y78298D01*
X170362D01*
X170987Y78557D01*
X171465Y79035D01*
X171724Y79660D01*
Y80336D01*
X171465Y80961D01*
X170987Y81439D01*
X170362Y81698D01*
D02*
G37*
G36*
X146838Y77200D02*
X146162D01*
X145537Y76941D01*
X145244Y76649D01*
X145059Y76463D01*
X144932Y76243D01*
X144924Y76235D01*
X144000Y76153D01*
X143076Y76235D01*
X143068Y76243D01*
X142941Y76463D01*
X142463Y76941D01*
X141838Y77200D01*
X141162D01*
X140537Y76941D01*
X140059Y76463D01*
X139800Y75838D01*
Y75162D01*
X140059Y74537D01*
X140351Y74244D01*
X140537Y74059D01*
X140757Y73932D01*
X140766Y73924D01*
X140847Y73000D01*
X140766Y72076D01*
X140757Y72068D01*
X140537Y71941D01*
X140059Y71463D01*
X139800Y70838D01*
Y70162D01*
X140004Y69669D01*
X140057Y69542D01*
X140062Y69526D01*
X140315Y68500D01*
X140062Y67474D01*
X140057Y67458D01*
X140004Y67331D01*
X139800Y66838D01*
Y66162D01*
X140059Y65537D01*
X140537Y65059D01*
X141162Y64800D01*
X141334Y64758D01*
X142058Y64542D01*
X142351Y64404D01*
X142605Y64208D01*
X142661Y64109D01*
X142650Y63993D01*
X142326Y62462D01*
X142243Y62283D01*
X142212Y62253D01*
X140929Y61103D01*
X140537Y60941D01*
X140244Y60649D01*
X140059Y60463D01*
X139932Y60243D01*
X139924Y60234D01*
X139000Y60153D01*
X138076Y60234D01*
X138068Y60243D01*
X137941Y60463D01*
X137756Y60649D01*
X137463Y60941D01*
X137243Y61068D01*
X137234Y61076D01*
X137153Y62000D01*
X137234Y62924D01*
X137243Y62932D01*
X137463Y63059D01*
X137941Y63537D01*
X138200Y64162D01*
Y64838D01*
X137941Y65463D01*
X137463Y65941D01*
X136838Y66200D01*
X136162D01*
X135537Y65941D01*
X135059Y65463D01*
X134800Y64838D01*
Y64162D01*
X135059Y63537D01*
X135352Y63244D01*
X135537Y63059D01*
X135757Y62932D01*
X135766Y62924D01*
X135847Y62000D01*
X135766Y61076D01*
X135757Y61068D01*
X135537Y60941D01*
X135059Y60463D01*
X134800Y59838D01*
Y59162D01*
X135059Y58537D01*
X135537Y58059D01*
X136162Y57800D01*
X136838D01*
X137463Y58059D01*
X137756Y58351D01*
X137941Y58537D01*
X138068Y58757D01*
X138076Y58766D01*
X139000Y58847D01*
X139924Y58766D01*
X139932Y58757D01*
X140059Y58537D01*
X140537Y58059D01*
X141162Y57800D01*
X141838D01*
X142463Y58059D01*
X142941Y58537D01*
X143200Y59162D01*
X144338Y60300D01*
X144963Y60559D01*
X145162Y60758D01*
X146629Y60766D01*
X147222Y60631D01*
X147562Y60291D01*
X148187Y60032D01*
X148863D01*
X149488Y60291D01*
X149966Y60769D01*
X150225Y61394D01*
Y62070D01*
X149966Y62695D01*
X149488Y63173D01*
X148863Y63432D01*
X148187D01*
X147562Y63173D01*
X147363Y62974D01*
X145896Y62966D01*
X145304Y63101D01*
X144963Y63441D01*
X144338Y63700D01*
X144166Y63742D01*
X143442Y63958D01*
X143149Y64096D01*
X142895Y64292D01*
X142839Y64391D01*
X142912Y65207D01*
X142976Y65489D01*
X143104Y65930D01*
X143200Y66162D01*
X143200Y66162D01*
X143200Y66267D01*
Y66838D01*
X142996Y67331D01*
X142943Y67458D01*
X142938Y67474D01*
X142685Y68500D01*
X142938Y69526D01*
X142943Y69542D01*
X142996Y69669D01*
X143200Y70162D01*
Y70838D01*
X142941Y71463D01*
X142649Y71756D01*
X142463Y71941D01*
X142243Y72068D01*
X142235Y72076D01*
X142153Y73000D01*
X142235Y73924D01*
X142243Y73932D01*
X142463Y74059D01*
X142649Y74244D01*
X142941Y74537D01*
X143068Y74757D01*
X143076Y74765D01*
X144000Y74847D01*
X144924Y74765D01*
X144932Y74757D01*
X145059Y74537D01*
X145537Y74059D01*
X146162Y73800D01*
X146838D01*
X147463Y74059D01*
X147941Y74537D01*
X148200Y75162D01*
Y75838D01*
X147941Y76463D01*
X147463Y76941D01*
X146838Y77200D01*
D02*
G37*
G36*
X164841Y76132D02*
X164165D01*
X163540Y75873D01*
X163062Y75395D01*
X162803Y74770D01*
Y74094D01*
X163062Y73469D01*
X163540Y72991D01*
X164165Y72732D01*
X164841D01*
X165466Y72991D01*
X165944Y73469D01*
X166203Y74094D01*
Y74770D01*
X165944Y75395D01*
X165466Y75873D01*
X164841Y76132D01*
D02*
G37*
G36*
X146838Y70200D02*
X146162D01*
X145537Y69941D01*
X145059Y69463D01*
X144800Y68838D01*
Y68162D01*
X145059Y67537D01*
X145537Y67059D01*
X146162Y66800D01*
X146838D01*
X147463Y67059D01*
X147941Y67537D01*
X148200Y68162D01*
Y68838D01*
X147941Y69463D01*
X147463Y69941D01*
X146838Y70200D01*
D02*
G37*
G36*
X192338Y79700D02*
X191662D01*
X191037Y79441D01*
X190559Y78963D01*
X190300Y78338D01*
Y77662D01*
X190559Y77037D01*
X190870Y76000D01*
X190559Y74963D01*
X190300Y74338D01*
Y73662D01*
X190559Y73037D01*
X191037Y72559D01*
X191662Y72300D01*
X192300D01*
Y71662D01*
X192559Y71037D01*
X192764Y70604D01*
X192896Y70296D01*
X192078Y68681D01*
X192010Y68637D01*
X191537Y68441D01*
X191537Y68441D01*
X191059Y67963D01*
X190800Y67338D01*
Y66662D01*
X191059Y66037D01*
X191537Y65559D01*
X192162Y65300D01*
X192800D01*
Y64662D01*
X193059Y64037D01*
X193537Y63559D01*
X194162Y63300D01*
X194800D01*
Y62662D01*
X195059Y62037D01*
X195537Y61559D01*
X196162Y61300D01*
X196838D01*
X197463Y61559D01*
X197941Y62037D01*
X198200Y62662D01*
Y63338D01*
X197941Y63963D01*
X197463Y64441D01*
X196838Y64700D01*
X196200D01*
Y65338D01*
X195941Y65963D01*
X195463Y66441D01*
X194838Y66700D01*
X194200D01*
Y67338D01*
X193941Y67963D01*
X193736Y68397D01*
X193604Y68704D01*
X194422Y70319D01*
X194490Y70363D01*
X194963Y70559D01*
X194963Y70559D01*
X195441Y71037D01*
X195700Y71662D01*
Y72338D01*
X195441Y72963D01*
X195131Y74000D01*
X195441Y75037D01*
X195700Y75662D01*
Y76338D01*
X195441Y76963D01*
X194963Y77441D01*
X194338Y77700D01*
X193700D01*
Y78338D01*
X193441Y78963D01*
X192963Y79441D01*
X192338Y79700D01*
D02*
G37*
G36*
X181949Y63382D02*
X181272D01*
X180648Y63123D01*
X180169Y62645D01*
X179911Y62020D01*
Y61344D01*
X180169Y60719D01*
X180648Y60241D01*
X181272Y59982D01*
X181949D01*
X182573Y60241D01*
X183052Y60719D01*
X183310Y61344D01*
Y62020D01*
X183052Y62645D01*
X182573Y63123D01*
X181949Y63382D01*
D02*
G37*
G36*
X169346Y57811D02*
X168670D01*
X168045Y57552D01*
X167567Y57074D01*
X167308Y56449D01*
Y55773D01*
X167567Y55148D01*
X168045Y54670D01*
X168670Y54411D01*
X169346D01*
X169971Y54670D01*
X170449Y55148D01*
X170708Y55773D01*
Y56449D01*
X170449Y57074D01*
X169971Y57552D01*
X169346Y57811D01*
D02*
G37*
G36*
X189848Y56750D02*
X189152D01*
X188509Y56484D01*
X188016Y55991D01*
X187750Y55348D01*
Y54652D01*
X188016Y54009D01*
X188509Y53516D01*
X189152Y53250D01*
X189848D01*
X190491Y53516D01*
X190984Y54009D01*
X191250Y54652D01*
Y55348D01*
X190984Y55991D01*
X190491Y56484D01*
X189848Y56750D01*
D02*
G37*
G36*
X203338Y53700D02*
X202662D01*
X202037Y53441D01*
X201559Y52963D01*
X201300Y52338D01*
Y51662D01*
X201559Y51037D01*
X202037Y50559D01*
X202662Y50300D01*
X203338D01*
X203963Y50559D01*
X204441Y51037D01*
X204700Y51662D01*
Y52338D01*
X204441Y52963D01*
X203963Y53441D01*
X203338Y53700D01*
D02*
G37*
G36*
X163848Y52250D02*
X163152D01*
X162509Y51984D01*
X162016Y51491D01*
X161750Y50848D01*
Y50152D01*
X162016Y49509D01*
X162509Y49016D01*
X163152Y48750D01*
X163848D01*
X164491Y49016D01*
X164984Y49509D01*
X165250Y50152D01*
Y50848D01*
X164984Y51491D01*
X164491Y51984D01*
X163848Y52250D01*
D02*
G37*
G36*
X136838Y49173D02*
X136162D01*
X135537Y48914D01*
X135059Y48436D01*
X134800Y47811D01*
Y47135D01*
X135059Y46510D01*
X135537Y46032D01*
X136162Y45773D01*
X136838D01*
X137463Y46032D01*
X137941Y46510D01*
X138200Y47135D01*
Y47811D01*
X137941Y48436D01*
X137463Y48914D01*
X136838Y49173D01*
D02*
G37*
G36*
X210313Y46432D02*
X209637D01*
X209012Y46173D01*
X208534Y45695D01*
X208275Y45070D01*
Y44394D01*
X208534Y43769D01*
X209012Y43291D01*
X209637Y43032D01*
X210313D01*
X210938Y43291D01*
X211416Y43769D01*
X211675Y44394D01*
Y45070D01*
X211416Y45695D01*
X210938Y46173D01*
X210313Y46432D01*
D02*
G37*
G36*
X173338Y50200D02*
X172662D01*
X172037Y49941D01*
X171559Y49463D01*
X171300Y48838D01*
Y48200D01*
X170662D01*
X170037Y47941D01*
X169559Y47463D01*
X169300Y46838D01*
Y46200D01*
X168662D01*
X168037Y45941D01*
X167559Y45463D01*
X167300Y44838D01*
Y44162D01*
X167559Y43537D01*
X168037Y43059D01*
X168662Y42800D01*
X169338D01*
X169963Y43059D01*
X170441Y43537D01*
X170700Y44162D01*
Y44800D01*
X171338D01*
X171963Y45059D01*
X173000Y45370D01*
X174037Y45059D01*
X174662Y44800D01*
X175300D01*
Y44162D01*
X175559Y43537D01*
X176037Y43059D01*
X176662Y42800D01*
X177338D01*
X177963Y43059D01*
X179000Y43370D01*
X180037Y43059D01*
X180662Y42800D01*
X181338D01*
X181963Y43059D01*
X182441Y43537D01*
X182700Y44162D01*
Y44838D01*
X182441Y45463D01*
X181963Y45941D01*
X181338Y46200D01*
X180700D01*
Y46838D01*
X180441Y47463D01*
X179963Y47941D01*
X179338Y48200D01*
X178662D01*
X178037Y47941D01*
X177000Y47630D01*
X175963Y47941D01*
X175338Y48200D01*
X174700D01*
Y48838D01*
X174441Y49463D01*
X173963Y49941D01*
X173338Y50200D01*
D02*
G37*
G36*
X152338Y54200D02*
X151662D01*
X151037Y53941D01*
X150559Y53463D01*
X150300Y52838D01*
Y52200D01*
X149662D01*
X149037Y51941D01*
X148559Y51463D01*
X148300Y50838D01*
Y50162D01*
X148559Y49537D01*
X148870Y48500D01*
X148559Y47463D01*
X148300Y46838D01*
Y46162D01*
X148559Y45537D01*
X149037Y45059D01*
X149662Y44800D01*
X150300D01*
Y44162D01*
X150559Y43537D01*
X151037Y43059D01*
X151662Y42800D01*
X151662Y42800D01*
X152338Y42800D01*
X153117Y43069D01*
X153117D01*
X153117Y43069D01*
X153004Y43030D01*
X153507Y43066D01*
X154270Y43050D01*
X154583Y43034D01*
X155018Y42952D01*
X155522Y42641D01*
X155679Y42539D01*
X156013Y42234D01*
X156558Y41540D01*
X156559Y41537D01*
X157037Y41059D01*
X157662Y40800D01*
X158338D01*
X158963Y41059D01*
X159441Y41537D01*
X159700Y42162D01*
Y42800D01*
X160338D01*
X160963Y43059D01*
X161441Y43537D01*
X161700Y44162D01*
Y44838D01*
X161441Y45463D01*
X160963Y45941D01*
X160338Y46200D01*
X159662D01*
X159037Y45941D01*
X158000Y45630D01*
X156963Y45941D01*
X156338Y46200D01*
X155662D01*
X155169Y45996D01*
X155042Y45943D01*
X155026Y45939D01*
X154766Y45874D01*
X153585Y47062D01*
X153441Y47537D01*
X153700Y48162D01*
Y48838D01*
X153441Y49463D01*
X153130Y50500D01*
X153441Y51537D01*
X153700Y52162D01*
Y52838D01*
X153441Y53463D01*
X152963Y53941D01*
X152338Y54200D01*
D02*
G37*
G36*
X142338Y40700D02*
X141662D01*
X141037Y40441D01*
X140559Y39963D01*
X140300Y39338D01*
Y38662D01*
X140559Y38037D01*
X141037Y37559D01*
X141662Y37300D01*
X142338D01*
X142963Y37559D01*
X143441Y38037D01*
X143700Y38662D01*
Y39338D01*
X143441Y39963D01*
X142963Y40441D01*
X142338Y40700D01*
D02*
G37*
G36*
X132355Y38200D02*
X131645D01*
X130958Y38016D01*
X130342Y37661D01*
X129840Y37158D01*
X129484Y36542D01*
X129300Y35855D01*
Y35144D01*
X129484Y34458D01*
X129840Y33842D01*
X130342Y33340D01*
X130958Y32984D01*
X131645Y32800D01*
X132355D01*
X133042Y32984D01*
X133658Y33340D01*
X134161Y33842D01*
X134516Y34458D01*
X134700Y35144D01*
Y35855D01*
X134516Y36542D01*
X134161Y37158D01*
X133658Y37661D01*
X133042Y38016D01*
X132355Y38200D01*
D02*
G37*
G36*
X152356Y34200D02*
X151645D01*
X150958Y34016D01*
X150342Y33661D01*
X149839Y33158D01*
X149484Y32542D01*
X149300Y31855D01*
Y31144D01*
X149484Y30458D01*
X149839Y29842D01*
X150342Y29340D01*
X150958Y28984D01*
X151645Y28800D01*
X152356D01*
X153042Y28984D01*
X153658Y29340D01*
X154161Y29842D01*
X154516Y30458D01*
X154700Y31144D01*
Y31855D01*
X154516Y32542D01*
X154161Y33158D01*
X153658Y33661D01*
X153042Y34016D01*
X152356Y34200D01*
D02*
G37*
G36*
X191838Y30200D02*
X191162D01*
X190537Y29941D01*
X190059Y29463D01*
X189800Y28838D01*
Y28162D01*
X190059Y27537D01*
X190537Y27059D01*
X191162Y26800D01*
X191838D01*
X192463Y27059D01*
X192941Y27537D01*
X193200Y28162D01*
Y28838D01*
X192941Y29463D01*
X192463Y29941D01*
X191838Y30200D01*
D02*
G37*
G36*
X71338Y107200D02*
X70662D01*
X70037Y106941D01*
X69559Y106463D01*
X69300Y105838D01*
Y105162D01*
X69559Y104537D01*
X70037Y104059D01*
X70662Y103800D01*
X71338D01*
X71963Y104059D01*
X72441Y104537D01*
X72700Y105162D01*
Y105838D01*
X72441Y106463D01*
X71963Y106941D01*
X71338Y107200D01*
D02*
G37*
G36*
X43838Y102700D02*
X43162D01*
X42537Y102441D01*
X42059Y101963D01*
X41800Y101338D01*
Y100662D01*
X42059Y100037D01*
X42537Y99559D01*
X43162Y99300D01*
X43838D01*
X44463Y99559D01*
X45537D01*
X46162Y99300D01*
X46838D01*
X47463Y99559D01*
X47941Y100037D01*
X48200Y100662D01*
Y101338D01*
X47941Y101963D01*
X47463Y102441D01*
X46838Y102700D01*
X46162D01*
X45537Y102441D01*
X44463D01*
X43838Y102700D01*
D02*
G37*
G36*
X88338Y91200D02*
X87662D01*
X87037Y90941D01*
X86000Y90630D01*
X84963Y90941D01*
X84338Y91200D01*
X83662D01*
X83037Y90941D01*
X82793Y90697D01*
X81750Y90565D01*
X80707Y90697D01*
X80463Y90941D01*
X79838Y91200D01*
X79162D01*
X78537Y90941D01*
X77500Y90630D01*
X76463Y90941D01*
X75838Y91200D01*
X75162D01*
X74537Y90941D01*
X74059Y90463D01*
X73800Y89838D01*
Y89200D01*
X73162D01*
X72537Y88941D01*
X72007Y88510D01*
X71491Y88984D01*
X71491Y88984D01*
X70848Y89250D01*
X70152D01*
X69509Y88984D01*
X68491D01*
X67848Y89250D01*
X67152D01*
X66509Y88984D01*
X65491D01*
X64848Y89250D01*
X64152D01*
X63509Y88984D01*
X63016Y88491D01*
X62750Y87848D01*
Y87152D01*
X63016Y86509D01*
X63509Y86016D01*
X64152Y85750D01*
X64848D01*
X65491Y86016D01*
X66509D01*
X67152Y85750D01*
X67848D01*
X68491Y86016D01*
X69509D01*
X70152Y85750D01*
X70848D01*
X71491Y86016D01*
X71491Y86016D01*
X72007Y86490D01*
X72537Y86059D01*
X73162Y85800D01*
X73838D01*
X74463Y86059D01*
X75500Y86370D01*
X76537Y86059D01*
X77162Y85800D01*
X77838D01*
X78463Y86059D01*
X79500Y86370D01*
X80537Y86059D01*
X81162Y85800D01*
X81838D01*
X82463Y86059D01*
X82707Y86303D01*
X83750Y86435D01*
X84793Y86303D01*
X85037Y86059D01*
X85662Y85800D01*
X86338D01*
X86963Y86059D01*
X87441Y86537D01*
X87700Y87162D01*
Y87800D01*
X88338D01*
X88963Y88059D01*
X89441Y88537D01*
X89700Y89162D01*
Y89838D01*
X89441Y90463D01*
X88963Y90941D01*
X88338Y91200D01*
D02*
G37*
G36*
X31338Y92700D02*
X30662D01*
X30037Y92441D01*
X29559Y91963D01*
X29300Y91338D01*
Y90662D01*
X29559Y90037D01*
X30037Y89559D01*
X30662Y89300D01*
X31338D01*
X31963Y89559D01*
X32441Y90037D01*
X32700Y90662D01*
Y91338D01*
X32441Y91963D01*
X31963Y92441D01*
X31338Y92700D01*
D02*
G37*
G36*
X90348Y84750D02*
X89652D01*
X89009Y84484D01*
X88516Y83991D01*
X88250Y83348D01*
Y82652D01*
X88516Y82009D01*
X89009Y81516D01*
X89652Y81250D01*
X90348D01*
X90991Y81516D01*
X91484Y82009D01*
X91750Y82652D01*
Y83348D01*
X91484Y83991D01*
X90991Y84484D01*
X90348Y84750D01*
D02*
G37*
G36*
X54848D02*
X54152D01*
X53509Y84484D01*
X53016Y83991D01*
X52750Y83348D01*
Y82652D01*
X53016Y82009D01*
X53509Y81516D01*
X54152Y81250D01*
X54750D01*
Y80652D01*
X55016Y80009D01*
X55509Y79516D01*
X56152Y79250D01*
X56848D01*
X57491Y79516D01*
X57984Y80009D01*
X58250Y80652D01*
Y81348D01*
X57984Y81991D01*
X57491Y82484D01*
X56848Y82750D01*
X56250D01*
Y83348D01*
X55984Y83991D01*
X55491Y84484D01*
X54848Y84750D01*
D02*
G37*
G36*
X65362Y81698D02*
X64686D01*
X64061Y81439D01*
X63583Y80961D01*
X63324Y80336D01*
Y79660D01*
X63583Y79035D01*
X64061Y78557D01*
X64686Y78298D01*
X65362D01*
X65987Y78557D01*
X66465Y79035D01*
X66724Y79660D01*
Y80336D01*
X66465Y80961D01*
X65987Y81439D01*
X65362Y81698D01*
D02*
G37*
G36*
X41838Y77200D02*
X41162D01*
X40537Y76941D01*
X40244Y76649D01*
X40059Y76463D01*
X39932Y76243D01*
X39924Y76235D01*
X39000Y76153D01*
X38076Y76235D01*
X38068Y76243D01*
X37941Y76463D01*
X37463Y76941D01*
X36838Y77200D01*
X36162D01*
X35537Y76941D01*
X35059Y76463D01*
X34800Y75838D01*
Y75162D01*
X35059Y74537D01*
X35351Y74244D01*
X35537Y74059D01*
X35757Y73932D01*
X35765Y73924D01*
X35847Y73000D01*
X35765Y72076D01*
X35757Y72068D01*
X35537Y71941D01*
X35059Y71463D01*
X34800Y70838D01*
Y70162D01*
X35004Y69669D01*
X35057Y69542D01*
X35061Y69526D01*
X35315Y68500D01*
X35061Y67474D01*
X35057Y67458D01*
X35004Y67331D01*
X34800Y66838D01*
Y66162D01*
X35059Y65537D01*
X35537Y65059D01*
X36162Y64800D01*
X36334Y64758D01*
X37058Y64542D01*
X37351Y64404D01*
X37605Y64208D01*
X37661Y64109D01*
X37650Y63993D01*
X37326Y62462D01*
X37243Y62283D01*
X37212Y62253D01*
X35929Y61103D01*
X35537Y60941D01*
X35244Y60649D01*
X35059Y60463D01*
X34932Y60243D01*
X34924Y60234D01*
X34000Y60153D01*
X33076Y60234D01*
X33068Y60243D01*
X32941Y60463D01*
X32756Y60649D01*
X32463Y60941D01*
X32243Y61068D01*
X32234Y61076D01*
X32153Y62000D01*
X32234Y62924D01*
X32243Y62932D01*
X32463Y63059D01*
X32941Y63537D01*
X33200Y64162D01*
Y64838D01*
X32941Y65463D01*
X32463Y65941D01*
X31838Y66200D01*
X31162D01*
X30537Y65941D01*
X30059Y65463D01*
X29800Y64838D01*
Y64162D01*
X30059Y63537D01*
X30351Y63244D01*
X30537Y63059D01*
X30757Y62932D01*
X30766Y62924D01*
X30847Y62000D01*
X30766Y61076D01*
X30757Y61068D01*
X30537Y60941D01*
X30059Y60463D01*
X29800Y59838D01*
Y59162D01*
X30059Y58537D01*
X30537Y58059D01*
X31162Y57800D01*
X31838D01*
X32463Y58059D01*
X32756Y58351D01*
X32941Y58537D01*
X33068Y58757D01*
X33076Y58766D01*
X34000Y58847D01*
X34924Y58766D01*
X34932Y58757D01*
X35059Y58537D01*
X35537Y58059D01*
X36162Y57800D01*
X36838D01*
X37463Y58059D01*
X37941Y58537D01*
X38200Y59162D01*
X39338Y60300D01*
X39963Y60559D01*
X40162Y60758D01*
X41629Y60766D01*
X42222Y60631D01*
X42562Y60291D01*
X43187Y60032D01*
X43863D01*
X44488Y60291D01*
X44966Y60769D01*
X45225Y61394D01*
Y62070D01*
X44966Y62695D01*
X44488Y63173D01*
X43863Y63432D01*
X43187D01*
X42562Y63173D01*
X42363Y62974D01*
X40896Y62966D01*
X40304Y63101D01*
X39963Y63441D01*
X39338Y63700D01*
X39166Y63742D01*
X38442Y63958D01*
X38149Y64096D01*
X37895Y64292D01*
X37839Y64391D01*
X37912Y65207D01*
X37976Y65489D01*
X38104Y65930D01*
X38200Y66162D01*
X38200Y66162D01*
X38200Y66267D01*
Y66838D01*
X37996Y67331D01*
X37943Y67458D01*
X37938Y67474D01*
X37685Y68500D01*
X37938Y69526D01*
X37943Y69542D01*
X37996Y69669D01*
X38200Y70162D01*
Y70838D01*
X37941Y71463D01*
X37649Y71756D01*
X37463Y71941D01*
X37243Y72068D01*
X37235Y72076D01*
X37153Y73000D01*
X37235Y73924D01*
X37243Y73932D01*
X37463Y74059D01*
X37649Y74244D01*
X37941Y74537D01*
X38068Y74757D01*
X38076Y74765D01*
X39000Y74847D01*
X39924Y74765D01*
X39932Y74757D01*
X40059Y74537D01*
X40537Y74059D01*
X41162Y73800D01*
X41838D01*
X42463Y74059D01*
X42941Y74537D01*
X43200Y75162D01*
Y75838D01*
X42941Y76463D01*
X42463Y76941D01*
X41838Y77200D01*
D02*
G37*
G36*
X59841Y76132D02*
X59165D01*
X58540Y75873D01*
X58062Y75395D01*
X57803Y74770D01*
Y74094D01*
X58062Y73469D01*
X58540Y72991D01*
X59165Y72732D01*
X59841D01*
X60466Y72991D01*
X60944Y73469D01*
X61203Y74094D01*
Y74770D01*
X60944Y75395D01*
X60466Y75873D01*
X59841Y76132D01*
D02*
G37*
G36*
X41838Y70200D02*
X41162D01*
X40537Y69941D01*
X40059Y69463D01*
X39800Y68838D01*
Y68162D01*
X40059Y67537D01*
X40537Y67059D01*
X41162Y66800D01*
X41838D01*
X42463Y67059D01*
X42941Y67537D01*
X43200Y68162D01*
Y68838D01*
X42941Y69463D01*
X42463Y69941D01*
X41838Y70200D01*
D02*
G37*
G36*
X87338Y79700D02*
X86662D01*
X86037Y79441D01*
X85559Y78963D01*
X85300Y78338D01*
Y77662D01*
X85559Y77037D01*
X85870Y76000D01*
X85559Y74963D01*
X85300Y74338D01*
Y73662D01*
X85559Y73037D01*
X86037Y72559D01*
X86662Y72300D01*
X87300D01*
Y71662D01*
X87559Y71037D01*
X87764Y70604D01*
X87896Y70296D01*
X87078Y68681D01*
X87010Y68637D01*
X86537Y68441D01*
X86537Y68441D01*
X86059Y67963D01*
X85800Y67338D01*
Y66662D01*
X86059Y66037D01*
X86537Y65559D01*
X87162Y65300D01*
X87800D01*
Y64662D01*
X88059Y64037D01*
X88537Y63559D01*
X89162Y63300D01*
X89800D01*
Y62662D01*
X90059Y62037D01*
X90537Y61559D01*
X91162Y61300D01*
X91838D01*
X92463Y61559D01*
X92941Y62037D01*
X93200Y62662D01*
Y63338D01*
X92941Y63963D01*
X92463Y64441D01*
X91838Y64700D01*
X91200D01*
Y65338D01*
X90941Y65963D01*
X90463Y66441D01*
X89838Y66700D01*
X89200D01*
Y67338D01*
X88941Y67963D01*
X88736Y68397D01*
X88604Y68704D01*
X89422Y70319D01*
X89490Y70363D01*
X89963Y70559D01*
X89963Y70559D01*
X90441Y71037D01*
X90700Y71662D01*
Y72338D01*
X90441Y72963D01*
X90130Y74000D01*
X90441Y75037D01*
X90700Y75662D01*
Y76338D01*
X90441Y76963D01*
X89963Y77441D01*
X89338Y77700D01*
X88700D01*
Y78338D01*
X88441Y78963D01*
X87963Y79441D01*
X87338Y79700D01*
D02*
G37*
G36*
X76949Y63382D02*
X76272D01*
X75647Y63123D01*
X75169Y62645D01*
X74910Y62020D01*
Y61344D01*
X75169Y60719D01*
X75647Y60241D01*
X76272Y59982D01*
X76949D01*
X77574Y60241D01*
X78052Y60719D01*
X78311Y61344D01*
Y62020D01*
X78052Y62645D01*
X77574Y63123D01*
X76949Y63382D01*
D02*
G37*
G36*
X64346Y57811D02*
X63670D01*
X63045Y57552D01*
X62567Y57074D01*
X62308Y56449D01*
Y55773D01*
X62567Y55148D01*
X63045Y54670D01*
X63670Y54411D01*
X64346D01*
X64971Y54670D01*
X65450Y55148D01*
X65708Y55773D01*
Y56449D01*
X65450Y57074D01*
X64971Y57552D01*
X64346Y57811D01*
D02*
G37*
G36*
X84848Y56750D02*
X84152D01*
X83509Y56484D01*
X83016Y55991D01*
X82750Y55348D01*
Y54652D01*
X83016Y54009D01*
X83509Y53516D01*
X84152Y53250D01*
X84848D01*
X85491Y53516D01*
X85984Y54009D01*
X86250Y54652D01*
Y55348D01*
X85984Y55991D01*
X85491Y56484D01*
X84848Y56750D01*
D02*
G37*
G36*
X98338Y53700D02*
X97662D01*
X97037Y53441D01*
X96559Y52963D01*
X96300Y52338D01*
Y51662D01*
X96559Y51037D01*
X97037Y50559D01*
X97662Y50300D01*
X98338D01*
X98963Y50559D01*
X99441Y51037D01*
X99700Y51662D01*
Y52338D01*
X99441Y52963D01*
X98963Y53441D01*
X98338Y53700D01*
D02*
G37*
G36*
X58848Y52250D02*
X58152D01*
X57509Y51984D01*
X57016Y51491D01*
X56750Y50848D01*
Y50152D01*
X57016Y49509D01*
X57509Y49016D01*
X58152Y48750D01*
X58848D01*
X59491Y49016D01*
X59984Y49509D01*
X60250Y50152D01*
Y50848D01*
X59984Y51491D01*
X59491Y51984D01*
X58848Y52250D01*
D02*
G37*
G36*
X31838Y49173D02*
X31162D01*
X30537Y48914D01*
X30059Y48436D01*
X29800Y47811D01*
Y47135D01*
X30059Y46510D01*
X30537Y46032D01*
X31162Y45773D01*
X31838D01*
X32463Y46032D01*
X32941Y46510D01*
X33200Y47135D01*
Y47811D01*
X32941Y48436D01*
X32463Y48914D01*
X31838Y49173D01*
D02*
G37*
G36*
X105313Y46432D02*
X104637D01*
X104012Y46173D01*
X103534Y45695D01*
X103275Y45070D01*
Y44394D01*
X103534Y43769D01*
X104012Y43291D01*
X104637Y43032D01*
X105313D01*
X105938Y43291D01*
X106416Y43769D01*
X106675Y44394D01*
Y45070D01*
X106416Y45695D01*
X105938Y46173D01*
X105313Y46432D01*
D02*
G37*
G36*
X68338Y50200D02*
X67662D01*
X67037Y49941D01*
X66559Y49463D01*
X66300Y48838D01*
Y48200D01*
X65662D01*
X65037Y47941D01*
X64559Y47463D01*
X64300Y46838D01*
Y46200D01*
X63662D01*
X63037Y45941D01*
X62559Y45463D01*
X62300Y44838D01*
Y44162D01*
X62559Y43537D01*
X63037Y43059D01*
X63662Y42800D01*
X64338D01*
X64963Y43059D01*
X65441Y43537D01*
X65700Y44162D01*
Y44800D01*
X66338D01*
X66963Y45059D01*
X68000Y45370D01*
X69037Y45059D01*
X69662Y44800D01*
X70300D01*
Y44162D01*
X70559Y43537D01*
X71037Y43059D01*
X71662Y42800D01*
X72338D01*
X72963Y43059D01*
X74000Y43370D01*
X75037Y43059D01*
X75662Y42800D01*
X76338D01*
X76963Y43059D01*
X77441Y43537D01*
X77700Y44162D01*
Y44838D01*
X77441Y45463D01*
X76963Y45941D01*
X76338Y46200D01*
X75700D01*
Y46838D01*
X75441Y47463D01*
X74963Y47941D01*
X74338Y48200D01*
X73662D01*
X73037Y47941D01*
X72000Y47630D01*
X70963Y47941D01*
X70338Y48200D01*
X69700D01*
Y48838D01*
X69441Y49463D01*
X68963Y49941D01*
X68338Y50200D01*
D02*
G37*
G36*
X47338Y54200D02*
X46662D01*
X46037Y53941D01*
X45559Y53463D01*
X45300Y52838D01*
Y52200D01*
X44662D01*
X44037Y51941D01*
X43559Y51463D01*
X43300Y50838D01*
Y50162D01*
X43559Y49537D01*
X43870Y48500D01*
X43559Y47463D01*
X43300Y46838D01*
Y46162D01*
X43559Y45537D01*
X44037Y45059D01*
X44662Y44800D01*
X45300D01*
Y44162D01*
X45559Y43537D01*
X46037Y43059D01*
X46662Y42800D01*
X46662Y42800D01*
X47338Y42800D01*
X48117Y43069D01*
X48117D01*
X48117Y43069D01*
X48004Y43030D01*
X48507Y43066D01*
X49270Y43050D01*
X49583Y43034D01*
X50018Y42952D01*
X50522Y42641D01*
X50679Y42539D01*
X51013Y42234D01*
X51558Y41540D01*
X51559Y41537D01*
X52037Y41059D01*
X52662Y40800D01*
X53338D01*
X53963Y41059D01*
X54441Y41537D01*
X54700Y42162D01*
Y42800D01*
X55338D01*
X55963Y43059D01*
X56441Y43537D01*
X56700Y44162D01*
Y44838D01*
X56441Y45463D01*
X55963Y45941D01*
X55338Y46200D01*
X54662D01*
X54037Y45941D01*
X53000Y45630D01*
X51963Y45941D01*
X51338Y46200D01*
X50662D01*
X50169Y45996D01*
X50042Y45943D01*
X50026Y45939D01*
X49766Y45874D01*
X48585Y47062D01*
X48441Y47537D01*
X48700Y48162D01*
Y48838D01*
X48441Y49463D01*
X48130Y50500D01*
X48441Y51537D01*
X48700Y52162D01*
Y52838D01*
X48441Y53463D01*
X47963Y53941D01*
X47338Y54200D01*
D02*
G37*
G36*
X37338Y40700D02*
X36662D01*
X36037Y40441D01*
X35559Y39963D01*
X35300Y39338D01*
Y38662D01*
X35559Y38037D01*
X36037Y37559D01*
X36662Y37300D01*
X37338D01*
X37963Y37559D01*
X38441Y38037D01*
X38700Y38662D01*
Y39338D01*
X38441Y39963D01*
X37963Y40441D01*
X37338Y40700D01*
D02*
G37*
G36*
X27356Y38200D02*
X26645D01*
X25958Y38016D01*
X25342Y37661D01*
X24839Y37158D01*
X24484Y36542D01*
X24300Y35855D01*
Y35144D01*
X24484Y34458D01*
X24839Y33842D01*
X25342Y33340D01*
X25958Y32984D01*
X26645Y32800D01*
X27356D01*
X28042Y32984D01*
X28658Y33340D01*
X29161Y33842D01*
X29516Y34458D01*
X29700Y35144D01*
Y35855D01*
X29516Y36542D01*
X29161Y37158D01*
X28658Y37661D01*
X28042Y38016D01*
X27356Y38200D01*
D02*
G37*
G36*
X47355Y34200D02*
X46644D01*
X45958Y34016D01*
X45342Y33661D01*
X44840Y33158D01*
X44484Y32542D01*
X44300Y31855D01*
Y31144D01*
X44484Y30458D01*
X44840Y29842D01*
X45342Y29340D01*
X45958Y28984D01*
X46644Y28800D01*
X47355D01*
X48042Y28984D01*
X48658Y29340D01*
X49161Y29842D01*
X49516Y30458D01*
X49700Y31144D01*
Y31855D01*
X49516Y32542D01*
X49161Y33158D01*
X48658Y33661D01*
X48042Y34016D01*
X47355Y34200D01*
D02*
G37*
G36*
X86838Y30200D02*
X86162D01*
X85537Y29941D01*
X85059Y29463D01*
X84800Y28838D01*
Y28162D01*
X85059Y27537D01*
X85537Y27059D01*
X86162Y26800D01*
X86838D01*
X87463Y27059D01*
X87941Y27537D01*
X88200Y28162D01*
Y28838D01*
X87941Y29463D01*
X87463Y29941D01*
X86838Y30200D01*
D02*
G37*
%LPD*%
D34*
X87500Y17837D02*
Y24404D01*
X72000Y116365D02*
Y117500D01*
X69500Y110500D02*
Y113865D01*
X72000Y116365D01*
X111226Y87500D02*
X117688D01*
X47500Y110755D02*
Y117755D01*
X17279Y47500D02*
X24823D01*
X192500Y17837D02*
Y24404D01*
X177000Y116365D02*
Y117500D01*
X174500Y110500D02*
Y113865D01*
X177000Y116365D01*
X216226Y87500D02*
X222688D01*
X152500Y110755D02*
Y117755D01*
X122279Y47500D02*
X129823D01*
X297500Y17837D02*
Y24404D01*
X282000Y116365D02*
Y117500D01*
X279500Y110500D02*
Y113865D01*
X282000Y116365D01*
X321226Y87500D02*
X327688D01*
X257500Y110755D02*
Y117755D01*
X227279Y47500D02*
X234823D01*
X87500Y122836D02*
Y129404D01*
X72000Y221365D02*
Y222500D01*
X69500Y215500D02*
Y218865D01*
X72000Y221365D01*
X111226Y192500D02*
X117688D01*
X47500Y215755D02*
Y222755D01*
X17279Y152500D02*
X24823D01*
X192500Y122836D02*
Y129404D01*
X177000Y221365D02*
Y222500D01*
X174500Y215500D02*
Y218865D01*
X177000Y221365D01*
X216226Y192500D02*
X222688D01*
X152500Y215755D02*
Y222755D01*
X122279Y152500D02*
X129823D01*
X297500Y122836D02*
Y129404D01*
X282000Y221365D02*
Y222500D01*
X279500Y215500D02*
Y218865D01*
X282000Y221365D01*
X321226Y192500D02*
X327688D01*
X257500Y215755D02*
Y222755D01*
X227279Y152500D02*
X234823D01*
X87500Y227836D02*
Y234404D01*
X72000Y326365D02*
Y327500D01*
X69500Y320500D02*
Y323865D01*
X72000Y326365D01*
X111226Y297500D02*
X117688D01*
X47500Y320755D02*
Y327755D01*
X17279Y257500D02*
X24823D01*
X192500Y227836D02*
Y234404D01*
X177000Y326365D02*
Y327500D01*
X174500Y320500D02*
Y323865D01*
X177000Y326365D01*
X216226Y297500D02*
X222688D01*
X152500Y320755D02*
Y327755D01*
X122279Y257500D02*
X129823D01*
X297500Y227836D02*
Y234404D01*
X282000Y326365D02*
Y327500D01*
X279500Y320500D02*
Y323865D01*
X282000Y326365D01*
X321226Y297500D02*
X327688D01*
X257500Y320755D02*
Y327755D01*
X227279Y257500D02*
X234823D01*
D41*
X17500Y31500D02*
D03*
Y39500D02*
D03*
Y47500D02*
D03*
Y55500D02*
D03*
Y63500D02*
D03*
Y71500D02*
D03*
Y79500D02*
D03*
Y87500D02*
D03*
Y95500D02*
D03*
Y103500D02*
D03*
X117500D02*
D03*
Y95500D02*
D03*
Y87500D02*
D03*
Y79500D02*
D03*
Y71500D02*
D03*
Y63500D02*
D03*
Y55500D02*
D03*
Y47500D02*
D03*
Y39500D02*
D03*
Y31500D02*
D03*
X122500D02*
D03*
Y39500D02*
D03*
Y47500D02*
D03*
Y55500D02*
D03*
Y63500D02*
D03*
Y71500D02*
D03*
Y79500D02*
D03*
Y87500D02*
D03*
Y95500D02*
D03*
Y103500D02*
D03*
X222500D02*
D03*
Y95500D02*
D03*
Y87500D02*
D03*
Y79500D02*
D03*
Y71500D02*
D03*
Y63500D02*
D03*
Y55500D02*
D03*
Y47500D02*
D03*
Y39500D02*
D03*
Y31500D02*
D03*
X227500D02*
D03*
Y39500D02*
D03*
Y47500D02*
D03*
Y55500D02*
D03*
Y63500D02*
D03*
Y71500D02*
D03*
Y79500D02*
D03*
Y87500D02*
D03*
Y95500D02*
D03*
Y103500D02*
D03*
X327500D02*
D03*
Y95500D02*
D03*
Y87500D02*
D03*
Y79500D02*
D03*
Y71500D02*
D03*
Y63500D02*
D03*
Y55500D02*
D03*
Y47500D02*
D03*
Y39500D02*
D03*
Y31500D02*
D03*
X17500Y136500D02*
D03*
Y144500D02*
D03*
Y152500D02*
D03*
Y160500D02*
D03*
Y168500D02*
D03*
Y176500D02*
D03*
Y184500D02*
D03*
Y192500D02*
D03*
Y200500D02*
D03*
Y208500D02*
D03*
X117500D02*
D03*
Y200500D02*
D03*
Y192500D02*
D03*
Y184500D02*
D03*
Y176500D02*
D03*
Y168500D02*
D03*
Y160500D02*
D03*
Y152500D02*
D03*
Y144500D02*
D03*
Y136500D02*
D03*
X122500D02*
D03*
Y144500D02*
D03*
Y152500D02*
D03*
Y160500D02*
D03*
Y168500D02*
D03*
Y176500D02*
D03*
Y184500D02*
D03*
Y192500D02*
D03*
Y200500D02*
D03*
Y208500D02*
D03*
X222500D02*
D03*
Y200500D02*
D03*
Y192500D02*
D03*
Y184500D02*
D03*
Y176500D02*
D03*
Y168500D02*
D03*
Y160500D02*
D03*
Y152500D02*
D03*
Y144500D02*
D03*
Y136500D02*
D03*
X227500D02*
D03*
Y144500D02*
D03*
Y152500D02*
D03*
Y160500D02*
D03*
Y168500D02*
D03*
Y176500D02*
D03*
Y184500D02*
D03*
Y192500D02*
D03*
Y200500D02*
D03*
Y208500D02*
D03*
X327500D02*
D03*
Y200500D02*
D03*
Y192500D02*
D03*
Y184500D02*
D03*
Y176500D02*
D03*
Y168500D02*
D03*
Y160500D02*
D03*
Y152500D02*
D03*
Y144500D02*
D03*
Y136500D02*
D03*
X17500Y241500D02*
D03*
Y249500D02*
D03*
Y257500D02*
D03*
Y265500D02*
D03*
Y273500D02*
D03*
Y281500D02*
D03*
Y289500D02*
D03*
Y297500D02*
D03*
Y305500D02*
D03*
Y313500D02*
D03*
X117500D02*
D03*
Y305500D02*
D03*
Y297500D02*
D03*
Y289500D02*
D03*
Y281500D02*
D03*
Y273500D02*
D03*
Y265500D02*
D03*
Y257500D02*
D03*
Y249500D02*
D03*
Y241500D02*
D03*
X122500D02*
D03*
Y249500D02*
D03*
Y257500D02*
D03*
Y265500D02*
D03*
Y273500D02*
D03*
Y281500D02*
D03*
Y289500D02*
D03*
Y297500D02*
D03*
Y305500D02*
D03*
Y313500D02*
D03*
X222500D02*
D03*
Y305500D02*
D03*
Y297500D02*
D03*
Y289500D02*
D03*
Y281500D02*
D03*
Y273500D02*
D03*
Y265500D02*
D03*
Y257500D02*
D03*
Y249500D02*
D03*
Y241500D02*
D03*
X227500D02*
D03*
Y249500D02*
D03*
Y257500D02*
D03*
Y265500D02*
D03*
Y273500D02*
D03*
Y281500D02*
D03*
Y289500D02*
D03*
Y297500D02*
D03*
Y305500D02*
D03*
Y313500D02*
D03*
X327500D02*
D03*
Y305500D02*
D03*
Y297500D02*
D03*
Y289500D02*
D03*
Y281500D02*
D03*
Y273500D02*
D03*
Y265500D02*
D03*
Y257500D02*
D03*
Y249500D02*
D03*
Y241500D02*
D03*
D42*
X103500Y17500D02*
D03*
X95500D02*
D03*
X87500D02*
D03*
X79500D02*
D03*
X71500D02*
D03*
X63500D02*
D03*
X55500D02*
D03*
X47500D02*
D03*
X39500D02*
D03*
X31500D02*
D03*
Y117500D02*
D03*
X39500D02*
D03*
X47500D02*
D03*
X55500D02*
D03*
X63500D02*
D03*
X71500D02*
D03*
X79500D02*
D03*
X87500D02*
D03*
X95500D02*
D03*
X103500D02*
D03*
X208500Y17500D02*
D03*
X200500D02*
D03*
X192500D02*
D03*
X184500D02*
D03*
X176500D02*
D03*
X168500D02*
D03*
X160500D02*
D03*
X152500D02*
D03*
X144500D02*
D03*
X136500D02*
D03*
Y117500D02*
D03*
X144500D02*
D03*
X152500D02*
D03*
X160500D02*
D03*
X168500D02*
D03*
X176500D02*
D03*
X184500D02*
D03*
X192500D02*
D03*
X200500D02*
D03*
X208500D02*
D03*
X313500Y17500D02*
D03*
X305500D02*
D03*
X297500D02*
D03*
X289500D02*
D03*
X281500D02*
D03*
X273500D02*
D03*
X265500D02*
D03*
X257500D02*
D03*
X249500D02*
D03*
X241500D02*
D03*
Y117500D02*
D03*
X249500D02*
D03*
X257500D02*
D03*
X265500D02*
D03*
X273500D02*
D03*
X281500D02*
D03*
X289500D02*
D03*
X297500D02*
D03*
X305500D02*
D03*
X313500D02*
D03*
X103500Y122500D02*
D03*
X95500D02*
D03*
X87500D02*
D03*
X79500D02*
D03*
X71500D02*
D03*
X63500D02*
D03*
X55500D02*
D03*
X47500D02*
D03*
X39500D02*
D03*
X31500D02*
D03*
Y222500D02*
D03*
X39500D02*
D03*
X47500D02*
D03*
X55500D02*
D03*
X63500D02*
D03*
X71500D02*
D03*
X79500D02*
D03*
X87500D02*
D03*
X95500D02*
D03*
X103500D02*
D03*
X208500Y122500D02*
D03*
X200500D02*
D03*
X192500D02*
D03*
X184500D02*
D03*
X176500D02*
D03*
X168500D02*
D03*
X160500D02*
D03*
X152500D02*
D03*
X144500D02*
D03*
X136500D02*
D03*
Y222500D02*
D03*
X144500D02*
D03*
X152500D02*
D03*
X160500D02*
D03*
X168500D02*
D03*
X176500D02*
D03*
X184500D02*
D03*
X192500D02*
D03*
X200500D02*
D03*
X208500D02*
D03*
X313500Y122500D02*
D03*
X305500D02*
D03*
X297500D02*
D03*
X289500D02*
D03*
X281500D02*
D03*
X273500D02*
D03*
X265500D02*
D03*
X257500D02*
D03*
X249500D02*
D03*
X241500D02*
D03*
Y222500D02*
D03*
X249500D02*
D03*
X257500D02*
D03*
X265500D02*
D03*
X273500D02*
D03*
X281500D02*
D03*
X289500D02*
D03*
X297500D02*
D03*
X305500D02*
D03*
X313500D02*
D03*
X103500Y227500D02*
D03*
X95500D02*
D03*
X87500D02*
D03*
X79500D02*
D03*
X71500D02*
D03*
X63500D02*
D03*
X55500D02*
D03*
X47500D02*
D03*
X39500D02*
D03*
X31500D02*
D03*
Y327500D02*
D03*
X39500D02*
D03*
X47500D02*
D03*
X55500D02*
D03*
X63500D02*
D03*
X71500D02*
D03*
X79500D02*
D03*
X87500D02*
D03*
X95500D02*
D03*
X103500D02*
D03*
X208500Y227500D02*
D03*
X200500D02*
D03*
X192500D02*
D03*
X184500D02*
D03*
X176500D02*
D03*
X168500D02*
D03*
X160500D02*
D03*
X152500D02*
D03*
X144500D02*
D03*
X136500D02*
D03*
Y327500D02*
D03*
X144500D02*
D03*
X152500D02*
D03*
X160500D02*
D03*
X168500D02*
D03*
X176500D02*
D03*
X184500D02*
D03*
X192500D02*
D03*
X200500D02*
D03*
X208500D02*
D03*
X313500Y227500D02*
D03*
X305500D02*
D03*
X297500D02*
D03*
X289500D02*
D03*
X281500D02*
D03*
X273500D02*
D03*
X265500D02*
D03*
X257500D02*
D03*
X249500D02*
D03*
X241500D02*
D03*
Y327500D02*
D03*
X249500D02*
D03*
X257500D02*
D03*
X265500D02*
D03*
X273500D02*
D03*
X281500D02*
D03*
X289500D02*
D03*
X297500D02*
D03*
X305500D02*
D03*
X313500D02*
D03*
D43*
X27000Y27500D02*
D03*
Y35500D02*
D03*
X47000Y31500D02*
D03*
X132000Y27500D02*
D03*
Y35500D02*
D03*
X152000Y31500D02*
D03*
X237000Y27500D02*
D03*
Y35500D02*
D03*
X257000Y31500D02*
D03*
X27000Y132500D02*
D03*
Y140500D02*
D03*
X47000Y136500D02*
D03*
X132000Y132500D02*
D03*
Y140500D02*
D03*
X152000Y136500D02*
D03*
X237000Y132500D02*
D03*
Y140500D02*
D03*
X257000Y136500D02*
D03*
X27000Y237500D02*
D03*
Y245500D02*
D03*
X47000Y241500D02*
D03*
X132000Y237500D02*
D03*
Y245500D02*
D03*
X152000Y241500D02*
D03*
X237000Y237500D02*
D03*
Y245500D02*
D03*
X257000Y241500D02*
D03*
D44*
X34000Y68500D02*
D03*
X24000Y24000D02*
D03*
X52000Y32000D02*
D03*
X40500Y110500D02*
D03*
X37000Y23500D02*
D03*
X42000Y25500D02*
D03*
X32000D02*
D03*
X45000Y50500D02*
D03*
X37000Y39000D02*
D03*
X31500Y47473D02*
D03*
X86500Y28500D02*
D03*
X111000Y63500D02*
D03*
Y60500D02*
D03*
X106500Y26500D02*
D03*
X98000Y52000D02*
D03*
X38500Y107500D02*
D03*
X73000Y110500D02*
D03*
X104975Y44732D02*
D03*
X39000Y62000D02*
D03*
X71000Y105500D02*
D03*
X31000Y91000D02*
D03*
X46500Y101000D02*
D03*
X43500D02*
D03*
X93000Y80000D02*
D03*
X43525Y61732D02*
D03*
X93500Y48500D02*
D03*
X93482Y40500D02*
D03*
X76000Y31000D02*
D03*
X59500Y33500D02*
D03*
X41500Y59500D02*
D03*
X76610Y61682D02*
D03*
X65024Y79998D02*
D03*
X59503Y74432D02*
D03*
X106500Y99000D02*
D03*
X23500Y101000D02*
D03*
X25500Y109500D02*
D03*
X34000Y88000D02*
D03*
X97000Y90000D02*
D03*
X74464Y97257D02*
D03*
X98000Y111000D02*
D03*
X109000D02*
D03*
X32000Y37500D02*
D03*
X64008Y56111D02*
D03*
X64000Y44500D02*
D03*
X88000Y89500D02*
D03*
X86000Y87500D02*
D03*
X84000Y89500D02*
D03*
X81500Y87500D02*
D03*
X77500D02*
D03*
X79500Y89500D02*
D03*
X73500Y87500D02*
D03*
X75500Y89500D02*
D03*
X89000Y72000D02*
D03*
X87000Y74000D02*
D03*
Y78000D02*
D03*
X89000Y76000D02*
D03*
X87500Y67000D02*
D03*
X89500Y65000D02*
D03*
X91500Y63000D02*
D03*
X76000Y44500D02*
D03*
X74000Y46500D02*
D03*
X68000Y48500D02*
D03*
X66000Y46500D02*
D03*
X70000D02*
D03*
X72000Y44500D02*
D03*
X55000D02*
D03*
X53000Y42500D02*
D03*
X51000Y44500D02*
D03*
X47000D02*
D03*
X45000Y46500D02*
D03*
X47000Y48500D02*
D03*
Y52500D02*
D03*
X31500Y64500D02*
D03*
X36500Y70500D02*
D03*
Y66500D02*
D03*
X41500Y68500D02*
D03*
X36500Y59500D02*
D03*
X31500D02*
D03*
X36500Y75500D02*
D03*
X41500D02*
D03*
X139000Y68500D02*
D03*
X129000Y24000D02*
D03*
X157000Y32000D02*
D03*
X145500Y110500D02*
D03*
X142000Y23500D02*
D03*
X147000Y25500D02*
D03*
X137000D02*
D03*
X150000Y50500D02*
D03*
X142000Y39000D02*
D03*
X136500Y47473D02*
D03*
X191500Y28500D02*
D03*
X216000Y63500D02*
D03*
Y60500D02*
D03*
X211500Y26500D02*
D03*
X203000Y52000D02*
D03*
X143500Y107500D02*
D03*
X178000Y110500D02*
D03*
X209975Y44732D02*
D03*
X144000Y62000D02*
D03*
X176000Y105500D02*
D03*
X136000Y91000D02*
D03*
X151500Y101000D02*
D03*
X148500D02*
D03*
X198000Y80000D02*
D03*
X148525Y61732D02*
D03*
X198500Y48500D02*
D03*
X198482Y40500D02*
D03*
X181000Y31000D02*
D03*
X164500Y33500D02*
D03*
X146500Y59500D02*
D03*
X181611Y61682D02*
D03*
X170024Y79998D02*
D03*
X164503Y74432D02*
D03*
X211500Y99000D02*
D03*
X128500Y101000D02*
D03*
X130500Y109500D02*
D03*
X139000Y88000D02*
D03*
X202000Y90000D02*
D03*
X179464Y97257D02*
D03*
X203000Y111000D02*
D03*
X214000D02*
D03*
X137000Y37500D02*
D03*
X169008Y56111D02*
D03*
X169000Y44500D02*
D03*
X193000Y89500D02*
D03*
X191000Y87500D02*
D03*
X189000Y89500D02*
D03*
X186500Y87500D02*
D03*
X182500D02*
D03*
X184500Y89500D02*
D03*
X178500Y87500D02*
D03*
X180500Y89500D02*
D03*
X194000Y72000D02*
D03*
X192000Y74000D02*
D03*
Y78000D02*
D03*
X194000Y76000D02*
D03*
X192500Y67000D02*
D03*
X194500Y65000D02*
D03*
X196500Y63000D02*
D03*
X181000Y44500D02*
D03*
X179000Y46500D02*
D03*
X173000Y48500D02*
D03*
X171000Y46500D02*
D03*
X175000D02*
D03*
X177000Y44500D02*
D03*
X160000D02*
D03*
X158000Y42500D02*
D03*
X156000Y44500D02*
D03*
X152000D02*
D03*
X150000Y46500D02*
D03*
X152000Y48500D02*
D03*
Y52500D02*
D03*
X136500Y64500D02*
D03*
X141500Y70500D02*
D03*
Y66500D02*
D03*
X146500Y68500D02*
D03*
X141500Y59500D02*
D03*
X136500D02*
D03*
X141500Y75500D02*
D03*
X146500D02*
D03*
X244000Y68500D02*
D03*
X234000Y24000D02*
D03*
X262000Y32000D02*
D03*
X250500Y110500D02*
D03*
X247000Y23500D02*
D03*
X252000Y25500D02*
D03*
X242000D02*
D03*
X255000Y50500D02*
D03*
X247000Y39000D02*
D03*
X241500Y47473D02*
D03*
X296500Y28500D02*
D03*
X321000Y63500D02*
D03*
Y60500D02*
D03*
X316500Y26500D02*
D03*
X308000Y52000D02*
D03*
X248500Y107500D02*
D03*
X283000Y110500D02*
D03*
X314975Y44732D02*
D03*
X249000Y62000D02*
D03*
X281000Y105500D02*
D03*
X241000Y91000D02*
D03*
X256500Y101000D02*
D03*
X253500D02*
D03*
X303000Y80000D02*
D03*
X253525Y61732D02*
D03*
X303500Y48500D02*
D03*
X303482Y40500D02*
D03*
X286000Y31000D02*
D03*
X269500Y33500D02*
D03*
X251500Y59500D02*
D03*
X286611Y61682D02*
D03*
X275024Y79998D02*
D03*
X269503Y74432D02*
D03*
X316500Y99000D02*
D03*
X233500Y101000D02*
D03*
X235500Y109500D02*
D03*
X244000Y88000D02*
D03*
X307000Y90000D02*
D03*
X284464Y97257D02*
D03*
X308000Y111000D02*
D03*
X319000D02*
D03*
X242000Y37500D02*
D03*
X274008Y56111D02*
D03*
X274000Y44500D02*
D03*
X298000Y89500D02*
D03*
X296000Y87500D02*
D03*
X294000Y89500D02*
D03*
X291500Y87500D02*
D03*
X287500D02*
D03*
X289500Y89500D02*
D03*
X283500Y87500D02*
D03*
X285500Y89500D02*
D03*
X299000Y72000D02*
D03*
X297000Y74000D02*
D03*
Y78000D02*
D03*
X299000Y76000D02*
D03*
X297500Y67000D02*
D03*
X299500Y65000D02*
D03*
X301500Y63000D02*
D03*
X286000Y44500D02*
D03*
X284000Y46500D02*
D03*
X278000Y48500D02*
D03*
X276000Y46500D02*
D03*
X280000D02*
D03*
X282000Y44500D02*
D03*
X265000D02*
D03*
X263000Y42500D02*
D03*
X261000Y44500D02*
D03*
X257000D02*
D03*
X255000Y46500D02*
D03*
X257000Y48500D02*
D03*
Y52500D02*
D03*
X241500Y64500D02*
D03*
X246500Y70500D02*
D03*
Y66500D02*
D03*
X251500Y68500D02*
D03*
X246500Y59500D02*
D03*
X241500D02*
D03*
X246500Y75500D02*
D03*
X251500D02*
D03*
X34000Y173500D02*
D03*
X24000Y129000D02*
D03*
X52000Y137000D02*
D03*
X40500Y215500D02*
D03*
X37000Y128500D02*
D03*
X42000Y130500D02*
D03*
X32000D02*
D03*
X45000Y155500D02*
D03*
X37000Y144000D02*
D03*
X31500Y152473D02*
D03*
X86500Y133500D02*
D03*
X111000Y168500D02*
D03*
Y165500D02*
D03*
X106500Y131500D02*
D03*
X98000Y157000D02*
D03*
X38500Y212500D02*
D03*
X73000Y215500D02*
D03*
X104975Y149732D02*
D03*
X39000Y167000D02*
D03*
X71000Y210500D02*
D03*
X31000Y196000D02*
D03*
X46500Y206000D02*
D03*
X43500D02*
D03*
X93000Y185000D02*
D03*
X43525Y166732D02*
D03*
X93500Y153500D02*
D03*
X93482Y145500D02*
D03*
X76000Y136000D02*
D03*
X59500Y138500D02*
D03*
X41500Y164500D02*
D03*
X76610Y166682D02*
D03*
X65024Y184998D02*
D03*
X59503Y179432D02*
D03*
X106500Y204000D02*
D03*
X23500Y206000D02*
D03*
X25500Y214500D02*
D03*
X34000Y193000D02*
D03*
X97000Y195000D02*
D03*
X74464Y202257D02*
D03*
X98000Y216000D02*
D03*
X109000D02*
D03*
X32000Y142500D02*
D03*
X64008Y161111D02*
D03*
X64000Y149500D02*
D03*
X88000Y194500D02*
D03*
X86000Y192500D02*
D03*
X84000Y194500D02*
D03*
X81500Y192500D02*
D03*
X77500D02*
D03*
X79500Y194500D02*
D03*
X73500Y192500D02*
D03*
X75500Y194500D02*
D03*
X89000Y177000D02*
D03*
X87000Y179000D02*
D03*
Y183000D02*
D03*
X89000Y181000D02*
D03*
X87500Y172000D02*
D03*
X89500Y170000D02*
D03*
X91500Y168000D02*
D03*
X76000Y149500D02*
D03*
X74000Y151500D02*
D03*
X68000Y153500D02*
D03*
X66000Y151500D02*
D03*
X70000D02*
D03*
X72000Y149500D02*
D03*
X55000D02*
D03*
X53000Y147500D02*
D03*
X51000Y149500D02*
D03*
X47000D02*
D03*
X45000Y151500D02*
D03*
X47000Y153500D02*
D03*
Y157500D02*
D03*
X31500Y169500D02*
D03*
X36500Y175500D02*
D03*
Y171500D02*
D03*
X41500Y173500D02*
D03*
X36500Y164500D02*
D03*
X31500D02*
D03*
X36500Y180500D02*
D03*
X41500D02*
D03*
X139000Y173500D02*
D03*
X129000Y129000D02*
D03*
X157000Y137000D02*
D03*
X145500Y215500D02*
D03*
X142000Y128500D02*
D03*
X147000Y130500D02*
D03*
X137000D02*
D03*
X150000Y155500D02*
D03*
X142000Y144000D02*
D03*
X136500Y152473D02*
D03*
X191500Y133500D02*
D03*
X216000Y168500D02*
D03*
Y165500D02*
D03*
X211500Y131500D02*
D03*
X203000Y157000D02*
D03*
X143500Y212500D02*
D03*
X178000Y215500D02*
D03*
X209975Y149732D02*
D03*
X144000Y167000D02*
D03*
X176000Y210500D02*
D03*
X136000Y196000D02*
D03*
X151500Y206000D02*
D03*
X148500D02*
D03*
X198000Y185000D02*
D03*
X148525Y166732D02*
D03*
X198500Y153500D02*
D03*
X198482Y145500D02*
D03*
X181000Y136000D02*
D03*
X164500Y138500D02*
D03*
X146500Y164500D02*
D03*
X181611Y166682D02*
D03*
X170024Y184998D02*
D03*
X164503Y179432D02*
D03*
X211500Y204000D02*
D03*
X128500Y206000D02*
D03*
X130500Y214500D02*
D03*
X139000Y193000D02*
D03*
X202000Y195000D02*
D03*
X179464Y202257D02*
D03*
X203000Y216000D02*
D03*
X214000D02*
D03*
X137000Y142500D02*
D03*
X169008Y161111D02*
D03*
X169000Y149500D02*
D03*
X193000Y194500D02*
D03*
X191000Y192500D02*
D03*
X189000Y194500D02*
D03*
X186500Y192500D02*
D03*
X182500D02*
D03*
X184500Y194500D02*
D03*
X178500Y192500D02*
D03*
X180500Y194500D02*
D03*
X194000Y177000D02*
D03*
X192000Y179000D02*
D03*
Y183000D02*
D03*
X194000Y181000D02*
D03*
X192500Y172000D02*
D03*
X194500Y170000D02*
D03*
X196500Y168000D02*
D03*
X181000Y149500D02*
D03*
X179000Y151500D02*
D03*
X173000Y153500D02*
D03*
X171000Y151500D02*
D03*
X175000D02*
D03*
X177000Y149500D02*
D03*
X160000D02*
D03*
X158000Y147500D02*
D03*
X156000Y149500D02*
D03*
X152000D02*
D03*
X150000Y151500D02*
D03*
X152000Y153500D02*
D03*
Y157500D02*
D03*
X136500Y169500D02*
D03*
X141500Y175500D02*
D03*
Y171500D02*
D03*
X146500Y173500D02*
D03*
X141500Y164500D02*
D03*
X136500D02*
D03*
X141500Y180500D02*
D03*
X146500D02*
D03*
X244000Y173500D02*
D03*
X234000Y129000D02*
D03*
X262000Y137000D02*
D03*
X250500Y215500D02*
D03*
X247000Y128500D02*
D03*
X252000Y130500D02*
D03*
X242000D02*
D03*
X255000Y155500D02*
D03*
X247000Y144000D02*
D03*
X241500Y152473D02*
D03*
X296500Y133500D02*
D03*
X321000Y168500D02*
D03*
Y165500D02*
D03*
X316500Y131500D02*
D03*
X308000Y157000D02*
D03*
X248500Y212500D02*
D03*
X283000Y215500D02*
D03*
X314975Y149732D02*
D03*
X249000Y167000D02*
D03*
X281000Y210500D02*
D03*
X241000Y196000D02*
D03*
X256500Y206000D02*
D03*
X253500D02*
D03*
X303000Y185000D02*
D03*
X253525Y166732D02*
D03*
X303500Y153500D02*
D03*
X303482Y145500D02*
D03*
X286000Y136000D02*
D03*
X269500Y138500D02*
D03*
X251500Y164500D02*
D03*
X286611Y166682D02*
D03*
X275024Y184998D02*
D03*
X269503Y179432D02*
D03*
X316500Y204000D02*
D03*
X233500Y206000D02*
D03*
X235500Y214500D02*
D03*
X244000Y193000D02*
D03*
X307000Y195000D02*
D03*
X284464Y202257D02*
D03*
X308000Y216000D02*
D03*
X319000D02*
D03*
X242000Y142500D02*
D03*
X274008Y161111D02*
D03*
X274000Y149500D02*
D03*
X298000Y194500D02*
D03*
X296000Y192500D02*
D03*
X294000Y194500D02*
D03*
X291500Y192500D02*
D03*
X287500D02*
D03*
X289500Y194500D02*
D03*
X283500Y192500D02*
D03*
X285500Y194500D02*
D03*
X299000Y177000D02*
D03*
X297000Y179000D02*
D03*
Y183000D02*
D03*
X299000Y181000D02*
D03*
X297500Y172000D02*
D03*
X299500Y170000D02*
D03*
X301500Y168000D02*
D03*
X286000Y149500D02*
D03*
X284000Y151500D02*
D03*
X278000Y153500D02*
D03*
X276000Y151500D02*
D03*
X280000D02*
D03*
X282000Y149500D02*
D03*
X265000D02*
D03*
X263000Y147500D02*
D03*
X261000Y149500D02*
D03*
X257000D02*
D03*
X255000Y151500D02*
D03*
X257000Y153500D02*
D03*
Y157500D02*
D03*
X241500Y169500D02*
D03*
X246500Y175500D02*
D03*
Y171500D02*
D03*
X251500Y173500D02*
D03*
X246500Y164500D02*
D03*
X241500D02*
D03*
X246500Y180500D02*
D03*
X251500D02*
D03*
X34000Y278500D02*
D03*
X24000Y234000D02*
D03*
X52000Y242000D02*
D03*
X40500Y320500D02*
D03*
X37000Y233500D02*
D03*
X42000Y235500D02*
D03*
X32000D02*
D03*
X45000Y260500D02*
D03*
X37000Y249000D02*
D03*
X31500Y257473D02*
D03*
X86500Y238500D02*
D03*
X111000Y273500D02*
D03*
Y270500D02*
D03*
X106500Y236500D02*
D03*
X98000Y262000D02*
D03*
X38500Y317500D02*
D03*
X73000Y320500D02*
D03*
X104975Y254732D02*
D03*
X39000Y272000D02*
D03*
X71000Y315500D02*
D03*
X31000Y301000D02*
D03*
X46500Y311000D02*
D03*
X43500D02*
D03*
X93000Y290000D02*
D03*
X43525Y271732D02*
D03*
X93500Y258500D02*
D03*
X93482Y250500D02*
D03*
X76000Y241000D02*
D03*
X59500Y243500D02*
D03*
X41500Y269500D02*
D03*
X76610Y271682D02*
D03*
X65024Y289998D02*
D03*
X59503Y284432D02*
D03*
X106500Y309000D02*
D03*
X23500Y311000D02*
D03*
X25500Y319500D02*
D03*
X34000Y298000D02*
D03*
X97000Y300000D02*
D03*
X74464Y307257D02*
D03*
X98000Y321000D02*
D03*
X109000D02*
D03*
X32000Y247500D02*
D03*
X64008Y266111D02*
D03*
X64000Y254500D02*
D03*
X88000Y299500D02*
D03*
X86000Y297500D02*
D03*
X84000Y299500D02*
D03*
X81500Y297500D02*
D03*
X77500D02*
D03*
X79500Y299500D02*
D03*
X73500Y297500D02*
D03*
X75500Y299500D02*
D03*
X89000Y282000D02*
D03*
X87000Y284000D02*
D03*
Y288000D02*
D03*
X89000Y286000D02*
D03*
X87500Y277000D02*
D03*
X89500Y275000D02*
D03*
X91500Y273000D02*
D03*
X76000Y254500D02*
D03*
X74000Y256500D02*
D03*
X68000Y258500D02*
D03*
X66000Y256500D02*
D03*
X70000D02*
D03*
X72000Y254500D02*
D03*
X55000D02*
D03*
X53000Y252500D02*
D03*
X51000Y254500D02*
D03*
X47000D02*
D03*
X45000Y256500D02*
D03*
X47000Y258500D02*
D03*
Y262500D02*
D03*
X31500Y274500D02*
D03*
X36500Y280500D02*
D03*
Y276500D02*
D03*
X41500Y278500D02*
D03*
X36500Y269500D02*
D03*
X31500D02*
D03*
X36500Y285500D02*
D03*
X41500D02*
D03*
X139000Y278500D02*
D03*
X129000Y234000D02*
D03*
X157000Y242000D02*
D03*
X145500Y320500D02*
D03*
X142000Y233500D02*
D03*
X147000Y235500D02*
D03*
X137000D02*
D03*
X150000Y260500D02*
D03*
X142000Y249000D02*
D03*
X136500Y257473D02*
D03*
X191500Y238500D02*
D03*
X216000Y273500D02*
D03*
Y270500D02*
D03*
X211500Y236500D02*
D03*
X203000Y262000D02*
D03*
X143500Y317500D02*
D03*
X178000Y320500D02*
D03*
X209975Y254732D02*
D03*
X144000Y272000D02*
D03*
X176000Y315500D02*
D03*
X136000Y301000D02*
D03*
X151500Y311000D02*
D03*
X148500D02*
D03*
X198000Y290000D02*
D03*
X148525Y271732D02*
D03*
X198500Y258500D02*
D03*
X198482Y250500D02*
D03*
X181000Y241000D02*
D03*
X164500Y243500D02*
D03*
X146500Y269500D02*
D03*
X181611Y271682D02*
D03*
X170024Y289998D02*
D03*
X164503Y284432D02*
D03*
X211500Y309000D02*
D03*
X128500Y311000D02*
D03*
X130500Y319500D02*
D03*
X139000Y298000D02*
D03*
X202000Y300000D02*
D03*
X179464Y307257D02*
D03*
X203000Y321000D02*
D03*
X214000D02*
D03*
X137000Y247500D02*
D03*
X169008Y266111D02*
D03*
X169000Y254500D02*
D03*
X193000Y299500D02*
D03*
X191000Y297500D02*
D03*
X189000Y299500D02*
D03*
X186500Y297500D02*
D03*
X182500D02*
D03*
X184500Y299500D02*
D03*
X178500Y297500D02*
D03*
X180500Y299500D02*
D03*
X194000Y282000D02*
D03*
X192000Y284000D02*
D03*
Y288000D02*
D03*
X194000Y286000D02*
D03*
X192500Y277000D02*
D03*
X194500Y275000D02*
D03*
X196500Y273000D02*
D03*
X181000Y254500D02*
D03*
X179000Y256500D02*
D03*
X173000Y258500D02*
D03*
X171000Y256500D02*
D03*
X175000D02*
D03*
X177000Y254500D02*
D03*
X160000D02*
D03*
X158000Y252500D02*
D03*
X156000Y254500D02*
D03*
X152000D02*
D03*
X150000Y256500D02*
D03*
X152000Y258500D02*
D03*
Y262500D02*
D03*
X136500Y274500D02*
D03*
X141500Y280500D02*
D03*
Y276500D02*
D03*
X146500Y278500D02*
D03*
X141500Y269500D02*
D03*
X136500D02*
D03*
X141500Y285500D02*
D03*
X146500D02*
D03*
X244000Y278500D02*
D03*
X234000Y234000D02*
D03*
X262000Y242000D02*
D03*
X250500Y320500D02*
D03*
X247000Y233500D02*
D03*
X252000Y235500D02*
D03*
X242000D02*
D03*
X255000Y260500D02*
D03*
X247000Y249000D02*
D03*
X241500Y257473D02*
D03*
X296500Y238500D02*
D03*
X321000Y273500D02*
D03*
Y270500D02*
D03*
X316500Y236500D02*
D03*
X308000Y262000D02*
D03*
X248500Y317500D02*
D03*
X283000Y320500D02*
D03*
X314975Y254732D02*
D03*
X249000Y272000D02*
D03*
X281000Y315500D02*
D03*
X241000Y301000D02*
D03*
X256500Y311000D02*
D03*
X253500D02*
D03*
X303000Y290000D02*
D03*
X253525Y271732D02*
D03*
X303500Y258500D02*
D03*
X303482Y250500D02*
D03*
X286000Y241000D02*
D03*
X269500Y243500D02*
D03*
X251500Y269500D02*
D03*
X286611Y271682D02*
D03*
X275024Y289998D02*
D03*
X269503Y284432D02*
D03*
X316500Y309000D02*
D03*
X233500Y311000D02*
D03*
X235500Y319500D02*
D03*
X244000Y298000D02*
D03*
X307000Y300000D02*
D03*
X284464Y307257D02*
D03*
X308000Y321000D02*
D03*
X319000D02*
D03*
X242000Y247500D02*
D03*
X274008Y266111D02*
D03*
X274000Y254500D02*
D03*
X298000Y299500D02*
D03*
X296000Y297500D02*
D03*
X294000Y299500D02*
D03*
X291500Y297500D02*
D03*
X287500D02*
D03*
X289500Y299500D02*
D03*
X283500Y297500D02*
D03*
X285500Y299500D02*
D03*
X299000Y282000D02*
D03*
X297000Y284000D02*
D03*
Y288000D02*
D03*
X299000Y286000D02*
D03*
X297500Y277000D02*
D03*
X299500Y275000D02*
D03*
X301500Y273000D02*
D03*
X286000Y254500D02*
D03*
X284000Y256500D02*
D03*
X278000Y258500D02*
D03*
X276000Y256500D02*
D03*
X280000D02*
D03*
X282000Y254500D02*
D03*
X265000D02*
D03*
X263000Y252500D02*
D03*
X261000Y254500D02*
D03*
X257000D02*
D03*
X255000Y256500D02*
D03*
X257000Y258500D02*
D03*
Y262500D02*
D03*
X241500Y274500D02*
D03*
X246500Y280500D02*
D03*
Y276500D02*
D03*
X251500Y278500D02*
D03*
X246500Y269500D02*
D03*
X241500D02*
D03*
X246500Y285500D02*
D03*
X251500D02*
D03*
D45*
X80000Y105500D02*
D03*
X92500Y69500D02*
D03*
X105500Y81000D02*
D03*
X103500Y31000D02*
D03*
X72500Y28000D02*
D03*
X31500Y70500D02*
D03*
X40000Y96500D02*
D03*
X98500Y64500D02*
D03*
X84500Y55000D02*
D03*
X109000Y56500D02*
D03*
X90000Y83000D02*
D03*
X58500Y50500D02*
D03*
X70500Y87500D02*
D03*
X67500D02*
D03*
X64500D02*
D03*
X56500Y81000D02*
D03*
X54500Y83000D02*
D03*
X70500Y76000D02*
D03*
X64500D02*
D03*
X76000Y64500D02*
D03*
Y70500D02*
D03*
X64437Y58948D02*
D03*
X70437D02*
D03*
X59000Y64500D02*
D03*
Y70500D02*
D03*
X109000Y99000D02*
D03*
X47500Y91000D02*
D03*
Y88500D02*
D03*
X72818Y95682D02*
D03*
X185000Y105500D02*
D03*
X197500Y69500D02*
D03*
X210500Y81000D02*
D03*
X208500Y31000D02*
D03*
X177500Y28000D02*
D03*
X136500Y70500D02*
D03*
X145000Y96500D02*
D03*
X203500Y64500D02*
D03*
X189500Y55000D02*
D03*
X214000Y56500D02*
D03*
X195000Y83000D02*
D03*
X163500Y50500D02*
D03*
X175500Y87500D02*
D03*
X172500D02*
D03*
X169500D02*
D03*
X161500Y81000D02*
D03*
X159500Y83000D02*
D03*
X175500Y76000D02*
D03*
X169500D02*
D03*
X181000Y64500D02*
D03*
Y70500D02*
D03*
X169437Y58948D02*
D03*
X175437D02*
D03*
X164000Y64500D02*
D03*
Y70500D02*
D03*
X214000Y99000D02*
D03*
X152500Y91000D02*
D03*
Y88500D02*
D03*
X177818Y95682D02*
D03*
X290000Y105500D02*
D03*
X302500Y69500D02*
D03*
X315500Y81000D02*
D03*
X313500Y31000D02*
D03*
X282500Y28000D02*
D03*
X241500Y70500D02*
D03*
X250000Y96500D02*
D03*
X308500Y64500D02*
D03*
X294500Y55000D02*
D03*
X319000Y56500D02*
D03*
X300000Y83000D02*
D03*
X268500Y50500D02*
D03*
X280500Y87500D02*
D03*
X277500D02*
D03*
X274500D02*
D03*
X266500Y81000D02*
D03*
X264500Y83000D02*
D03*
X280500Y76000D02*
D03*
X274500D02*
D03*
X286000Y64500D02*
D03*
Y70500D02*
D03*
X274437Y58948D02*
D03*
X280437D02*
D03*
X269000Y64500D02*
D03*
Y70500D02*
D03*
X319000Y99000D02*
D03*
X257500Y91000D02*
D03*
Y88500D02*
D03*
X282818Y95682D02*
D03*
X80000Y210500D02*
D03*
X92500Y174500D02*
D03*
X105500Y186000D02*
D03*
X103500Y136000D02*
D03*
X72500Y133000D02*
D03*
X31500Y175500D02*
D03*
X40000Y201500D02*
D03*
X98500Y169500D02*
D03*
X84500Y160000D02*
D03*
X109000Y161500D02*
D03*
X90000Y188000D02*
D03*
X58500Y155500D02*
D03*
X70500Y192500D02*
D03*
X67500D02*
D03*
X64500D02*
D03*
X56500Y186000D02*
D03*
X54500Y188000D02*
D03*
X70500Y181000D02*
D03*
X64500D02*
D03*
X76000Y169500D02*
D03*
Y175500D02*
D03*
X64437Y163948D02*
D03*
X70437D02*
D03*
X59000Y169500D02*
D03*
Y175500D02*
D03*
X109000Y204000D02*
D03*
X47500Y196000D02*
D03*
Y193500D02*
D03*
X72818Y200682D02*
D03*
X185000Y210500D02*
D03*
X197500Y174500D02*
D03*
X210500Y186000D02*
D03*
X208500Y136000D02*
D03*
X177500Y133000D02*
D03*
X136500Y175500D02*
D03*
X145000Y201500D02*
D03*
X203500Y169500D02*
D03*
X189500Y160000D02*
D03*
X214000Y161500D02*
D03*
X195000Y188000D02*
D03*
X163500Y155500D02*
D03*
X175500Y192500D02*
D03*
X172500D02*
D03*
X169500D02*
D03*
X161500Y186000D02*
D03*
X159500Y188000D02*
D03*
X175500Y181000D02*
D03*
X169500D02*
D03*
X181000Y169500D02*
D03*
Y175500D02*
D03*
X169437Y163948D02*
D03*
X175437D02*
D03*
X164000Y169500D02*
D03*
Y175500D02*
D03*
X214000Y204000D02*
D03*
X152500Y196000D02*
D03*
Y193500D02*
D03*
X177818Y200682D02*
D03*
X290000Y210500D02*
D03*
X302500Y174500D02*
D03*
X315500Y186000D02*
D03*
X313500Y136000D02*
D03*
X282500Y133000D02*
D03*
X241500Y175500D02*
D03*
X250000Y201500D02*
D03*
X308500Y169500D02*
D03*
X294500Y160000D02*
D03*
X319000Y161500D02*
D03*
X300000Y188000D02*
D03*
X268500Y155500D02*
D03*
X280500Y192500D02*
D03*
X277500D02*
D03*
X274500D02*
D03*
X266500Y186000D02*
D03*
X264500Y188000D02*
D03*
X280500Y181000D02*
D03*
X274500D02*
D03*
X286000Y169500D02*
D03*
Y175500D02*
D03*
X274437Y163948D02*
D03*
X280437D02*
D03*
X269000Y169500D02*
D03*
Y175500D02*
D03*
X319000Y204000D02*
D03*
X257500Y196000D02*
D03*
Y193500D02*
D03*
X282818Y200682D02*
D03*
X80000Y315500D02*
D03*
X92500Y279500D02*
D03*
X105500Y291000D02*
D03*
X103500Y241000D02*
D03*
X72500Y238000D02*
D03*
X31500Y280500D02*
D03*
X40000Y306500D02*
D03*
X98500Y274500D02*
D03*
X84500Y265000D02*
D03*
X109000Y266500D02*
D03*
X90000Y293000D02*
D03*
X58500Y260500D02*
D03*
X70500Y297500D02*
D03*
X67500D02*
D03*
X64500D02*
D03*
X56500Y291000D02*
D03*
X54500Y293000D02*
D03*
X70500Y286000D02*
D03*
X64500D02*
D03*
X76000Y274500D02*
D03*
Y280500D02*
D03*
X64437Y268948D02*
D03*
X70437D02*
D03*
X59000Y274500D02*
D03*
Y280500D02*
D03*
X109000Y309000D02*
D03*
X47500Y301000D02*
D03*
Y298500D02*
D03*
X72818Y305682D02*
D03*
X185000Y315500D02*
D03*
X197500Y279500D02*
D03*
X210500Y291000D02*
D03*
X208500Y241000D02*
D03*
X177500Y238000D02*
D03*
X136500Y280500D02*
D03*
X145000Y306500D02*
D03*
X203500Y274500D02*
D03*
X189500Y265000D02*
D03*
X214000Y266500D02*
D03*
X195000Y293000D02*
D03*
X163500Y260500D02*
D03*
X175500Y297500D02*
D03*
X172500D02*
D03*
X169500D02*
D03*
X161500Y291000D02*
D03*
X159500Y293000D02*
D03*
X175500Y286000D02*
D03*
X169500D02*
D03*
X181000Y274500D02*
D03*
Y280500D02*
D03*
X169437Y268948D02*
D03*
X175437D02*
D03*
X164000Y274500D02*
D03*
Y280500D02*
D03*
X214000Y309000D02*
D03*
X152500Y301000D02*
D03*
Y298500D02*
D03*
X177818Y305682D02*
D03*
X290000Y315500D02*
D03*
X302500Y279500D02*
D03*
X315500Y291000D02*
D03*
X313500Y241000D02*
D03*
X282500Y238000D02*
D03*
X241500Y280500D02*
D03*
X250000Y306500D02*
D03*
X308500Y274500D02*
D03*
X294500Y265000D02*
D03*
X319000Y266500D02*
D03*
X300000Y293000D02*
D03*
X268500Y260500D02*
D03*
X280500Y297500D02*
D03*
X277500D02*
D03*
X274500D02*
D03*
X266500Y291000D02*
D03*
X264500Y293000D02*
D03*
X280500Y286000D02*
D03*
X274500D02*
D03*
X286000Y274500D02*
D03*
Y280500D02*
D03*
X274437Y268948D02*
D03*
X280437D02*
D03*
X269000Y274500D02*
D03*
Y280500D02*
D03*
X319000Y309000D02*
D03*
X257500Y301000D02*
D03*
Y298500D02*
D03*
X282818Y305682D02*
D03*
M02*
