M48
;Layer_Color=9474304
;FILE_FORMAT=2:4
INCH,TZ
;TYPE=PLATED
T1F00S00C0.0080
T2F00S00C0.0300
;TYPE=NON_PLATED
T3F00S00C0.0390
%
T01
X2400Y2400
X3200Y2550
X3700Y2350
X4200Y2550
X7250Y2800
X7600Y3100
X8650Y2850
X10350Y3100
X10650Y2650
X12900Y2400
X13700Y2550
X14200Y2350
X14700Y2550
X17750Y2800
X18100Y3100
X19150Y2850
X20850Y3100
X21150Y2650
X23400Y2400
X24200Y2550
X24700Y2350
X25200Y2550
X28250Y2800
X28600Y3100
X29650Y2850
X31350Y3100
X31650Y2650
X31498Y4473
X30800Y5200
X30350Y4850
X30348Y4050
X28600Y4450
X28400Y4650
X28000
X27800Y4850
X27600Y4650
X27400Y4450
X28200
X28044Y5895
X27444
X27401Y5611
X26850Y5050
X26500Y4450
X26300Y4250
X26100Y4450
X25700
X25500Y4650
Y5050
X25700Y4850
Y5250
X25150Y5950
X25353Y6173
X24900Y6200
X24650Y5950
X24150
Y6450
Y7050
X24400Y6850
X24650Y7050
Y6650
X25150Y6850
Y7550
X24650
X24400Y8800
X24100Y9100
X25000Y9650
X25350Y10100
X25650
X25750Y9100
Y8850
X26450Y8300
X26650Y8100
X27502Y8000
X27450Y7600
X28050
X28600Y7050
Y6450
X28661Y6168
X29450Y5500
X29750Y6700
X29950Y6500
X30150Y6300
X30250Y6950
X29900Y7200
X29700Y7400
Y7800
X29900Y7600
X30000Y8300
X30300Y8000
X31550Y8100
X30700Y9000
X29800Y8950
X29600Y8750
X29400Y8950
X29150Y8750
X28750
X28950Y8950
X28550
X28350Y8750
X28050
X27750
X27450
X28282Y9568
X28446Y9726
X28100Y10550
X28300Y11050
X29000Y10550
X30800Y11100
X31900
Y9900
X31650
Y13150
X31350Y13600
X31498Y14973
X30800Y15700
X30350Y15350
X30348Y14550
X29650Y13350
X28600Y13600
X28250Y13300
X28200Y14950
X28600
X28400Y15150
X28000
X27800Y15350
X27600Y15150
X27400Y14950
X26500
X26300Y14750
X26100Y14950
X25700
X25500Y15150
Y15550
X25700Y15350
Y15750
X25150Y16450
X25353Y16673
X24900Y16700
X24650Y16450
X24150
Y16950
Y17550
X24400Y17350
X24650Y17550
Y17150
X25150Y17350
Y18050
X24650
X26950Y17943
X26900Y17550
Y16950
X27444Y16395
X27401Y16111
X28044Y16395
X28661Y16668
X28600Y16950
Y17550
X28050Y18100
X27450
X27502Y18500
X26650Y18600
X26850Y15550
X26950Y13850
X26200Y13700
X25200Y13050
X24700Y12850
X24200Y13050
X23400Y12900
X23550Y10950
X24850Y10750
X25050Y11050
X24700Y14400
X24200Y14250
X24150Y15247
X29450Y16000
X29750Y17200
X29950Y17000
X30150Y16800
X30250Y17450
X29900Y17700
X29700Y17900
Y18300
X29900Y18100
X30300Y18500
X31550Y18600
X32100Y16850
Y16550
X31900Y16150
X30850Y16950
Y6450
X32100Y6350
Y6050
X31900Y5650
X26900Y6450
Y7050
X26950Y7443
X26950Y3350
X26200Y3200
X24700Y3900
X24200Y3750
X24150Y4747
X20998Y4473
X20300Y5200
X19850Y4850
X19848Y4050
X18100Y4450
X17900Y4650
X17500
X17300Y4850
X17100Y4650
X16900Y4450
X17700
X17544Y5895
X16944
X16901Y5611
X16350Y5050
X16000Y4450
X15800Y4250
X15600Y4450
X15200
X15000Y4650
Y5050
X15200Y4850
Y5250
X14650Y5950
X14852Y6173
X14400Y6200
X14150Y5950
X13650
Y6450
Y7050
X13900Y6850
X14150Y7050
Y6650
X14650Y6850
Y7550
X14150
X13900Y8800
X13600Y9100
X14500Y9650
X14850Y10100
X15150
X15250Y9100
Y8850
X15950Y8300
X16150Y8100
X17002Y8000
X16950Y7600
X17550
X18100Y7050
Y6450
X18161Y6168
X18950Y5500
X19250Y6700
X19450Y6500
X19650Y6300
X19750Y6950
X19400Y7200
X19200Y7400
Y7800
X19400Y7600
X19500Y8300
X19800Y8000
X21050Y8100
X20200Y9000
X19300Y8950
X19100Y8750
X18900Y8950
X18650Y8750
X18250
X18450Y8950
X18050
X17850Y8750
X17550
X17250
X16950
X17782Y9568
X17946Y9726
X17600Y10550
X17800Y11050
X18500Y10550
X20300Y11100
X21400
Y9900
X21150
X23350Y10100
X21150Y13150
X20850Y13600
X20998Y14973
X20300Y15700
X19850Y15350
X19848Y14550
X19150Y13350
X18100Y13600
X17750Y13300
X17700Y14950
X18100
X17900Y15150
X17500
X17300Y15350
X17100Y15150
X16900Y14950
X16000
X15800Y14750
X15600Y14950
X15200
X15000Y15150
Y15550
X15200Y15350
Y15750
X14650Y16450
X14852Y16673
X14400Y16700
X14150Y16450
X13650
Y16950
Y17550
X13900Y17350
X14150Y17550
Y17150
X14650Y17350
Y18050
X14150
X16450Y17943
X16400Y17550
Y16950
X16944Y16395
X16901Y16111
X17544Y16395
X18161Y16668
X18100Y16950
Y17550
X17550Y18100
X16950
X17002Y18500
X16150Y18600
X16350Y15550
X16450Y13850
X15700Y13700
X14700Y13050
X14200Y12850
X13700Y13050
X12900Y12900
X13050Y10950
X12850Y10100
X14350Y10750
X14550Y11050
X10900Y11100
X9800
X10650Y9900
X10900
X9700Y9000
X8800Y8950
X8600Y8750
X8400Y8950
X8150Y8750
X7750
X7950Y8950
X8000Y10550
X9000Y8300
X9300Y8000
X8700Y7800
Y7400
X8900Y7200
Y7600
X9250Y6950
X8750Y6700
X8950Y6500
X9150Y6300
X9850Y6450
X9800Y5200
X9350Y4850
X9348Y4050
X10497Y4473
X10900Y5650
X11100Y6050
Y6350
X10550Y8100
X8450Y5500
X13650Y4747
X13700Y3750
X14200Y3900
X15700Y3200
X16450Y3350
X16400Y6450
Y7050
X16450Y7443
X20350Y6450
X21600Y6350
Y6050
X21400Y5650
Y16150
X21600Y16550
Y16850
X20350Y16950
X19650Y16800
X19450Y17000
X19250Y17200
X19400Y17700
X19200Y17900
Y18300
X19400Y18100
X19800Y18500
X19750Y17450
X18950Y16000
X21050Y18600
X10550
X9300Y18500
X8700Y18300
Y17900
X8900Y17700
Y18100
X9250Y17450
X8750Y17200
X8950Y17000
X9150Y16800
X9850Y16950
X9800Y15700
X9350Y15350
X9348Y14550
X10497Y14973
X10350Y13600
X10650Y13150
X8650Y13350
X8450Y16000
X10900Y16150
X11100Y16550
Y16850
X13650Y15247
X13700Y14250
X14200Y14400
X7600Y14950
X7400Y15150
X7000
X6800Y15350
X6600Y15150
X6400Y14950
X7200
X7044Y16395
X6444
X6401Y16111
X5850Y15550
X5500Y14950
X5300Y14750
X5100Y14950
X4700
X4500Y15150
Y15550
X4700Y15350
Y15750
X4150Y16450
X4353Y16673
X3900Y16700
X3650Y16450
X3150
Y16950
Y17550
X3400Y17350
X3650Y17550
Y17150
X4150Y17350
Y18050
X3650
X5950Y17943
X5900Y17550
Y16950
X6450Y18100
X6502Y18500
X7050Y18100
X7600Y17550
Y16950
X7661Y16668
X7600Y13600
X7250Y13300
X5950Y13850
X5200Y13700
X4200Y13050
X3700Y12850
X3200Y13050
X2400Y12900
X2550Y10950
X2350Y10100
X3100Y9100
X3400Y8800
X4750Y8850
Y9100
X4650Y10100
X4350
X4000Y9650
X3850Y10750
X4050Y11050
X7300
X7100Y10550
X7282Y9568
X7446Y9726
X7550Y8950
X7350Y8750
X7050
X6750
X6450
X6502Y8000
X6450Y7600
X7050
X7600Y7050
Y6450
X7661Y6168
X7044Y5895
X6444
X6401Y5611
X5850Y5050
X5500Y4450
X5300Y4250
X5100Y4450
X4700
X4500Y4650
Y5050
X4700Y4850
Y5250
X4150Y5950
X4353Y6173
X3900Y6200
X3650Y5950
X3150
Y6450
Y7050
X3400Y6850
X3650Y7050
Y6650
X4150Y6850
Y7550
X3650
X5950Y7443
X5900Y7050
Y6450
X5650Y8100
X5450Y8300
X6400Y4450
X6600Y4650
X6800Y4850
X7000Y4650
X7400
X7600Y4450
X7200
X5950Y3350
X5200Y3200
X3700Y3900
X3200Y3750
X3150Y4747
X3200Y14250
X3700Y14400
X3150Y15247
X5650Y18600
X5450Y18800
X4750Y19350
Y19600
X4650Y20600
X4350
X4000Y20150
X3850Y21250
X4050Y21550
X2550Y21450
X2350Y20600
X3100Y19600
X3400Y19300
X6450Y19250
X6750
X7050
X7350
X7550Y19450
X7446Y20226
X7282Y20068
X7100Y21050
X7300Y21550
X7250Y23800
X7600Y24100
Y25450
X7400Y25650
X7000
X6800Y25850
X6600Y25650
X6400Y25450
X7200
X7044Y26895
X6444
X6401Y26611
X5850Y26050
X5500Y25450
X5300Y25250
X5100Y25450
X4700
X4500Y25650
Y26050
X4700Y25850
Y26250
X4150Y26950
X4353Y27173
X3900Y27200
X3650Y26950
X3150
Y27450
Y28050
X3400Y27850
X3650Y28050
Y27650
X4150Y27850
Y28550
X3650
X3400Y29800
X3100Y30100
X4000Y30650
X4350Y31100
X4650
X4750Y30100
Y29850
X5450Y29300
X5650Y29100
X6502Y29000
X6450Y28600
X7050
X7600Y28050
Y27450
X7661Y27168
X5900Y27450
Y28050
X5950Y28443
X6450Y29750
X6750
X7050
X7350
X7550Y29950
X7446Y30726
X7282Y30568
X7100Y31550
X7300Y32050
X4050
X3850Y31750
X2550Y31950
X2350Y31100
X3150Y25747
X3200Y24750
X3700Y24900
Y23350
X4200Y23550
X3200
X2400Y23400
X5200Y24200
X5950Y24350
X8650Y23850
X9348Y25050
X9350Y25850
X9800Y26200
X9850Y27450
X9150Y27300
X8950Y27500
X8750Y27700
X8900Y28200
X8700Y28400
Y28800
X8900Y28600
X9000Y29300
X9300Y29000
X9250Y27950
X8450Y26500
X10900Y26650
X11100Y27050
Y27350
X10550Y29100
X9700Y30000
X8800Y29950
X8600Y29750
X8400Y29950
X8150Y29750
X7750
X7950Y29950
X8000Y31550
X9800Y32100
X10900
Y30900
X10650
X12850Y31100
X13050Y31950
X14350Y31750
X14550Y32050
X14850Y31100
X15150
X14500Y30650
X15250Y30100
Y29850
X15950Y29300
X16150Y29100
X17002Y29000
X16950Y28600
X17550
X18100Y28050
Y27450
X18161Y27168
X17544Y26895
X16944
X16901Y26611
X16350Y26050
X16000Y25450
X15800Y25250
X15600Y25450
X15200
X15000Y25650
Y26050
X15200Y25850
Y26250
X14650Y26950
X14852Y27173
X14400Y27200
X14150Y26950
X13650
Y27450
Y28050
X13900Y27850
X14150Y28050
Y27650
X14650Y27850
Y28550
X14150
X13900Y29800
X13600Y30100
X16950Y29750
X17250
X17550
X17850
X18250
X18650
X18450Y29950
X18050
X18900
X19300
X19100Y29750
X19500Y29300
X19800Y29000
X19200Y28800
Y28400
X19400Y28200
Y28600
X19750Y27950
X19250Y27700
X19450Y27500
X19650Y27300
X20350Y27450
X20300Y26200
X19850Y25850
X19848Y25050
X20998Y25473
X20850Y24100
X21150Y23650
X19150Y23850
X18100Y24100
X17750Y23800
X17700Y25450
X18100
X17900Y25650
X17500
X17300Y25850
X17100Y25650
X16900Y25450
X16450Y24350
X15700Y24200
X14700Y23550
X14200Y23350
X13700Y23550
X12900Y23400
X13050Y21450
X12850Y20600
X13600Y19600
X13900Y19300
X15250Y19350
Y19600
X15150Y20600
X14850
X14500Y20150
X14350Y21250
X14550Y21550
X17800
X17600Y21050
X18500
X17946Y20226
X17782Y20068
X17850Y19250
X17550
X17250
X16950
X18250
X18650
X18450Y19450
X18050
X18900
X19300
X19100Y19250
X19500Y18800
X20200Y19500
X21150Y20400
X21400
Y21600
X20300
X23350Y20600
X21400Y26650
X21600Y27050
Y27350
X21050Y29100
X20200Y30000
X21150Y30900
X21400
Y32100
X20300
X18500Y31550
X17600
X17800Y32050
X17946Y30726
X17782Y30568
X16450Y28443
X16400Y28050
Y27450
X18950Y26500
X13650Y25747
X13700Y24750
X14200Y24900
X10497Y25473
X10350Y24100
X10650Y23650
X10900Y21600
X9800
X10650Y20400
X10900
X9700Y19500
X8800Y19450
X8600Y19250
X8400Y19450
X8150Y19250
X7750
X7950Y19450
X8000Y21050
X9000Y18800
X15950
X23350Y31100
X23550Y31950
X24850Y31750
X25050Y32050
X25350Y31100
X25650
X25000Y30650
X25750Y30100
Y29850
X26450Y29300
X26650Y29100
X27502Y29000
X27450Y28600
X28050
X28600Y28050
Y27450
X28661Y27168
X28044Y26895
X27444
X27401Y26611
X26850Y26050
X26500Y25450
X26300Y25250
X26100Y25450
X25700
X25500Y25650
Y26050
X25700Y25850
Y26250
X25150Y26950
X25353Y27173
X24900Y27200
X24650Y26950
X24150
Y27450
Y28050
X24400Y27850
X24650Y28050
Y27650
X25150Y27850
Y28550
X24650
X24400Y29800
X24100Y30100
X27450Y29750
X27750
X28050
X28350
X28750
X29150
X28950Y29950
X28550
X29400
X29800
X29600Y29750
X30000Y29300
X30300Y29000
X29700Y28800
Y28400
X29900Y28200
Y28600
X30250Y27950
X29750Y27700
X29950Y27500
X30150Y27300
X30850Y27450
X30800Y26200
X30350Y25850
X30348Y25050
X31498Y25473
X31350Y24100
X31650Y23650
X29650Y23850
X28600Y24100
X28250Y23800
X28200Y25450
X28600
X28400Y25650
X28000
X27800Y25850
X27600Y25650
X27400Y25450
X26950Y24350
X26200Y24200
X25200Y23550
X24700Y23350
X24200Y23550
X23400Y23400
X23550Y21450
X24850Y21250
X25050Y21550
X25350Y20600
X25650
X25000Y20150
X25750Y19600
Y19350
X26450Y18800
X27450Y19250
X27750
X28050
X28350
X28750
X29150
X28950Y19450
X28550
X29400
X29800
X29600Y19250
X30000Y18800
X30700Y19500
X31650Y20400
X31900
Y21600
X30800
X29000Y21050
X28100
X28300Y21550
X28446Y20226
X28282Y20068
X24100Y19600
X24400Y19300
X24200Y24750
X24700Y24900
X24150Y25747
X26900Y27450
Y28050
X26950Y28443
X28282Y30568
X28446Y30726
X28100Y31550
X28300Y32050
X29000Y31550
X30800Y32100
X31900
Y30900
X31650
X30700Y30000
X31550Y29100
X32100Y27350
Y27050
X31900Y26650
X29450Y26500
T02
X3150Y1750
X3950
X4750
X5550
X6350
X7150
X7950
X8750
X9550
X10350
X13650
X14450
X15250
X16050
X16850
X17650
X18450
X19250
X20050
X20850
X24150
X24950
X25750
X26550
X27350
X28150
X28950
X29750
X30550
X31350
X32750Y3150
Y3950
Y4750
Y5550
Y6350
Y7150
Y7950
Y8750
Y9550
Y10350
X31350Y11750
Y12250
X30550
Y11750
X29750
Y12250
X28950
Y11750
X28150
Y12250
X27350
Y11750
X26550
Y12250
X25750
Y11750
X24950
Y12250
X24150
Y11750
X32750Y13650
Y14450
Y15250
Y16050
Y16850
Y17650
Y18450
X22750
X22250
Y17650
X22750
Y16850
X22250
Y16050
X22750
Y15250
X22250
Y14450
X22750
Y13650
X22250
X20850Y12250
Y11750
X20050
Y12250
X19250
Y11750
X18450
Y12250
X17650
Y11750
X16850
Y12250
X16050
Y11750
X15250
Y12250
X14450
Y11750
X13650
Y12250
X12250Y13650
X11750
Y14450
X12250
Y15250
X11750
Y16050
X12250
Y16850
X11750
Y17650
X12250
Y18450
X11750
X10350Y12250
Y11750
X9550
Y12250
X8750
Y11750
X7950
Y12250
X11750Y10350
X12250
Y9550
X11750
Y8750
X12250
Y7950
X11750
Y7150
X12250
Y6350
X11750
Y5550
X12250
Y4750
X11750
Y3950
X12250
Y3150
X11750
X22250
X22750
Y3950
X22250
Y4750
X22750
Y5550
X22250
Y6350
X22750
Y7150
X22250
Y7950
X22750
Y8750
X22250
Y9550
X22750
Y10350
X22250
X7150Y11750
Y12250
X6350
Y11750
X5550
Y12250
X4750
Y11750
X3950
Y12250
X3150
Y11750
X1750Y10350
Y9550
Y8750
Y7950
Y7150
Y6350
Y5550
Y4750
Y3950
Y3150
Y13650
Y14450
Y15250
Y16050
Y16850
Y17650
Y18450
Y19250
Y20050
Y20850
X3150Y22250
Y22750
X3950
Y22250
X4750
Y22750
X5550
Y22250
X6350
Y22750
X7150
Y22250
X1750Y24150
Y24950
Y25750
Y26550
Y27350
Y28150
Y28950
Y29750
Y30550
Y31350
X3150Y32750
X3950
X4750
X5550
X6350
X7150
X7950
X8750
X9550
X10350
X11750Y31350
X12250
Y30550
X11750
Y29750
X12250
Y28950
X11750
Y28150
X12250
Y27350
X11750
Y26550
X12250
Y25750
X11750
Y24950
X12250
Y24150
X11750
X10350Y22750
Y22250
X9550
Y22750
X8750
Y22250
X7950
Y22750
X11750Y20850
X12250
Y20050
X11750
Y19250
X12250
X13650Y22250
Y22750
X14450
Y22250
X15250
Y22750
X16050
Y22250
X16850
Y22750
X17650
Y22250
X18450
Y22750
X19250
Y22250
X20050
Y22750
X20850
Y22250
X22250Y20850
X22750
Y20050
X22250
Y19250
X22750
Y24150
X22250
Y24950
X22750
Y25750
X22250
Y26550
X22750
Y27350
X22250
Y28150
X22750
Y28950
X22250
Y29750
X22750
Y30550
X22250
Y31350
X22750
X20850Y32750
X20050
X19250
X18450
X17650
X16850
X16050
X15250
X14450
X13650
X24150
X24950
X25750
X26550
X27350
X28150
X28950
X29750
X30550
X31350
X32750Y31350
Y30550
Y29750
Y28950
Y28150
Y27350
Y26550
Y25750
Y24950
Y24150
X31350Y22750
Y22250
X30550
Y22750
X29750
Y22250
X28950
Y22750
X28150
Y22250
X27350
Y22750
X26550
Y22250
X25750
Y22750
X24950
Y22250
X24150
Y22750
X32750Y20850
Y20050
Y19250
T03
X2700Y2750
X13200
X23700
Y3550
X25700Y3150
Y13650
X23700Y13250
Y14050
X15200Y13650
X13200Y13250
Y14050
Y3550
X15200Y3150
X4700
X2700Y3550
Y13250
Y14050
X4700Y13650
Y24150
X2700Y23750
Y24550
X13200
Y23750
X15200Y24150
X23700Y23750
Y24550
X25700Y24150
M30
